<svg xmlns="http://www.w3.org/2000/svg" width="3950" height="1640" viewBox="0 0 3950 1640">

<style>
  text { font-family: -apple-system, BlinkMacSystemFont, "Segoe UI", sans-serif; fill: #111827; }
  .title { font-size: 24px; font-weight: 700; }
  .subtitle { font-size: 13px; fill: #4b5563; }
  .panel-title { font-size: 16px; font-weight: 700; }
  .axis-label { font-size: 11px; fill: #4b5563; }
  .shape-label { font-size: 10px; fill: #374151; }
  .axis { stroke: #111827; stroke-width: 1; }
  .grid { stroke: #e5e7eb; stroke-width: 1; }
  .legend { font-size: 13px; }
</style>

<rect x="0" y="0" width="100%" height="100%" fill="#ffffff"/>
<text x="40" y="42" class="title">SGEMM/DGEMM/CGEMM/ZGEMM Performance Sweep: Zynum vs Accelerate vs OpenBLAS</text>
<text x="40" y="66" class="subtitle">Higher is better. Shapes are ordered by m*n*k so smaller cases stay at the front. Median-time GF/s across square, remainder, skinny, wide, and K-varied column-major GEMM shapes</text>
<line x1="1180" y1="38" x2="1212" y2="38" stroke="#2563eb" stroke-width="3"/>
<text x="1220" y="42" class="legend">Zynum</text>
<line x1="1325" y1="38" x2="1357" y2="38" stroke="#dc2626" stroke-width="3"/>
<text x="1365" y="42" class="legend">Accelerate</text>
<line x1="1470" y1="38" x2="1502" y2="38" stroke="#16a34a" stroke-width="3"/>
<text x="1510" y="42" class="legend">OpenBLAS</text>
<text x="110" y="92" class="panel-title">SGEMM GF/s</text>
<line x1="110" y1="370.0" x2="3890" y2="370.0" class="grid"/>
<text x="100" y="374.0" text-anchor="end" class="axis-label">0</text>
<line x1="110" y1="305.0" x2="3890" y2="305.0" class="grid"/>
<text x="100" y="309.0" text-anchor="end" class="axis-label">500</text>
<line x1="110" y1="240.0" x2="3890" y2="240.0" class="grid"/>
<text x="100" y="244.0" text-anchor="end" class="axis-label">1000</text>
<line x1="110" y1="175.0" x2="3890" y2="175.0" class="grid"/>
<text x="100" y="179.0" text-anchor="end" class="axis-label">1500</text>
<line x1="110" y1="110.0" x2="3890" y2="110.0" class="grid"/>
<text x="100" y="114.0" text-anchor="end" class="axis-label">2000</text>
<line x1="110" y1="110" x2="110" y2="370" class="axis"/>
<line x1="110" y1="370" x2="3890" y2="370" class="axis"/>
<polyline points="110.0,370.0 202.2,369.3 294.4,364.4 386.6,363.7 478.8,364.4 571.0,363.6 663.2,330.1 755.4,360.6 847.6,361.6 939.8,301.0 1032.0,348.4 1124.1,329.3 1216.3,291.8 1308.5,302.3 1400.7,268.9 1492.9,359.7 1585.1,262.1 1677.3,272.4 1769.5,255.1 1861.7,225.6 1953.9,296.1 2046.1,218.6 2138.3,201.1 2230.5,247.9 2322.7,237.7 2414.9,204.2 2507.1,225.5 2599.3,241.3 2691.5,253.2 2783.7,254.7 2875.9,209.7 2968.0,220.7 3060.2,201.3 3152.4,214.0 3244.6,206.6 3336.8,229.3 3429.0,167.5 3521.2,204.5 3613.4,214.5 3705.6,179.4 3797.8,152.5 3890.0,210.9" fill="none" stroke="#2563eb" stroke-width="2.4"/>
<circle cx="110.0" cy="370.0" r="2.4" fill="#2563eb"/>
<circle cx="202.2" cy="369.3" r="2.4" fill="#2563eb"/>
<circle cx="294.4" cy="364.4" r="2.4" fill="#2563eb"/>
<circle cx="386.6" cy="363.7" r="2.4" fill="#2563eb"/>
<circle cx="478.8" cy="364.4" r="2.4" fill="#2563eb"/>
<circle cx="571.0" cy="363.6" r="2.4" fill="#2563eb"/>
<circle cx="663.2" cy="330.1" r="2.4" fill="#2563eb"/>
<circle cx="755.4" cy="360.6" r="2.4" fill="#2563eb"/>
<circle cx="847.6" cy="361.6" r="2.4" fill="#2563eb"/>
<circle cx="939.8" cy="301.0" r="2.4" fill="#2563eb"/>
<circle cx="1032.0" cy="348.4" r="2.4" fill="#2563eb"/>
<circle cx="1124.1" cy="329.3" r="2.4" fill="#2563eb"/>
<circle cx="1216.3" cy="291.8" r="2.4" fill="#2563eb"/>
<circle cx="1308.5" cy="302.3" r="2.4" fill="#2563eb"/>
<circle cx="1400.7" cy="268.9" r="2.4" fill="#2563eb"/>
<circle cx="1492.9" cy="359.7" r="2.4" fill="#2563eb"/>
<circle cx="1585.1" cy="262.1" r="2.4" fill="#2563eb"/>
<circle cx="1677.3" cy="272.4" r="2.4" fill="#2563eb"/>
<circle cx="1769.5" cy="255.1" r="2.4" fill="#2563eb"/>
<circle cx="1861.7" cy="225.6" r="2.4" fill="#2563eb"/>
<circle cx="1953.9" cy="296.1" r="2.4" fill="#2563eb"/>
<circle cx="2046.1" cy="218.6" r="2.4" fill="#2563eb"/>
<circle cx="2138.3" cy="201.1" r="2.4" fill="#2563eb"/>
<circle cx="2230.5" cy="247.9" r="2.4" fill="#2563eb"/>
<circle cx="2322.7" cy="237.7" r="2.4" fill="#2563eb"/>
<circle cx="2414.9" cy="204.2" r="2.4" fill="#2563eb"/>
<circle cx="2507.1" cy="225.5" r="2.4" fill="#2563eb"/>
<circle cx="2599.3" cy="241.3" r="2.4" fill="#2563eb"/>
<circle cx="2691.5" cy="253.2" r="2.4" fill="#2563eb"/>
<circle cx="2783.7" cy="254.7" r="2.4" fill="#2563eb"/>
<circle cx="2875.9" cy="209.7" r="2.4" fill="#2563eb"/>
<circle cx="2968.0" cy="220.7" r="2.4" fill="#2563eb"/>
<circle cx="3060.2" cy="201.3" r="2.4" fill="#2563eb"/>
<circle cx="3152.4" cy="214.0" r="2.4" fill="#2563eb"/>
<circle cx="3244.6" cy="206.6" r="2.4" fill="#2563eb"/>
<circle cx="3336.8" cy="229.3" r="2.4" fill="#2563eb"/>
<circle cx="3429.0" cy="167.5" r="2.4" fill="#2563eb"/>
<circle cx="3521.2" cy="204.5" r="2.4" fill="#2563eb"/>
<circle cx="3613.4" cy="214.5" r="2.4" fill="#2563eb"/>
<circle cx="3705.6" cy="179.4" r="2.4" fill="#2563eb"/>
<circle cx="3797.8" cy="152.5" r="2.4" fill="#2563eb"/>
<circle cx="3890.0" cy="210.9" r="2.4" fill="#2563eb"/>
<polyline points="110.0,370.0 202.2,368.1 294.4,349.2 386.6,352.8 478.8,349.6 571.0,345.1 663.2,262.7 755.4,327.7 847.6,330.6 939.8,216.4 1032.0,348.2 1124.1,327.3 1216.3,234.6 1308.5,178.9 1400.7,279.3 1492.9,328.2 1585.1,195.7 1677.3,247.7 1769.5,235.3 1861.7,213.2 1953.9,280.4 2046.1,180.9 2138.3,201.3 2230.5,260.2 2322.7,258.1 2414.9,205.1 2507.1,203.9 2599.3,260.1 2691.5,252.6 2783.7,242.2 2875.9,226.5 2968.0,219.1 3060.2,217.4 3152.4,238.5 3244.6,229.5 3336.8,230.3 3429.0,202.8 3521.2,244.1 3613.4,236.5 3705.6,218.0 3797.8,172.2 3890.0,199.9" fill="none" stroke="#dc2626" stroke-width="2.4"/>
<circle cx="110.0" cy="370.0" r="2.4" fill="#dc2626"/>
<circle cx="202.2" cy="368.1" r="2.4" fill="#dc2626"/>
<circle cx="294.4" cy="349.2" r="2.4" fill="#dc2626"/>
<circle cx="386.6" cy="352.8" r="2.4" fill="#dc2626"/>
<circle cx="478.8" cy="349.6" r="2.4" fill="#dc2626"/>
<circle cx="571.0" cy="345.1" r="2.4" fill="#dc2626"/>
<circle cx="663.2" cy="262.7" r="2.4" fill="#dc2626"/>
<circle cx="755.4" cy="327.7" r="2.4" fill="#dc2626"/>
<circle cx="847.6" cy="330.6" r="2.4" fill="#dc2626"/>
<circle cx="939.8" cy="216.4" r="2.4" fill="#dc2626"/>
<circle cx="1032.0" cy="348.2" r="2.4" fill="#dc2626"/>
<circle cx="1124.1" cy="327.3" r="2.4" fill="#dc2626"/>
<circle cx="1216.3" cy="234.6" r="2.4" fill="#dc2626"/>
<circle cx="1308.5" cy="178.9" r="2.4" fill="#dc2626"/>
<circle cx="1400.7" cy="279.3" r="2.4" fill="#dc2626"/>
<circle cx="1492.9" cy="328.2" r="2.4" fill="#dc2626"/>
<circle cx="1585.1" cy="195.7" r="2.4" fill="#dc2626"/>
<circle cx="1677.3" cy="247.7" r="2.4" fill="#dc2626"/>
<circle cx="1769.5" cy="235.3" r="2.4" fill="#dc2626"/>
<circle cx="1861.7" cy="213.2" r="2.4" fill="#dc2626"/>
<circle cx="1953.9" cy="280.4" r="2.4" fill="#dc2626"/>
<circle cx="2046.1" cy="180.9" r="2.4" fill="#dc2626"/>
<circle cx="2138.3" cy="201.3" r="2.4" fill="#dc2626"/>
<circle cx="2230.5" cy="260.2" r="2.4" fill="#dc2626"/>
<circle cx="2322.7" cy="258.1" r="2.4" fill="#dc2626"/>
<circle cx="2414.9" cy="205.1" r="2.4" fill="#dc2626"/>
<circle cx="2507.1" cy="203.9" r="2.4" fill="#dc2626"/>
<circle cx="2599.3" cy="260.1" r="2.4" fill="#dc2626"/>
<circle cx="2691.5" cy="252.6" r="2.4" fill="#dc2626"/>
<circle cx="2783.7" cy="242.2" r="2.4" fill="#dc2626"/>
<circle cx="2875.9" cy="226.5" r="2.4" fill="#dc2626"/>
<circle cx="2968.0" cy="219.1" r="2.4" fill="#dc2626"/>
<circle cx="3060.2" cy="217.4" r="2.4" fill="#dc2626"/>
<circle cx="3152.4" cy="238.5" r="2.4" fill="#dc2626"/>
<circle cx="3244.6" cy="229.5" r="2.4" fill="#dc2626"/>
<circle cx="3336.8" cy="230.3" r="2.4" fill="#dc2626"/>
<circle cx="3429.0" cy="202.8" r="2.4" fill="#dc2626"/>
<circle cx="3521.2" cy="244.1" r="2.4" fill="#dc2626"/>
<circle cx="3613.4" cy="236.5" r="2.4" fill="#dc2626"/>
<circle cx="3705.6" cy="218.0" r="2.4" fill="#dc2626"/>
<circle cx="3797.8" cy="172.2" r="2.4" fill="#dc2626"/>
<circle cx="3890.0" cy="199.9" r="2.4" fill="#dc2626"/>
<polyline points="110.0,370.0 202.2,368.8 294.4,365.1 386.6,362.3 478.8,365.8 571.0,363.1 663.2,366.5 755.4,363.2 847.6,366.7 939.8,364.5 1032.0,365.3 1124.1,365.2 1216.3,359.5 1308.5,350.3 1400.7,356.0 1492.9,346.8 1585.1,335.9 1677.3,329.9 1769.5,330.5 1861.7,343.9 1953.9,329.4 2046.1,325.1 2138.3,341.7 2230.5,320.6 2322.7,320.7 2414.9,339.0 2507.1,344.0 2599.3,318.1 2691.5,321.7 2783.7,339.2 2875.9,323.7 2968.0,318.2 3060.2,316.5 3152.4,315.6 3244.6,319.6 3336.8,313.3 3429.0,317.7 3521.2,316.5 3613.4,326.9 3705.6,312.9 3797.8,311.0 3890.0,316.1" fill="none" stroke="#16a34a" stroke-width="2.4"/>
<circle cx="110.0" cy="370.0" r="2.4" fill="#16a34a"/>
<circle cx="202.2" cy="368.8" r="2.4" fill="#16a34a"/>
<circle cx="294.4" cy="365.1" r="2.4" fill="#16a34a"/>
<circle cx="386.6" cy="362.3" r="2.4" fill="#16a34a"/>
<circle cx="478.8" cy="365.8" r="2.4" fill="#16a34a"/>
<circle cx="571.0" cy="363.1" r="2.4" fill="#16a34a"/>
<circle cx="663.2" cy="366.5" r="2.4" fill="#16a34a"/>
<circle cx="755.4" cy="363.2" r="2.4" fill="#16a34a"/>
<circle cx="847.6" cy="366.7" r="2.4" fill="#16a34a"/>
<circle cx="939.8" cy="364.5" r="2.4" fill="#16a34a"/>
<circle cx="1032.0" cy="365.3" r="2.4" fill="#16a34a"/>
<circle cx="1124.1" cy="365.2" r="2.4" fill="#16a34a"/>
<circle cx="1216.3" cy="359.5" r="2.4" fill="#16a34a"/>
<circle cx="1308.5" cy="350.3" r="2.4" fill="#16a34a"/>
<circle cx="1400.7" cy="356.0" r="2.4" fill="#16a34a"/>
<circle cx="1492.9" cy="346.8" r="2.4" fill="#16a34a"/>
<circle cx="1585.1" cy="335.9" r="2.4" fill="#16a34a"/>
<circle cx="1677.3" cy="329.9" r="2.4" fill="#16a34a"/>
<circle cx="1769.5" cy="330.5" r="2.4" fill="#16a34a"/>
<circle cx="1861.7" cy="343.9" r="2.4" fill="#16a34a"/>
<circle cx="1953.9" cy="329.4" r="2.4" fill="#16a34a"/>
<circle cx="2046.1" cy="325.1" r="2.4" fill="#16a34a"/>
<circle cx="2138.3" cy="341.7" r="2.4" fill="#16a34a"/>
<circle cx="2230.5" cy="320.6" r="2.4" fill="#16a34a"/>
<circle cx="2322.7" cy="320.7" r="2.4" fill="#16a34a"/>
<circle cx="2414.9" cy="339.0" r="2.4" fill="#16a34a"/>
<circle cx="2507.1" cy="344.0" r="2.4" fill="#16a34a"/>
<circle cx="2599.3" cy="318.1" r="2.4" fill="#16a34a"/>
<circle cx="2691.5" cy="321.7" r="2.4" fill="#16a34a"/>
<circle cx="2783.7" cy="339.2" r="2.4" fill="#16a34a"/>
<circle cx="2875.9" cy="323.7" r="2.4" fill="#16a34a"/>
<circle cx="2968.0" cy="318.2" r="2.4" fill="#16a34a"/>
<circle cx="3060.2" cy="316.5" r="2.4" fill="#16a34a"/>
<circle cx="3152.4" cy="315.6" r="2.4" fill="#16a34a"/>
<circle cx="3244.6" cy="319.6" r="2.4" fill="#16a34a"/>
<circle cx="3336.8" cy="313.3" r="2.4" fill="#16a34a"/>
<circle cx="3429.0" cy="317.7" r="2.4" fill="#16a34a"/>
<circle cx="3521.2" cy="316.5" r="2.4" fill="#16a34a"/>
<circle cx="3613.4" cy="326.9" r="2.4" fill="#16a34a"/>
<circle cx="3705.6" cy="312.9" r="2.4" fill="#16a34a"/>
<circle cx="3797.8" cy="311.0" r="2.4" fill="#16a34a"/>
<circle cx="3890.0" cy="316.1" r="2.4" fill="#16a34a"/>
<text x="110" y="462" class="panel-title">DGEMM GF/s</text>
<line x1="110" y1="740.0" x2="3890" y2="740.0" class="grid"/>
<text x="100" y="744.0" text-anchor="end" class="axis-label">0</text>
<line x1="110" y1="688.0" x2="3890" y2="688.0" class="grid"/>
<text x="100" y="692.0" text-anchor="end" class="axis-label">100</text>
<line x1="110" y1="636.0" x2="3890" y2="636.0" class="grid"/>
<text x="100" y="640.0" text-anchor="end" class="axis-label">200</text>
<line x1="110" y1="584.0" x2="3890" y2="584.0" class="grid"/>
<text x="100" y="588.0" text-anchor="end" class="axis-label">300</text>
<line x1="110" y1="532.0" x2="3890" y2="532.0" class="grid"/>
<text x="100" y="536.0" text-anchor="end" class="axis-label">400</text>
<line x1="110" y1="480.0" x2="3890" y2="480.0" class="grid"/>
<text x="100" y="484.0" text-anchor="end" class="axis-label">500</text>
<line x1="110" y1="480" x2="110" y2="740" class="axis"/>
<line x1="110" y1="740" x2="3890" y2="740" class="axis"/>
<polyline points="110.0,740.0 202.2,737.6 294.4,724.9 386.6,725.5 478.8,728.5 571.0,728.2 663.2,695.2 755.4,726.1 847.6,725.7 939.8,668.1 1032.0,694.9 1124.1,662.8 1216.3,650.3 1308.5,615.9 1400.7,608.4 1492.9,708.1 1585.1,568.4 1677.3,603.8 1769.5,583.8 1861.7,572.6 1953.9,656.7 2046.1,520.8 2138.3,574.2 2230.5,607.2 2322.7,550.5 2414.9,567.8 2507.1,586.0 2599.3,587.7 2691.5,608.1 2783.7,622.9 2875.9,565.1 2968.0,570.2 3060.2,560.2 3152.4,564.7 3244.6,552.0 3336.8,566.0 3429.0,517.7 3521.2,558.2 3613.4,568.6 3705.6,556.7 3797.8,547.4 3890.0,581.7" fill="none" stroke="#2563eb" stroke-width="2.4"/>
<circle cx="110.0" cy="740.0" r="2.4" fill="#2563eb"/>
<circle cx="202.2" cy="737.6" r="2.4" fill="#2563eb"/>
<circle cx="294.4" cy="724.9" r="2.4" fill="#2563eb"/>
<circle cx="386.6" cy="725.5" r="2.4" fill="#2563eb"/>
<circle cx="478.8" cy="728.5" r="2.4" fill="#2563eb"/>
<circle cx="571.0" cy="728.2" r="2.4" fill="#2563eb"/>
<circle cx="663.2" cy="695.2" r="2.4" fill="#2563eb"/>
<circle cx="755.4" cy="726.1" r="2.4" fill="#2563eb"/>
<circle cx="847.6" cy="725.7" r="2.4" fill="#2563eb"/>
<circle cx="939.8" cy="668.1" r="2.4" fill="#2563eb"/>
<circle cx="1032.0" cy="694.9" r="2.4" fill="#2563eb"/>
<circle cx="1124.1" cy="662.8" r="2.4" fill="#2563eb"/>
<circle cx="1216.3" cy="650.3" r="2.4" fill="#2563eb"/>
<circle cx="1308.5" cy="615.9" r="2.4" fill="#2563eb"/>
<circle cx="1400.7" cy="608.4" r="2.4" fill="#2563eb"/>
<circle cx="1492.9" cy="708.1" r="2.4" fill="#2563eb"/>
<circle cx="1585.1" cy="568.4" r="2.4" fill="#2563eb"/>
<circle cx="1677.3" cy="603.8" r="2.4" fill="#2563eb"/>
<circle cx="1769.5" cy="583.8" r="2.4" fill="#2563eb"/>
<circle cx="1861.7" cy="572.6" r="2.4" fill="#2563eb"/>
<circle cx="1953.9" cy="656.7" r="2.4" fill="#2563eb"/>
<circle cx="2046.1" cy="520.8" r="2.4" fill="#2563eb"/>
<circle cx="2138.3" cy="574.2" r="2.4" fill="#2563eb"/>
<circle cx="2230.5" cy="607.2" r="2.4" fill="#2563eb"/>
<circle cx="2322.7" cy="550.5" r="2.4" fill="#2563eb"/>
<circle cx="2414.9" cy="567.8" r="2.4" fill="#2563eb"/>
<circle cx="2507.1" cy="586.0" r="2.4" fill="#2563eb"/>
<circle cx="2599.3" cy="587.7" r="2.4" fill="#2563eb"/>
<circle cx="2691.5" cy="608.1" r="2.4" fill="#2563eb"/>
<circle cx="2783.7" cy="622.9" r="2.4" fill="#2563eb"/>
<circle cx="2875.9" cy="565.1" r="2.4" fill="#2563eb"/>
<circle cx="2968.0" cy="570.2" r="2.4" fill="#2563eb"/>
<circle cx="3060.2" cy="560.2" r="2.4" fill="#2563eb"/>
<circle cx="3152.4" cy="564.7" r="2.4" fill="#2563eb"/>
<circle cx="3244.6" cy="552.0" r="2.4" fill="#2563eb"/>
<circle cx="3336.8" cy="566.0" r="2.4" fill="#2563eb"/>
<circle cx="3429.0" cy="517.7" r="2.4" fill="#2563eb"/>
<circle cx="3521.2" cy="558.2" r="2.4" fill="#2563eb"/>
<circle cx="3613.4" cy="568.6" r="2.4" fill="#2563eb"/>
<circle cx="3705.6" cy="556.7" r="2.4" fill="#2563eb"/>
<circle cx="3797.8" cy="547.4" r="2.4" fill="#2563eb"/>
<circle cx="3890.0" cy="581.7" r="2.4" fill="#2563eb"/>
<polyline points="110.0,740.0 202.2,733.4 294.4,675.1 386.6,685.0 478.8,697.6 571.0,679.8 663.2,583.5 755.4,647.9 847.6,654.7 939.8,541.8 1032.0,693.2 1124.1,665.6 1216.3,550.1 1308.5,537.1 1400.7,627.1 1492.9,676.1 1585.1,556.9 1677.3,596.7 1769.5,578.1 1861.7,671.2 1953.9,617.3 2046.1,528.7 2138.3,617.4 2230.5,604.8 2322.7,618.8 2414.9,635.5 2507.1,618.3 2599.3,593.3 2691.5,607.1 2783.7,621.6 2875.9,598.0 2968.0,603.7 3060.2,600.9 3152.4,610.1 3244.6,610.2 3336.8,608.0 3429.0,556.4 3521.2,608.6 3613.4,610.0 3705.6,580.1 3797.8,551.7 3890.0,579.2" fill="none" stroke="#dc2626" stroke-width="2.4"/>
<circle cx="110.0" cy="740.0" r="2.4" fill="#dc2626"/>
<circle cx="202.2" cy="733.4" r="2.4" fill="#dc2626"/>
<circle cx="294.4" cy="675.1" r="2.4" fill="#dc2626"/>
<circle cx="386.6" cy="685.0" r="2.4" fill="#dc2626"/>
<circle cx="478.8" cy="697.6" r="2.4" fill="#dc2626"/>
<circle cx="571.0" cy="679.8" r="2.4" fill="#dc2626"/>
<circle cx="663.2" cy="583.5" r="2.4" fill="#dc2626"/>
<circle cx="755.4" cy="647.9" r="2.4" fill="#dc2626"/>
<circle cx="847.6" cy="654.7" r="2.4" fill="#dc2626"/>
<circle cx="939.8" cy="541.8" r="2.4" fill="#dc2626"/>
<circle cx="1032.0" cy="693.2" r="2.4" fill="#dc2626"/>
<circle cx="1124.1" cy="665.6" r="2.4" fill="#dc2626"/>
<circle cx="1216.3" cy="550.1" r="2.4" fill="#dc2626"/>
<circle cx="1308.5" cy="537.1" r="2.4" fill="#dc2626"/>
<circle cx="1400.7" cy="627.1" r="2.4" fill="#dc2626"/>
<circle cx="1492.9" cy="676.1" r="2.4" fill="#dc2626"/>
<circle cx="1585.1" cy="556.9" r="2.4" fill="#dc2626"/>
<circle cx="1677.3" cy="596.7" r="2.4" fill="#dc2626"/>
<circle cx="1769.5" cy="578.1" r="2.4" fill="#dc2626"/>
<circle cx="1861.7" cy="671.2" r="2.4" fill="#dc2626"/>
<circle cx="1953.9" cy="617.3" r="2.4" fill="#dc2626"/>
<circle cx="2046.1" cy="528.7" r="2.4" fill="#dc2626"/>
<circle cx="2138.3" cy="617.4" r="2.4" fill="#dc2626"/>
<circle cx="2230.5" cy="604.8" r="2.4" fill="#dc2626"/>
<circle cx="2322.7" cy="618.8" r="2.4" fill="#dc2626"/>
<circle cx="2414.9" cy="635.5" r="2.4" fill="#dc2626"/>
<circle cx="2507.1" cy="618.3" r="2.4" fill="#dc2626"/>
<circle cx="2599.3" cy="593.3" r="2.4" fill="#dc2626"/>
<circle cx="2691.5" cy="607.1" r="2.4" fill="#dc2626"/>
<circle cx="2783.7" cy="621.6" r="2.4" fill="#dc2626"/>
<circle cx="2875.9" cy="598.0" r="2.4" fill="#dc2626"/>
<circle cx="2968.0" cy="603.7" r="2.4" fill="#dc2626"/>
<circle cx="3060.2" cy="600.9" r="2.4" fill="#dc2626"/>
<circle cx="3152.4" cy="610.1" r="2.4" fill="#dc2626"/>
<circle cx="3244.6" cy="610.2" r="2.4" fill="#dc2626"/>
<circle cx="3336.8" cy="608.0" r="2.4" fill="#dc2626"/>
<circle cx="3429.0" cy="556.4" r="2.4" fill="#dc2626"/>
<circle cx="3521.2" cy="608.6" r="2.4" fill="#dc2626"/>
<circle cx="3613.4" cy="610.0" r="2.4" fill="#dc2626"/>
<circle cx="3705.6" cy="580.1" r="2.4" fill="#dc2626"/>
<circle cx="3797.8" cy="551.7" r="2.4" fill="#dc2626"/>
<circle cx="3890.0" cy="579.2" r="2.4" fill="#dc2626"/>
<polyline points="110.0,740.0 202.2,735.2 294.4,724.2 386.6,722.2 478.8,729.5 571.0,725.1 663.2,729.1 755.4,730.2 847.6,729.8 939.8,720.7 1032.0,725.5 1124.1,729.2 1216.3,705.1 1308.5,677.4 1400.7,710.1 1492.9,677.1 1585.1,653.9 1677.3,650.7 1769.5,652.7 1861.7,688.8 1953.9,649.0 2046.1,634.9 2138.3,677.6 2230.5,636.5 2322.7,639.9 2414.9,677.8 2507.1,679.9 2599.3,630.1 2691.5,640.1 2783.7,663.6 2875.9,636.9 2968.0,631.0 3060.2,629.8 3152.4,630.9 3244.6,633.1 3336.8,622.8 3429.0,627.0 3521.2,626.7 3613.4,642.7 3705.6,621.1 3797.8,621.5 3890.0,644.7" fill="none" stroke="#16a34a" stroke-width="2.4"/>
<circle cx="110.0" cy="740.0" r="2.4" fill="#16a34a"/>
<circle cx="202.2" cy="735.2" r="2.4" fill="#16a34a"/>
<circle cx="294.4" cy="724.2" r="2.4" fill="#16a34a"/>
<circle cx="386.6" cy="722.2" r="2.4" fill="#16a34a"/>
<circle cx="478.8" cy="729.5" r="2.4" fill="#16a34a"/>
<circle cx="571.0" cy="725.1" r="2.4" fill="#16a34a"/>
<circle cx="663.2" cy="729.1" r="2.4" fill="#16a34a"/>
<circle cx="755.4" cy="730.2" r="2.4" fill="#16a34a"/>
<circle cx="847.6" cy="729.8" r="2.4" fill="#16a34a"/>
<circle cx="939.8" cy="720.7" r="2.4" fill="#16a34a"/>
<circle cx="1032.0" cy="725.5" r="2.4" fill="#16a34a"/>
<circle cx="1124.1" cy="729.2" r="2.4" fill="#16a34a"/>
<circle cx="1216.3" cy="705.1" r="2.4" fill="#16a34a"/>
<circle cx="1308.5" cy="677.4" r="2.4" fill="#16a34a"/>
<circle cx="1400.7" cy="710.1" r="2.4" fill="#16a34a"/>
<circle cx="1492.9" cy="677.1" r="2.4" fill="#16a34a"/>
<circle cx="1585.1" cy="653.9" r="2.4" fill="#16a34a"/>
<circle cx="1677.3" cy="650.7" r="2.4" fill="#16a34a"/>
<circle cx="1769.5" cy="652.7" r="2.4" fill="#16a34a"/>
<circle cx="1861.7" cy="688.8" r="2.4" fill="#16a34a"/>
<circle cx="1953.9" cy="649.0" r="2.4" fill="#16a34a"/>
<circle cx="2046.1" cy="634.9" r="2.4" fill="#16a34a"/>
<circle cx="2138.3" cy="677.6" r="2.4" fill="#16a34a"/>
<circle cx="2230.5" cy="636.5" r="2.4" fill="#16a34a"/>
<circle cx="2322.7" cy="639.9" r="2.4" fill="#16a34a"/>
<circle cx="2414.9" cy="677.8" r="2.4" fill="#16a34a"/>
<circle cx="2507.1" cy="679.9" r="2.4" fill="#16a34a"/>
<circle cx="2599.3" cy="630.1" r="2.4" fill="#16a34a"/>
<circle cx="2691.5" cy="640.1" r="2.4" fill="#16a34a"/>
<circle cx="2783.7" cy="663.6" r="2.4" fill="#16a34a"/>
<circle cx="2875.9" cy="636.9" r="2.4" fill="#16a34a"/>
<circle cx="2968.0" cy="631.0" r="2.4" fill="#16a34a"/>
<circle cx="3060.2" cy="629.8" r="2.4" fill="#16a34a"/>
<circle cx="3152.4" cy="630.9" r="2.4" fill="#16a34a"/>
<circle cx="3244.6" cy="633.1" r="2.4" fill="#16a34a"/>
<circle cx="3336.8" cy="622.8" r="2.4" fill="#16a34a"/>
<circle cx="3429.0" cy="627.0" r="2.4" fill="#16a34a"/>
<circle cx="3521.2" cy="626.7" r="2.4" fill="#16a34a"/>
<circle cx="3613.4" cy="642.7" r="2.4" fill="#16a34a"/>
<circle cx="3705.6" cy="621.1" r="2.4" fill="#16a34a"/>
<circle cx="3797.8" cy="621.5" r="2.4" fill="#16a34a"/>
<circle cx="3890.0" cy="644.7" r="2.4" fill="#16a34a"/>
<text x="110" y="832" class="panel-title">CGEMM GF/s</text>
<line x1="110" y1="1110.0" x2="3890" y2="1110.0" class="grid"/>
<text x="100" y="1114.0" text-anchor="end" class="axis-label">0</text>
<line x1="110" y1="1023.3" x2="3890" y2="1023.3" class="grid"/>
<text x="100" y="1027.3" text-anchor="end" class="axis-label">500</text>
<line x1="110" y1="936.7" x2="3890" y2="936.7" class="grid"/>
<text x="100" y="940.7" text-anchor="end" class="axis-label">1000</text>
<line x1="110" y1="850.0" x2="3890" y2="850.0" class="grid"/>
<text x="100" y="854.0" text-anchor="end" class="axis-label">1500</text>
<line x1="110" y1="850" x2="110" y2="1110" class="axis"/>
<line x1="110" y1="1110" x2="3890" y2="1110" class="axis"/>
<polyline points="110.0,1110.0 202.2,1101.9 294.4,1103.0 386.6,1101.5 478.8,1104.3 571.0,1100.5 663.2,1077.3 755.4,1097.1 847.6,1097.3 939.8,1053.3 1032.0,1074.3 1124.1,1091.6 1216.3,1039.7 1308.5,1029.6 1400.7,1076.7 1492.9,1086.2 1585.1,988.1 1677.3,1014.6 1769.5,1005.4 1861.7,1058.2 1953.9,1033.9 2046.1,941.9 2138.3,1023.7 2230.5,1001.3 2322.7,971.3 2414.9,1022.7 2507.1,1029.9 2599.3,1027.6 2691.5,1028.3 2783.7,1077.7 2875.9,959.0 2968.0,954.5 3060.2,944.4 3152.4,949.0 3244.6,965.4 3336.8,966.9 3429.0,915.0 3521.2,956.5 3613.4,982.4 3705.6,914.8 3797.8,913.4 3890.0,922.8" fill="none" stroke="#2563eb" stroke-width="2.4"/>
<circle cx="110.0" cy="1110.0" r="2.4" fill="#2563eb"/>
<circle cx="202.2" cy="1101.9" r="2.4" fill="#2563eb"/>
<circle cx="294.4" cy="1103.0" r="2.4" fill="#2563eb"/>
<circle cx="386.6" cy="1101.5" r="2.4" fill="#2563eb"/>
<circle cx="478.8" cy="1104.3" r="2.4" fill="#2563eb"/>
<circle cx="571.0" cy="1100.5" r="2.4" fill="#2563eb"/>
<circle cx="663.2" cy="1077.3" r="2.4" fill="#2563eb"/>
<circle cx="755.4" cy="1097.1" r="2.4" fill="#2563eb"/>
<circle cx="847.6" cy="1097.3" r="2.4" fill="#2563eb"/>
<circle cx="939.8" cy="1053.3" r="2.4" fill="#2563eb"/>
<circle cx="1032.0" cy="1074.3" r="2.4" fill="#2563eb"/>
<circle cx="1124.1" cy="1091.6" r="2.4" fill="#2563eb"/>
<circle cx="1216.3" cy="1039.7" r="2.4" fill="#2563eb"/>
<circle cx="1308.5" cy="1029.6" r="2.4" fill="#2563eb"/>
<circle cx="1400.7" cy="1076.7" r="2.4" fill="#2563eb"/>
<circle cx="1492.9" cy="1086.2" r="2.4" fill="#2563eb"/>
<circle cx="1585.1" cy="988.1" r="2.4" fill="#2563eb"/>
<circle cx="1677.3" cy="1014.6" r="2.4" fill="#2563eb"/>
<circle cx="1769.5" cy="1005.4" r="2.4" fill="#2563eb"/>
<circle cx="1861.7" cy="1058.2" r="2.4" fill="#2563eb"/>
<circle cx="1953.9" cy="1033.9" r="2.4" fill="#2563eb"/>
<circle cx="2046.1" cy="941.9" r="2.4" fill="#2563eb"/>
<circle cx="2138.3" cy="1023.7" r="2.4" fill="#2563eb"/>
<circle cx="2230.5" cy="1001.3" r="2.4" fill="#2563eb"/>
<circle cx="2322.7" cy="971.3" r="2.4" fill="#2563eb"/>
<circle cx="2414.9" cy="1022.7" r="2.4" fill="#2563eb"/>
<circle cx="2507.1" cy="1029.9" r="2.4" fill="#2563eb"/>
<circle cx="2599.3" cy="1027.6" r="2.4" fill="#2563eb"/>
<circle cx="2691.5" cy="1028.3" r="2.4" fill="#2563eb"/>
<circle cx="2783.7" cy="1077.7" r="2.4" fill="#2563eb"/>
<circle cx="2875.9" cy="959.0" r="2.4" fill="#2563eb"/>
<circle cx="2968.0" cy="954.5" r="2.4" fill="#2563eb"/>
<circle cx="3060.2" cy="944.4" r="2.4" fill="#2563eb"/>
<circle cx="3152.4" cy="949.0" r="2.4" fill="#2563eb"/>
<circle cx="3244.6" cy="965.4" r="2.4" fill="#2563eb"/>
<circle cx="3336.8" cy="966.9" r="2.4" fill="#2563eb"/>
<circle cx="3429.0" cy="915.0" r="2.4" fill="#2563eb"/>
<circle cx="3521.2" cy="956.5" r="2.4" fill="#2563eb"/>
<circle cx="3613.4" cy="982.4" r="2.4" fill="#2563eb"/>
<circle cx="3705.6" cy="914.8" r="2.4" fill="#2563eb"/>
<circle cx="3797.8" cy="913.4" r="2.4" fill="#2563eb"/>
<circle cx="3890.0" cy="922.8" r="2.4" fill="#2563eb"/>
<polyline points="110.0,1110.0 202.2,1108.1 294.4,1101.3 386.6,1101.7 478.8,1102.5 571.0,1098.4 663.2,1081.1 755.4,1090.7 847.6,1089.8 939.8,1057.1 1032.0,1107.5 1124.1,1107.3 1216.3,1045.3 1308.5,1010.3 1400.7,1079.1 1492.9,1085.4 1585.1,994.8 1677.3,1043.1 1769.5,1034.5 1861.7,1054.7 1953.9,1064.0 2046.1,963.9 2138.3,1017.5 2230.5,1033.5 2322.7,1042.8 2414.9,1025.8 2507.1,1020.0 2599.3,1038.4 2691.5,1030.9 2783.7,1034.1 2875.9,996.6 2968.0,994.6 3060.2,1000.5 3152.4,1007.3 3244.6,1008.4 3336.8,1010.1 3429.0,962.2 3521.2,1016.5 3613.4,1008.6 3705.6,990.4 3797.8,946.1 3890.0,955.8" fill="none" stroke="#dc2626" stroke-width="2.4"/>
<circle cx="110.0" cy="1110.0" r="2.4" fill="#dc2626"/>
<circle cx="202.2" cy="1108.1" r="2.4" fill="#dc2626"/>
<circle cx="294.4" cy="1101.3" r="2.4" fill="#dc2626"/>
<circle cx="386.6" cy="1101.7" r="2.4" fill="#dc2626"/>
<circle cx="478.8" cy="1102.5" r="2.4" fill="#dc2626"/>
<circle cx="571.0" cy="1098.4" r="2.4" fill="#dc2626"/>
<circle cx="663.2" cy="1081.1" r="2.4" fill="#dc2626"/>
<circle cx="755.4" cy="1090.7" r="2.4" fill="#dc2626"/>
<circle cx="847.6" cy="1089.8" r="2.4" fill="#dc2626"/>
<circle cx="939.8" cy="1057.1" r="2.4" fill="#dc2626"/>
<circle cx="1032.0" cy="1107.5" r="2.4" fill="#dc2626"/>
<circle cx="1124.1" cy="1107.3" r="2.4" fill="#dc2626"/>
<circle cx="1216.3" cy="1045.3" r="2.4" fill="#dc2626"/>
<circle cx="1308.5" cy="1010.3" r="2.4" fill="#dc2626"/>
<circle cx="1400.7" cy="1079.1" r="2.4" fill="#dc2626"/>
<circle cx="1492.9" cy="1085.4" r="2.4" fill="#dc2626"/>
<circle cx="1585.1" cy="994.8" r="2.4" fill="#dc2626"/>
<circle cx="1677.3" cy="1043.1" r="2.4" fill="#dc2626"/>
<circle cx="1769.5" cy="1034.5" r="2.4" fill="#dc2626"/>
<circle cx="1861.7" cy="1054.7" r="2.4" fill="#dc2626"/>
<circle cx="1953.9" cy="1064.0" r="2.4" fill="#dc2626"/>
<circle cx="2046.1" cy="963.9" r="2.4" fill="#dc2626"/>
<circle cx="2138.3" cy="1017.5" r="2.4" fill="#dc2626"/>
<circle cx="2230.5" cy="1033.5" r="2.4" fill="#dc2626"/>
<circle cx="2322.7" cy="1042.8" r="2.4" fill="#dc2626"/>
<circle cx="2414.9" cy="1025.8" r="2.4" fill="#dc2626"/>
<circle cx="2507.1" cy="1020.0" r="2.4" fill="#dc2626"/>
<circle cx="2599.3" cy="1038.4" r="2.4" fill="#dc2626"/>
<circle cx="2691.5" cy="1030.9" r="2.4" fill="#dc2626"/>
<circle cx="2783.7" cy="1034.1" r="2.4" fill="#dc2626"/>
<circle cx="2875.9" cy="996.6" r="2.4" fill="#dc2626"/>
<circle cx="2968.0" cy="994.6" r="2.4" fill="#dc2626"/>
<circle cx="3060.2" cy="1000.5" r="2.4" fill="#dc2626"/>
<circle cx="3152.4" cy="1007.3" r="2.4" fill="#dc2626"/>
<circle cx="3244.6" cy="1008.4" r="2.4" fill="#dc2626"/>
<circle cx="3336.8" cy="1010.1" r="2.4" fill="#dc2626"/>
<circle cx="3429.0" cy="962.2" r="2.4" fill="#dc2626"/>
<circle cx="3521.2" cy="1016.5" r="2.4" fill="#dc2626"/>
<circle cx="3613.4" cy="1008.6" r="2.4" fill="#dc2626"/>
<circle cx="3705.6" cy="990.4" r="2.4" fill="#dc2626"/>
<circle cx="3797.8" cy="946.1" r="2.4" fill="#dc2626"/>
<circle cx="3890.0" cy="955.8" r="2.4" fill="#dc2626"/>
<polyline points="110.0,1110.0 202.2,1104.5 294.4,1101.3 386.6,1099.3 478.8,1108.0 571.0,1106.0 663.2,1102.0 755.4,1098.5 847.6,1098.6 939.8,1092.4 1032.0,1102.1 1124.1,1104.1 1216.3,1078.7 1308.5,1058.9 1400.7,1082.4 1492.9,1055.3 1585.1,1045.1 1677.3,1033.9 1769.5,1038.0 1861.7,1064.9 1953.9,1033.9 2046.1,1033.6 2138.3,1059.6 2230.5,1030.1 2322.7,1031.8 2414.9,1060.8 2507.1,1062.4 2599.3,1026.7 2691.5,1031.9 2783.7,1052.6 2875.9,1039.5 2968.0,1033.9 3060.2,1032.9 3152.4,1032.0 3244.6,1037.6 3336.8,1030.6 3429.0,1029.6 3521.2,1028.4 3613.4,1046.3 3705.6,1032.4 3797.8,1037.7 3890.0,1046.7" fill="none" stroke="#16a34a" stroke-width="2.4"/>
<circle cx="110.0" cy="1110.0" r="2.4" fill="#16a34a"/>
<circle cx="202.2" cy="1104.5" r="2.4" fill="#16a34a"/>
<circle cx="294.4" cy="1101.3" r="2.4" fill="#16a34a"/>
<circle cx="386.6" cy="1099.3" r="2.4" fill="#16a34a"/>
<circle cx="478.8" cy="1108.0" r="2.4" fill="#16a34a"/>
<circle cx="571.0" cy="1106.0" r="2.4" fill="#16a34a"/>
<circle cx="663.2" cy="1102.0" r="2.4" fill="#16a34a"/>
<circle cx="755.4" cy="1098.5" r="2.4" fill="#16a34a"/>
<circle cx="847.6" cy="1098.6" r="2.4" fill="#16a34a"/>
<circle cx="939.8" cy="1092.4" r="2.4" fill="#16a34a"/>
<circle cx="1032.0" cy="1102.1" r="2.4" fill="#16a34a"/>
<circle cx="1124.1" cy="1104.1" r="2.4" fill="#16a34a"/>
<circle cx="1216.3" cy="1078.7" r="2.4" fill="#16a34a"/>
<circle cx="1308.5" cy="1058.9" r="2.4" fill="#16a34a"/>
<circle cx="1400.7" cy="1082.4" r="2.4" fill="#16a34a"/>
<circle cx="1492.9" cy="1055.3" r="2.4" fill="#16a34a"/>
<circle cx="1585.1" cy="1045.1" r="2.4" fill="#16a34a"/>
<circle cx="1677.3" cy="1033.9" r="2.4" fill="#16a34a"/>
<circle cx="1769.5" cy="1038.0" r="2.4" fill="#16a34a"/>
<circle cx="1861.7" cy="1064.9" r="2.4" fill="#16a34a"/>
<circle cx="1953.9" cy="1033.9" r="2.4" fill="#16a34a"/>
<circle cx="2046.1" cy="1033.6" r="2.4" fill="#16a34a"/>
<circle cx="2138.3" cy="1059.6" r="2.4" fill="#16a34a"/>
<circle cx="2230.5" cy="1030.1" r="2.4" fill="#16a34a"/>
<circle cx="2322.7" cy="1031.8" r="2.4" fill="#16a34a"/>
<circle cx="2414.9" cy="1060.8" r="2.4" fill="#16a34a"/>
<circle cx="2507.1" cy="1062.4" r="2.4" fill="#16a34a"/>
<circle cx="2599.3" cy="1026.7" r="2.4" fill="#16a34a"/>
<circle cx="2691.5" cy="1031.9" r="2.4" fill="#16a34a"/>
<circle cx="2783.7" cy="1052.6" r="2.4" fill="#16a34a"/>
<circle cx="2875.9" cy="1039.5" r="2.4" fill="#16a34a"/>
<circle cx="2968.0" cy="1033.9" r="2.4" fill="#16a34a"/>
<circle cx="3060.2" cy="1032.9" r="2.4" fill="#16a34a"/>
<circle cx="3152.4" cy="1032.0" r="2.4" fill="#16a34a"/>
<circle cx="3244.6" cy="1037.6" r="2.4" fill="#16a34a"/>
<circle cx="3336.8" cy="1030.6" r="2.4" fill="#16a34a"/>
<circle cx="3429.0" cy="1029.6" r="2.4" fill="#16a34a"/>
<circle cx="3521.2" cy="1028.4" r="2.4" fill="#16a34a"/>
<circle cx="3613.4" cy="1046.3" r="2.4" fill="#16a34a"/>
<circle cx="3705.6" cy="1032.4" r="2.4" fill="#16a34a"/>
<circle cx="3797.8" cy="1037.7" r="2.4" fill="#16a34a"/>
<circle cx="3890.0" cy="1046.7" r="2.4" fill="#16a34a"/>
<text x="110" y="1202" class="panel-title">ZGEMM GF/s</text>
<line x1="110" y1="1480.0" x2="3890" y2="1480.0" class="grid"/>
<text x="100" y="1484.0" text-anchor="end" class="axis-label">0</text>
<line x1="110" y1="1415.0" x2="3890" y2="1415.0" class="grid"/>
<text x="100" y="1419.0" text-anchor="end" class="axis-label">100</text>
<line x1="110" y1="1350.0" x2="3890" y2="1350.0" class="grid"/>
<text x="100" y="1354.0" text-anchor="end" class="axis-label">200</text>
<line x1="110" y1="1285.0" x2="3890" y2="1285.0" class="grid"/>
<text x="100" y="1289.0" text-anchor="end" class="axis-label">300</text>
<line x1="110" y1="1220.0" x2="3890" y2="1220.0" class="grid"/>
<text x="100" y="1224.0" text-anchor="end" class="axis-label">400</text>
<line x1="110" y1="1220" x2="110" y2="1480" class="axis"/>
<line x1="110" y1="1480" x2="3890" y2="1480" class="axis"/>
<polyline points="110.0,1479.9 202.2,1475.2 294.4,1460.1 386.6,1458.5 478.8,1465.5 571.0,1459.2 663.2,1421.0 755.4,1436.9 847.6,1437.1 939.8,1381.1 1032.0,1440.1 1124.1,1442.4 1216.3,1380.1 1308.5,1340.1 1400.7,1421.9 1492.9,1433.2 1585.1,1300.9 1677.3,1333.7 1769.5,1328.7 1861.7,1392.1 1953.9,1379.0 2046.1,1262.5 2138.3,1357.9 2230.5,1372.9 2322.7,1312.2 2414.9,1351.2 2507.1,1371.0 2599.3,1366.1 2691.5,1377.2 2783.7,1371.3 2875.9,1285.3 2968.0,1290.3 3060.2,1268.4 3152.4,1270.8 3244.6,1274.0 3336.8,1286.8 3429.0,1259.0 3521.2,1292.8 3613.4,1317.5 3705.6,1286.1 3797.8,1248.3 3890.0,1234.0" fill="none" stroke="#2563eb" stroke-width="2.4"/>
<circle cx="110.0" cy="1479.9" r="2.4" fill="#2563eb"/>
<circle cx="202.2" cy="1475.2" r="2.4" fill="#2563eb"/>
<circle cx="294.4" cy="1460.1" r="2.4" fill="#2563eb"/>
<circle cx="386.6" cy="1458.5" r="2.4" fill="#2563eb"/>
<circle cx="478.8" cy="1465.5" r="2.4" fill="#2563eb"/>
<circle cx="571.0" cy="1459.2" r="2.4" fill="#2563eb"/>
<circle cx="663.2" cy="1421.0" r="2.4" fill="#2563eb"/>
<circle cx="755.4" cy="1436.9" r="2.4" fill="#2563eb"/>
<circle cx="847.6" cy="1437.1" r="2.4" fill="#2563eb"/>
<circle cx="939.8" cy="1381.1" r="2.4" fill="#2563eb"/>
<circle cx="1032.0" cy="1440.1" r="2.4" fill="#2563eb"/>
<circle cx="1124.1" cy="1442.4" r="2.4" fill="#2563eb"/>
<circle cx="1216.3" cy="1380.1" r="2.4" fill="#2563eb"/>
<circle cx="1308.5" cy="1340.1" r="2.4" fill="#2563eb"/>
<circle cx="1400.7" cy="1421.9" r="2.4" fill="#2563eb"/>
<circle cx="1492.9" cy="1433.2" r="2.4" fill="#2563eb"/>
<circle cx="1585.1" cy="1300.9" r="2.4" fill="#2563eb"/>
<circle cx="1677.3" cy="1333.7" r="2.4" fill="#2563eb"/>
<circle cx="1769.5" cy="1328.7" r="2.4" fill="#2563eb"/>
<circle cx="1861.7" cy="1392.1" r="2.4" fill="#2563eb"/>
<circle cx="1953.9" cy="1379.0" r="2.4" fill="#2563eb"/>
<circle cx="2046.1" cy="1262.5" r="2.4" fill="#2563eb"/>
<circle cx="2138.3" cy="1357.9" r="2.4" fill="#2563eb"/>
<circle cx="2230.5" cy="1372.9" r="2.4" fill="#2563eb"/>
<circle cx="2322.7" cy="1312.2" r="2.4" fill="#2563eb"/>
<circle cx="2414.9" cy="1351.2" r="2.4" fill="#2563eb"/>
<circle cx="2507.1" cy="1371.0" r="2.4" fill="#2563eb"/>
<circle cx="2599.3" cy="1366.1" r="2.4" fill="#2563eb"/>
<circle cx="2691.5" cy="1377.2" r="2.4" fill="#2563eb"/>
<circle cx="2783.7" cy="1371.3" r="2.4" fill="#2563eb"/>
<circle cx="2875.9" cy="1285.3" r="2.4" fill="#2563eb"/>
<circle cx="2968.0" cy="1290.3" r="2.4" fill="#2563eb"/>
<circle cx="3060.2" cy="1268.4" r="2.4" fill="#2563eb"/>
<circle cx="3152.4" cy="1270.8" r="2.4" fill="#2563eb"/>
<circle cx="3244.6" cy="1274.0" r="2.4" fill="#2563eb"/>
<circle cx="3336.8" cy="1286.8" r="2.4" fill="#2563eb"/>
<circle cx="3429.0" cy="1259.0" r="2.4" fill="#2563eb"/>
<circle cx="3521.2" cy="1292.8" r="2.4" fill="#2563eb"/>
<circle cx="3613.4" cy="1317.5" r="2.4" fill="#2563eb"/>
<circle cx="3705.6" cy="1286.1" r="2.4" fill="#2563eb"/>
<circle cx="3797.8" cy="1248.3" r="2.4" fill="#2563eb"/>
<circle cx="3890.0" cy="1234.0" r="2.4" fill="#2563eb"/>
<polyline points="110.0,1480.0 202.2,1474.2 294.4,1455.9 386.6,1458.1 478.8,1463.2 571.0,1456.2 663.2,1429.4 755.4,1446.4 847.6,1440.1 939.8,1403.1 1032.0,1477.6 1124.1,1477.4 1216.3,1384.1 1308.5,1349.3 1400.7,1443.1 1492.9,1453.5 1585.1,1344.5 1677.3,1378.4 1769.5,1366.4 1861.7,1443.3 1953.9,1434.9 2046.1,1330.3 2138.3,1411.9 2230.5,1398.8 2322.7,1404.0 2414.9,1417.7 2507.1,1409.1 2599.3,1404.0 2691.5,1403.3 2783.7,1403.6 2875.9,1360.3 2968.0,1364.1 3060.2,1355.4 3152.4,1360.2 3244.6,1358.5 3336.8,1370.2 3429.0,1351.3 3521.2,1382.3 3613.4,1378.6 3705.6,1339.6 3797.8,1318.8 3890.0,1301.1" fill="none" stroke="#dc2626" stroke-width="2.4"/>
<circle cx="110.0" cy="1480.0" r="2.4" fill="#dc2626"/>
<circle cx="202.2" cy="1474.2" r="2.4" fill="#dc2626"/>
<circle cx="294.4" cy="1455.9" r="2.4" fill="#dc2626"/>
<circle cx="386.6" cy="1458.1" r="2.4" fill="#dc2626"/>
<circle cx="478.8" cy="1463.2" r="2.4" fill="#dc2626"/>
<circle cx="571.0" cy="1456.2" r="2.4" fill="#dc2626"/>
<circle cx="663.2" cy="1429.4" r="2.4" fill="#dc2626"/>
<circle cx="755.4" cy="1446.4" r="2.4" fill="#dc2626"/>
<circle cx="847.6" cy="1440.1" r="2.4" fill="#dc2626"/>
<circle cx="939.8" cy="1403.1" r="2.4" fill="#dc2626"/>
<circle cx="1032.0" cy="1477.6" r="2.4" fill="#dc2626"/>
<circle cx="1124.1" cy="1477.4" r="2.4" fill="#dc2626"/>
<circle cx="1216.3" cy="1384.1" r="2.4" fill="#dc2626"/>
<circle cx="1308.5" cy="1349.3" r="2.4" fill="#dc2626"/>
<circle cx="1400.7" cy="1443.1" r="2.4" fill="#dc2626"/>
<circle cx="1492.9" cy="1453.5" r="2.4" fill="#dc2626"/>
<circle cx="1585.1" cy="1344.5" r="2.4" fill="#dc2626"/>
<circle cx="1677.3" cy="1378.4" r="2.4" fill="#dc2626"/>
<circle cx="1769.5" cy="1366.4" r="2.4" fill="#dc2626"/>
<circle cx="1861.7" cy="1443.3" r="2.4" fill="#dc2626"/>
<circle cx="1953.9" cy="1434.9" r="2.4" fill="#dc2626"/>
<circle cx="2046.1" cy="1330.3" r="2.4" fill="#dc2626"/>
<circle cx="2138.3" cy="1411.9" r="2.4" fill="#dc2626"/>
<circle cx="2230.5" cy="1398.8" r="2.4" fill="#dc2626"/>
<circle cx="2322.7" cy="1404.0" r="2.4" fill="#dc2626"/>
<circle cx="2414.9" cy="1417.7" r="2.4" fill="#dc2626"/>
<circle cx="2507.1" cy="1409.1" r="2.4" fill="#dc2626"/>
<circle cx="2599.3" cy="1404.0" r="2.4" fill="#dc2626"/>
<circle cx="2691.5" cy="1403.3" r="2.4" fill="#dc2626"/>
<circle cx="2783.7" cy="1403.6" r="2.4" fill="#dc2626"/>
<circle cx="2875.9" cy="1360.3" r="2.4" fill="#dc2626"/>
<circle cx="2968.0" cy="1364.1" r="2.4" fill="#dc2626"/>
<circle cx="3060.2" cy="1355.4" r="2.4" fill="#dc2626"/>
<circle cx="3152.4" cy="1360.2" r="2.4" fill="#dc2626"/>
<circle cx="3244.6" cy="1358.5" r="2.4" fill="#dc2626"/>
<circle cx="3336.8" cy="1370.2" r="2.4" fill="#dc2626"/>
<circle cx="3429.0" cy="1351.3" r="2.4" fill="#dc2626"/>
<circle cx="3521.2" cy="1382.3" r="2.4" fill="#dc2626"/>
<circle cx="3613.4" cy="1378.6" r="2.4" fill="#dc2626"/>
<circle cx="3705.6" cy="1339.6" r="2.4" fill="#dc2626"/>
<circle cx="3797.8" cy="1318.8" r="2.4" fill="#dc2626"/>
<circle cx="3890.0" cy="1301.1" r="2.4" fill="#dc2626"/>
<polyline points="110.0,1479.9 202.2,1467.0 294.4,1460.6 386.6,1458.3 478.8,1472.8 571.0,1465.4 663.2,1454.6 755.4,1443.3 847.6,1441.6 939.8,1428.8 1032.0,1463.7 1124.1,1464.7 1216.3,1394.0 1308.5,1355.6 1400.7,1422.4 1492.9,1362.7 1585.1,1341.4 1677.3,1335.9 1769.5,1340.0 1861.7,1390.2 1953.9,1336.3 2046.1,1334.2 2138.3,1379.7 2230.5,1337.2 2322.7,1338.7 2414.9,1386.1 2507.1,1388.4 2599.3,1337.4 2691.5,1346.7 2783.7,1364.7 2875.9,1346.8 2968.0,1344.6 3060.2,1334.6 3152.4,1341.8 3244.6,1347.2 3336.8,1333.0 3429.0,1340.4 3521.2,1352.7 3613.4,1356.6 3705.6,1360.1 3797.8,1360.0 3890.0,1363.6" fill="none" stroke="#16a34a" stroke-width="2.4"/>
<circle cx="110.0" cy="1479.9" r="2.4" fill="#16a34a"/>
<circle cx="202.2" cy="1467.0" r="2.4" fill="#16a34a"/>
<circle cx="294.4" cy="1460.6" r="2.4" fill="#16a34a"/>
<circle cx="386.6" cy="1458.3" r="2.4" fill="#16a34a"/>
<circle cx="478.8" cy="1472.8" r="2.4" fill="#16a34a"/>
<circle cx="571.0" cy="1465.4" r="2.4" fill="#16a34a"/>
<circle cx="663.2" cy="1454.6" r="2.4" fill="#16a34a"/>
<circle cx="755.4" cy="1443.3" r="2.4" fill="#16a34a"/>
<circle cx="847.6" cy="1441.6" r="2.4" fill="#16a34a"/>
<circle cx="939.8" cy="1428.8" r="2.4" fill="#16a34a"/>
<circle cx="1032.0" cy="1463.7" r="2.4" fill="#16a34a"/>
<circle cx="1124.1" cy="1464.7" r="2.4" fill="#16a34a"/>
<circle cx="1216.3" cy="1394.0" r="2.4" fill="#16a34a"/>
<circle cx="1308.5" cy="1355.6" r="2.4" fill="#16a34a"/>
<circle cx="1400.7" cy="1422.4" r="2.4" fill="#16a34a"/>
<circle cx="1492.9" cy="1362.7" r="2.4" fill="#16a34a"/>
<circle cx="1585.1" cy="1341.4" r="2.4" fill="#16a34a"/>
<circle cx="1677.3" cy="1335.9" r="2.4" fill="#16a34a"/>
<circle cx="1769.5" cy="1340.0" r="2.4" fill="#16a34a"/>
<circle cx="1861.7" cy="1390.2" r="2.4" fill="#16a34a"/>
<circle cx="1953.9" cy="1336.3" r="2.4" fill="#16a34a"/>
<circle cx="2046.1" cy="1334.2" r="2.4" fill="#16a34a"/>
<circle cx="2138.3" cy="1379.7" r="2.4" fill="#16a34a"/>
<circle cx="2230.5" cy="1337.2" r="2.4" fill="#16a34a"/>
<circle cx="2322.7" cy="1338.7" r="2.4" fill="#16a34a"/>
<circle cx="2414.9" cy="1386.1" r="2.4" fill="#16a34a"/>
<circle cx="2507.1" cy="1388.4" r="2.4" fill="#16a34a"/>
<circle cx="2599.3" cy="1337.4" r="2.4" fill="#16a34a"/>
<circle cx="2691.5" cy="1346.7" r="2.4" fill="#16a34a"/>
<circle cx="2783.7" cy="1364.7" r="2.4" fill="#16a34a"/>
<circle cx="2875.9" cy="1346.8" r="2.4" fill="#16a34a"/>
<circle cx="2968.0" cy="1344.6" r="2.4" fill="#16a34a"/>
<circle cx="3060.2" cy="1334.6" r="2.4" fill="#16a34a"/>
<circle cx="3152.4" cy="1341.8" r="2.4" fill="#16a34a"/>
<circle cx="3244.6" cy="1347.2" r="2.4" fill="#16a34a"/>
<circle cx="3336.8" cy="1333.0" r="2.4" fill="#16a34a"/>
<circle cx="3429.0" cy="1340.4" r="2.4" fill="#16a34a"/>
<circle cx="3521.2" cy="1352.7" r="2.4" fill="#16a34a"/>
<circle cx="3613.4" cy="1356.6" r="2.4" fill="#16a34a"/>
<circle cx="3705.6" cy="1360.1" r="2.4" fill="#16a34a"/>
<circle cx="3797.8" cy="1360.0" r="2.4" fill="#16a34a"/>
<circle cx="3890.0" cy="1363.6" r="2.4" fill="#16a34a"/>
<g transform="translate(110.0,1498) rotate(58)">
<text class="shape-label">m1_n1_k1</text>
<text y="12" class="shape-label">1x1x1</text>
</g>
<g transform="translate(202.2,1498) rotate(58)">
<text class="shape-label">m8_n8_k8</text>
<text y="12" class="shape-label">8x8x8</text>
</g>
<g transform="translate(294.4,1498) rotate(58)">
<text class="shape-label">m31_n31_k31</text>
<text y="12" class="shape-label">31x31x31</text>
</g>
<g transform="translate(386.6,1498) rotate(58)">
<text class="shape-label">m33_n33_k33</text>
<text y="12" class="shape-label">33x33x33</text>
</g>
<g transform="translate(478.8,1498) rotate(58)">
<text class="shape-label">m63_n65_k17</text>
<text y="12" class="shape-label">63x65x17</text>
</g>
<g transform="translate(571.0,1498) rotate(58)">
<text class="shape-label">m65_n63_k33</text>
<text y="12" class="shape-label">65x63x33</text>
</g>
<g transform="translate(663.2,1498) rotate(58)">
<text class="shape-label">sq64</text>
<text y="12" class="shape-label">64x64x64</text>
</g>
<g transform="translate(755.4,1498) rotate(58)">
<text class="shape-label">m127_n129_k31</text>
<text y="12" class="shape-label">127x129x31</text>
</g>
<g transform="translate(847.6,1498) rotate(58)">
<text class="shape-label">m129_n127_k33</text>
<text y="12" class="shape-label">129x127x33</text>
</g>
<g transform="translate(939.8,1498) rotate(58)">
<text class="shape-label">sq96</text>
<text y="12" class="shape-label">96x96x96</text>
</g>
<g transform="translate(1032.0,1498) rotate(58)">
<text class="shape-label">m1_n4096_k256</text>
<text y="12" class="shape-label">1x4096x256</text>
</g>
<g transform="translate(1124.1,1498) rotate(58)">
<text class="shape-label">m4096_n1_k256</text>
<text y="12" class="shape-label">4096x1x256</text>
</g>
<g transform="translate(1216.3,1498) rotate(58)">
<text class="shape-label">sq128</text>
<text y="12" class="shape-label">128x128x128</text>
</g>
<g transform="translate(1308.5,1498) rotate(58)">
<text class="shape-label">sq192</text>
<text y="12" class="shape-label">192x192x192</text>
</g>
<g transform="translate(1400.7,1498) rotate(58)">
<text class="shape-label">m2048_n17_k257</text>
<text y="12" class="shape-label">2048x17x257</text>
</g>
<g transform="translate(1492.9,1498) rotate(58)">
<text class="shape-label">m17_n2048_k257</text>
<text y="12" class="shape-label">17x2048x257</text>
</g>
<g transform="translate(1585.1,1498) rotate(58)">
<text class="shape-label">sq256</text>
<text y="12" class="shape-label">256x256x256</text>
</g>
<g transform="translate(1677.3,1498) rotate(58)">
<text class="shape-label">m384_n640_k96</text>
<text y="12" class="shape-label">384x640x96</text>
</g>
<g transform="translate(1769.5,1498) rotate(58)">
<text class="shape-label">m640_n384_k96</text>
<text y="12" class="shape-label">640x384x96</text>
</g>
<g transform="translate(1861.7,1498) rotate(58)">
<text class="shape-label">m4096_n32_k256</text>
<text y="12" class="shape-label">4096x32x256</text>
</g>
<g transform="translate(1953.9,1498) rotate(58)">
<text class="shape-label">m32_n4096_k256</text>
<text y="12" class="shape-label">32x4096x256</text>
</g>
<g transform="translate(2046.1,1498) rotate(58)">
<text class="shape-label">sq384</text>
<text y="12" class="shape-label">384x384x384</text>
</g>
<g transform="translate(2138.3,1498) rotate(58)">
<text class="shape-label">m1024_n64_k1024</text>
<text y="12" class="shape-label">1024x64x1024</text>
</g>
<g transform="translate(2230.5,1498) rotate(58)">
<text class="shape-label">m64_n1024_k1024</text>
<text y="12" class="shape-label">64x1024x1024</text>
</g>
<g transform="translate(2322.7,1498) rotate(58)">
<text class="shape-label">m1024_n1024_k64</text>
<text y="12" class="shape-label">1024x1024x64</text>
</g>
<g transform="translate(2414.9,1498) rotate(58)">
<text class="shape-label">m2048_n64_k512</text>
<text y="12" class="shape-label">2048x64x512</text>
</g>
<g transform="translate(2507.1,1498) rotate(58)">
<text class="shape-label">m512_n64_k2048</text>
<text y="12" class="shape-label">512x64x2048</text>
</g>
<g transform="translate(2599.3,1498) rotate(58)">
<text class="shape-label">m64_n2048_k512</text>
<text y="12" class="shape-label">64x2048x512</text>
</g>
<g transform="translate(2691.5,1498) rotate(58)">
<text class="shape-label">m64_n512_k2048</text>
<text y="12" class="shape-label">64x512x2048</text>
</g>
<g transform="translate(2783.7,1498) rotate(58)">
<text class="shape-label">m128_n128_k4096</text>
<text y="12" class="shape-label">128x128x4096</text>
</g>
<g transform="translate(2875.9,1498) rotate(58)">
<text class="shape-label">m512_n256_k768</text>
<text y="12" class="shape-label">512x256x768</text>
</g>
<g transform="translate(2968.0,1498) rotate(58)">
<text class="shape-label">m256_n512_k768</text>
<text y="12" class="shape-label">256x512x768</text>
</g>
<g transform="translate(3060.2,1498) rotate(58)">
<text class="shape-label">m768_n512_k256</text>
<text y="12" class="shape-label">768x512x256</text>
</g>
<g transform="translate(3152.4,1498) rotate(58)">
<text class="shape-label">m512_n768_k256</text>
<text y="12" class="shape-label">512x768x256</text>
</g>
<g transform="translate(3244.6,1498) rotate(58)">
<text class="shape-label">m1536_n256_k256</text>
<text y="12" class="shape-label">1536x256x256</text>
</g>
<g transform="translate(3336.8,1498) rotate(58)">
<text class="shape-label">m256_n1536_k256</text>
<text y="12" class="shape-label">256x1536x256</text>
</g>
<g transform="translate(3429.0,1498) rotate(58)">
<text class="shape-label">sq512</text>
<text y="12" class="shape-label">512x512x512</text>
</g>
<g transform="translate(3521.2,1498) rotate(58)">
<text class="shape-label">m1024_n1024_k128</text>
<text y="12" class="shape-label">1024x1024x128</text>
</g>
<g transform="translate(3613.4,1498) rotate(58)">
<text class="shape-label">m256_n256_k2048</text>
<text y="12" class="shape-label">256x256x2048</text>
</g>
<g transform="translate(3705.6,1498) rotate(58)">
<text class="shape-label">m1024_n1024_k256</text>
<text y="12" class="shape-label">1024x1024x256</text>
</g>
<g transform="translate(3797.8,1498) rotate(58)">
<text class="shape-label">sq768</text>
<text y="12" class="shape-label">768x768x768</text>
</g>
<g transform="translate(3890.0,1498) rotate(58)">
<text class="shape-label">sq1024</text>
<text y="12" class="shape-label">1024x1024x1024</text>
</g>
</svg>