<svg xmlns="http://www.w3.org/2000/svg" width="1500" height="2785" viewBox="0 0 1500 2785">

<style>
  text { font-family: -apple-system, BlinkMacSystemFont, "Segoe UI", sans-serif; fill: #111827; }
  .title { font-size: 25px; font-weight: 700; }
  .subtitle { font-size: 13px; fill: #4b5563; }
  .panel-title { font-size: 16px; font-weight: 700; }
  .axis-label { font-size: 11px; fill: #4b5563; }
  .op-label { font-size: 11px; fill: #374151; }
  .value-label { font-size: 10px; fill: #111827; }
  .legend { font-size: 13px; }
  .axis { stroke: #111827; stroke-width: 1; }
  .grid { stroke: #e5e7eb; stroke-width: 1; }
</style>

<rect x="0" y="0" width="100%" height="100%" fill="#ffffff"/>
<text x="40" y="42" class="title">Zynum Level 1 Performance Coverage</text>
<text x="40" y="66" class="subtitle">Higher is better. Statistic: median. Fresh process per library/op/size; n=1048576; copy=8KiB,8MiB; seconds=1; grouped bars use operation names on the x-axis</text>
<rect x="1030" y="33" width="18" height="12" fill="#2563eb"/>
<text x="1056" y="43" class="legend">Zynum</text>
<rect x="1175" y="33" width="18" height="12" fill="#dc2626"/>
<text x="1201" y="43" class="legend">Accelerate</text>
<rect x="1320" y="33" width="18" height="12" fill="#16a34a"/>
<text x="1346" y="43" class="legend">OpenBLAS</text>
<text x="105" y="100" class="panel-title">Copy bandwidth (GB/s)</text>
<line x1="105" y1="360.0" x2="1450" y2="360.0" class="grid"/>
<text x="95" y="364.0" text-anchor="end" class="axis-label">0</text>
<line x1="105" y1="312.0" x2="1450" y2="312.0" class="grid"/>
<text x="95" y="316.0" text-anchor="end" class="axis-label">100</text>
<line x1="105" y1="264.0" x2="1450" y2="264.0" class="grid"/>
<text x="95" y="268.0" text-anchor="end" class="axis-label">200</text>
<line x1="105" y1="216.0" x2="1450" y2="216.0" class="grid"/>
<text x="95" y="220.0" text-anchor="end" class="axis-label">300</text>
<line x1="105" y1="168.0" x2="1450" y2="168.0" class="grid"/>
<text x="95" y="172.0" text-anchor="end" class="axis-label">400</text>
<line x1="105" y1="120.0" x2="1450" y2="120.0" class="grid"/>
<text x="95" y="124.0" text-anchor="end" class="axis-label">500</text>
<line x1="105" y1="120" x2="105" y2="360" class="axis"/>
<line x1="105" y1="360" x2="1450" y2="360" class="axis"/>
<rect x="402.2" y="180.3" width="24.0" height="179.7" fill="#2563eb"/>
<rect x="428.2" y="167.0" width="24.0" height="193.0" fill="#dc2626"/>
<rect x="454.2" y="307.9" width="24.0" height="52.1" fill="#16a34a"/>
<text x="441.2" y="378" text-anchor="start" class="op-label" transform="rotate(45 441.2 378)">scopy 8KiB</text>
<rect x="1074.8" y="252.7" width="24.0" height="107.3" fill="#2563eb"/>
<rect x="1100.8" y="238.3" width="24.0" height="121.7" fill="#dc2626"/>
<rect x="1126.8" y="279.4" width="24.0" height="80.6" fill="#16a34a"/>
<text x="1113.8" y="378" text-anchor="start" class="op-label" transform="rotate(45 1113.8 378)">dcopy 8MiB</text>
<text x="105" y="435" class="panel-title">Swap bandwidth (GB/s)</text>
<line x1="105" y1="695.0" x2="1450" y2="695.0" class="grid"/>
<text x="95" y="699.0" text-anchor="end" class="axis-label">0</text>
<line x1="105" y1="647.0" x2="1450" y2="647.0" class="grid"/>
<text x="95" y="651.0" text-anchor="end" class="axis-label">100</text>
<line x1="105" y1="599.0" x2="1450" y2="599.0" class="grid"/>
<text x="95" y="603.0" text-anchor="end" class="axis-label">200</text>
<line x1="105" y1="551.0" x2="1450" y2="551.0" class="grid"/>
<text x="95" y="555.0" text-anchor="end" class="axis-label">300</text>
<line x1="105" y1="503.0" x2="1450" y2="503.0" class="grid"/>
<text x="95" y="507.0" text-anchor="end" class="axis-label">400</text>
<line x1="105" y1="455.0" x2="1450" y2="455.0" class="grid"/>
<text x="95" y="459.0" text-anchor="end" class="axis-label">500</text>
<line x1="105" y1="455" x2="105" y2="695" class="axis"/>
<line x1="105" y1="695" x2="1450" y2="695" class="axis"/>
<rect x="234.1" y="523.2" width="24.0" height="171.8" fill="#2563eb"/>
<rect x="260.1" y="490.1" width="24.0" height="204.9" fill="#dc2626"/>
<rect x="286.1" y="647.1" width="24.0" height="47.9" fill="#16a34a"/>
<text x="273.1" y="713" text-anchor="middle" class="op-label">sswap</text>
<rect x="570.4" y="550.6" width="24.0" height="144.4" fill="#2563eb"/>
<rect x="596.4" y="537.6" width="24.0" height="157.4" fill="#dc2626"/>
<rect x="622.4" y="598.0" width="24.0" height="97.0" fill="#16a34a"/>
<text x="609.4" y="713" text-anchor="middle" class="op-label">dswap</text>
<rect x="906.6" y="542.4" width="24.0" height="152.6" fill="#2563eb"/>
<rect x="932.6" y="541.5" width="24.0" height="153.5" fill="#dc2626"/>
<rect x="958.6" y="594.8" width="24.0" height="100.2" fill="#16a34a"/>
<text x="945.6" y="713" text-anchor="middle" class="op-label">cswap</text>
<rect x="1242.9" y="617.9" width="24.0" height="77.1" fill="#2563eb"/>
<rect x="1268.9" y="632.8" width="24.0" height="62.2" fill="#dc2626"/>
<rect x="1294.9" y="611.4" width="24.0" height="83.6" fill="#16a34a"/>
<text x="1281.9" y="713" text-anchor="middle" class="op-label">zswap</text>
<text x="105" y="770" class="panel-title">Index reduction bandwidth (GB/s)</text>
<line x1="105" y1="1030.0" x2="1450" y2="1030.0" class="grid"/>
<text x="95" y="1034.0" text-anchor="end" class="axis-label">0</text>
<line x1="105" y1="970.0" x2="1450" y2="970.0" class="grid"/>
<text x="95" y="974.0" text-anchor="end" class="axis-label">50</text>
<line x1="105" y1="910.0" x2="1450" y2="910.0" class="grid"/>
<text x="95" y="914.0" text-anchor="end" class="axis-label">100</text>
<line x1="105" y1="850.0" x2="1450" y2="850.0" class="grid"/>
<text x="95" y="854.0" text-anchor="end" class="axis-label">150</text>
<line x1="105" y1="790.0" x2="1450" y2="790.0" class="grid"/>
<text x="95" y="794.0" text-anchor="end" class="axis-label">200</text>
<line x1="105" y1="790" x2="105" y2="1030" class="axis"/>
<line x1="105" y1="1030" x2="1450" y2="1030" class="axis"/>
<rect x="234.1" y="929.8" width="24.0" height="100.2" fill="#2563eb"/>
<rect x="260.1" y="969.8" width="24.0" height="60.2" fill="#dc2626"/>
<rect x="286.1" y="919.9" width="24.0" height="110.1" fill="#16a34a"/>
<text x="273.1" y="1048" text-anchor="middle" class="op-label">isamax</text>
<rect x="570.4" y="928.1" width="24.0" height="101.9" fill="#2563eb"/>
<rect x="596.4" y="968.4" width="24.0" height="61.6" fill="#dc2626"/>
<rect x="622.4" y="867.2" width="24.0" height="162.8" fill="#16a34a"/>
<text x="609.4" y="1048" text-anchor="middle" class="op-label">idamax</text>
<rect x="906.6" y="835.0" width="24.0" height="195.0" fill="#2563eb"/>
<rect x="932.6" y="1007.0" width="24.0" height="23.0" fill="#dc2626"/>
<rect x="958.6" y="862.8" width="24.0" height="167.2" fill="#16a34a"/>
<text x="945.6" y="1048" text-anchor="middle" class="op-label">icamax</text>
<rect x="1242.9" y="835.6" width="24.0" height="194.4" fill="#2563eb"/>
<rect x="1268.9" y="966.2" width="24.0" height="63.8" fill="#dc2626"/>
<rect x="1294.9" y="840.1" width="24.0" height="189.9" fill="#16a34a"/>
<text x="1281.9" y="1048" text-anchor="middle" class="op-label">izamax</text>
<text x="105" y="1105" class="panel-title">Real f32 Level 1 (Gops)</text>
<line x1="105" y1="1365.0" x2="1450" y2="1365.0" class="grid"/>
<text x="95" y="1369.0" text-anchor="end" class="axis-label">0</text>
<line x1="105" y1="1305.0" x2="1450" y2="1305.0" class="grid"/>
<text x="95" y="1309.0" text-anchor="end" class="axis-label">50</text>
<line x1="105" y1="1245.0" x2="1450" y2="1245.0" class="grid"/>
<text x="95" y="1249.0" text-anchor="end" class="axis-label">100</text>
<line x1="105" y1="1185.0" x2="1450" y2="1185.0" class="grid"/>
<text x="95" y="1189.0" text-anchor="end" class="axis-label">150</text>
<line x1="105" y1="1125.0" x2="1450" y2="1125.0" class="grid"/>
<text x="95" y="1129.0" text-anchor="end" class="axis-label">200</text>
<line x1="105" y1="1125" x2="105" y2="1365" class="axis"/>
<line x1="105" y1="1365" x2="1450" y2="1365" class="axis"/>
<rect x="140.7" y="1307.3" width="24.0" height="57.7" fill="#2563eb"/>
<rect x="166.7" y="1298.3" width="24.0" height="66.7" fill="#dc2626"/>
<rect x="192.7" y="1345.9" width="24.0" height="19.1" fill="#16a34a"/>
<text x="179.7" y="1383" text-anchor="middle" class="op-label">sscal</text>
<rect x="290.2" y="1293.8" width="24.0" height="71.2" fill="#2563eb"/>
<rect x="316.2" y="1256.3" width="24.0" height="108.7" fill="#dc2626"/>
<rect x="342.2" y="1329.0" width="24.0" height="36.0" fill="#16a34a"/>
<text x="329.2" y="1383" text-anchor="middle" class="op-label">saxpy</text>
<rect x="439.6" y="1166.4" width="24.0" height="198.6" fill="#2563eb"/>
<rect x="465.6" y="1151.8" width="24.0" height="213.2" fill="#dc2626"/>
<rect x="491.6" y="1323.7" width="24.0" height="41.3" fill="#16a34a"/>
<text x="478.6" y="1383" text-anchor="middle" class="op-label">sdot</text>
<rect x="589.1" y="1296.9" width="24.0" height="68.1" fill="#2563eb"/>
<rect x="615.1" y="1287.3" width="24.0" height="77.7" fill="#dc2626"/>
<rect x="641.1" y="1337.2" width="24.0" height="27.8" fill="#16a34a"/>
<text x="628.1" y="1383" text-anchor="middle" class="op-label">sasum</text>
<rect x="738.5" y="1299.8" width="24.0" height="65.2" fill="#2563eb"/>
<rect x="764.5" y="1346.4" width="24.0" height="18.6" fill="#dc2626"/>
<rect x="790.5" y="1362.5" width="24.0" height="2.5" fill="#16a34a"/>
<text x="777.5" y="1383" text-anchor="middle" class="op-label">snrm2</text>
<rect x="887.9" y="1267.9" width="24.0" height="97.1" fill="#2563eb"/>
<rect x="913.9" y="1167.2" width="24.0" height="197.8" fill="#dc2626"/>
<rect x="939.9" y="1311.8" width="24.0" height="53.2" fill="#16a34a"/>
<text x="926.9" y="1383" text-anchor="middle" class="op-label">srot</text>
<rect x="1037.4" y="1273.0" width="24.0" height="92.0" fill="#2563eb"/>
<rect x="1063.4" y="1163.1" width="24.0" height="201.9" fill="#dc2626"/>
<rect x="1089.4" y="1345.2" width="24.0" height="19.8" fill="#16a34a"/>
<text x="1076.4" y="1383" text-anchor="middle" class="op-label">srotm flag_m1</text>
<rect x="1186.8" y="1304.2" width="24.0" height="60.8" fill="#2563eb"/>
<rect x="1212.8" y="1234.4" width="24.0" height="130.6" fill="#dc2626"/>
<rect x="1238.8" y="1351.0" width="24.0" height="14.0" fill="#16a34a"/>
<text x="1225.8" y="1383" text-anchor="middle" class="op-label">srotm flag_0</text>
<rect x="1336.3" y="1302.7" width="24.0" height="62.3" fill="#2563eb"/>
<rect x="1362.3" y="1232.8" width="24.0" height="132.2" fill="#dc2626"/>
<rect x="1388.3" y="1351.1" width="24.0" height="13.9" fill="#16a34a"/>
<text x="1375.3" y="1383" text-anchor="middle" class="op-label">srotm flag_p1</text>
<text x="105" y="1440" class="panel-title">Real f64 Level 1 (Gops)</text>
<line x1="105" y1="1700.0" x2="1450" y2="1700.0" class="grid"/>
<text x="95" y="1704.0" text-anchor="end" class="axis-label">0</text>
<line x1="105" y1="1640.0" x2="1450" y2="1640.0" class="grid"/>
<text x="95" y="1644.0" text-anchor="end" class="axis-label">20</text>
<line x1="105" y1="1580.0" x2="1450" y2="1580.0" class="grid"/>
<text x="95" y="1584.0" text-anchor="end" class="axis-label">40</text>
<line x1="105" y1="1520.0" x2="1450" y2="1520.0" class="grid"/>
<text x="95" y="1524.0" text-anchor="end" class="axis-label">60</text>
<line x1="105" y1="1460.0" x2="1450" y2="1460.0" class="grid"/>
<text x="95" y="1464.0" text-anchor="end" class="axis-label">80</text>
<line x1="105" y1="1460" x2="105" y2="1700" class="axis"/>
<line x1="105" y1="1700" x2="1450" y2="1700" class="axis"/>
<rect x="140.7" y="1616.6" width="24.0" height="83.4" fill="#2563eb"/>
<rect x="166.7" y="1620.5" width="24.0" height="79.5" fill="#dc2626"/>
<rect x="192.7" y="1674.7" width="24.0" height="25.3" fill="#16a34a"/>
<text x="179.7" y="1718" text-anchor="middle" class="op-label">dscal</text>
<rect x="290.2" y="1630.6" width="24.0" height="69.4" fill="#2563eb"/>
<rect x="316.2" y="1623.9" width="24.0" height="76.1" fill="#dc2626"/>
<rect x="342.2" y="1642.4" width="24.0" height="57.6" fill="#16a34a"/>
<text x="329.2" y="1718" text-anchor="middle" class="op-label">daxpy</text>
<rect x="439.6" y="1606.1" width="24.0" height="93.9" fill="#2563eb"/>
<rect x="465.6" y="1589.4" width="24.0" height="110.6" fill="#dc2626"/>
<rect x="491.6" y="1632.8" width="24.0" height="67.2" fill="#16a34a"/>
<text x="478.6" y="1718" text-anchor="middle" class="op-label">ddot</text>
<rect x="589.1" y="1612.3" width="24.0" height="87.7" fill="#2563eb"/>
<rect x="615.1" y="1606.0" width="24.0" height="94.0" fill="#dc2626"/>
<rect x="641.1" y="1649.0" width="24.0" height="51.0" fill="#16a34a"/>
<text x="628.1" y="1718" text-anchor="middle" class="op-label">dasum</text>
<rect x="738.5" y="1588.2" width="24.0" height="111.8" fill="#2563eb"/>
<rect x="764.5" y="1676.5" width="24.0" height="23.5" fill="#dc2626"/>
<rect x="790.5" y="1693.7" width="24.0" height="6.3" fill="#16a34a"/>
<text x="777.5" y="1718" text-anchor="middle" class="op-label">dnrm2</text>
<rect x="887.9" y="1536.3" width="24.0" height="163.7" fill="#2563eb"/>
<rect x="913.9" y="1533.0" width="24.0" height="167.0" fill="#dc2626"/>
<rect x="939.9" y="1632.4" width="24.0" height="67.6" fill="#16a34a"/>
<text x="926.9" y="1718" text-anchor="middle" class="op-label">drot</text>
<rect x="1037.4" y="1529.9" width="24.0" height="170.1" fill="#2563eb"/>
<rect x="1063.4" y="1531.3" width="24.0" height="168.7" fill="#dc2626"/>
<rect x="1089.4" y="1653.4" width="24.0" height="46.6" fill="#16a34a"/>
<text x="1076.4" y="1718" text-anchor="middle" class="op-label">drotm flag_m1</text>
<rect x="1186.8" y="1582.7" width="24.0" height="117.3" fill="#2563eb"/>
<rect x="1212.8" y="1583.6" width="24.0" height="116.4" fill="#dc2626"/>
<rect x="1238.8" y="1668.1" width="24.0" height="31.9" fill="#16a34a"/>
<text x="1225.8" y="1718" text-anchor="middle" class="op-label">drotm flag_0</text>
<rect x="1336.3" y="1584.3" width="24.0" height="115.7" fill="#2563eb"/>
<rect x="1362.3" y="1586.5" width="24.0" height="113.5" fill="#dc2626"/>
<rect x="1388.3" y="1668.2" width="24.0" height="31.8" fill="#16a34a"/>
<text x="1375.3" y="1718" text-anchor="middle" class="op-label">drotm flag_p1</text>
<text x="105" y="1775" class="panel-title">Mixed-precision dot Level 1 (Gops)</text>
<line x1="105" y1="2035.0" x2="1450" y2="2035.0" class="grid"/>
<text x="95" y="2039.0" text-anchor="end" class="axis-label">0</text>
<line x1="105" y1="1987.0" x2="1450" y2="1987.0" class="grid"/>
<text x="95" y="1991.0" text-anchor="end" class="axis-label">5</text>
<line x1="105" y1="1939.0" x2="1450" y2="1939.0" class="grid"/>
<text x="95" y="1943.0" text-anchor="end" class="axis-label">10</text>
<line x1="105" y1="1891.0" x2="1450" y2="1891.0" class="grid"/>
<text x="95" y="1895.0" text-anchor="end" class="axis-label">15</text>
<line x1="105" y1="1843.0" x2="1450" y2="1843.0" class="grid"/>
<text x="95" y="1847.0" text-anchor="end" class="axis-label">20</text>
<line x1="105" y1="1795.0" x2="1450" y2="1795.0" class="grid"/>
<text x="95" y="1799.0" text-anchor="end" class="axis-label">25</text>
<line x1="105" y1="1795" x2="105" y2="2035" class="axis"/>
<line x1="105" y1="2035" x2="1450" y2="2035" class="axis"/>
<rect x="402.2" y="1842.8" width="24.0" height="192.2" fill="#2563eb"/>
<rect x="428.2" y="1950.8" width="24.0" height="84.2" fill="#dc2626"/>
<rect x="454.2" y="1919.4" width="24.0" height="115.6" fill="#16a34a"/>
<text x="441.2" y="2053" text-anchor="middle" class="op-label">sdsdot</text>
<rect x="1074.8" y="1836.9" width="24.0" height="198.1" fill="#2563eb"/>
<rect x="1100.8" y="1950.4" width="24.0" height="84.6" fill="#dc2626"/>
<rect x="1126.8" y="1922.7" width="24.0" height="112.3" fill="#16a34a"/>
<text x="1113.8" y="2053" text-anchor="middle" class="op-label">dsdot</text>
<text x="105" y="2110" class="panel-title">Complex f32 Level 1 (Gops)</text>
<line x1="105" y1="2370.0" x2="1450" y2="2370.0" class="grid"/>
<text x="95" y="2374.0" text-anchor="end" class="axis-label">0</text>
<line x1="105" y1="2310.0" x2="1450" y2="2310.0" class="grid"/>
<text x="95" y="2314.0" text-anchor="end" class="axis-label">50</text>
<line x1="105" y1="2250.0" x2="1450" y2="2250.0" class="grid"/>
<text x="95" y="2254.0" text-anchor="end" class="axis-label">100</text>
<line x1="105" y1="2190.0" x2="1450" y2="2190.0" class="grid"/>
<text x="95" y="2194.0" text-anchor="end" class="axis-label">150</text>
<line x1="105" y1="2130.0" x2="1450" y2="2130.0" class="grid"/>
<text x="95" y="2134.0" text-anchor="end" class="axis-label">200</text>
<line x1="105" y1="2130" x2="105" y2="2370" class="axis"/>
<line x1="105" y1="2370" x2="1450" y2="2370" class="axis"/>
<rect x="150.1" y="2303.7" width="24.0" height="66.3" fill="#2563eb"/>
<rect x="176.1" y="2303.2" width="24.0" height="66.8" fill="#dc2626"/>
<rect x="202.1" y="2356.6" width="24.0" height="13.4" fill="#16a34a"/>
<text x="189.1" y="2388" text-anchor="middle" class="op-label">csscal</text>
<rect x="318.2" y="2182.8" width="24.0" height="187.2" fill="#2563eb"/>
<rect x="344.2" y="2321.7" width="24.0" height="48.3" fill="#dc2626"/>
<rect x="370.2" y="2327.4" width="24.0" height="42.6" fill="#16a34a"/>
<text x="357.2" y="2388" text-anchor="middle" class="op-label">cscal</text>
<rect x="486.3" y="2283.6" width="24.0" height="86.4" fill="#2563eb"/>
<rect x="512.3" y="2321.2" width="24.0" height="48.8" fill="#dc2626"/>
<rect x="538.3" y="2285.6" width="24.0" height="84.4" fill="#16a34a"/>
<text x="525.3" y="2388" text-anchor="middle" class="op-label">caxpy</text>
<rect x="654.4" y="2321.0" width="24.0" height="49.0" fill="#2563eb"/>
<rect x="680.4" y="2331.0" width="24.0" height="39.0" fill="#dc2626"/>
<rect x="706.4" y="2265.3" width="24.0" height="104.7" fill="#16a34a"/>
<text x="693.4" y="2388" text-anchor="middle" class="op-label">cdotu</text>
<rect x="822.6" y="2321.1" width="24.0" height="48.9" fill="#2563eb"/>
<rect x="848.6" y="2331.8" width="24.0" height="38.2" fill="#dc2626"/>
<rect x="874.6" y="2268.1" width="24.0" height="101.9" fill="#16a34a"/>
<text x="861.6" y="2388" text-anchor="middle" class="op-label">cdotc</text>
<rect x="990.7" y="2298.9" width="24.0" height="71.1" fill="#2563eb"/>
<rect x="1016.7" y="2292.8" width="24.0" height="77.2" fill="#dc2626"/>
<rect x="1042.7" y="2328.6" width="24.0" height="41.4" fill="#16a34a"/>
<text x="1029.7" y="2388" text-anchor="middle" class="op-label">scasum</text>
<rect x="1158.8" y="2280.8" width="24.0" height="89.2" fill="#2563eb"/>
<rect x="1184.8" y="2351.0" width="24.0" height="19.0" fill="#dc2626"/>
<rect x="1210.8" y="2367.5" width="24.0" height="2.5" fill="#16a34a"/>
<text x="1197.8" y="2388" text-anchor="middle" class="op-label">scnrm2</text>
<rect x="1326.9" y="2238.7" width="24.0" height="131.3" fill="#2563eb"/>
<rect x="1352.9" y="2238.0" width="24.0" height="132.0" fill="#dc2626"/>
<rect x="1378.9" y="2314.0" width="24.0" height="56.0" fill="#16a34a"/>
<text x="1365.9" y="2388" text-anchor="middle" class="op-label">csrot</text>
<text x="105" y="2445" class="panel-title">Complex f64 Level 1 (Gops)</text>
<line x1="105" y1="2705.0" x2="1450" y2="2705.0" class="grid"/>
<text x="95" y="2709.0" text-anchor="end" class="axis-label">0</text>
<line x1="105" y1="2625.0" x2="1450" y2="2625.0" class="grid"/>
<text x="95" y="2629.0" text-anchor="end" class="axis-label">20</text>
<line x1="105" y1="2545.0" x2="1450" y2="2545.0" class="grid"/>
<text x="95" y="2549.0" text-anchor="end" class="axis-label">40</text>
<line x1="105" y1="2465.0" x2="1450" y2="2465.0" class="grid"/>
<text x="95" y="2469.0" text-anchor="end" class="axis-label">60</text>
<line x1="105" y1="2465" x2="105" y2="2705" class="axis"/>
<line x1="105" y1="2705" x2="1450" y2="2705" class="axis"/>
<rect x="150.1" y="2651.9" width="24.0" height="53.1" fill="#2563eb"/>
<rect x="176.1" y="2621.0" width="24.0" height="84.0" fill="#dc2626"/>
<rect x="202.1" y="2682.6" width="24.0" height="22.4" fill="#16a34a"/>
<text x="189.1" y="2723" text-anchor="middle" class="op-label">zdscal</text>
<rect x="318.2" y="2515.9" width="24.0" height="189.1" fill="#2563eb"/>
<rect x="344.2" y="2621.6" width="24.0" height="83.4" fill="#dc2626"/>
<rect x="370.2" y="2636.9" width="24.0" height="68.1" fill="#16a34a"/>
<text x="357.2" y="2723" text-anchor="middle" class="op-label">zscal</text>
<rect x="486.3" y="2587.0" width="24.0" height="118.0" fill="#2563eb"/>
<rect x="512.3" y="2637.4" width="24.0" height="67.6" fill="#dc2626"/>
<rect x="538.3" y="2580.4" width="24.0" height="124.6" fill="#16a34a"/>
<text x="525.3" y="2723" text-anchor="middle" class="op-label">zaxpy</text>
<rect x="654.4" y="2589.4" width="24.0" height="115.6" fill="#2563eb"/>
<rect x="680.4" y="2631.1" width="24.0" height="73.9" fill="#dc2626"/>
<rect x="706.4" y="2569.7" width="24.0" height="135.3" fill="#16a34a"/>
<text x="693.4" y="2723" text-anchor="middle" class="op-label">zdotu</text>
<rect x="822.6" y="2592.7" width="24.0" height="112.3" fill="#2563eb"/>
<rect x="848.6" y="2630.7" width="24.0" height="74.3" fill="#dc2626"/>
<rect x="874.6" y="2569.0" width="24.0" height="136.0" fill="#16a34a"/>
<text x="861.6" y="2723" text-anchor="middle" class="op-label">zdotc</text>
<rect x="990.7" y="2617.9" width="24.0" height="87.1" fill="#2563eb"/>
<rect x="1016.7" y="2632.8" width="24.0" height="72.2" fill="#dc2626"/>
<rect x="1042.7" y="2626.5" width="24.0" height="78.5" fill="#16a34a"/>
<text x="1029.7" y="2723" text-anchor="middle" class="op-label">dzasum</text>
<rect x="1158.8" y="2537.2" width="24.0" height="167.8" fill="#2563eb"/>
<rect x="1184.8" y="2697.0" width="24.0" height="8.0" fill="#dc2626"/>
<rect x="1210.8" y="2696.6" width="24.0" height="8.4" fill="#16a34a"/>
<text x="1197.8" y="2723" text-anchor="middle" class="op-label">dznrm2</text>
<rect x="1326.9" y="2584.3" width="24.0" height="120.7" fill="#2563eb"/>
<rect x="1352.9" y="2608.9" width="24.0" height="96.1" fill="#dc2626"/>
<rect x="1378.9" y="2621.3" width="24.0" height="83.7" fill="#16a34a"/>
<text x="1365.9" y="2723" text-anchor="middle" class="op-label">zdrot</text>
</svg>
