<svg xmlns="http://www.w3.org/2000/svg" width="2400" height="1242" viewBox="0 0 2400 1242">

<style>
  text { font-family: -apple-system, BlinkMacSystemFont, "Segoe UI", sans-serif; fill: #111827; }
  .title { font-size: 26px; font-weight: 700; }
  .sub { font-size: 13px; fill: #4b5563; }
  .panel { font-size: 17px; font-weight: 700; }
  .tick { font-size: 11px; fill: #4b5563; }
  .op { font-size: 10px; fill: #374151; }
  .val { font-size: 8px; fill: #111827; }
  .legend { font-size: 14px; }
  .axis { stroke: #111827; stroke-width: 1; }
  .grid { stroke: #e5e7eb; stroke-width: 1; }
</style>

<rect width="100%" height="100%" fill="#fff"/>
<text x="38" y="42" class="title">Level 2 current performance - real and complex types</text>
<text x="38" y="66" class="sub">Higher is better. Statistic: median. Fresh process per library and size, metric = Gops. Panels use the CSV n values; bars follow the legend order.</text>
<rect x="1855" y="43" width="20" height="13" fill="#2563eb"/>
<text x="1883" y="55" class="legend">Zynum</text>
<rect x="2025" y="43" width="20" height="13" fill="#dc2626"/>
<text x="2053" y="55" class="legend">Accelerate</text>
<rect x="2195" y="43" width="20" height="13" fill="#16a34a"/>
<text x="2223" y="55" class="legend">OpenBLAS</text>
<text x="90" y="95" class="panel">n=128</text>
<line x1="90" y1="388.0" x2="2365" y2="388.0" class="grid"/>
<text x="80" y="392.0" text-anchor="end" class="tick">0</text>
<line x1="90" y1="334.0" x2="2365" y2="334.0" class="grid"/>
<text x="80" y="338.0" text-anchor="end" class="tick">10</text>
<line x1="90" y1="280.0" x2="2365" y2="280.0" class="grid"/>
<text x="80" y="284.0" text-anchor="end" class="tick">20</text>
<line x1="90" y1="226.0" x2="2365" y2="226.0" class="grid"/>
<text x="80" y="230.0" text-anchor="end" class="tick">30</text>
<line x1="90" y1="172.0" x2="2365" y2="172.0" class="grid"/>
<text x="80" y="176.0" text-anchor="end" class="tick">40</text>
<line x1="90" y1="118.0" x2="2365" y2="118.0" class="grid"/>
<text x="80" y="122.0" text-anchor="end" class="tick">50</text>
<line x1="90" y1="118" x2="90" y2="388" class="axis"/>
<line x1="90" y1="388" x2="2365" y2="388" class="axis"/>
<rect x="114.2" y="317.2" width="24.0" height="70.8" fill="#2563eb"><title>sgemv_n Zynum n=128: 13.107 Gops</title></rect>
<text x="126.2" y="313.2" text-anchor="middle" class="val">13.1</text>
<rect x="140.2" y="311.3" width="24.0" height="76.7" fill="#dc2626"><title>sgemv_n Accelerate n=128: 14.199 Gops</title></rect>
<text x="152.2" y="307.3" text-anchor="middle" class="val">14.2</text>
<rect x="166.2" y="305.5" width="24.0" height="82.5" fill="#16a34a"><title>sgemv_n OpenBLAS n=128: 15.271 Gops</title></rect>
<text x="178.2" y="301.5" text-anchor="middle" class="val">15.3</text>
<text x="153.2" y="406" text-anchor="end" transform="rotate(-28 153.2 406)" class="op">sgemv_n</text>
<rect x="240.6" y="313.5" width="24.0" height="74.5" fill="#2563eb"><title>sgemv_t Zynum n=128: 13.797 Gops</title></rect>
<text x="252.6" y="309.5" text-anchor="middle" class="val">13.8</text>
<rect x="266.6" y="318.3" width="24.0" height="69.7" fill="#dc2626"><title>sgemv_t Accelerate n=128: 12.904 Gops</title></rect>
<text x="278.6" y="314.3" text-anchor="middle" class="val">12.9</text>
<rect x="292.6" y="323.7" width="24.0" height="64.3" fill="#16a34a"><title>sgemv_t OpenBLAS n=128: 11.916 Gops</title></rect>
<text x="304.6" y="319.7" text-anchor="middle" class="val">11.9</text>
<text x="279.6" y="406" text-anchor="end" transform="rotate(-28 279.6 406)" class="op">sgemv_t</text>
<rect x="367.0" y="318.4" width="24.0" height="69.6" fill="#2563eb"><title>ssymv Zynum n=128: 12.891 Gops</title></rect>
<text x="379.0" y="314.4" text-anchor="middle" class="val">12.9</text>
<rect x="393.0" y="345.9" width="24.0" height="42.1" fill="#dc2626"><title>ssymv Accelerate n=128: 7.799 Gops</title></rect>
<text x="405.0" y="341.9" text-anchor="middle" class="val">7.8</text>
<rect x="419.0" y="304.7" width="24.0" height="83.3" fill="#16a34a"><title>ssymv OpenBLAS n=128: 15.420 Gops</title></rect>
<text x="431.0" y="300.7" text-anchor="middle" class="val">15.4</text>
<text x="406.0" y="406" text-anchor="end" transform="rotate(-28 406.0 406)" class="op">ssymv</text>
<rect x="493.4" y="318.4" width="24.0" height="69.6" fill="#2563eb"><title>sger Zynum n=128: 12.891 Gops</title></rect>
<text x="505.4" y="314.4" text-anchor="middle" class="val">12.9</text>
<rect x="519.4" y="308.5" width="24.0" height="79.5" fill="#dc2626"><title>sger Accelerate n=128: 14.730 Gops</title></rect>
<text x="531.4" y="304.5" text-anchor="middle" class="val">14.7</text>
<rect x="545.4" y="381.1" width="24.0" height="6.9" fill="#16a34a"><title>sger OpenBLAS n=128: 1.272 Gops</title></rect>
<text x="557.4" y="377.1" text-anchor="middle" class="val">1.3</text>
<text x="532.4" y="406" text-anchor="end" transform="rotate(-28 532.4 406)" class="op">sger</text>
<rect x="619.8" y="316.0" width="24.0" height="72.0" fill="#2563eb"><title>dgemv_n Zynum n=128: 13.331 Gops</title></rect>
<text x="631.8" y="312.0" text-anchor="middle" class="val">13.3</text>
<rect x="645.8" y="313.5" width="24.0" height="74.5" fill="#dc2626"><title>dgemv_n Accelerate n=128: 13.801 Gops</title></rect>
<text x="657.8" y="309.5" text-anchor="middle" class="val">13.8</text>
<rect x="671.8" y="339.7" width="24.0" height="48.3" fill="#16a34a"><title>dgemv_n OpenBLAS n=128: 8.937 Gops</title></rect>
<text x="683.8" y="335.7" text-anchor="middle" class="val">8.9</text>
<text x="658.8" y="406" text-anchor="end" transform="rotate(-28 658.8 406)" class="op">dgemv_n</text>
<rect x="746.1" y="316.6" width="24.0" height="71.4" fill="#2563eb"><title>dgemv_t Zynum n=128: 13.216 Gops</title></rect>
<text x="758.1" y="312.6" text-anchor="middle" class="val">13.2</text>
<rect x="772.1" y="315.4" width="24.0" height="72.6" fill="#dc2626"><title>dgemv_t Accelerate n=128: 13.452 Gops</title></rect>
<text x="784.1" y="311.4" text-anchor="middle" class="val">13.5</text>
<rect x="798.1" y="339.7" width="24.0" height="48.3" fill="#16a34a"><title>dgemv_t OpenBLAS n=128: 8.937 Gops</title></rect>
<text x="810.1" y="335.7" text-anchor="middle" class="val">8.9</text>
<text x="785.1" y="406" text-anchor="end" transform="rotate(-28 785.1 406)" class="op">dgemv_t</text>
<rect x="872.5" y="329.0" width="24.0" height="59.0" fill="#2563eb"><title>dsymv Zynum n=128: 10.923 Gops</title></rect>
<text x="884.5" y="325.0" text-anchor="middle" class="val">10.9</text>
<rect x="898.5" y="360.5" width="24.0" height="27.5" fill="#dc2626"><title>dsymv Accelerate n=128: 5.087 Gops</title></rect>
<text x="910.5" y="356.5" text-anchor="middle" class="val">5.1</text>
<rect x="924.5" y="318.9" width="24.0" height="69.1" fill="#16a34a"><title>dsymv OpenBLAS n=128: 12.788 Gops</title></rect>
<text x="936.5" y="314.9" text-anchor="middle" class="val">12.8</text>
<text x="911.5" y="406" text-anchor="end" transform="rotate(-28 911.5 406)" class="op">dsymv</text>
<rect x="998.9" y="343.3" width="24.0" height="44.7" fill="#2563eb"><title>dger Zynum n=128: 8.279 Gops</title></rect>
<text x="1010.9" y="339.3" text-anchor="middle" class="val">8.3</text>
<rect x="1024.9" y="320.0" width="24.0" height="68.0" fill="#dc2626"><title>dger Accelerate n=128: 12.589 Gops</title></rect>
<text x="1036.9" y="316.0" text-anchor="middle" class="val">12.6</text>
<rect x="1050.9" y="381.4" width="24.0" height="6.6" fill="#16a34a"><title>dger OpenBLAS n=128: 1.217 Gops</title></rect>
<text x="1062.9" y="377.4" text-anchor="middle" class="val">1.2</text>
<text x="1037.9" y="406" text-anchor="end" transform="rotate(-28 1037.9 406)" class="op">dger</text>
<rect x="1125.3" y="183.3" width="24.0" height="204.7" fill="#2563eb"><title>cgemv_n Zynum n=128: 37.904 Gops</title></rect>
<text x="1137.3" y="179.3" text-anchor="middle" class="val">37.9</text>
<rect x="1151.3" y="205.3" width="24.0" height="182.7" fill="#dc2626"><title>cgemv_n Accelerate n=128: 33.825 Gops</title></rect>
<text x="1163.3" y="201.3" text-anchor="middle" class="val">33.8</text>
<rect x="1177.3" y="363.9" width="24.0" height="24.1" fill="#16a34a"><title>cgemv_n OpenBLAS n=128: 4.462 Gops</title></rect>
<text x="1189.3" y="359.9" text-anchor="middle" class="val">4.5</text>
<text x="1164.3" y="406" text-anchor="end" transform="rotate(-28 1164.3 406)" class="op">cgemv_n</text>
<rect x="1251.7" y="168.8" width="24.0" height="219.2" fill="#2563eb"><title>cgemv_t Zynum n=128: 40.587 Gops</title></rect>
<text x="1263.7" y="164.8" text-anchor="middle" class="val">40.6</text>
<rect x="1277.7" y="189.3" width="24.0" height="198.7" fill="#dc2626"><title>cgemv_t Accelerate n=128: 36.788 Gops</title></rect>
<text x="1289.7" y="185.3" text-anchor="middle" class="val">36.8</text>
<rect x="1303.7" y="362.9" width="24.0" height="25.1" fill="#16a34a"><title>cgemv_t OpenBLAS n=128: 4.657 Gops</title></rect>
<text x="1315.7" y="358.9" text-anchor="middle" class="val">4.7</text>
<text x="1290.7" y="406" text-anchor="end" transform="rotate(-28 1290.7 406)" class="op">cgemv_t</text>
<rect x="1378.1" y="231.4" width="24.0" height="156.6" fill="#2563eb"><title>chemv Zynum n=128: 28.996 Gops</title></rect>
<text x="1390.1" y="227.4" text-anchor="middle" class="val">29.0</text>
<rect x="1404.1" y="260.3" width="24.0" height="127.7" fill="#dc2626"><title>chemv Accelerate n=128: 23.654 Gops</title></rect>
<text x="1416.1" y="256.3" text-anchor="middle" class="val">23.7</text>
<rect x="1430.1" y="271.6" width="24.0" height="116.4" fill="#16a34a"><title>chemv OpenBLAS n=128: 21.547 Gops</title></rect>
<text x="1442.1" y="267.6" text-anchor="middle" class="val">21.5</text>
<text x="1417.1" y="406" text-anchor="end" transform="rotate(-28 1417.1 406)" class="op">chemv</text>
<rect x="1504.5" y="195.0" width="24.0" height="193.0" fill="#2563eb"><title>cgeru Zynum n=128: 35.744 Gops</title></rect>
<text x="1516.5" y="191.0" text-anchor="middle" class="val">35.7</text>
<rect x="1530.5" y="228.5" width="24.0" height="159.5" fill="#dc2626"><title>cgeru Accelerate n=128: 29.535 Gops</title></rect>
<text x="1542.5" y="224.5" text-anchor="middle" class="val">29.5</text>
<rect x="1556.5" y="362.1" width="24.0" height="25.9" fill="#16a34a"><title>cgeru OpenBLAS n=128: 4.796 Gops</title></rect>
<text x="1568.5" y="358.1" text-anchor="middle" class="val">4.8</text>
<text x="1543.5" y="406" text-anchor="end" transform="rotate(-28 1543.5 406)" class="op">cgeru</text>
<rect x="1630.9" y="195.0" width="24.0" height="193.0" fill="#2563eb"><title>cgerc Zynum n=128: 35.744 Gops</title></rect>
<text x="1642.9" y="191.0" text-anchor="middle" class="val">35.7</text>
<rect x="1656.9" y="212.9" width="24.0" height="175.1" fill="#dc2626"><title>cgerc Accelerate n=128: 32.428 Gops</title></rect>
<text x="1668.9" y="208.9" text-anchor="middle" class="val">32.4</text>
<rect x="1682.9" y="362.6" width="24.0" height="25.4" fill="#16a34a"><title>cgerc OpenBLAS n=128: 4.696 Gops</title></rect>
<text x="1694.9" y="358.6" text-anchor="middle" class="val">4.7</text>
<text x="1669.9" y="406" text-anchor="end" transform="rotate(-28 1669.9 406)" class="op">cgerc</text>
<rect x="1757.2" y="230.0" width="24.0" height="158.0" fill="#2563eb"><title>zgemv_n Zynum n=128: 29.264 Gops</title></rect>
<text x="1769.2" y="226.0" text-anchor="middle" class="val">29.3</text>
<rect x="1783.2" y="233.6" width="24.0" height="154.4" fill="#dc2626"><title>zgemv_n Accelerate n=128: 28.600 Gops</title></rect>
<text x="1795.2" y="229.6" text-anchor="middle" class="val">28.6</text>
<rect x="1809.2" y="365.1" width="24.0" height="22.9" fill="#16a34a"><title>zgemv_n OpenBLAS n=128: 4.234 Gops</title></rect>
<text x="1821.2" y="361.1" text-anchor="middle" class="val">4.2</text>
<text x="1796.2" y="406" text-anchor="end" transform="rotate(-28 1796.2 406)" class="op">zgemv_n</text>
<rect x="1883.6" y="235.0" width="24.0" height="153.0" fill="#2563eb"><title>zgemv_t Zynum n=128: 28.340 Gops</title></rect>
<text x="1895.6" y="231.0" text-anchor="middle" class="val">28.3</text>
<rect x="1909.6" y="216.4" width="24.0" height="171.6" fill="#dc2626"><title>zgemv_t Accelerate n=128: 31.782 Gops</title></rect>
<text x="1921.6" y="212.4" text-anchor="middle" class="val">31.8</text>
<rect x="1935.6" y="362.7" width="24.0" height="25.3" fill="#16a34a"><title>zgemv_t OpenBLAS n=128: 4.681 Gops</title></rect>
<text x="1947.6" y="358.7" text-anchor="middle" class="val">4.7</text>
<text x="1922.6" y="406" text-anchor="end" transform="rotate(-28 1922.6 406)" class="op">zgemv_t</text>
<rect x="2010.0" y="274.0" width="24.0" height="114.0" fill="#2563eb"><title>zhemv Zynum n=128: 21.113 Gops</title></rect>
<text x="2022.0" y="270.0" text-anchor="middle" class="val">21.1</text>
<rect x="2036.0" y="291.8" width="24.0" height="96.2" fill="#dc2626"><title>zhemv Accelerate n=128: 17.822 Gops</title></rect>
<text x="2048.0" y="287.8" text-anchor="middle" class="val">17.8</text>
<rect x="2062.0" y="307.9" width="24.0" height="80.1" fill="#16a34a"><title>zhemv OpenBLAS n=128: 14.839 Gops</title></rect>
<text x="2074.0" y="303.9" text-anchor="middle" class="val">14.8</text>
<text x="2049.0" y="406" text-anchor="end" transform="rotate(-28 2049.0 406)" class="op">zhemv</text>
<rect x="2136.4" y="217.3" width="24.0" height="170.7" fill="#2563eb"><title>zgeru Zynum n=128: 31.619 Gops</title></rect>
<text x="2148.4" y="213.3" text-anchor="middle" class="val">31.6</text>
<rect x="2162.4" y="264.0" width="24.0" height="124.0" fill="#dc2626"><title>zgeru Accelerate n=128: 22.964 Gops</title></rect>
<text x="2174.4" y="260.0" text-anchor="middle" class="val">23.0</text>
<rect x="2188.4" y="363.3" width="24.0" height="24.7" fill="#16a34a"><title>zgeru OpenBLAS n=128: 4.566 Gops</title></rect>
<text x="2200.4" y="359.3" text-anchor="middle" class="val">4.6</text>
<text x="2175.4" y="406" text-anchor="end" transform="rotate(-28 2175.4 406)" class="op">zgeru</text>
<rect x="2262.8" y="218.1" width="24.0" height="169.9" fill="#2563eb"><title>zgerc Zynum n=128: 31.459 Gops</title></rect>
<text x="2274.8" y="214.1" text-anchor="middle" class="val">31.5</text>
<rect x="2288.8" y="266.2" width="24.0" height="121.8" fill="#dc2626"><title>zgerc Accelerate n=128: 22.550 Gops</title></rect>
<text x="2300.8" y="262.2" text-anchor="middle" class="val">22.6</text>
<rect x="2314.8" y="361.7" width="24.0" height="26.3" fill="#16a34a"><title>zgerc OpenBLAS n=128: 4.877 Gops</title></rect>
<text x="2326.8" y="357.7" text-anchor="middle" class="val">4.9</text>
<text x="2301.8" y="406" text-anchor="end" transform="rotate(-28 2301.8 406)" class="op">zgerc</text>
<text x="90" y="467" class="panel">n=256</text>
<line x1="90" y1="760.0" x2="2365" y2="760.0" class="grid"/>
<text x="80" y="764.0" text-anchor="end" class="tick">0</text>
<line x1="90" y1="670.0" x2="2365" y2="670.0" class="grid"/>
<text x="80" y="674.0" text-anchor="end" class="tick">50</text>
<line x1="90" y1="580.0" x2="2365" y2="580.0" class="grid"/>
<text x="80" y="584.0" text-anchor="end" class="tick">100</text>
<line x1="90" y1="490.0" x2="2365" y2="490.0" class="grid"/>
<text x="80" y="494.0" text-anchor="end" class="tick">150</text>
<line x1="90" y1="490" x2="90" y2="760" class="axis"/>
<line x1="90" y1="760" x2="2365" y2="760" class="axis"/>
<rect x="114.2" y="665.6" width="24.0" height="94.4" fill="#2563eb"><title>sgemv_n Zynum n=256: 52.429 Gops</title></rect>
<text x="126.2" y="661.6" text-anchor="middle" class="val">52.4</text>
<rect x="140.2" y="674.2" width="24.0" height="85.8" fill="#dc2626"><title>sgemv_n Accelerate n=256: 47.665 Gops</title></rect>
<text x="152.2" y="670.2" text-anchor="middle" class="val">47.7</text>
<rect x="166.2" y="704.2" width="24.0" height="55.8" fill="#16a34a"><title>sgemv_n OpenBLAS n=256: 30.994 Gops</title></rect>
<text x="178.2" y="700.2" text-anchor="middle" class="val">31.0</text>
<text x="153.2" y="778" text-anchor="end" transform="rotate(-28 153.2 778)" class="op">sgemv_n</text>
<rect x="240.6" y="682.4" width="24.0" height="77.6" fill="#2563eb"><title>sgemv_t Zynum n=256: 43.087 Gops</title></rect>
<text x="252.6" y="678.4" text-anchor="middle" class="val">43.1</text>
<rect x="266.6" y="682.4" width="24.0" height="77.6" fill="#dc2626"><title>sgemv_t Accelerate n=256: 43.096 Gops</title></rect>
<text x="278.6" y="678.4" text-anchor="middle" class="val">43.1</text>
<rect x="292.6" y="718.4" width="24.0" height="41.6" fill="#16a34a"><title>sgemv_t OpenBLAS n=256: 23.131 Gops</title></rect>
<text x="304.6" y="714.4" text-anchor="middle" class="val">23.1</text>
<text x="279.6" y="778" text-anchor="end" transform="rotate(-28 279.6 778)" class="op">sgemv_t</text>
<rect x="367.0" y="693.0" width="24.0" height="67.0" fill="#2563eb"><title>ssymv Zynum n=256: 37.232 Gops</title></rect>
<text x="379.0" y="689.0" text-anchor="middle" class="val">37.2</text>
<rect x="393.0" y="728.9" width="24.0" height="31.1" fill="#dc2626"><title>ssymv Accelerate n=256: 17.284 Gops</title></rect>
<text x="405.0" y="724.9" text-anchor="middle" class="val">17.3</text>
<rect x="419.0" y="751.6" width="24.0" height="8.4" fill="#16a34a"><title>ssymv OpenBLAS n=256: 4.640 Gops</title></rect>
<text x="431.0" y="747.6" text-anchor="middle" class="val">4.6</text>
<text x="406.0" y="778" text-anchor="end" transform="rotate(-28 406.0 778)" class="op">ssymv</text>
<rect x="493.4" y="700.1" width="24.0" height="59.9" fill="#2563eb"><title>sger Zynum n=256: 33.289 Gops</title></rect>
<text x="505.4" y="696.1" text-anchor="middle" class="val">33.3</text>
<rect x="519.4" y="688.3" width="24.0" height="71.7" fill="#dc2626"><title>sger Accelerate n=256: 39.815 Gops</title></rect>
<text x="531.4" y="684.3" text-anchor="middle" class="val">39.8</text>
<rect x="545.4" y="751.2" width="24.0" height="8.8" fill="#16a34a"><title>sger OpenBLAS n=256: 4.904 Gops</title></rect>
<text x="557.4" y="747.2" text-anchor="middle" class="val">4.9</text>
<text x="532.4" y="778" text-anchor="end" transform="rotate(-28 532.4 778)" class="op">sger</text>
<rect x="619.8" y="682.4" width="24.0" height="77.6" fill="#2563eb"><title>dgemv_n Zynum n=256: 43.103 Gops</title></rect>
<text x="631.8" y="678.4" text-anchor="middle" class="val">43.1</text>
<rect x="645.8" y="681.3" width="24.0" height="78.7" fill="#dc2626"><title>dgemv_n Accelerate n=256: 43.699 Gops</title></rect>
<text x="657.8" y="677.3" text-anchor="middle" class="val">43.7</text>
<rect x="671.8" y="738.1" width="24.0" height="21.9" fill="#16a34a"><title>dgemv_n OpenBLAS n=256: 12.170 Gops</title></rect>
<text x="683.8" y="734.1" text-anchor="middle" class="val">12.2</text>
<text x="658.8" y="778" text-anchor="end" transform="rotate(-28 658.8 778)" class="op">dgemv_n</text>
<rect x="746.1" y="693.0" width="24.0" height="67.0" fill="#2563eb"><title>dgemv_t Zynum n=256: 37.232 Gops</title></rect>
<text x="758.1" y="689.0" text-anchor="middle" class="val">37.2</text>
<rect x="772.1" y="694.2" width="24.0" height="65.8" fill="#dc2626"><title>dgemv_t Accelerate n=256: 36.582 Gops</title></rect>
<text x="784.1" y="690.2" text-anchor="middle" class="val">36.6</text>
<rect x="798.1" y="736.3" width="24.0" height="23.7" fill="#16a34a"><title>dgemv_t OpenBLAS n=256: 13.162 Gops</title></rect>
<text x="810.1" y="732.3" text-anchor="middle" class="val">13.2</text>
<text x="785.1" y="778" text-anchor="end" transform="rotate(-28 785.1 778)" class="op">dgemv_t</text>
<rect x="872.5" y="712.4" width="24.0" height="47.6" fill="#2563eb"><title>dsymv Zynum n=256: 26.436 Gops</title></rect>
<text x="884.5" y="708.4" text-anchor="middle" class="val">26.4</text>
<rect x="898.5" y="742.4" width="24.0" height="17.6" fill="#dc2626"><title>dsymv Accelerate n=256: 9.771 Gops</title></rect>
<text x="910.5" y="738.4" text-anchor="middle" class="val">9.8</text>
<rect x="924.5" y="751.4" width="24.0" height="8.6" fill="#16a34a"><title>dsymv OpenBLAS n=256: 4.753 Gops</title></rect>
<text x="936.5" y="747.4" text-anchor="middle" class="val">4.8</text>
<text x="911.5" y="778" text-anchor="end" transform="rotate(-28 911.5 778)" class="op">dsymv</text>
<rect x="998.9" y="712.0" width="24.0" height="48.0" fill="#2563eb"><title>dger Zynum n=256: 26.657 Gops</title></rect>
<text x="1010.9" y="708.0" text-anchor="middle" class="val">26.7</text>
<rect x="1024.9" y="709.9" width="24.0" height="50.1" fill="#dc2626"><title>dger Accelerate n=256: 27.837 Gops</title></rect>
<text x="1036.9" y="705.9" text-anchor="middle" class="val">27.8</text>
<rect x="1050.9" y="751.0" width="24.0" height="9.0" fill="#16a34a"><title>dger OpenBLAS n=256: 4.973 Gops</title></rect>
<text x="1062.9" y="747.0" text-anchor="middle" class="val">5.0</text>
<text x="1037.9" y="778" text-anchor="end" transform="rotate(-28 1037.9 778)" class="op">dger</text>
<rect x="1125.3" y="595.3" width="24.0" height="164.7" fill="#2563eb"><title>cgemv_n Zynum n=256: 91.516 Gops</title></rect>
<text x="1137.3" y="591.3" text-anchor="middle" class="val">91.5</text>
<rect x="1151.3" y="609.0" width="24.0" height="151.0" fill="#dc2626"><title>cgemv_n Accelerate n=256: 83.886 Gops</title></rect>
<text x="1163.3" y="605.0" text-anchor="middle" class="val">83.9</text>
<rect x="1177.3" y="731.1" width="24.0" height="28.9" fill="#16a34a"><title>cgemv_n OpenBLAS n=256: 16.042 Gops</title></rect>
<text x="1189.3" y="727.1" text-anchor="middle" class="val">16.0</text>
<text x="1164.3" y="778" text-anchor="end" transform="rotate(-28 1164.3 778)" class="op">cgemv_n</text>
<rect x="1251.7" y="578.1" width="24.0" height="181.9" fill="#2563eb"><title>cgemv_t Zynum n=256: 101.069 Gops</title></rect>
<text x="1263.7" y="574.1" text-anchor="middle" class="val">101.1</text>
<rect x="1277.7" y="604.3" width="24.0" height="155.7" fill="#dc2626"><title>cgemv_t Accelerate n=256: 86.481 Gops</title></rect>
<text x="1289.7" y="600.3" text-anchor="middle" class="val">86.5</text>
<rect x="1303.7" y="728.8" width="24.0" height="31.2" fill="#16a34a"><title>cgemv_t OpenBLAS n=256: 17.346 Gops</title></rect>
<text x="1315.7" y="724.8" text-anchor="middle" class="val">17.3</text>
<text x="1290.7" y="778" text-anchor="end" transform="rotate(-28 1290.7 778)" class="op">cgemv_t</text>
<rect x="1378.1" y="614.8" width="24.0" height="145.2" fill="#2563eb"><title>chemv Zynum n=256: 80.660 Gops</title></rect>
<text x="1390.1" y="610.8" text-anchor="middle" class="val">80.7</text>
<rect x="1404.1" y="694.7" width="24.0" height="65.3" fill="#dc2626"><title>chemv Accelerate n=256: 36.263 Gops</title></rect>
<text x="1416.1" y="690.7" text-anchor="middle" class="val">36.3</text>
<rect x="1430.1" y="711.3" width="24.0" height="48.7" fill="#16a34a"><title>chemv OpenBLAS n=256: 27.060 Gops</title></rect>
<text x="1442.1" y="707.3" text-anchor="middle" class="val">27.1</text>
<text x="1417.1" y="778" text-anchor="end" transform="rotate(-28 1417.1 778)" class="op">chemv</text>
<rect x="1504.5" y="565.6" width="24.0" height="194.4" fill="#2563eb"><title>cgeru Zynum n=256: 108.014 Gops</title></rect>
<text x="1516.5" y="561.6" text-anchor="middle" class="val">108.0</text>
<rect x="1530.5" y="651.6" width="24.0" height="108.4" fill="#dc2626"><title>cgeru Accelerate n=256: 60.208 Gops</title></rect>
<text x="1542.5" y="647.6" text-anchor="middle" class="val">60.2</text>
<rect x="1556.5" y="728.5" width="24.0" height="31.5" fill="#16a34a"><title>cgeru OpenBLAS n=256: 17.514 Gops</title></rect>
<text x="1568.5" y="724.5" text-anchor="middle" class="val">17.5</text>
<text x="1543.5" y="778" text-anchor="end" transform="rotate(-28 1543.5 778)" class="op">cgeru</text>
<rect x="1630.9" y="563.9" width="24.0" height="196.1" fill="#2563eb"><title>cgerc Zynum n=256: 108.961 Gops</title></rect>
<text x="1642.9" y="559.9" text-anchor="middle" class="val">109.0</text>
<rect x="1656.9" y="650.8" width="24.0" height="109.2" fill="#dc2626"><title>cgerc Accelerate n=256: 60.643 Gops</title></rect>
<text x="1668.9" y="646.8" text-anchor="middle" class="val">60.6</text>
<rect x="1682.9" y="728.6" width="24.0" height="31.4" fill="#16a34a"><title>cgerc OpenBLAS n=256: 17.442 Gops</title></rect>
<text x="1694.9" y="724.6" text-anchor="middle" class="val">17.4</text>
<text x="1669.9" y="778" text-anchor="end" transform="rotate(-28 1669.9 778)" class="op">cgerc</text>
<rect x="1757.2" y="636.9" width="24.0" height="123.1" fill="#2563eb"><title>zgemv_n Zynum n=256: 68.382 Gops</title></rect>
<text x="1769.2" y="632.9" text-anchor="middle" class="val">68.4</text>
<rect x="1783.2" y="641.7" width="24.0" height="118.3" fill="#dc2626"><title>zgemv_n Accelerate n=256: 65.709 Gops</title></rect>
<text x="1795.2" y="637.7" text-anchor="middle" class="val">65.7</text>
<rect x="1809.2" y="732.7" width="24.0" height="27.3" fill="#16a34a"><title>zgemv_n OpenBLAS n=256: 15.180 Gops</title></rect>
<text x="1821.2" y="728.7" text-anchor="middle" class="val">15.2</text>
<text x="1796.2" y="778" text-anchor="end" transform="rotate(-28 1796.2 778)" class="op">zgemv_n</text>
<rect x="1883.6" y="635.5" width="24.0" height="124.5" fill="#2563eb"><title>zgemv_t Zynum n=256: 69.140 Gops</title></rect>
<text x="1895.6" y="631.5" text-anchor="middle" class="val">69.1</text>
<rect x="1909.6" y="637.6" width="24.0" height="122.4" fill="#dc2626"><title>zgemv_t Accelerate n=256: 68.019 Gops</title></rect>
<text x="1921.6" y="633.6" text-anchor="middle" class="val">68.0</text>
<rect x="1935.6" y="730.2" width="24.0" height="29.8" fill="#16a34a"><title>zgemv_t OpenBLAS n=256: 16.557 Gops</title></rect>
<text x="1947.6" y="726.2" text-anchor="middle" class="val">16.6</text>
<text x="1922.6" y="778" text-anchor="end" transform="rotate(-28 1922.6 778)" class="op">zgemv_t</text>
<rect x="2010.0" y="664.8" width="24.0" height="95.2" fill="#2563eb"><title>zhemv Zynum n=256: 52.869 Gops</title></rect>
<text x="2022.0" y="660.8" text-anchor="middle" class="val">52.9</text>
<rect x="2036.0" y="713.6" width="24.0" height="46.4" fill="#dc2626"><title>zhemv Accelerate n=256: 25.762 Gops</title></rect>
<text x="2048.0" y="709.6" text-anchor="middle" class="val">25.8</text>
<rect x="2062.0" y="728.1" width="24.0" height="31.9" fill="#16a34a"><title>zhemv OpenBLAS n=256: 17.723 Gops</title></rect>
<text x="2074.0" y="724.1" text-anchor="middle" class="val">17.7</text>
<text x="2049.0" y="778" text-anchor="end" transform="rotate(-28 2049.0 778)" class="op">zhemv</text>
<rect x="2136.4" y="656.8" width="24.0" height="103.2" fill="#2563eb"><title>zgeru Zynum n=256: 57.327 Gops</title></rect>
<text x="2148.4" y="652.8" text-anchor="middle" class="val">57.3</text>
<rect x="2162.4" y="695.5" width="24.0" height="64.5" fill="#dc2626"><title>zgeru Accelerate n=256: 35.849 Gops</title></rect>
<text x="2174.4" y="691.5" text-anchor="middle" class="val">35.8</text>
<rect x="2188.4" y="729.7" width="24.0" height="30.3" fill="#16a34a"><title>zgeru OpenBLAS n=256: 16.830 Gops</title></rect>
<text x="2200.4" y="725.7" text-anchor="middle" class="val">16.8</text>
<text x="2175.4" y="778" text-anchor="end" transform="rotate(-28 2175.4 778)" class="op">zgeru</text>
<rect x="2262.8" y="656.3" width="24.0" height="103.7" fill="#2563eb"><title>zgerc Zynum n=256: 57.589 Gops</title></rect>
<text x="2274.8" y="652.3" text-anchor="middle" class="val">57.6</text>
<rect x="2288.8" y="695.5" width="24.0" height="64.5" fill="#dc2626"><title>zgerc Accelerate n=256: 35.849 Gops</title></rect>
<text x="2300.8" y="691.5" text-anchor="middle" class="val">35.8</text>
<rect x="2314.8" y="731.6" width="24.0" height="28.4" fill="#16a34a"><title>zgerc OpenBLAS n=256: 15.788 Gops</title></rect>
<text x="2326.8" y="727.6" text-anchor="middle" class="val">15.8</text>
<text x="2301.8" y="778" text-anchor="end" transform="rotate(-28 2301.8 778)" class="op">zgerc</text>
<text x="90" y="839" class="panel">n=512</text>
<line x1="90" y1="1132.0" x2="2365" y2="1132.0" class="grid"/>
<text x="80" y="1136.0" text-anchor="end" class="tick">0</text>
<line x1="90" y1="1078.0" x2="2365" y2="1078.0" class="grid"/>
<text x="80" y="1082.0" text-anchor="end" class="tick">50</text>
<line x1="90" y1="1024.0" x2="2365" y2="1024.0" class="grid"/>
<text x="80" y="1028.0" text-anchor="end" class="tick">100</text>
<line x1="90" y1="970.0" x2="2365" y2="970.0" class="grid"/>
<text x="80" y="974.0" text-anchor="end" class="tick">150</text>
<line x1="90" y1="916.0" x2="2365" y2="916.0" class="grid"/>
<text x="80" y="920.0" text-anchor="end" class="tick">200</text>
<line x1="90" y1="862.0" x2="2365" y2="862.0" class="grid"/>
<text x="80" y="866.0" text-anchor="end" class="tick">250</text>
<line x1="90" y1="862" x2="90" y2="1132" class="axis"/>
<line x1="90" y1="1132" x2="2365" y2="1132" class="axis"/>
<rect x="114.2" y="978.4" width="24.0" height="153.6" fill="#2563eb"><title>sgemv_n Zynum n=512: 142.184 Gops</title></rect>
<text x="126.2" y="974.4" text-anchor="middle" class="val">142.2</text>
<rect x="140.2" y="981.0" width="24.0" height="151.0" fill="#dc2626"><title>sgemv_n Accelerate n=512: 139.810 Gops</title></rect>
<text x="152.2" y="977.0" text-anchor="middle" class="val">139.8</text>
<rect x="166.2" y="1088.7" width="24.0" height="43.3" fill="#16a34a"><title>sgemv_n OpenBLAS n=512: 40.072 Gops</title></rect>
<text x="178.2" y="1084.7" text-anchor="middle" class="val">40.1</text>
<text x="153.2" y="1150" text-anchor="end" transform="rotate(-28 153.2 1150)" class="op">sgemv_n</text>
<rect x="240.6" y="1022.4" width="24.0" height="109.6" fill="#2563eb"><title>sgemv_t Zynum n=512: 101.478 Gops</title></rect>
<text x="252.6" y="1018.4" text-anchor="middle" class="val">101.5</text>
<rect x="266.6" y="1025.8" width="24.0" height="106.2" fill="#dc2626"><title>sgemv_t Accelerate n=512: 98.301 Gops</title></rect>
<text x="278.6" y="1021.8" text-anchor="middle" class="val">98.3</text>
<rect x="292.6" y="1100.7" width="24.0" height="31.3" fill="#16a34a"><title>sgemv_t OpenBLAS n=512: 28.993 Gops</title></rect>
<text x="304.6" y="1096.7" text-anchor="middle" class="val">29.0</text>
<text x="279.6" y="1150" text-anchor="end" transform="rotate(-28 279.6 1150)" class="op">sgemv_t</text>
<rect x="367.0" y="1065.7" width="24.0" height="66.3" fill="#2563eb"><title>ssymv Zynum n=512: 61.385 Gops</title></rect>
<text x="379.0" y="1061.7" text-anchor="middle" class="val">61.4</text>
<rect x="393.0" y="1097.9" width="24.0" height="34.1" fill="#dc2626"><title>ssymv Accelerate n=512: 31.618 Gops</title></rect>
<text x="405.0" y="1093.9" text-anchor="middle" class="val">31.6</text>
<rect x="419.0" y="1114.0" width="24.0" height="18.0" fill="#16a34a"><title>ssymv OpenBLAS n=512: 16.711 Gops</title></rect>
<text x="431.0" y="1110.0" text-anchor="middle" class="val">16.7</text>
<text x="406.0" y="1150" text-anchor="end" transform="rotate(-28 406.0 1150)" class="op">ssymv</text>
<rect x="493.4" y="1045.7" width="24.0" height="86.3" fill="#2563eb"><title>sger Zynum n=512: 79.892 Gops</title></rect>
<text x="505.4" y="1041.7" text-anchor="middle" class="val">79.9</text>
<rect x="519.4" y="1057.3" width="24.0" height="74.7" fill="#dc2626"><title>sger Accelerate n=512: 69.140 Gops</title></rect>
<text x="531.4" y="1053.3" text-anchor="middle" class="val">69.1</text>
<rect x="545.4" y="1114.5" width="24.0" height="17.5" fill="#16a34a"><title>sger OpenBLAS n=512: 16.216 Gops</title></rect>
<text x="557.4" y="1110.5" text-anchor="middle" class="val">16.2</text>
<text x="532.4" y="1150" text-anchor="end" transform="rotate(-28 532.4 1150)" class="op">sger</text>
<rect x="619.8" y="1027.5" width="24.0" height="104.5" fill="#2563eb"><title>dgemv_n Zynum n=512: 96.795 Gops</title></rect>
<text x="631.8" y="1023.5" text-anchor="middle" class="val">96.8</text>
<rect x="645.8" y="1029.4" width="24.0" height="102.6" fill="#dc2626"><title>dgemv_n Accelerate n=512: 94.972 Gops</title></rect>
<text x="657.8" y="1025.4" text-anchor="middle" class="val">95.0</text>
<rect x="671.8" y="1116.0" width="24.0" height="16.0" fill="#16a34a"><title>dgemv_n OpenBLAS n=512: 14.786 Gops</title></rect>
<text x="683.8" y="1112.0" text-anchor="middle" class="val">14.8</text>
<text x="658.8" y="1150" text-anchor="end" transform="rotate(-28 658.8 1150)" class="op">dgemv_n</text>
<rect x="746.1" y="1051.1" width="24.0" height="80.9" fill="#2563eb"><title>dgemv_t Zynum n=512: 74.898 Gops</title></rect>
<text x="758.1" y="1047.1" text-anchor="middle" class="val">74.9</text>
<rect x="772.1" y="1052.8" width="24.0" height="79.2" fill="#dc2626"><title>dgemv_t Accelerate n=512: 73.374 Gops</title></rect>
<text x="784.1" y="1048.8" text-anchor="middle" class="val">73.4</text>
<rect x="798.1" y="1115.5" width="24.0" height="16.5" fill="#16a34a"><title>dgemv_t OpenBLAS n=512: 15.299 Gops</title></rect>
<text x="810.1" y="1111.5" text-anchor="middle" class="val">15.3</text>
<text x="785.1" y="1150" text-anchor="end" transform="rotate(-28 785.1 1150)" class="op">dgemv_t</text>
<rect x="872.5" y="1049.9" width="24.0" height="82.1" fill="#2563eb"><title>dsymv Zynum n=512: 76.029 Gops</title></rect>
<text x="884.5" y="1045.9" text-anchor="middle" class="val">76.0</text>
<rect x="898.5" y="1114.4" width="24.0" height="17.6" fill="#dc2626"><title>dsymv Accelerate n=512: 16.258 Gops</title></rect>
<text x="910.5" y="1110.4" text-anchor="middle" class="val">16.3</text>
<rect x="924.5" y="1115.7" width="24.0" height="16.3" fill="#16a34a"><title>dsymv OpenBLAS n=512: 15.124 Gops</title></rect>
<text x="936.5" y="1111.7" text-anchor="middle" class="val">15.1</text>
<text x="911.5" y="1150" text-anchor="end" transform="rotate(-28 911.5 1150)" class="op">dsymv</text>
<rect x="998.9" y="1086.8" width="24.0" height="45.2" fill="#2563eb"><title>dger Zynum n=512: 41.876 Gops</title></rect>
<text x="1010.9" y="1082.8" text-anchor="middle" class="val">41.9</text>
<rect x="1024.9" y="1089.1" width="24.0" height="42.9" fill="#dc2626"><title>dger Accelerate n=512: 39.757 Gops</title></rect>
<text x="1036.9" y="1085.1" text-anchor="middle" class="val">39.8</text>
<rect x="1050.9" y="1116.5" width="24.0" height="15.5" fill="#16a34a"><title>dger OpenBLAS n=512: 14.348 Gops</title></rect>
<text x="1062.9" y="1112.5" text-anchor="middle" class="val">14.3</text>
<text x="1037.9" y="1150" text-anchor="end" transform="rotate(-28 1037.9 1150)" class="op">dger</text>
<rect x="1125.3" y="916.3" width="24.0" height="215.7" fill="#2563eb"><title>cgemv_n Zynum n=512: 199.722 Gops</title></rect>
<text x="1137.3" y="912.3" text-anchor="middle" class="val">199.7</text>
<rect x="1151.3" y="948.7" width="24.0" height="183.3" fill="#dc2626"><title>cgemv_n Accelerate n=512: 169.752 Gops</title></rect>
<text x="1163.3" y="944.7" text-anchor="middle" class="val">169.8</text>
<rect x="1177.3" y="1093.9" width="24.0" height="38.1" fill="#16a34a"><title>cgemv_n OpenBLAS n=512: 35.316 Gops</title></rect>
<text x="1189.3" y="1089.9" text-anchor="middle" class="val">35.3</text>
<text x="1164.3" y="1150" text-anchor="end" transform="rotate(-28 1164.3 1150)" class="op">cgemv_n</text>
<rect x="1251.7" y="943.9" width="24.0" height="188.1" fill="#2563eb"><title>cgemv_t Zynum n=512: 174.162 Gops</title></rect>
<text x="1263.7" y="939.9" text-anchor="middle" class="val">174.2</text>
<rect x="1277.7" y="967.5" width="24.0" height="164.5" fill="#dc2626"><title>cgemv_t Accelerate n=512: 152.293 Gops</title></rect>
<text x="1289.7" y="963.5" text-anchor="middle" class="val">152.3</text>
<rect x="1303.7" y="1081.0" width="24.0" height="51.0" fill="#16a34a"><title>cgemv_t OpenBLAS n=512: 47.192 Gops</title></rect>
<text x="1315.7" y="1077.0" text-anchor="middle" class="val">47.2</text>
<text x="1290.7" y="1150" text-anchor="end" transform="rotate(-28 1290.7 1150)" class="op">cgemv_t</text>
<rect x="1378.1" y="998.4" width="24.0" height="133.6" fill="#2563eb"><title>chemv Zynum n=512: 123.660 Gops</title></rect>
<text x="1390.1" y="994.4" text-anchor="middle" class="val">123.7</text>
<rect x="1404.1" y="1081.9" width="24.0" height="50.1" fill="#dc2626"><title>chemv Accelerate n=512: 46.410 Gops</title></rect>
<text x="1416.1" y="1077.9" text-anchor="middle" class="val">46.4</text>
<rect x="1430.1" y="1083.8" width="24.0" height="48.2" fill="#16a34a"><title>chemv OpenBLAS n=512: 44.625 Gops</title></rect>
<text x="1442.1" y="1079.8" text-anchor="middle" class="val">44.6</text>
<text x="1417.1" y="1150" text-anchor="end" transform="rotate(-28 1417.1 1150)" class="op">chemv</text>
<rect x="1504.5" y="993.2" width="24.0" height="138.8" fill="#2563eb"><title>cgeru Zynum n=512: 128.561 Gops</title></rect>
<text x="1516.5" y="989.2" text-anchor="middle" class="val">128.6</text>
<rect x="1530.5" y="1038.5" width="24.0" height="93.5" fill="#dc2626"><title>cgeru Accelerate n=512: 86.554 Gops</title></rect>
<text x="1542.5" y="1034.5" text-anchor="middle" class="val">86.6</text>
<rect x="1556.5" y="1076.6" width="24.0" height="55.4" fill="#16a34a"><title>cgeru OpenBLAS n=512: 51.305 Gops</title></rect>
<text x="1568.5" y="1072.6" text-anchor="middle" class="val">51.3</text>
<text x="1543.5" y="1150" text-anchor="end" transform="rotate(-28 1543.5 1150)" class="op">cgeru</text>
<rect x="1630.9" y="993.9" width="24.0" height="138.1" fill="#2563eb"><title>cgerc Zynum n=512: 127.915 Gops</title></rect>
<text x="1642.9" y="989.9" text-anchor="middle" class="val">127.9</text>
<rect x="1656.9" y="1037.8" width="24.0" height="94.2" fill="#dc2626"><title>cgerc Accelerate n=512: 87.231 Gops</title></rect>
<text x="1668.9" y="1033.8" text-anchor="middle" class="val">87.2</text>
<rect x="1682.9" y="1080.2" width="24.0" height="51.8" fill="#16a34a"><title>cgerc OpenBLAS n=512: 47.991 Gops</title></rect>
<text x="1694.9" y="1076.2" text-anchor="middle" class="val">48.0</text>
<text x="1669.9" y="1150" text-anchor="end" transform="rotate(-28 1669.9 1150)" class="op">cgerc</text>
<rect x="1757.2" y="1017.8" width="24.0" height="114.2" fill="#2563eb"><title>zgemv_n Zynum n=512: 105.738 Gops</title></rect>
<text x="1769.2" y="1013.8" text-anchor="middle" class="val">105.7</text>
<rect x="1783.2" y="1022.3" width="24.0" height="109.7" fill="#dc2626"><title>zgemv_n Accelerate n=512: 101.579 Gops</title></rect>
<text x="1795.2" y="1018.3" text-anchor="middle" class="val">101.6</text>
<rect x="1809.2" y="1103.1" width="24.0" height="28.9" fill="#16a34a"><title>zgemv_n OpenBLAS n=512: 26.758 Gops</title></rect>
<text x="1821.2" y="1099.1" text-anchor="middle" class="val">26.8</text>
<text x="1796.2" y="1150" text-anchor="end" transform="rotate(-28 1796.2 1150)" class="op">zgemv_n</text>
<rect x="1883.6" y="1003.5" width="24.0" height="128.5" fill="#2563eb"><title>zgemv_t Zynum n=512: 118.987 Gops</title></rect>
<text x="1895.6" y="999.5" text-anchor="middle" class="val">119.0</text>
<rect x="1909.6" y="1034.8" width="24.0" height="97.2" fill="#dc2626"><title>zgemv_t Accelerate n=512: 89.958 Gops</title></rect>
<text x="1921.6" y="1030.8" text-anchor="middle" class="val">90.0</text>
<rect x="1935.6" y="1082.8" width="24.0" height="49.2" fill="#16a34a"><title>zgemv_t OpenBLAS n=512: 45.528 Gops</title></rect>
<text x="1947.6" y="1078.8" text-anchor="middle" class="val">45.5</text>
<text x="1922.6" y="1150" text-anchor="end" transform="rotate(-28 1922.6 1150)" class="op">zgemv_t</text>
<rect x="2010.0" y="1026.8" width="24.0" height="105.2" fill="#2563eb"><title>zhemv Zynum n=512: 97.448 Gops</title></rect>
<text x="2022.0" y="1022.8" text-anchor="middle" class="val">97.4</text>
<rect x="2036.0" y="1095.7" width="24.0" height="36.3" fill="#dc2626"><title>zhemv Accelerate n=512: 33.633 Gops</title></rect>
<text x="2048.0" y="1091.7" text-anchor="middle" class="val">33.6</text>
<rect x="2062.0" y="1089.4" width="24.0" height="42.6" fill="#16a34a"><title>zhemv OpenBLAS n=512: 39.466 Gops</title></rect>
<text x="2074.0" y="1085.4" text-anchor="middle" class="val">39.5</text>
<text x="2049.0" y="1150" text-anchor="end" transform="rotate(-28 2049.0 1150)" class="op">zhemv</text>
<rect x="2136.4" y="1052.2" width="24.0" height="79.8" fill="#2563eb"><title>zgeru Zynum n=512: 73.908 Gops</title></rect>
<text x="2148.4" y="1048.2" text-anchor="middle" class="val">73.9</text>
<rect x="2162.4" y="1079.6" width="24.0" height="52.4" fill="#dc2626"><title>zgeru Accelerate n=512: 48.512 Gops</title></rect>
<text x="2174.4" y="1075.6" text-anchor="middle" class="val">48.5</text>
<rect x="2188.4" y="1089.0" width="24.0" height="43.0" fill="#16a34a"><title>zgeru OpenBLAS n=512: 39.856 Gops</title></rect>
<text x="2200.4" y="1085.0" text-anchor="middle" class="val">39.9</text>
<text x="2175.4" y="1150" text-anchor="end" transform="rotate(-28 2175.4 1150)" class="op">zgeru</text>
<rect x="2262.8" y="1051.5" width="24.0" height="80.5" fill="#2563eb"><title>zgerc Zynum n=512: 74.510 Gops</title></rect>
<text x="2274.8" y="1047.5" text-anchor="middle" class="val">74.5</text>
<rect x="2288.8" y="1079.3" width="24.0" height="52.7" fill="#dc2626"><title>zgerc Accelerate n=512: 48.795 Gops</title></rect>
<text x="2300.8" y="1075.3" text-anchor="middle" class="val">48.8</text>
<rect x="2314.8" y="1087.3" width="24.0" height="44.7" fill="#16a34a"><title>zgerc OpenBLAS n=512: 41.411 Gops</title></rect>
<text x="2326.8" y="1083.3" text-anchor="middle" class="val">41.4</text>
<text x="2301.8" y="1150" text-anchor="end" transform="rotate(-28 2301.8 1150)" class="op">zgerc</text>
</svg>
