<svg xmlns="http://www.w3.org/2000/svg" width="3950" height="1640" viewBox="0 0 3950 1640">

<style>
  text { font-family: -apple-system, BlinkMacSystemFont, "Segoe UI", sans-serif; fill: #111827; }
  .title { font-size: 24px; font-weight: 700; }
  .subtitle { font-size: 13px; fill: #4b5563; }
  .panel-title { font-size: 16px; font-weight: 700; }
  .axis-label { font-size: 11px; fill: #4b5563; }
  .shape-label { font-size: 10px; fill: #374151; }
  .axis { stroke: #111827; stroke-width: 1; }
  .grid { stroke: #e5e7eb; stroke-width: 1; }
  .legend { font-size: 13px; }
</style>

<rect x="0" y="0" width="100%" height="100%" fill="#ffffff"/>
<text x="40" y="42" class="title">SGEMM/DGEMM/CGEMM/ZGEMM Performance Sweep: Zynum vs Accelerate vs OpenBLAS</text>
<text x="40" y="66" class="subtitle">Higher is better. Shapes are ordered by m*n*k so smaller cases stay at the front. Median-time GF/s across square, remainder, skinny, wide, and K-varied column-major GEMM shapes</text>
<line x1="1180" y1="38" x2="1212" y2="38" stroke="#2563eb" stroke-width="3"/>
<text x="1220" y="42" class="legend">Zynum</text>
<line x1="1325" y1="38" x2="1357" y2="38" stroke="#dc2626" stroke-width="3"/>
<text x="1365" y="42" class="legend">Accelerate</text>
<line x1="1470" y1="38" x2="1502" y2="38" stroke="#16a34a" stroke-width="3"/>
<text x="1510" y="42" class="legend">OpenBLAS</text>
<text x="110" y="92" class="panel-title">SGEMM GF/s</text>
<line x1="110" y1="370.0" x2="3890" y2="370.0" class="grid"/>
<text x="100" y="374.0" text-anchor="end" class="axis-label">0</text>
<line x1="110" y1="305.0" x2="3890" y2="305.0" class="grid"/>
<text x="100" y="309.0" text-anchor="end" class="axis-label">500</text>
<line x1="110" y1="240.0" x2="3890" y2="240.0" class="grid"/>
<text x="100" y="244.0" text-anchor="end" class="axis-label">1000</text>
<line x1="110" y1="175.0" x2="3890" y2="175.0" class="grid"/>
<text x="100" y="179.0" text-anchor="end" class="axis-label">1500</text>
<line x1="110" y1="110.0" x2="3890" y2="110.0" class="grid"/>
<text x="100" y="114.0" text-anchor="end" class="axis-label">2000</text>
<line x1="110" y1="110" x2="110" y2="370" class="axis"/>
<line x1="110" y1="370" x2="3890" y2="370" class="axis"/>
<polyline points="110.0,370.0 202.2,369.1 294.4,363.1 386.6,362.3 478.8,362.5 571.0,361.0 663.2,323.0 755.4,357.4 847.6,358.9 939.8,291.9 1032.0,342.1 1124.1,317.9 1216.3,278.2 1308.5,288.1 1400.7,215.0 1492.9,357.0 1585.1,263.0 1677.3,234.7 1769.5,220.4 1861.7,177.1 1953.9,270.0 2046.1,204.1 2138.3,160.6 2230.5,217.9 2322.7,213.9 2414.9,153.7 2507.1,178.8 2599.3,217.8 2691.5,235.4 2783.7,210.2 2875.9,175.4 2968.0,190.8 3060.2,158.6 3152.4,165.7 3244.6,163.5 3336.8,195.6 3429.0,134.7 3521.2,165.4 3613.4,167.5 3705.6,135.6 3797.8,113.0 3890.0,170.6" fill="none" stroke="#2563eb" stroke-width="2.4"/>
<circle cx="110.0" cy="370.0" r="2.4" fill="#2563eb"/>
<circle cx="202.2" cy="369.1" r="2.4" fill="#2563eb"/>
<circle cx="294.4" cy="363.1" r="2.4" fill="#2563eb"/>
<circle cx="386.6" cy="362.3" r="2.4" fill="#2563eb"/>
<circle cx="478.8" cy="362.5" r="2.4" fill="#2563eb"/>
<circle cx="571.0" cy="361.0" r="2.4" fill="#2563eb"/>
<circle cx="663.2" cy="323.0" r="2.4" fill="#2563eb"/>
<circle cx="755.4" cy="357.4" r="2.4" fill="#2563eb"/>
<circle cx="847.6" cy="358.9" r="2.4" fill="#2563eb"/>
<circle cx="939.8" cy="291.9" r="2.4" fill="#2563eb"/>
<circle cx="1032.0" cy="342.1" r="2.4" fill="#2563eb"/>
<circle cx="1124.1" cy="317.9" r="2.4" fill="#2563eb"/>
<circle cx="1216.3" cy="278.2" r="2.4" fill="#2563eb"/>
<circle cx="1308.5" cy="288.1" r="2.4" fill="#2563eb"/>
<circle cx="1400.7" cy="215.0" r="2.4" fill="#2563eb"/>
<circle cx="1492.9" cy="357.0" r="2.4" fill="#2563eb"/>
<circle cx="1585.1" cy="263.0" r="2.4" fill="#2563eb"/>
<circle cx="1677.3" cy="234.7" r="2.4" fill="#2563eb"/>
<circle cx="1769.5" cy="220.4" r="2.4" fill="#2563eb"/>
<circle cx="1861.7" cy="177.1" r="2.4" fill="#2563eb"/>
<circle cx="1953.9" cy="270.0" r="2.4" fill="#2563eb"/>
<circle cx="2046.1" cy="204.1" r="2.4" fill="#2563eb"/>
<circle cx="2138.3" cy="160.6" r="2.4" fill="#2563eb"/>
<circle cx="2230.5" cy="217.9" r="2.4" fill="#2563eb"/>
<circle cx="2322.7" cy="213.9" r="2.4" fill="#2563eb"/>
<circle cx="2414.9" cy="153.7" r="2.4" fill="#2563eb"/>
<circle cx="2507.1" cy="178.8" r="2.4" fill="#2563eb"/>
<circle cx="2599.3" cy="217.8" r="2.4" fill="#2563eb"/>
<circle cx="2691.5" cy="235.4" r="2.4" fill="#2563eb"/>
<circle cx="2783.7" cy="210.2" r="2.4" fill="#2563eb"/>
<circle cx="2875.9" cy="175.4" r="2.4" fill="#2563eb"/>
<circle cx="2968.0" cy="190.8" r="2.4" fill="#2563eb"/>
<circle cx="3060.2" cy="158.6" r="2.4" fill="#2563eb"/>
<circle cx="3152.4" cy="165.7" r="2.4" fill="#2563eb"/>
<circle cx="3244.6" cy="163.5" r="2.4" fill="#2563eb"/>
<circle cx="3336.8" cy="195.6" r="2.4" fill="#2563eb"/>
<circle cx="3429.0" cy="134.7" r="2.4" fill="#2563eb"/>
<circle cx="3521.2" cy="165.4" r="2.4" fill="#2563eb"/>
<circle cx="3613.4" cy="167.5" r="2.4" fill="#2563eb"/>
<circle cx="3705.6" cy="135.6" r="2.4" fill="#2563eb"/>
<circle cx="3797.8" cy="113.0" r="2.4" fill="#2563eb"/>
<circle cx="3890.0" cy="170.6" r="2.4" fill="#2563eb"/>
<polyline points="110.0,370.0 202.2,367.5 294.4,342.7 386.6,348.7 478.8,342.5 571.0,332.8 663.2,233.9 755.4,311.7 847.6,317.9 939.8,181.2 1032.0,342.1 1124.1,315.7 1216.3,207.6 1308.5,140.9 1400.7,252.1 1492.9,321.2 1585.1,160.6 1677.3,197.8 1769.5,195.0 1861.7,157.2 1953.9,260.9 2046.1,153.3 2138.3,156.8 2230.5,227.1 2322.7,240.4 2414.9,155.7 2507.1,157.2 2599.3,233.5 2691.5,237.0 2783.7,188.1 2875.9,179.0 2968.0,171.0 3060.2,163.0 3152.4,188.2 3244.6,177.7 3336.8,183.9 3429.0,171.9 3521.2,212.4 3613.4,182.5 3705.6,177.1 3797.8,136.6 3890.0,138.8" fill="none" stroke="#dc2626" stroke-width="2.4"/>
<circle cx="110.0" cy="370.0" r="2.4" fill="#dc2626"/>
<circle cx="202.2" cy="367.5" r="2.4" fill="#dc2626"/>
<circle cx="294.4" cy="342.7" r="2.4" fill="#dc2626"/>
<circle cx="386.6" cy="348.7" r="2.4" fill="#dc2626"/>
<circle cx="478.8" cy="342.5" r="2.4" fill="#dc2626"/>
<circle cx="571.0" cy="332.8" r="2.4" fill="#dc2626"/>
<circle cx="663.2" cy="233.9" r="2.4" fill="#dc2626"/>
<circle cx="755.4" cy="311.7" r="2.4" fill="#dc2626"/>
<circle cx="847.6" cy="317.9" r="2.4" fill="#dc2626"/>
<circle cx="939.8" cy="181.2" r="2.4" fill="#dc2626"/>
<circle cx="1032.0" cy="342.1" r="2.4" fill="#dc2626"/>
<circle cx="1124.1" cy="315.7" r="2.4" fill="#dc2626"/>
<circle cx="1216.3" cy="207.6" r="2.4" fill="#dc2626"/>
<circle cx="1308.5" cy="140.9" r="2.4" fill="#dc2626"/>
<circle cx="1400.7" cy="252.1" r="2.4" fill="#dc2626"/>
<circle cx="1492.9" cy="321.2" r="2.4" fill="#dc2626"/>
<circle cx="1585.1" cy="160.6" r="2.4" fill="#dc2626"/>
<circle cx="1677.3" cy="197.8" r="2.4" fill="#dc2626"/>
<circle cx="1769.5" cy="195.0" r="2.4" fill="#dc2626"/>
<circle cx="1861.7" cy="157.2" r="2.4" fill="#dc2626"/>
<circle cx="1953.9" cy="260.9" r="2.4" fill="#dc2626"/>
<circle cx="2046.1" cy="153.3" r="2.4" fill="#dc2626"/>
<circle cx="2138.3" cy="156.8" r="2.4" fill="#dc2626"/>
<circle cx="2230.5" cy="227.1" r="2.4" fill="#dc2626"/>
<circle cx="2322.7" cy="240.4" r="2.4" fill="#dc2626"/>
<circle cx="2414.9" cy="155.7" r="2.4" fill="#dc2626"/>
<circle cx="2507.1" cy="157.2" r="2.4" fill="#dc2626"/>
<circle cx="2599.3" cy="233.5" r="2.4" fill="#dc2626"/>
<circle cx="2691.5" cy="237.0" r="2.4" fill="#dc2626"/>
<circle cx="2783.7" cy="188.1" r="2.4" fill="#dc2626"/>
<circle cx="2875.9" cy="179.0" r="2.4" fill="#dc2626"/>
<circle cx="2968.0" cy="171.0" r="2.4" fill="#dc2626"/>
<circle cx="3060.2" cy="163.0" r="2.4" fill="#dc2626"/>
<circle cx="3152.4" cy="188.2" r="2.4" fill="#dc2626"/>
<circle cx="3244.6" cy="177.7" r="2.4" fill="#dc2626"/>
<circle cx="3336.8" cy="183.9" r="2.4" fill="#dc2626"/>
<circle cx="3429.0" cy="171.9" r="2.4" fill="#dc2626"/>
<circle cx="3521.2" cy="212.4" r="2.4" fill="#dc2626"/>
<circle cx="3613.4" cy="182.5" r="2.4" fill="#dc2626"/>
<circle cx="3705.6" cy="177.1" r="2.4" fill="#dc2626"/>
<circle cx="3797.8" cy="136.6" r="2.4" fill="#dc2626"/>
<circle cx="3890.0" cy="138.8" r="2.4" fill="#dc2626"/>
<polyline points="110.0,370.0 202.2,368.5 294.4,363.8 386.6,360.3 478.8,364.0 571.0,360.3 663.2,365.5 755.4,360.8 847.6,366.2 939.8,364.0 1032.0,364.4 1124.1,364.2 1216.3,358.6 1308.5,347.4 1400.7,355.0 1492.9,344.5 1585.1,335.5 1677.3,325.0 1769.5,326.5 1861.7,342.8 1953.9,324.2 2046.1,323.8 2138.3,340.5 2230.5,316.6 2322.7,318.4 2414.9,338.0 2507.1,343.5 2599.3,314.0 2691.5,318.6 2783.7,337.8 2875.9,322.2 2968.0,313.8 3060.2,314.3 3152.4,312.6 3244.6,318.6 3336.8,308.4 3429.0,316.6 3521.2,314.2 3613.4,325.2 3705.6,310.2 3797.8,308.2 3890.0,310.4" fill="none" stroke="#16a34a" stroke-width="2.4"/>
<circle cx="110.0" cy="370.0" r="2.4" fill="#16a34a"/>
<circle cx="202.2" cy="368.5" r="2.4" fill="#16a34a"/>
<circle cx="294.4" cy="363.8" r="2.4" fill="#16a34a"/>
<circle cx="386.6" cy="360.3" r="2.4" fill="#16a34a"/>
<circle cx="478.8" cy="364.0" r="2.4" fill="#16a34a"/>
<circle cx="571.0" cy="360.3" r="2.4" fill="#16a34a"/>
<circle cx="663.2" cy="365.5" r="2.4" fill="#16a34a"/>
<circle cx="755.4" cy="360.8" r="2.4" fill="#16a34a"/>
<circle cx="847.6" cy="366.2" r="2.4" fill="#16a34a"/>
<circle cx="939.8" cy="364.0" r="2.4" fill="#16a34a"/>
<circle cx="1032.0" cy="364.4" r="2.4" fill="#16a34a"/>
<circle cx="1124.1" cy="364.2" r="2.4" fill="#16a34a"/>
<circle cx="1216.3" cy="358.6" r="2.4" fill="#16a34a"/>
<circle cx="1308.5" cy="347.4" r="2.4" fill="#16a34a"/>
<circle cx="1400.7" cy="355.0" r="2.4" fill="#16a34a"/>
<circle cx="1492.9" cy="344.5" r="2.4" fill="#16a34a"/>
<circle cx="1585.1" cy="335.5" r="2.4" fill="#16a34a"/>
<circle cx="1677.3" cy="325.0" r="2.4" fill="#16a34a"/>
<circle cx="1769.5" cy="326.5" r="2.4" fill="#16a34a"/>
<circle cx="1861.7" cy="342.8" r="2.4" fill="#16a34a"/>
<circle cx="1953.9" cy="324.2" r="2.4" fill="#16a34a"/>
<circle cx="2046.1" cy="323.8" r="2.4" fill="#16a34a"/>
<circle cx="2138.3" cy="340.5" r="2.4" fill="#16a34a"/>
<circle cx="2230.5" cy="316.6" r="2.4" fill="#16a34a"/>
<circle cx="2322.7" cy="318.4" r="2.4" fill="#16a34a"/>
<circle cx="2414.9" cy="338.0" r="2.4" fill="#16a34a"/>
<circle cx="2507.1" cy="343.5" r="2.4" fill="#16a34a"/>
<circle cx="2599.3" cy="314.0" r="2.4" fill="#16a34a"/>
<circle cx="2691.5" cy="318.6" r="2.4" fill="#16a34a"/>
<circle cx="2783.7" cy="337.8" r="2.4" fill="#16a34a"/>
<circle cx="2875.9" cy="322.2" r="2.4" fill="#16a34a"/>
<circle cx="2968.0" cy="313.8" r="2.4" fill="#16a34a"/>
<circle cx="3060.2" cy="314.3" r="2.4" fill="#16a34a"/>
<circle cx="3152.4" cy="312.6" r="2.4" fill="#16a34a"/>
<circle cx="3244.6" cy="318.6" r="2.4" fill="#16a34a"/>
<circle cx="3336.8" cy="308.4" r="2.4" fill="#16a34a"/>
<circle cx="3429.0" cy="316.6" r="2.4" fill="#16a34a"/>
<circle cx="3521.2" cy="314.2" r="2.4" fill="#16a34a"/>
<circle cx="3613.4" cy="325.2" r="2.4" fill="#16a34a"/>
<circle cx="3705.6" cy="310.2" r="2.4" fill="#16a34a"/>
<circle cx="3797.8" cy="308.2" r="2.4" fill="#16a34a"/>
<circle cx="3890.0" cy="310.4" r="2.4" fill="#16a34a"/>
<text x="110" y="462" class="panel-title">DGEMM GF/s</text>
<line x1="110" y1="740.0" x2="3890" y2="740.0" class="grid"/>
<text x="100" y="744.0" text-anchor="end" class="axis-label">0</text>
<line x1="110" y1="653.3" x2="3890" y2="653.3" class="grid"/>
<text x="100" y="657.3" text-anchor="end" class="axis-label">200</text>
<line x1="110" y1="566.7" x2="3890" y2="566.7" class="grid"/>
<text x="100" y="570.7" text-anchor="end" class="axis-label">400</text>
<line x1="110" y1="480.0" x2="3890" y2="480.0" class="grid"/>
<text x="100" y="484.0" text-anchor="end" class="axis-label">600</text>
<line x1="110" y1="480" x2="110" y2="740" class="axis"/>
<line x1="110" y1="740" x2="3890" y2="740" class="axis"/>
<polyline points="110.0,740.0 202.2,737.6 294.4,725.2 386.6,725.7 478.8,725.6 571.0,724.4 663.2,693.1 755.4,723.0 847.6,722.2 939.8,666.6 1032.0,689.1 1124.1,657.0 1216.3,654.4 1308.5,617.5 1400.7,585.1 1492.9,706.9 1585.1,580.8 1677.3,583.4 1769.5,572.9 1861.7,548.0 1953.9,657.8 2046.1,526.1 2138.3,549.2 2230.5,602.0 2322.7,564.1 2414.9,542.4 2507.1,562.7 2599.3,586.5 2691.5,608.0 2783.7,595.5 2875.9,544.9 2968.0,558.2 3060.2,552.0 3152.4,553.3 3244.6,524.2 3336.8,551.5 3429.0,521.0 3521.2,544.7 3613.4,540.0 3705.6,540.9 3797.8,540.6 3890.0,538.4" fill="none" stroke="#2563eb" stroke-width="2.4"/>
<circle cx="110.0" cy="740.0" r="2.4" fill="#2563eb"/>
<circle cx="202.2" cy="737.6" r="2.4" fill="#2563eb"/>
<circle cx="294.4" cy="725.2" r="2.4" fill="#2563eb"/>
<circle cx="386.6" cy="725.7" r="2.4" fill="#2563eb"/>
<circle cx="478.8" cy="725.6" r="2.4" fill="#2563eb"/>
<circle cx="571.0" cy="724.4" r="2.4" fill="#2563eb"/>
<circle cx="663.2" cy="693.1" r="2.4" fill="#2563eb"/>
<circle cx="755.4" cy="723.0" r="2.4" fill="#2563eb"/>
<circle cx="847.6" cy="722.2" r="2.4" fill="#2563eb"/>
<circle cx="939.8" cy="666.6" r="2.4" fill="#2563eb"/>
<circle cx="1032.0" cy="689.1" r="2.4" fill="#2563eb"/>
<circle cx="1124.1" cy="657.0" r="2.4" fill="#2563eb"/>
<circle cx="1216.3" cy="654.4" r="2.4" fill="#2563eb"/>
<circle cx="1308.5" cy="617.5" r="2.4" fill="#2563eb"/>
<circle cx="1400.7" cy="585.1" r="2.4" fill="#2563eb"/>
<circle cx="1492.9" cy="706.9" r="2.4" fill="#2563eb"/>
<circle cx="1585.1" cy="580.8" r="2.4" fill="#2563eb"/>
<circle cx="1677.3" cy="583.4" r="2.4" fill="#2563eb"/>
<circle cx="1769.5" cy="572.9" r="2.4" fill="#2563eb"/>
<circle cx="1861.7" cy="548.0" r="2.4" fill="#2563eb"/>
<circle cx="1953.9" cy="657.8" r="2.4" fill="#2563eb"/>
<circle cx="2046.1" cy="526.1" r="2.4" fill="#2563eb"/>
<circle cx="2138.3" cy="549.2" r="2.4" fill="#2563eb"/>
<circle cx="2230.5" cy="602.0" r="2.4" fill="#2563eb"/>
<circle cx="2322.7" cy="564.1" r="2.4" fill="#2563eb"/>
<circle cx="2414.9" cy="542.4" r="2.4" fill="#2563eb"/>
<circle cx="2507.1" cy="562.7" r="2.4" fill="#2563eb"/>
<circle cx="2599.3" cy="586.5" r="2.4" fill="#2563eb"/>
<circle cx="2691.5" cy="608.0" r="2.4" fill="#2563eb"/>
<circle cx="2783.7" cy="595.5" r="2.4" fill="#2563eb"/>
<circle cx="2875.9" cy="544.9" r="2.4" fill="#2563eb"/>
<circle cx="2968.0" cy="558.2" r="2.4" fill="#2563eb"/>
<circle cx="3060.2" cy="552.0" r="2.4" fill="#2563eb"/>
<circle cx="3152.4" cy="553.3" r="2.4" fill="#2563eb"/>
<circle cx="3244.6" cy="524.2" r="2.4" fill="#2563eb"/>
<circle cx="3336.8" cy="551.5" r="2.4" fill="#2563eb"/>
<circle cx="3429.0" cy="521.0" r="2.4" fill="#2563eb"/>
<circle cx="3521.2" cy="544.7" r="2.4" fill="#2563eb"/>
<circle cx="3613.4" cy="540.0" r="2.4" fill="#2563eb"/>
<circle cx="3705.6" cy="540.9" r="2.4" fill="#2563eb"/>
<circle cx="3797.8" cy="540.6" r="2.4" fill="#2563eb"/>
<circle cx="3890.0" cy="538.4" r="2.4" fill="#2563eb"/>
<polyline points="110.0,740.0 202.2,733.5 294.4,675.2 386.6,684.8 478.8,689.6 571.0,665.8 663.2,589.7 755.4,629.5 847.6,634.0 939.8,552.5 1032.0,686.9 1124.1,653.5 1216.3,558.3 1308.5,546.5 1400.7,607.0 1492.9,673.5 1585.1,565.1 1677.3,568.8 1769.5,567.2 1861.7,661.0 1953.9,612.7 2046.1,534.3 2138.3,604.3 2230.5,592.3 2322.7,608.3 2414.9,620.2 2507.1,604.4 2599.3,587.3 2691.5,601.5 2783.7,593.4 2875.9,574.1 2968.0,575.0 3060.2,572.0 3152.4,583.4 3244.6,578.5 3336.8,579.8 3429.0,559.0 3521.2,593.9 3613.4,578.8 3705.6,541.4 3797.8,530.8 3890.0,539.3" fill="none" stroke="#dc2626" stroke-width="2.4"/>
<circle cx="110.0" cy="740.0" r="2.4" fill="#dc2626"/>
<circle cx="202.2" cy="733.5" r="2.4" fill="#dc2626"/>
<circle cx="294.4" cy="675.2" r="2.4" fill="#dc2626"/>
<circle cx="386.6" cy="684.8" r="2.4" fill="#dc2626"/>
<circle cx="478.8" cy="689.6" r="2.4" fill="#dc2626"/>
<circle cx="571.0" cy="665.8" r="2.4" fill="#dc2626"/>
<circle cx="663.2" cy="589.7" r="2.4" fill="#dc2626"/>
<circle cx="755.4" cy="629.5" r="2.4" fill="#dc2626"/>
<circle cx="847.6" cy="634.0" r="2.4" fill="#dc2626"/>
<circle cx="939.8" cy="552.5" r="2.4" fill="#dc2626"/>
<circle cx="1032.0" cy="686.9" r="2.4" fill="#dc2626"/>
<circle cx="1124.1" cy="653.5" r="2.4" fill="#dc2626"/>
<circle cx="1216.3" cy="558.3" r="2.4" fill="#dc2626"/>
<circle cx="1308.5" cy="546.5" r="2.4" fill="#dc2626"/>
<circle cx="1400.7" cy="607.0" r="2.4" fill="#dc2626"/>
<circle cx="1492.9" cy="673.5" r="2.4" fill="#dc2626"/>
<circle cx="1585.1" cy="565.1" r="2.4" fill="#dc2626"/>
<circle cx="1677.3" cy="568.8" r="2.4" fill="#dc2626"/>
<circle cx="1769.5" cy="567.2" r="2.4" fill="#dc2626"/>
<circle cx="1861.7" cy="661.0" r="2.4" fill="#dc2626"/>
<circle cx="1953.9" cy="612.7" r="2.4" fill="#dc2626"/>
<circle cx="2046.1" cy="534.3" r="2.4" fill="#dc2626"/>
<circle cx="2138.3" cy="604.3" r="2.4" fill="#dc2626"/>
<circle cx="2230.5" cy="592.3" r="2.4" fill="#dc2626"/>
<circle cx="2322.7" cy="608.3" r="2.4" fill="#dc2626"/>
<circle cx="2414.9" cy="620.2" r="2.4" fill="#dc2626"/>
<circle cx="2507.1" cy="604.4" r="2.4" fill="#dc2626"/>
<circle cx="2599.3" cy="587.3" r="2.4" fill="#dc2626"/>
<circle cx="2691.5" cy="601.5" r="2.4" fill="#dc2626"/>
<circle cx="2783.7" cy="593.4" r="2.4" fill="#dc2626"/>
<circle cx="2875.9" cy="574.1" r="2.4" fill="#dc2626"/>
<circle cx="2968.0" cy="575.0" r="2.4" fill="#dc2626"/>
<circle cx="3060.2" cy="572.0" r="2.4" fill="#dc2626"/>
<circle cx="3152.4" cy="583.4" r="2.4" fill="#dc2626"/>
<circle cx="3244.6" cy="578.5" r="2.4" fill="#dc2626"/>
<circle cx="3336.8" cy="579.8" r="2.4" fill="#dc2626"/>
<circle cx="3429.0" cy="559.0" r="2.4" fill="#dc2626"/>
<circle cx="3521.2" cy="593.9" r="2.4" fill="#dc2626"/>
<circle cx="3613.4" cy="578.8" r="2.4" fill="#dc2626"/>
<circle cx="3705.6" cy="541.4" r="2.4" fill="#dc2626"/>
<circle cx="3797.8" cy="530.8" r="2.4" fill="#dc2626"/>
<circle cx="3890.0" cy="539.3" r="2.4" fill="#dc2626"/>
<polyline points="110.0,740.0 202.2,735.1 294.4,724.5 386.6,722.6 478.8,725.2 571.0,723.1 663.2,729.7 755.4,728.1 847.6,729.1 939.8,722.9 1032.0,725.8 1124.1,727.9 1216.3,707.1 1308.5,684.5 1400.7,714.2 1492.9,679.5 1585.1,664.4 1677.3,655.3 1769.5,663.3 1861.7,696.4 1953.9,656.1 2046.1,649.5 2138.3,686.1 2230.5,644.7 2322.7,651.8 2414.9,686.0 2507.1,688.3 2599.3,640.2 2691.5,648.8 2783.7,671.3 2875.9,652.5 2968.0,643.0 3060.2,640.1 3152.4,641.6 3244.6,648.9 3336.8,631.9 3429.0,642.5 3521.2,640.2 3613.4,653.3 3705.6,633.8 3797.8,632.6 3890.0,632.9" fill="none" stroke="#16a34a" stroke-width="2.4"/>
<circle cx="110.0" cy="740.0" r="2.4" fill="#16a34a"/>
<circle cx="202.2" cy="735.1" r="2.4" fill="#16a34a"/>
<circle cx="294.4" cy="724.5" r="2.4" fill="#16a34a"/>
<circle cx="386.6" cy="722.6" r="2.4" fill="#16a34a"/>
<circle cx="478.8" cy="725.2" r="2.4" fill="#16a34a"/>
<circle cx="571.0" cy="723.1" r="2.4" fill="#16a34a"/>
<circle cx="663.2" cy="729.7" r="2.4" fill="#16a34a"/>
<circle cx="755.4" cy="728.1" r="2.4" fill="#16a34a"/>
<circle cx="847.6" cy="729.1" r="2.4" fill="#16a34a"/>
<circle cx="939.8" cy="722.9" r="2.4" fill="#16a34a"/>
<circle cx="1032.0" cy="725.8" r="2.4" fill="#16a34a"/>
<circle cx="1124.1" cy="727.9" r="2.4" fill="#16a34a"/>
<circle cx="1216.3" cy="707.1" r="2.4" fill="#16a34a"/>
<circle cx="1308.5" cy="684.5" r="2.4" fill="#16a34a"/>
<circle cx="1400.7" cy="714.2" r="2.4" fill="#16a34a"/>
<circle cx="1492.9" cy="679.5" r="2.4" fill="#16a34a"/>
<circle cx="1585.1" cy="664.4" r="2.4" fill="#16a34a"/>
<circle cx="1677.3" cy="655.3" r="2.4" fill="#16a34a"/>
<circle cx="1769.5" cy="663.3" r="2.4" fill="#16a34a"/>
<circle cx="1861.7" cy="696.4" r="2.4" fill="#16a34a"/>
<circle cx="1953.9" cy="656.1" r="2.4" fill="#16a34a"/>
<circle cx="2046.1" cy="649.5" r="2.4" fill="#16a34a"/>
<circle cx="2138.3" cy="686.1" r="2.4" fill="#16a34a"/>
<circle cx="2230.5" cy="644.7" r="2.4" fill="#16a34a"/>
<circle cx="2322.7" cy="651.8" r="2.4" fill="#16a34a"/>
<circle cx="2414.9" cy="686.0" r="2.4" fill="#16a34a"/>
<circle cx="2507.1" cy="688.3" r="2.4" fill="#16a34a"/>
<circle cx="2599.3" cy="640.2" r="2.4" fill="#16a34a"/>
<circle cx="2691.5" cy="648.8" r="2.4" fill="#16a34a"/>
<circle cx="2783.7" cy="671.3" r="2.4" fill="#16a34a"/>
<circle cx="2875.9" cy="652.5" r="2.4" fill="#16a34a"/>
<circle cx="2968.0" cy="643.0" r="2.4" fill="#16a34a"/>
<circle cx="3060.2" cy="640.1" r="2.4" fill="#16a34a"/>
<circle cx="3152.4" cy="641.6" r="2.4" fill="#16a34a"/>
<circle cx="3244.6" cy="648.9" r="2.4" fill="#16a34a"/>
<circle cx="3336.8" cy="631.9" r="2.4" fill="#16a34a"/>
<circle cx="3429.0" cy="642.5" r="2.4" fill="#16a34a"/>
<circle cx="3521.2" cy="640.2" r="2.4" fill="#16a34a"/>
<circle cx="3613.4" cy="653.3" r="2.4" fill="#16a34a"/>
<circle cx="3705.6" cy="633.8" r="2.4" fill="#16a34a"/>
<circle cx="3797.8" cy="632.6" r="2.4" fill="#16a34a"/>
<circle cx="3890.0" cy="632.9" r="2.4" fill="#16a34a"/>
<text x="110" y="832" class="panel-title">CGEMM GF/s</text>
<line x1="110" y1="1110.0" x2="3890" y2="1110.0" class="grid"/>
<text x="100" y="1114.0" text-anchor="end" class="axis-label">0</text>
<line x1="110" y1="1045.0" x2="3890" y2="1045.0" class="grid"/>
<text x="100" y="1049.0" text-anchor="end" class="axis-label">500</text>
<line x1="110" y1="980.0" x2="3890" y2="980.0" class="grid"/>
<text x="100" y="984.0" text-anchor="end" class="axis-label">1000</text>
<line x1="110" y1="915.0" x2="3890" y2="915.0" class="grid"/>
<text x="100" y="919.0" text-anchor="end" class="axis-label">1500</text>
<line x1="110" y1="850.0" x2="3890" y2="850.0" class="grid"/>
<text x="100" y="854.0" text-anchor="end" class="axis-label">2000</text>
<line x1="110" y1="850" x2="110" y2="1110" class="axis"/>
<line x1="110" y1="1110" x2="3890" y2="1110" class="axis"/>
<polyline points="110.0,1110.0 202.2,1102.3 294.4,1103.4 386.6,1102.5 478.8,1103.9 571.0,1100.3 663.2,1078.7 755.4,1095.7 847.6,1097.2 939.8,1058.7 1032.0,1083.4 1124.1,1097.3 1216.3,1046.2 1308.5,1037.9 1400.7,1077.5 1492.9,1089.2 1585.1,1009.0 1677.3,1012.7 1769.5,1006.2 1861.7,1056.6 1953.9,1038.5 2046.1,964.9 2138.3,1022.0 2230.5,1013.1 2322.7,981.3 2414.9,1023.2 2507.1,1027.2 2599.3,1031.3 2691.5,1030.6 2783.7,1078.7 2875.9,959.5 2968.0,961.6 3060.2,949.8 3152.4,951.0 3244.6,965.2 3336.8,974.4 3429.0,917.2 3521.2,956.6 3613.4,975.9 3705.6,914.3 3797.8,887.3 3890.0,893.6" fill="none" stroke="#2563eb" stroke-width="2.4"/>
<circle cx="110.0" cy="1110.0" r="2.4" fill="#2563eb"/>
<circle cx="202.2" cy="1102.3" r="2.4" fill="#2563eb"/>
<circle cx="294.4" cy="1103.4" r="2.4" fill="#2563eb"/>
<circle cx="386.6" cy="1102.5" r="2.4" fill="#2563eb"/>
<circle cx="478.8" cy="1103.9" r="2.4" fill="#2563eb"/>
<circle cx="571.0" cy="1100.3" r="2.4" fill="#2563eb"/>
<circle cx="663.2" cy="1078.7" r="2.4" fill="#2563eb"/>
<circle cx="755.4" cy="1095.7" r="2.4" fill="#2563eb"/>
<circle cx="847.6" cy="1097.2" r="2.4" fill="#2563eb"/>
<circle cx="939.8" cy="1058.7" r="2.4" fill="#2563eb"/>
<circle cx="1032.0" cy="1083.4" r="2.4" fill="#2563eb"/>
<circle cx="1124.1" cy="1097.3" r="2.4" fill="#2563eb"/>
<circle cx="1216.3" cy="1046.2" r="2.4" fill="#2563eb"/>
<circle cx="1308.5" cy="1037.9" r="2.4" fill="#2563eb"/>
<circle cx="1400.7" cy="1077.5" r="2.4" fill="#2563eb"/>
<circle cx="1492.9" cy="1089.2" r="2.4" fill="#2563eb"/>
<circle cx="1585.1" cy="1009.0" r="2.4" fill="#2563eb"/>
<circle cx="1677.3" cy="1012.7" r="2.4" fill="#2563eb"/>
<circle cx="1769.5" cy="1006.2" r="2.4" fill="#2563eb"/>
<circle cx="1861.7" cy="1056.6" r="2.4" fill="#2563eb"/>
<circle cx="1953.9" cy="1038.5" r="2.4" fill="#2563eb"/>
<circle cx="2046.1" cy="964.9" r="2.4" fill="#2563eb"/>
<circle cx="2138.3" cy="1022.0" r="2.4" fill="#2563eb"/>
<circle cx="2230.5" cy="1013.1" r="2.4" fill="#2563eb"/>
<circle cx="2322.7" cy="981.3" r="2.4" fill="#2563eb"/>
<circle cx="2414.9" cy="1023.2" r="2.4" fill="#2563eb"/>
<circle cx="2507.1" cy="1027.2" r="2.4" fill="#2563eb"/>
<circle cx="2599.3" cy="1031.3" r="2.4" fill="#2563eb"/>
<circle cx="2691.5" cy="1030.6" r="2.4" fill="#2563eb"/>
<circle cx="2783.7" cy="1078.7" r="2.4" fill="#2563eb"/>
<circle cx="2875.9" cy="959.5" r="2.4" fill="#2563eb"/>
<circle cx="2968.0" cy="961.6" r="2.4" fill="#2563eb"/>
<circle cx="3060.2" cy="949.8" r="2.4" fill="#2563eb"/>
<circle cx="3152.4" cy="951.0" r="2.4" fill="#2563eb"/>
<circle cx="3244.6" cy="965.2" r="2.4" fill="#2563eb"/>
<circle cx="3336.8" cy="974.4" r="2.4" fill="#2563eb"/>
<circle cx="3429.0" cy="917.2" r="2.4" fill="#2563eb"/>
<circle cx="3521.2" cy="956.6" r="2.4" fill="#2563eb"/>
<circle cx="3613.4" cy="975.9" r="2.4" fill="#2563eb"/>
<circle cx="3705.6" cy="914.3" r="2.4" fill="#2563eb"/>
<circle cx="3797.8" cy="887.3" r="2.4" fill="#2563eb"/>
<circle cx="3890.0" cy="893.6" r="2.4" fill="#2563eb"/>
<polyline points="110.0,1110.0 202.2,1108.1 294.4,1101.5 386.6,1102.0 478.8,1102.6 571.0,1098.1 663.2,1080.4 755.4,1090.0 847.6,1089.8 939.8,1062.2 1032.0,1107.4 1124.1,1107.4 1216.3,1054.2 1308.5,1023.5 1400.7,1079.9 1492.9,1087.7 1585.1,1010.3 1677.3,1041.8 1769.5,1034.2 1861.7,1053.2 1953.9,1065.8 2046.1,979.8 2138.3,1020.2 2230.5,1035.7 2322.7,1045.5 2414.9,1022.5 2507.1,1021.6 2599.3,1039.1 2691.5,1033.9 2783.7,1029.4 2875.9,988.6 2968.0,985.5 3060.2,996.0 3152.4,1000.7 3244.6,999.9 3336.8,1003.0 3429.0,969.1 3521.2,1009.5 3613.4,1002.6 3705.6,984.3 3797.8,941.8 3890.0,947.0" fill="none" stroke="#dc2626" stroke-width="2.4"/>
<circle cx="110.0" cy="1110.0" r="2.4" fill="#dc2626"/>
<circle cx="202.2" cy="1108.1" r="2.4" fill="#dc2626"/>
<circle cx="294.4" cy="1101.5" r="2.4" fill="#dc2626"/>
<circle cx="386.6" cy="1102.0" r="2.4" fill="#dc2626"/>
<circle cx="478.8" cy="1102.6" r="2.4" fill="#dc2626"/>
<circle cx="571.0" cy="1098.1" r="2.4" fill="#dc2626"/>
<circle cx="663.2" cy="1080.4" r="2.4" fill="#dc2626"/>
<circle cx="755.4" cy="1090.0" r="2.4" fill="#dc2626"/>
<circle cx="847.6" cy="1089.8" r="2.4" fill="#dc2626"/>
<circle cx="939.8" cy="1062.2" r="2.4" fill="#dc2626"/>
<circle cx="1032.0" cy="1107.4" r="2.4" fill="#dc2626"/>
<circle cx="1124.1" cy="1107.4" r="2.4" fill="#dc2626"/>
<circle cx="1216.3" cy="1054.2" r="2.4" fill="#dc2626"/>
<circle cx="1308.5" cy="1023.5" r="2.4" fill="#dc2626"/>
<circle cx="1400.7" cy="1079.9" r="2.4" fill="#dc2626"/>
<circle cx="1492.9" cy="1087.7" r="2.4" fill="#dc2626"/>
<circle cx="1585.1" cy="1010.3" r="2.4" fill="#dc2626"/>
<circle cx="1677.3" cy="1041.8" r="2.4" fill="#dc2626"/>
<circle cx="1769.5" cy="1034.2" r="2.4" fill="#dc2626"/>
<circle cx="1861.7" cy="1053.2" r="2.4" fill="#dc2626"/>
<circle cx="1953.9" cy="1065.8" r="2.4" fill="#dc2626"/>
<circle cx="2046.1" cy="979.8" r="2.4" fill="#dc2626"/>
<circle cx="2138.3" cy="1020.2" r="2.4" fill="#dc2626"/>
<circle cx="2230.5" cy="1035.7" r="2.4" fill="#dc2626"/>
<circle cx="2322.7" cy="1045.5" r="2.4" fill="#dc2626"/>
<circle cx="2414.9" cy="1022.5" r="2.4" fill="#dc2626"/>
<circle cx="2507.1" cy="1021.6" r="2.4" fill="#dc2626"/>
<circle cx="2599.3" cy="1039.1" r="2.4" fill="#dc2626"/>
<circle cx="2691.5" cy="1033.9" r="2.4" fill="#dc2626"/>
<circle cx="2783.7" cy="1029.4" r="2.4" fill="#dc2626"/>
<circle cx="2875.9" cy="988.6" r="2.4" fill="#dc2626"/>
<circle cx="2968.0" cy="985.5" r="2.4" fill="#dc2626"/>
<circle cx="3060.2" cy="996.0" r="2.4" fill="#dc2626"/>
<circle cx="3152.4" cy="1000.7" r="2.4" fill="#dc2626"/>
<circle cx="3244.6" cy="999.9" r="2.4" fill="#dc2626"/>
<circle cx="3336.8" cy="1003.0" r="2.4" fill="#dc2626"/>
<circle cx="3429.0" cy="969.1" r="2.4" fill="#dc2626"/>
<circle cx="3521.2" cy="1009.5" r="2.4" fill="#dc2626"/>
<circle cx="3613.4" cy="1002.6" r="2.4" fill="#dc2626"/>
<circle cx="3705.6" cy="984.3" r="2.4" fill="#dc2626"/>
<circle cx="3797.8" cy="941.8" r="2.4" fill="#dc2626"/>
<circle cx="3890.0" cy="947.0" r="2.4" fill="#dc2626"/>
<polyline points="110.0,1110.0 202.2,1104.8 294.4,1102.0 386.6,1100.6 478.8,1108.0 571.0,1106.2 663.2,1103.4 755.4,1097.9 847.6,1099.4 939.8,1094.6 1032.0,1102.9 1124.1,1104.8 1216.3,1083.5 1308.5,1069.9 1400.7,1088.3 1492.9,1065.4 1585.1,1058.9 1677.3,1049.9 1769.5,1053.3 1861.7,1075.4 1953.9,1049.1 2046.1,1050.4 2138.3,1070.3 2230.5,1044.3 2322.7,1048.7 2414.9,1070.7 2507.1,1073.1 2599.3,1041.7 2691.5,1046.0 2783.7,1062.7 2875.9,1052.2 2968.0,1047.3 3060.2,1045.1 3152.4,1046.8 3244.6,1049.2 3336.8,1041.4 3429.0,1047.2 3521.2,1045.2 3613.4,1055.5 3705.6,1043.5 3797.8,1043.5 3890.0,1046.3" fill="none" stroke="#16a34a" stroke-width="2.4"/>
<circle cx="110.0" cy="1110.0" r="2.4" fill="#16a34a"/>
<circle cx="202.2" cy="1104.8" r="2.4" fill="#16a34a"/>
<circle cx="294.4" cy="1102.0" r="2.4" fill="#16a34a"/>
<circle cx="386.6" cy="1100.6" r="2.4" fill="#16a34a"/>
<circle cx="478.8" cy="1108.0" r="2.4" fill="#16a34a"/>
<circle cx="571.0" cy="1106.2" r="2.4" fill="#16a34a"/>
<circle cx="663.2" cy="1103.4" r="2.4" fill="#16a34a"/>
<circle cx="755.4" cy="1097.9" r="2.4" fill="#16a34a"/>
<circle cx="847.6" cy="1099.4" r="2.4" fill="#16a34a"/>
<circle cx="939.8" cy="1094.6" r="2.4" fill="#16a34a"/>
<circle cx="1032.0" cy="1102.9" r="2.4" fill="#16a34a"/>
<circle cx="1124.1" cy="1104.8" r="2.4" fill="#16a34a"/>
<circle cx="1216.3" cy="1083.5" r="2.4" fill="#16a34a"/>
<circle cx="1308.5" cy="1069.9" r="2.4" fill="#16a34a"/>
<circle cx="1400.7" cy="1088.3" r="2.4" fill="#16a34a"/>
<circle cx="1492.9" cy="1065.4" r="2.4" fill="#16a34a"/>
<circle cx="1585.1" cy="1058.9" r="2.4" fill="#16a34a"/>
<circle cx="1677.3" cy="1049.9" r="2.4" fill="#16a34a"/>
<circle cx="1769.5" cy="1053.3" r="2.4" fill="#16a34a"/>
<circle cx="1861.7" cy="1075.4" r="2.4" fill="#16a34a"/>
<circle cx="1953.9" cy="1049.1" r="2.4" fill="#16a34a"/>
<circle cx="2046.1" cy="1050.4" r="2.4" fill="#16a34a"/>
<circle cx="2138.3" cy="1070.3" r="2.4" fill="#16a34a"/>
<circle cx="2230.5" cy="1044.3" r="2.4" fill="#16a34a"/>
<circle cx="2322.7" cy="1048.7" r="2.4" fill="#16a34a"/>
<circle cx="2414.9" cy="1070.7" r="2.4" fill="#16a34a"/>
<circle cx="2507.1" cy="1073.1" r="2.4" fill="#16a34a"/>
<circle cx="2599.3" cy="1041.7" r="2.4" fill="#16a34a"/>
<circle cx="2691.5" cy="1046.0" r="2.4" fill="#16a34a"/>
<circle cx="2783.7" cy="1062.7" r="2.4" fill="#16a34a"/>
<circle cx="2875.9" cy="1052.2" r="2.4" fill="#16a34a"/>
<circle cx="2968.0" cy="1047.3" r="2.4" fill="#16a34a"/>
<circle cx="3060.2" cy="1045.1" r="2.4" fill="#16a34a"/>
<circle cx="3152.4" cy="1046.8" r="2.4" fill="#16a34a"/>
<circle cx="3244.6" cy="1049.2" r="2.4" fill="#16a34a"/>
<circle cx="3336.8" cy="1041.4" r="2.4" fill="#16a34a"/>
<circle cx="3429.0" cy="1047.2" r="2.4" fill="#16a34a"/>
<circle cx="3521.2" cy="1045.2" r="2.4" fill="#16a34a"/>
<circle cx="3613.4" cy="1055.5" r="2.4" fill="#16a34a"/>
<circle cx="3705.6" cy="1043.5" r="2.4" fill="#16a34a"/>
<circle cx="3797.8" cy="1043.5" r="2.4" fill="#16a34a"/>
<circle cx="3890.0" cy="1046.3" r="2.4" fill="#16a34a"/>
<text x="110" y="1202" class="panel-title">ZGEMM GF/s</text>
<line x1="110" y1="1480.0" x2="3890" y2="1480.0" class="grid"/>
<text x="100" y="1484.0" text-anchor="end" class="axis-label">0</text>
<line x1="110" y1="1393.3" x2="3890" y2="1393.3" class="grid"/>
<text x="100" y="1397.3" text-anchor="end" class="axis-label">200</text>
<line x1="110" y1="1306.7" x2="3890" y2="1306.7" class="grid"/>
<text x="100" y="1310.7" text-anchor="end" class="axis-label">400</text>
<line x1="110" y1="1220.0" x2="3890" y2="1220.0" class="grid"/>
<text x="100" y="1224.0" text-anchor="end" class="axis-label">600</text>
<line x1="110" y1="1220" x2="110" y2="1480" class="axis"/>
<line x1="110" y1="1480" x2="3890" y2="1480" class="axis"/>
<polyline points="110.0,1479.9 202.2,1475.9 294.4,1463.2 386.6,1460.6 478.8,1466.5 571.0,1461.3 663.2,1423.1 755.4,1450.9 847.6,1451.0 939.8,1403.0 1032.0,1455.0 1124.1,1452.3 1216.3,1403.8 1308.5,1374.7 1400.7,1429.3 1492.9,1439.9 1585.1,1339.0 1677.3,1345.8 1769.5,1338.7 1861.7,1404.7 1953.9,1397.2 2046.1,1296.9 2138.3,1366.6 2230.5,1384.7 2322.7,1322.0 2414.9,1361.4 2507.1,1377.1 2599.3,1376.8 2691.5,1384.5 2783.7,1384.5 2875.9,1319.2 2968.0,1318.3 3060.2,1304.8 3152.4,1313.6 3244.6,1304.0 3336.8,1312.0 3429.0,1276.1 3521.2,1300.0 3613.4,1330.7 3705.6,1279.3 3797.8,1272.4 3890.0,1257.6" fill="none" stroke="#2563eb" stroke-width="2.4"/>
<circle cx="110.0" cy="1479.9" r="2.4" fill="#2563eb"/>
<circle cx="202.2" cy="1475.9" r="2.4" fill="#2563eb"/>
<circle cx="294.4" cy="1463.2" r="2.4" fill="#2563eb"/>
<circle cx="386.6" cy="1460.6" r="2.4" fill="#2563eb"/>
<circle cx="478.8" cy="1466.5" r="2.4" fill="#2563eb"/>
<circle cx="571.0" cy="1461.3" r="2.4" fill="#2563eb"/>
<circle cx="663.2" cy="1423.1" r="2.4" fill="#2563eb"/>
<circle cx="755.4" cy="1450.9" r="2.4" fill="#2563eb"/>
<circle cx="847.6" cy="1451.0" r="2.4" fill="#2563eb"/>
<circle cx="939.8" cy="1403.0" r="2.4" fill="#2563eb"/>
<circle cx="1032.0" cy="1455.0" r="2.4" fill="#2563eb"/>
<circle cx="1124.1" cy="1452.3" r="2.4" fill="#2563eb"/>
<circle cx="1216.3" cy="1403.8" r="2.4" fill="#2563eb"/>
<circle cx="1308.5" cy="1374.7" r="2.4" fill="#2563eb"/>
<circle cx="1400.7" cy="1429.3" r="2.4" fill="#2563eb"/>
<circle cx="1492.9" cy="1439.9" r="2.4" fill="#2563eb"/>
<circle cx="1585.1" cy="1339.0" r="2.4" fill="#2563eb"/>
<circle cx="1677.3" cy="1345.8" r="2.4" fill="#2563eb"/>
<circle cx="1769.5" cy="1338.7" r="2.4" fill="#2563eb"/>
<circle cx="1861.7" cy="1404.7" r="2.4" fill="#2563eb"/>
<circle cx="1953.9" cy="1397.2" r="2.4" fill="#2563eb"/>
<circle cx="2046.1" cy="1296.9" r="2.4" fill="#2563eb"/>
<circle cx="2138.3" cy="1366.6" r="2.4" fill="#2563eb"/>
<circle cx="2230.5" cy="1384.7" r="2.4" fill="#2563eb"/>
<circle cx="2322.7" cy="1322.0" r="2.4" fill="#2563eb"/>
<circle cx="2414.9" cy="1361.4" r="2.4" fill="#2563eb"/>
<circle cx="2507.1" cy="1377.1" r="2.4" fill="#2563eb"/>
<circle cx="2599.3" cy="1376.8" r="2.4" fill="#2563eb"/>
<circle cx="2691.5" cy="1384.5" r="2.4" fill="#2563eb"/>
<circle cx="2783.7" cy="1384.5" r="2.4" fill="#2563eb"/>
<circle cx="2875.9" cy="1319.2" r="2.4" fill="#2563eb"/>
<circle cx="2968.0" cy="1318.3" r="2.4" fill="#2563eb"/>
<circle cx="3060.2" cy="1304.8" r="2.4" fill="#2563eb"/>
<circle cx="3152.4" cy="1313.6" r="2.4" fill="#2563eb"/>
<circle cx="3244.6" cy="1304.0" r="2.4" fill="#2563eb"/>
<circle cx="3336.8" cy="1312.0" r="2.4" fill="#2563eb"/>
<circle cx="3429.0" cy="1276.1" r="2.4" fill="#2563eb"/>
<circle cx="3521.2" cy="1300.0" r="2.4" fill="#2563eb"/>
<circle cx="3613.4" cy="1330.7" r="2.4" fill="#2563eb"/>
<circle cx="3705.6" cy="1279.3" r="2.4" fill="#2563eb"/>
<circle cx="3797.8" cy="1272.4" r="2.4" fill="#2563eb"/>
<circle cx="3890.0" cy="1257.6" r="2.4" fill="#2563eb"/>
<polyline points="110.0,1480.0 202.2,1475.1 294.4,1457.9 386.6,1460.2 478.8,1464.8 571.0,1458.9 663.2,1435.4 755.4,1448.6 847.6,1444.9 939.8,1417.9 1032.0,1477.9 1124.1,1477.9 1216.3,1405.7 1308.5,1380.0 1400.7,1448.2 1492.9,1457.2 1585.1,1375.8 1677.3,1384.8 1769.5,1380.6 1861.7,1447.2 1953.9,1437.2 2046.1,1346.5 2138.3,1424.0 2230.5,1411.6 2322.7,1399.5 2414.9,1429.6 2507.1,1420.3 2599.3,1411.0 2691.5,1414.2 2783.7,1409.8 2875.9,1370.1 2968.0,1370.2 3060.2,1359.1 3152.4,1363.3 3244.6,1370.0 3336.8,1374.3 3429.0,1348.7 3521.2,1379.3 3613.4,1387.2 3705.6,1349.5 3797.8,1332.7 3890.0,1315.9" fill="none" stroke="#dc2626" stroke-width="2.4"/>
<circle cx="110.0" cy="1480.0" r="2.4" fill="#dc2626"/>
<circle cx="202.2" cy="1475.1" r="2.4" fill="#dc2626"/>
<circle cx="294.4" cy="1457.9" r="2.4" fill="#dc2626"/>
<circle cx="386.6" cy="1460.2" r="2.4" fill="#dc2626"/>
<circle cx="478.8" cy="1464.8" r="2.4" fill="#dc2626"/>
<circle cx="571.0" cy="1458.9" r="2.4" fill="#dc2626"/>
<circle cx="663.2" cy="1435.4" r="2.4" fill="#dc2626"/>
<circle cx="755.4" cy="1448.6" r="2.4" fill="#dc2626"/>
<circle cx="847.6" cy="1444.9" r="2.4" fill="#dc2626"/>
<circle cx="939.8" cy="1417.9" r="2.4" fill="#dc2626"/>
<circle cx="1032.0" cy="1477.9" r="2.4" fill="#dc2626"/>
<circle cx="1124.1" cy="1477.9" r="2.4" fill="#dc2626"/>
<circle cx="1216.3" cy="1405.7" r="2.4" fill="#dc2626"/>
<circle cx="1308.5" cy="1380.0" r="2.4" fill="#dc2626"/>
<circle cx="1400.7" cy="1448.2" r="2.4" fill="#dc2626"/>
<circle cx="1492.9" cy="1457.2" r="2.4" fill="#dc2626"/>
<circle cx="1585.1" cy="1375.8" r="2.4" fill="#dc2626"/>
<circle cx="1677.3" cy="1384.8" r="2.4" fill="#dc2626"/>
<circle cx="1769.5" cy="1380.6" r="2.4" fill="#dc2626"/>
<circle cx="1861.7" cy="1447.2" r="2.4" fill="#dc2626"/>
<circle cx="1953.9" cy="1437.2" r="2.4" fill="#dc2626"/>
<circle cx="2046.1" cy="1346.5" r="2.4" fill="#dc2626"/>
<circle cx="2138.3" cy="1424.0" r="2.4" fill="#dc2626"/>
<circle cx="2230.5" cy="1411.6" r="2.4" fill="#dc2626"/>
<circle cx="2322.7" cy="1399.5" r="2.4" fill="#dc2626"/>
<circle cx="2414.9" cy="1429.6" r="2.4" fill="#dc2626"/>
<circle cx="2507.1" cy="1420.3" r="2.4" fill="#dc2626"/>
<circle cx="2599.3" cy="1411.0" r="2.4" fill="#dc2626"/>
<circle cx="2691.5" cy="1414.2" r="2.4" fill="#dc2626"/>
<circle cx="2783.7" cy="1409.8" r="2.4" fill="#dc2626"/>
<circle cx="2875.9" cy="1370.1" r="2.4" fill="#dc2626"/>
<circle cx="2968.0" cy="1370.2" r="2.4" fill="#dc2626"/>
<circle cx="3060.2" cy="1359.1" r="2.4" fill="#dc2626"/>
<circle cx="3152.4" cy="1363.3" r="2.4" fill="#dc2626"/>
<circle cx="3244.6" cy="1370.0" r="2.4" fill="#dc2626"/>
<circle cx="3336.8" cy="1374.3" r="2.4" fill="#dc2626"/>
<circle cx="3429.0" cy="1348.7" r="2.4" fill="#dc2626"/>
<circle cx="3521.2" cy="1379.3" r="2.4" fill="#dc2626"/>
<circle cx="3613.4" cy="1387.2" r="2.4" fill="#dc2626"/>
<circle cx="3705.6" cy="1349.5" r="2.4" fill="#dc2626"/>
<circle cx="3797.8" cy="1332.7" r="2.4" fill="#dc2626"/>
<circle cx="3890.0" cy="1315.9" r="2.4" fill="#dc2626"/>
<polyline points="110.0,1479.9 202.2,1469.2 294.4,1464.2 386.6,1462.9 478.8,1474.0 571.0,1468.7 663.2,1460.4 755.4,1447.7 847.6,1450.4 939.8,1440.0 1032.0,1465.1 1124.1,1468.4 1216.3,1418.5 1308.5,1394.3 1400.7,1440.8 1492.9,1392.4 1585.1,1384.0 1677.3,1380.7 1769.5,1382.9 1861.7,1416.1 1953.9,1376.1 2046.1,1378.3 2138.3,1408.6 2230.5,1375.3 2322.7,1381.7 2414.9,1409.0 2507.1,1409.9 2599.3,1372.5 2691.5,1377.4 2783.7,1392.5 2875.9,1382.0 2968.0,1381.6 3060.2,1375.5 3152.4,1378.3 3244.6,1380.1 3336.8,1369.2 3429.0,1376.8 3521.2,1377.1 3613.4,1384.6 3705.6,1376.3 3797.8,1375.7 3890.0,1378.6" fill="none" stroke="#16a34a" stroke-width="2.4"/>
<circle cx="110.0" cy="1479.9" r="2.4" fill="#16a34a"/>
<circle cx="202.2" cy="1469.2" r="2.4" fill="#16a34a"/>
<circle cx="294.4" cy="1464.2" r="2.4" fill="#16a34a"/>
<circle cx="386.6" cy="1462.9" r="2.4" fill="#16a34a"/>
<circle cx="478.8" cy="1474.0" r="2.4" fill="#16a34a"/>
<circle cx="571.0" cy="1468.7" r="2.4" fill="#16a34a"/>
<circle cx="663.2" cy="1460.4" r="2.4" fill="#16a34a"/>
<circle cx="755.4" cy="1447.7" r="2.4" fill="#16a34a"/>
<circle cx="847.6" cy="1450.4" r="2.4" fill="#16a34a"/>
<circle cx="939.8" cy="1440.0" r="2.4" fill="#16a34a"/>
<circle cx="1032.0" cy="1465.1" r="2.4" fill="#16a34a"/>
<circle cx="1124.1" cy="1468.4" r="2.4" fill="#16a34a"/>
<circle cx="1216.3" cy="1418.5" r="2.4" fill="#16a34a"/>
<circle cx="1308.5" cy="1394.3" r="2.4" fill="#16a34a"/>
<circle cx="1400.7" cy="1440.8" r="2.4" fill="#16a34a"/>
<circle cx="1492.9" cy="1392.4" r="2.4" fill="#16a34a"/>
<circle cx="1585.1" cy="1384.0" r="2.4" fill="#16a34a"/>
<circle cx="1677.3" cy="1380.7" r="2.4" fill="#16a34a"/>
<circle cx="1769.5" cy="1382.9" r="2.4" fill="#16a34a"/>
<circle cx="1861.7" cy="1416.1" r="2.4" fill="#16a34a"/>
<circle cx="1953.9" cy="1376.1" r="2.4" fill="#16a34a"/>
<circle cx="2046.1" cy="1378.3" r="2.4" fill="#16a34a"/>
<circle cx="2138.3" cy="1408.6" r="2.4" fill="#16a34a"/>
<circle cx="2230.5" cy="1375.3" r="2.4" fill="#16a34a"/>
<circle cx="2322.7" cy="1381.7" r="2.4" fill="#16a34a"/>
<circle cx="2414.9" cy="1409.0" r="2.4" fill="#16a34a"/>
<circle cx="2507.1" cy="1409.9" r="2.4" fill="#16a34a"/>
<circle cx="2599.3" cy="1372.5" r="2.4" fill="#16a34a"/>
<circle cx="2691.5" cy="1377.4" r="2.4" fill="#16a34a"/>
<circle cx="2783.7" cy="1392.5" r="2.4" fill="#16a34a"/>
<circle cx="2875.9" cy="1382.0" r="2.4" fill="#16a34a"/>
<circle cx="2968.0" cy="1381.6" r="2.4" fill="#16a34a"/>
<circle cx="3060.2" cy="1375.5" r="2.4" fill="#16a34a"/>
<circle cx="3152.4" cy="1378.3" r="2.4" fill="#16a34a"/>
<circle cx="3244.6" cy="1380.1" r="2.4" fill="#16a34a"/>
<circle cx="3336.8" cy="1369.2" r="2.4" fill="#16a34a"/>
<circle cx="3429.0" cy="1376.8" r="2.4" fill="#16a34a"/>
<circle cx="3521.2" cy="1377.1" r="2.4" fill="#16a34a"/>
<circle cx="3613.4" cy="1384.6" r="2.4" fill="#16a34a"/>
<circle cx="3705.6" cy="1376.3" r="2.4" fill="#16a34a"/>
<circle cx="3797.8" cy="1375.7" r="2.4" fill="#16a34a"/>
<circle cx="3890.0" cy="1378.6" r="2.4" fill="#16a34a"/>
<g transform="translate(110.0,1498) rotate(58)">
<text class="shape-label">m1_n1_k1</text>
<text y="12" class="shape-label">1x1x1</text>
</g>
<g transform="translate(202.2,1498) rotate(58)">
<text class="shape-label">m8_n8_k8</text>
<text y="12" class="shape-label">8x8x8</text>
</g>
<g transform="translate(294.4,1498) rotate(58)">
<text class="shape-label">m31_n31_k31</text>
<text y="12" class="shape-label">31x31x31</text>
</g>
<g transform="translate(386.6,1498) rotate(58)">
<text class="shape-label">m33_n33_k33</text>
<text y="12" class="shape-label">33x33x33</text>
</g>
<g transform="translate(478.8,1498) rotate(58)">
<text class="shape-label">m63_n65_k17</text>
<text y="12" class="shape-label">63x65x17</text>
</g>
<g transform="translate(571.0,1498) rotate(58)">
<text class="shape-label">m65_n63_k33</text>
<text y="12" class="shape-label">65x63x33</text>
</g>
<g transform="translate(663.2,1498) rotate(58)">
<text class="shape-label">sq64</text>
<text y="12" class="shape-label">64x64x64</text>
</g>
<g transform="translate(755.4,1498) rotate(58)">
<text class="shape-label">m127_n129_k31</text>
<text y="12" class="shape-label">127x129x31</text>
</g>
<g transform="translate(847.6,1498) rotate(58)">
<text class="shape-label">m129_n127_k33</text>
<text y="12" class="shape-label">129x127x33</text>
</g>
<g transform="translate(939.8,1498) rotate(58)">
<text class="shape-label">sq96</text>
<text y="12" class="shape-label">96x96x96</text>
</g>
<g transform="translate(1032.0,1498) rotate(58)">
<text class="shape-label">m1_n4096_k256</text>
<text y="12" class="shape-label">1x4096x256</text>
</g>
<g transform="translate(1124.1,1498) rotate(58)">
<text class="shape-label">m4096_n1_k256</text>
<text y="12" class="shape-label">4096x1x256</text>
</g>
<g transform="translate(1216.3,1498) rotate(58)">
<text class="shape-label">sq128</text>
<text y="12" class="shape-label">128x128x128</text>
</g>
<g transform="translate(1308.5,1498) rotate(58)">
<text class="shape-label">sq192</text>
<text y="12" class="shape-label">192x192x192</text>
</g>
<g transform="translate(1400.7,1498) rotate(58)">
<text class="shape-label">m2048_n17_k257</text>
<text y="12" class="shape-label">2048x17x257</text>
</g>
<g transform="translate(1492.9,1498) rotate(58)">
<text class="shape-label">m17_n2048_k257</text>
<text y="12" class="shape-label">17x2048x257</text>
</g>
<g transform="translate(1585.1,1498) rotate(58)">
<text class="shape-label">sq256</text>
<text y="12" class="shape-label">256x256x256</text>
</g>
<g transform="translate(1677.3,1498) rotate(58)">
<text class="shape-label">m384_n640_k96</text>
<text y="12" class="shape-label">384x640x96</text>
</g>
<g transform="translate(1769.5,1498) rotate(58)">
<text class="shape-label">m640_n384_k96</text>
<text y="12" class="shape-label">640x384x96</text>
</g>
<g transform="translate(1861.7,1498) rotate(58)">
<text class="shape-label">m4096_n32_k256</text>
<text y="12" class="shape-label">4096x32x256</text>
</g>
<g transform="translate(1953.9,1498) rotate(58)">
<text class="shape-label">m32_n4096_k256</text>
<text y="12" class="shape-label">32x4096x256</text>
</g>
<g transform="translate(2046.1,1498) rotate(58)">
<text class="shape-label">sq384</text>
<text y="12" class="shape-label">384x384x384</text>
</g>
<g transform="translate(2138.3,1498) rotate(58)">
<text class="shape-label">m1024_n64_k1024</text>
<text y="12" class="shape-label">1024x64x1024</text>
</g>
<g transform="translate(2230.5,1498) rotate(58)">
<text class="shape-label">m64_n1024_k1024</text>
<text y="12" class="shape-label">64x1024x1024</text>
</g>
<g transform="translate(2322.7,1498) rotate(58)">
<text class="shape-label">m1024_n1024_k64</text>
<text y="12" class="shape-label">1024x1024x64</text>
</g>
<g transform="translate(2414.9,1498) rotate(58)">
<text class="shape-label">m2048_n64_k512</text>
<text y="12" class="shape-label">2048x64x512</text>
</g>
<g transform="translate(2507.1,1498) rotate(58)">
<text class="shape-label">m512_n64_k2048</text>
<text y="12" class="shape-label">512x64x2048</text>
</g>
<g transform="translate(2599.3,1498) rotate(58)">
<text class="shape-label">m64_n2048_k512</text>
<text y="12" class="shape-label">64x2048x512</text>
</g>
<g transform="translate(2691.5,1498) rotate(58)">
<text class="shape-label">m64_n512_k2048</text>
<text y="12" class="shape-label">64x512x2048</text>
</g>
<g transform="translate(2783.7,1498) rotate(58)">
<text class="shape-label">m128_n128_k4096</text>
<text y="12" class="shape-label">128x128x4096</text>
</g>
<g transform="translate(2875.9,1498) rotate(58)">
<text class="shape-label">m512_n256_k768</text>
<text y="12" class="shape-label">512x256x768</text>
</g>
<g transform="translate(2968.0,1498) rotate(58)">
<text class="shape-label">m256_n512_k768</text>
<text y="12" class="shape-label">256x512x768</text>
</g>
<g transform="translate(3060.2,1498) rotate(58)">
<text class="shape-label">m768_n512_k256</text>
<text y="12" class="shape-label">768x512x256</text>
</g>
<g transform="translate(3152.4,1498) rotate(58)">
<text class="shape-label">m512_n768_k256</text>
<text y="12" class="shape-label">512x768x256</text>
</g>
<g transform="translate(3244.6,1498) rotate(58)">
<text class="shape-label">m1536_n256_k256</text>
<text y="12" class="shape-label">1536x256x256</text>
</g>
<g transform="translate(3336.8,1498) rotate(58)">
<text class="shape-label">m256_n1536_k256</text>
<text y="12" class="shape-label">256x1536x256</text>
</g>
<g transform="translate(3429.0,1498) rotate(58)">
<text class="shape-label">sq512</text>
<text y="12" class="shape-label">512x512x512</text>
</g>
<g transform="translate(3521.2,1498) rotate(58)">
<text class="shape-label">m1024_n1024_k128</text>
<text y="12" class="shape-label">1024x1024x128</text>
</g>
<g transform="translate(3613.4,1498) rotate(58)">
<text class="shape-label">m256_n256_k2048</text>
<text y="12" class="shape-label">256x256x2048</text>
</g>
<g transform="translate(3705.6,1498) rotate(58)">
<text class="shape-label">m1024_n1024_k256</text>
<text y="12" class="shape-label">1024x1024x256</text>
</g>
<g transform="translate(3797.8,1498) rotate(58)">
<text class="shape-label">sq768</text>
<text y="12" class="shape-label">768x768x768</text>
</g>
<g transform="translate(3890.0,1498) rotate(58)">
<text class="shape-label">sq1024</text>
<text y="12" class="shape-label">1024x1024x1024</text>
</g>
</svg>