<svg xmlns="http://www.w3.org/2000/svg" width="2400" height="1242" viewBox="0 0 2400 1242">

<style>
  text { font-family: -apple-system, BlinkMacSystemFont, "Segoe UI", sans-serif; fill: #111827; }
  .title { font-size: 26px; font-weight: 700; }
  .sub { font-size: 13px; fill: #4b5563; }
  .panel { font-size: 17px; font-weight: 700; }
  .tick { font-size: 11px; fill: #4b5563; }
  .op { font-size: 10px; fill: #374151; }
  .val { font-size: 8px; fill: #111827; }
  .legend { font-size: 14px; }
  .axis { stroke: #111827; stroke-width: 1; }
  .grid { stroke: #e5e7eb; stroke-width: 1; }
</style>

<rect width="100%" height="100%" fill="#fff"/>
<text x="38" y="42" class="title">Level 2 current performance - real and complex types</text>
<text x="38" y="66" class="sub">Higher is better. Fresh process per library and size, metric = Gops. Panels use the CSV n values; bars follow the legend order.</text>
<rect x="1855" y="43" width="20" height="13" fill="#2563eb"/>
<text x="1883" y="55" class="legend">Zynum</text>
<rect x="2025" y="43" width="20" height="13" fill="#dc2626"/>
<text x="2053" y="55" class="legend">Accelerate</text>
<rect x="2195" y="43" width="20" height="13" fill="#16a34a"/>
<text x="2223" y="55" class="legend">OpenBLAS</text>
<text x="90" y="95" class="panel">n=128</text>
<line x1="90" y1="388.0" x2="2365" y2="388.0" class="grid"/>
<text x="80" y="392.0" text-anchor="end" class="tick">0</text>
<line x1="90" y1="298.0" x2="2365" y2="298.0" class="grid"/>
<text x="80" y="302.0" text-anchor="end" class="tick">10</text>
<line x1="90" y1="208.0" x2="2365" y2="208.0" class="grid"/>
<text x="80" y="212.0" text-anchor="end" class="tick">20</text>
<line x1="90" y1="118.0" x2="2365" y2="118.0" class="grid"/>
<text x="80" y="122.0" text-anchor="end" class="tick">30</text>
<line x1="90" y1="118" x2="90" y2="388" class="axis"/>
<line x1="90" y1="388" x2="2365" y2="388" class="axis"/>
<rect x="114.2" y="348.2" width="24.0" height="39.8" fill="#2563eb"><title>sgemv_n Zynum n=128: 4.418 Gops</title></rect>
<text x="126.2" y="344.2" text-anchor="middle" class="val">4.4</text>
<rect x="140.2" y="333.6" width="24.0" height="54.4" fill="#dc2626"><title>sgemv_n Accelerate n=128: 6.049 Gops</title></rect>
<text x="152.2" y="329.6" text-anchor="middle" class="val">6.0</text>
<rect x="166.2" y="329.0" width="24.0" height="59.0" fill="#16a34a"><title>sgemv_n OpenBLAS n=128: 6.554 Gops</title></rect>
<text x="178.2" y="325.0" text-anchor="middle" class="val">6.6</text>
<text x="153.2" y="406" text-anchor="end" transform="rotate(-28 153.2 406)" class="op">sgemv_n</text>
<rect x="240.6" y="345.1" width="24.0" height="42.9" fill="#2563eb"><title>sgemv_t Zynum n=128: 4.766 Gops</title></rect>
<text x="252.6" y="341.1" text-anchor="middle" class="val">4.8</text>
<rect x="266.6" y="345.9" width="24.0" height="42.1" fill="#dc2626"><title>sgemv_t Accelerate n=128: 4.681 Gops</title></rect>
<text x="278.6" y="341.9" text-anchor="middle" class="val">4.7</text>
<rect x="292.6" y="331.8" width="24.0" height="56.2" fill="#16a34a"><title>sgemv_t OpenBLAS n=128: 6.242 Gops</title></rect>
<text x="304.6" y="327.8" text-anchor="middle" class="val">6.2</text>
<text x="279.6" y="406" text-anchor="end" transform="rotate(-28 279.6 406)" class="op">sgemv_t</text>
<rect x="367.0" y="346.6" width="24.0" height="41.4" fill="#2563eb"><title>ssymv Zynum n=128: 4.599 Gops</title></rect>
<text x="379.0" y="342.6" text-anchor="middle" class="val">4.6</text>
<rect x="393.0" y="350.1" width="24.0" height="37.9" fill="#dc2626"><title>ssymv Accelerate n=128: 4.206 Gops</title></rect>
<text x="405.0" y="346.1" text-anchor="middle" class="val">4.2</text>
<rect x="419.0" y="352.4" width="24.0" height="35.6" fill="#16a34a"><title>ssymv OpenBLAS n=128: 3.952 Gops</title></rect>
<text x="431.0" y="348.4" text-anchor="middle" class="val">4.0</text>
<text x="406.0" y="406" text-anchor="end" transform="rotate(-28 406.0 406)" class="op">ssymv</text>
<rect x="493.4" y="347.6" width="24.0" height="40.4" fill="#2563eb"><title>sger Zynum n=128: 4.494 Gops</title></rect>
<text x="505.4" y="343.6" text-anchor="middle" class="val">4.5</text>
<rect x="519.4" y="348.7" width="24.0" height="39.3" fill="#dc2626"><title>sger Accelerate n=128: 4.369 Gops</title></rect>
<text x="531.4" y="344.7" text-anchor="middle" class="val">4.4</text>
<rect x="545.4" y="344.3" width="24.0" height="43.7" fill="#16a34a"><title>sger OpenBLAS n=128: 4.855 Gops</title></rect>
<text x="557.4" y="340.3" text-anchor="middle" class="val">4.9</text>
<text x="532.4" y="406" text-anchor="end" transform="rotate(-28 532.4 406)" class="op">sger</text>
<rect x="619.8" y="341.7" width="24.0" height="46.3" fill="#2563eb"><title>dgemv_n Zynum n=128: 5.140 Gops</title></rect>
<text x="631.8" y="337.7" text-anchor="middle" class="val">5.1</text>
<rect x="645.8" y="343.5" width="24.0" height="44.5" fill="#dc2626"><title>dgemv_n Accelerate n=128: 4.946 Gops</title></rect>
<text x="657.8" y="339.5" text-anchor="middle" class="val">4.9</text>
<rect x="671.8" y="349.5" width="24.0" height="38.5" fill="#16a34a"><title>dgemv_n OpenBLAS n=128: 4.274 Gops</title></rect>
<text x="683.8" y="345.5" text-anchor="middle" class="val">4.3</text>
<text x="658.8" y="406" text-anchor="end" transform="rotate(-28 658.8 406)" class="op">dgemv_n</text>
<rect x="746.1" y="343.5" width="24.0" height="44.5" fill="#2563eb"><title>dgemv_t Zynum n=128: 4.946 Gops</title></rect>
<text x="758.1" y="339.5" text-anchor="middle" class="val">4.9</text>
<rect x="772.1" y="344.3" width="24.0" height="43.7" fill="#dc2626"><title>dgemv_t Accelerate n=128: 4.855 Gops</title></rect>
<text x="784.1" y="340.3" text-anchor="middle" class="val">4.9</text>
<rect x="798.1" y="349.3" width="24.0" height="38.7" fill="#16a34a"><title>dgemv_t OpenBLAS n=128: 4.297 Gops</title></rect>
<text x="810.1" y="345.3" text-anchor="middle" class="val">4.3</text>
<text x="785.1" y="406" text-anchor="end" transform="rotate(-28 785.1 406)" class="op">dgemv_t</text>
<rect x="872.5" y="353.8" width="24.0" height="34.2" fill="#2563eb"><title>dsymv Zynum n=128: 3.799 Gops</title></rect>
<text x="884.5" y="349.8" text-anchor="middle" class="val">3.8</text>
<rect x="898.5" y="372.5" width="24.0" height="15.5" fill="#dc2626"><title>dsymv Accelerate n=128: 1.717 Gops</title></rect>
<text x="910.5" y="368.5" text-anchor="middle" class="val">1.7</text>
<rect x="924.5" y="354.0" width="24.0" height="34.0" fill="#16a34a"><title>dsymv OpenBLAS n=128: 3.781 Gops</title></rect>
<text x="936.5" y="350.0" text-anchor="middle" class="val">3.8</text>
<text x="911.5" y="406" text-anchor="end" transform="rotate(-28 911.5 406)" class="op">dsymv</text>
<rect x="998.9" y="361.9" width="24.0" height="26.1" fill="#2563eb"><title>dger Zynum n=128: 2.902 Gops</title></rect>
<text x="1010.9" y="357.9" text-anchor="middle" class="val">2.9</text>
<rect x="1024.9" y="361.5" width="24.0" height="26.5" fill="#dc2626"><title>dger Accelerate n=128: 2.945 Gops</title></rect>
<text x="1036.9" y="357.5" text-anchor="middle" class="val">2.9</text>
<rect x="1050.9" y="344.0" width="24.0" height="44.0" fill="#16a34a"><title>dger OpenBLAS n=128: 4.885 Gops</title></rect>
<text x="1062.9" y="340.0" text-anchor="middle" class="val">4.9</text>
<text x="1037.9" y="406" text-anchor="end" transform="rotate(-28 1037.9 406)" class="op">dger</text>
<rect x="1125.3" y="268.0" width="24.0" height="120.0" fill="#2563eb"><title>cgemv_n Zynum n=128: 13.330 Gops</title></rect>
<text x="1137.3" y="264.0" text-anchor="middle" class="val">13.3</text>
<rect x="1151.3" y="239.0" width="24.0" height="149.0" fill="#dc2626"><title>cgemv_n Accelerate n=128: 16.556 Gops</title></rect>
<text x="1163.3" y="235.0" text-anchor="middle" class="val">16.6</text>
<rect x="1177.3" y="254.4" width="24.0" height="133.6" fill="#16a34a"><title>cgemv_n OpenBLAS n=128: 14.839 Gops</title></rect>
<text x="1189.3" y="250.4" text-anchor="middle" class="val">14.8</text>
<text x="1164.3" y="406" text-anchor="end" transform="rotate(-28 1164.3 406)" class="op">cgemv_n</text>
<rect x="1251.7" y="260.5" width="24.0" height="127.5" fill="#2563eb"><title>cgemv_t Zynum n=128: 14.170 Gops</title></rect>
<text x="1263.7" y="256.5" text-anchor="middle" class="val">14.2</text>
<rect x="1277.7" y="233.3" width="24.0" height="154.7" fill="#dc2626"><title>cgemv_t Accelerate n=128: 17.190 Gops</title></rect>
<text x="1289.7" y="229.3" text-anchor="middle" class="val">17.2</text>
<rect x="1303.7" y="181.4" width="24.0" height="206.6" fill="#16a34a"><title>cgemv_t OpenBLAS n=128: 22.959 Gops</title></rect>
<text x="1315.7" y="177.4" text-anchor="middle" class="val">23.0</text>
<text x="1290.7" y="406" text-anchor="end" transform="rotate(-28 1290.7 406)" class="op">cgemv_t</text>
<rect x="1378.1" y="291.7" width="24.0" height="96.3" fill="#2563eb"><title>chemv Zynum n=128: 10.700 Gops</title></rect>
<text x="1390.1" y="287.7" text-anchor="middle" class="val">10.7</text>
<rect x="1404.1" y="296.1" width="24.0" height="91.9" fill="#dc2626"><title>chemv Accelerate n=128: 10.214 Gops</title></rect>
<text x="1416.1" y="292.1" text-anchor="middle" class="val">10.2</text>
<rect x="1430.1" y="288.0" width="24.0" height="100.0" fill="#16a34a"><title>chemv OpenBLAS n=128: 11.115 Gops</title></rect>
<text x="1442.1" y="284.0" text-anchor="middle" class="val">11.1</text>
<text x="1417.1" y="406" text-anchor="end" transform="rotate(-28 1417.1 406)" class="op">chemv</text>
<rect x="1504.5" y="276.5" width="24.0" height="111.5" fill="#2563eb"><title>cgeru Zynum n=128: 12.384 Gops</title></rect>
<text x="1516.5" y="272.5" text-anchor="middle" class="val">12.4</text>
<rect x="1530.5" y="305.5" width="24.0" height="82.5" fill="#dc2626"><title>cgeru Accelerate n=128: 9.171 Gops</title></rect>
<text x="1542.5" y="301.5" text-anchor="middle" class="val">9.2</text>
<rect x="1556.5" y="253.2" width="24.0" height="134.8" fill="#16a34a"><title>cgeru OpenBLAS n=128: 14.980 Gops</title></rect>
<text x="1568.5" y="249.2" text-anchor="middle" class="val">15.0</text>
<text x="1543.5" y="406" text-anchor="end" transform="rotate(-28 1543.5 406)" class="op">cgeru</text>
<rect x="1630.9" y="276.1" width="24.0" height="111.9" fill="#2563eb"><title>cgerc Zynum n=128: 12.433 Gops</title></rect>
<text x="1642.9" y="272.1" text-anchor="middle" class="val">12.4</text>
<rect x="1656.9" y="305.9" width="24.0" height="82.1" fill="#dc2626"><title>cgerc Accelerate n=128: 9.118 Gops</title></rect>
<text x="1668.9" y="301.9" text-anchor="middle" class="val">9.1</text>
<rect x="1682.9" y="218.5" width="24.0" height="169.5" fill="#16a34a"><title>cgerc OpenBLAS n=128: 18.838 Gops</title></rect>
<text x="1694.9" y="214.5" text-anchor="middle" class="val">18.8</text>
<text x="1669.9" y="406" text-anchor="end" transform="rotate(-28 1669.9 406)" class="op">cgerc</text>
<rect x="1757.2" y="295.8" width="24.0" height="92.2" fill="#2563eb"><title>zgemv_n Zynum n=128: 10.246 Gops</title></rect>
<text x="1769.2" y="291.8" text-anchor="middle" class="val">10.2</text>
<rect x="1783.2" y="250.6" width="24.0" height="137.4" fill="#dc2626"><title>zgemv_n Accelerate n=128: 15.271 Gops</title></rect>
<text x="1795.2" y="246.6" text-anchor="middle" class="val">15.3</text>
<rect x="1809.2" y="264.9" width="24.0" height="123.1" fill="#16a34a"><title>zgemv_n OpenBLAS n=128: 13.678 Gops</title></rect>
<text x="1821.2" y="260.9" text-anchor="middle" class="val">13.7</text>
<text x="1796.2" y="406" text-anchor="end" transform="rotate(-28 1796.2 406)" class="op">zgemv_n</text>
<rect x="1883.6" y="297.6" width="24.0" height="90.4" fill="#2563eb"><title>zgemv_t Zynum n=128: 10.050 Gops</title></rect>
<text x="1895.6" y="293.6" text-anchor="middle" class="val">10.0</text>
<rect x="1909.6" y="237.4" width="24.0" height="150.6" fill="#dc2626"><title>zgemv_t Accelerate n=128: 16.733 Gops</title></rect>
<text x="1921.6" y="233.4" text-anchor="middle" class="val">16.7</text>
<rect x="1935.6" y="191.4" width="24.0" height="196.6" fill="#16a34a"><title>zgemv_t OpenBLAS n=128: 21.845 Gops</title></rect>
<text x="1947.6" y="187.4" text-anchor="middle" class="val">21.8</text>
<text x="1922.6" y="406" text-anchor="end" transform="rotate(-28 1922.6 406)" class="op">zgemv_t</text>
<rect x="2010.0" y="320.4" width="24.0" height="67.6" fill="#2563eb"><title>zhemv Zynum n=128: 7.508 Gops</title></rect>
<text x="2022.0" y="316.4" text-anchor="middle" class="val">7.5</text>
<rect x="2036.0" y="301.7" width="24.0" height="86.3" fill="#dc2626"><title>zhemv Accelerate n=128: 9.590 Gops</title></rect>
<text x="2048.0" y="297.7" text-anchor="middle" class="val">9.6</text>
<rect x="2062.0" y="317.9" width="24.0" height="70.1" fill="#16a34a"><title>zhemv OpenBLAS n=128: 7.787 Gops</title></rect>
<text x="2074.0" y="313.9" text-anchor="middle" class="val">7.8</text>
<text x="2049.0" y="406" text-anchor="end" transform="rotate(-28 2049.0 406)" class="op">zhemv</text>
<rect x="2136.4" y="279.9" width="24.0" height="108.1" fill="#2563eb"><title>zgeru Zynum n=128: 12.006 Gops</title></rect>
<text x="2148.4" y="275.9" text-anchor="middle" class="val">12.0</text>
<rect x="2162.4" y="343.9" width="24.0" height="44.1" fill="#dc2626"><title>zgeru Accelerate n=128: 4.900 Gops</title></rect>
<text x="2174.4" y="339.9" text-anchor="middle" class="val">4.9</text>
<rect x="2188.4" y="230.7" width="24.0" height="157.3" fill="#16a34a"><title>zgeru OpenBLAS n=128: 17.476 Gops</title></rect>
<text x="2200.4" y="226.7" text-anchor="middle" class="val">17.5</text>
<text x="2175.4" y="406" text-anchor="end" transform="rotate(-28 2175.4 406)" class="op">zgeru</text>
<rect x="2262.8" y="286.2" width="24.0" height="101.8" fill="#2563eb"><title>zgerc Zynum n=128: 11.316 Gops</title></rect>
<text x="2274.8" y="282.2" text-anchor="middle" class="val">11.3</text>
<rect x="2288.8" y="343.4" width="24.0" height="44.6" fill="#dc2626"><title>zgerc Accelerate n=128: 4.954 Gops</title></rect>
<text x="2300.8" y="339.4" text-anchor="middle" class="val">5.0</text>
<rect x="2314.8" y="185.8" width="24.0" height="202.2" fill="#16a34a"><title>zgerc OpenBLAS n=128: 22.471 Gops</title></rect>
<text x="2326.8" y="181.8" text-anchor="middle" class="val">22.5</text>
<text x="2301.8" y="406" text-anchor="end" transform="rotate(-28 2301.8 406)" class="op">zgerc</text>
<text x="90" y="467" class="panel">n=256</text>
<line x1="90" y1="760.0" x2="2365" y2="760.0" class="grid"/>
<text x="80" y="764.0" text-anchor="end" class="tick">0</text>
<line x1="90" y1="692.5" x2="2365" y2="692.5" class="grid"/>
<text x="80" y="696.5" text-anchor="end" class="tick">20</text>
<line x1="90" y1="625.0" x2="2365" y2="625.0" class="grid"/>
<text x="80" y="629.0" text-anchor="end" class="tick">40</text>
<line x1="90" y1="557.5" x2="2365" y2="557.5" class="grid"/>
<text x="80" y="561.5" text-anchor="end" class="tick">60</text>
<line x1="90" y1="490.0" x2="2365" y2="490.0" class="grid"/>
<text x="80" y="494.0" text-anchor="end" class="tick">80</text>
<line x1="90" y1="490" x2="90" y2="760" class="axis"/>
<line x1="90" y1="760" x2="2365" y2="760" class="axis"/>
<rect x="114.2" y="648.3" width="24.0" height="111.7" fill="#2563eb"><title>sgemv_n Zynum n=256: 33.107 Gops</title></rect>
<text x="126.2" y="644.3" text-anchor="middle" class="val">33.1</text>
<rect x="140.2" y="673.0" width="24.0" height="87.0" fill="#dc2626"><title>sgemv_n Accelerate n=256: 25.786 Gops</title></rect>
<text x="152.2" y="669.0" text-anchor="middle" class="val">25.8</text>
<rect x="166.2" y="723.6" width="24.0" height="36.4" fill="#16a34a"><title>sgemv_n OpenBLAS n=256: 10.773 Gops</title></rect>
<text x="178.2" y="719.6" text-anchor="middle" class="val">10.8</text>
<text x="153.2" y="778" text-anchor="end" transform="rotate(-28 153.2 778)" class="op">sgemv_n</text>
<rect x="240.6" y="666.0" width="24.0" height="94.0" fill="#2563eb"><title>sgemv_t Zynum n=256: 27.840 Gops</title></rect>
<text x="252.6" y="662.0" text-anchor="middle" class="val">27.8</text>
<rect x="266.6" y="691.9" width="24.0" height="68.1" fill="#dc2626"><title>sgemv_t Accelerate n=256: 20.165 Gops</title></rect>
<text x="278.6" y="687.9" text-anchor="middle" class="val">20.2</text>
<rect x="292.6" y="721.4" width="24.0" height="38.6" fill="#16a34a"><title>sgemv_t OpenBLAS n=256: 11.439 Gops</title></rect>
<text x="304.6" y="717.4" text-anchor="middle" class="val">11.4</text>
<text x="279.6" y="778" text-anchor="end" transform="rotate(-28 279.6 778)" class="op">sgemv_t</text>
<rect x="367.0" y="684.7" width="24.0" height="75.3" fill="#2563eb"><title>ssymv Zynum n=256: 22.310 Gops</title></rect>
<text x="379.0" y="680.7" text-anchor="middle" class="val">22.3</text>
<rect x="393.0" y="727.8" width="24.0" height="32.2" fill="#dc2626"><title>ssymv Accelerate n=256: 9.533 Gops</title></rect>
<text x="405.0" y="723.8" text-anchor="middle" class="val">9.5</text>
<rect x="419.0" y="700.4" width="24.0" height="59.6" fill="#16a34a"><title>ssymv OpenBLAS n=256: 17.672 Gops</title></rect>
<text x="431.0" y="696.4" text-anchor="middle" class="val">17.7</text>
<text x="406.0" y="778" text-anchor="end" transform="rotate(-28 406.0 778)" class="op">ssymv</text>
<rect x="493.4" y="703.5" width="24.0" height="56.5" fill="#2563eb"><title>sger Zynum n=256: 16.731 Gops</title></rect>
<text x="505.4" y="699.5" text-anchor="middle" class="val">16.7</text>
<rect x="519.4" y="728.0" width="24.0" height="32.0" fill="#dc2626"><title>sger Accelerate n=256: 9.475 Gops</title></rect>
<text x="531.4" y="724.0" text-anchor="middle" class="val">9.5</text>
<rect x="545.4" y="710.8" width="24.0" height="49.2" fill="#16a34a"><title>sger OpenBLAS n=256: 14.564 Gops</title></rect>
<text x="557.4" y="706.8" text-anchor="middle" class="val">14.6</text>
<text x="532.4" y="778" text-anchor="end" transform="rotate(-28 532.4 778)" class="op">sger</text>
<rect x="619.8" y="684.2" width="24.0" height="75.8" fill="#2563eb"><title>dgemv_n Zynum n=256: 22.467 Gops</title></rect>
<text x="631.8" y="680.2" text-anchor="middle" class="val">22.5</text>
<rect x="645.8" y="683.1" width="24.0" height="76.9" fill="#dc2626"><title>dgemv_n Accelerate n=256: 22.795 Gops</title></rect>
<text x="657.8" y="679.1" text-anchor="middle" class="val">22.8</text>
<rect x="671.8" y="737.9" width="24.0" height="22.1" fill="#16a34a"><title>dgemv_n OpenBLAS n=256: 6.554 Gops</title></rect>
<text x="683.8" y="733.9" text-anchor="middle" class="val">6.6</text>
<text x="658.8" y="778" text-anchor="end" transform="rotate(-28 658.8 778)" class="op">dgemv_n</text>
<rect x="746.1" y="690.1" width="24.0" height="69.9" fill="#2563eb"><title>dgemv_t Zynum n=256: 20.697 Gops</title></rect>
<text x="758.1" y="686.1" text-anchor="middle" class="val">20.7</text>
<rect x="772.1" y="692.8" width="24.0" height="67.2" fill="#dc2626"><title>dgemv_t Accelerate n=256: 19.911 Gops</title></rect>
<text x="784.1" y="688.8" text-anchor="middle" class="val">19.9</text>
<rect x="798.1" y="737.2" width="24.0" height="22.8" fill="#16a34a"><title>dgemv_t OpenBLAS n=256: 6.765 Gops</title></rect>
<text x="810.1" y="733.2" text-anchor="middle" class="val">6.8</text>
<text x="785.1" y="778" text-anchor="end" transform="rotate(-28 785.1 778)" class="op">dgemv_t</text>
<rect x="872.5" y="713.4" width="24.0" height="46.6" fill="#2563eb"><title>dsymv Zynum n=256: 13.797 Gops</title></rect>
<text x="884.5" y="709.4" text-anchor="middle" class="val">13.8</text>
<rect x="898.5" y="741.0" width="24.0" height="19.0" fill="#dc2626"><title>dsymv Accelerate n=256: 5.638 Gops</title></rect>
<text x="910.5" y="737.0" text-anchor="middle" class="val">5.6</text>
<rect x="924.5" y="712.6" width="24.0" height="47.4" fill="#16a34a"><title>dsymv OpenBLAS n=256: 14.044 Gops</title></rect>
<text x="936.5" y="708.6" text-anchor="middle" class="val">14.0</text>
<text x="911.5" y="778" text-anchor="end" transform="rotate(-28 911.5 778)" class="op">dsymv</text>
<rect x="998.9" y="714.6" width="24.0" height="45.4" fill="#2563eb"><title>dger Zynum n=256: 13.443 Gops</title></rect>
<text x="1010.9" y="710.6" text-anchor="middle" class="val">13.4</text>
<rect x="1024.9" y="736.4" width="24.0" height="23.6" fill="#dc2626"><title>dger Accelerate n=256: 7.006 Gops</title></rect>
<text x="1036.9" y="732.4" text-anchor="middle" class="val">7.0</text>
<rect x="1050.9" y="716.3" width="24.0" height="43.7" fill="#16a34a"><title>dger OpenBLAS n=256: 12.945 Gops</title></rect>
<text x="1062.9" y="712.3" text-anchor="middle" class="val">12.9</text>
<text x="1037.9" y="778" text-anchor="end" transform="rotate(-28 1037.9 778)" class="op">dger</text>
<rect x="1125.3" y="591.5" width="24.0" height="168.5" fill="#2563eb"><title>cgemv_n Zynum n=256: 49.932 Gops</title></rect>
<text x="1137.3" y="587.5" text-anchor="middle" class="val">49.9</text>
<rect x="1151.3" y="607.2" width="24.0" height="152.8" fill="#dc2626"><title>cgemv_n Accelerate n=256: 45.260 Gops</title></rect>
<text x="1163.3" y="603.2" text-anchor="middle" class="val">45.3</text>
<rect x="1177.3" y="671.0" width="24.0" height="89.0" fill="#16a34a"><title>cgemv_n OpenBLAS n=256: 26.379 Gops</title></rect>
<text x="1189.3" y="667.0" text-anchor="middle" class="val">26.4</text>
<text x="1164.3" y="778" text-anchor="end" transform="rotate(-28 1164.3 778)" class="op">cgemv_n</text>
<rect x="1251.7" y="586.7" width="24.0" height="173.3" fill="#2563eb"><title>cgemv_t Zynum n=256: 51.361 Gops</title></rect>
<text x="1263.7" y="582.7" text-anchor="middle" class="val">51.4</text>
<rect x="1277.7" y="605.0" width="24.0" height="155.0" fill="#dc2626"><title>cgemv_t Accelerate n=256: 45.922 Gops</title></rect>
<text x="1289.7" y="601.0" text-anchor="middle" class="val">45.9</text>
<rect x="1303.7" y="567.0" width="24.0" height="193.0" fill="#16a34a"><title>cgemv_t OpenBLAS n=256: 57.193 Gops</title></rect>
<text x="1315.7" y="563.0" text-anchor="middle" class="val">57.2</text>
<text x="1290.7" y="778" text-anchor="end" transform="rotate(-28 1290.7 778)" class="op">cgemv_t</text>
<rect x="1378.1" y="626.5" width="24.0" height="133.5" fill="#2563eb"><title>chemv Zynum n=256: 39.569 Gops</title></rect>
<text x="1390.1" y="622.5" text-anchor="middle" class="val">39.6</text>
<rect x="1404.1" y="695.1" width="24.0" height="64.9" fill="#dc2626"><title>chemv Accelerate n=256: 19.240 Gops</title></rect>
<text x="1416.1" y="691.1" text-anchor="middle" class="val">19.2</text>
<rect x="1430.1" y="712.4" width="24.0" height="47.6" fill="#16a34a"><title>chemv OpenBLAS n=256: 14.106 Gops</title></rect>
<text x="1442.1" y="708.4" text-anchor="middle" class="val">14.1</text>
<text x="1417.1" y="778" text-anchor="end" transform="rotate(-28 1417.1 778)" class="op">chemv</text>
<rect x="1504.5" y="606.7" width="24.0" height="153.3" fill="#2563eb"><title>cgeru Zynum n=256: 45.424 Gops</title></rect>
<text x="1516.5" y="602.7" text-anchor="middle" class="val">45.4</text>
<rect x="1530.5" y="718.2" width="24.0" height="41.8" fill="#dc2626"><title>cgeru Accelerate n=256: 12.385 Gops</title></rect>
<text x="1542.5" y="714.2" text-anchor="middle" class="val">12.4</text>
<rect x="1556.5" y="557.8" width="24.0" height="202.2" fill="#16a34a"><title>cgeru OpenBLAS n=256: 59.919 Gops</title></rect>
<text x="1568.5" y="553.8" text-anchor="middle" class="val">59.9</text>
<text x="1543.5" y="778" text-anchor="end" transform="rotate(-28 1543.5 778)" class="op">cgeru</text>
<rect x="1630.9" y="585.9" width="24.0" height="174.1" fill="#2563eb"><title>cgerc Zynum n=256: 51.573 Gops</title></rect>
<text x="1642.9" y="581.9" text-anchor="middle" class="val">51.6</text>
<rect x="1656.9" y="716.1" width="24.0" height="43.9" fill="#dc2626"><title>cgerc Accelerate n=256: 13.012 Gops</title></rect>
<text x="1668.9" y="712.1" text-anchor="middle" class="val">13.0</text>
<rect x="1682.9" y="548.7" width="24.0" height="211.3" fill="#16a34a"><title>cgerc OpenBLAS n=256: 62.602 Gops</title></rect>
<text x="1694.9" y="544.7" text-anchor="middle" class="val">62.6</text>
<text x="1669.9" y="778" text-anchor="end" transform="rotate(-28 1669.9 778)" class="op">cgerc</text>
<rect x="1757.2" y="641.4" width="24.0" height="118.6" fill="#2563eb"><title>zgemv_n Zynum n=256: 35.147 Gops</title></rect>
<text x="1769.2" y="637.4" text-anchor="middle" class="val">35.1</text>
<rect x="1783.2" y="641.4" width="24.0" height="118.6" fill="#dc2626"><title>zgemv_n Accelerate n=256: 35.147 Gops</title></rect>
<text x="1795.2" y="637.4" text-anchor="middle" class="val">35.1</text>
<rect x="1809.2" y="682.1" width="24.0" height="77.9" fill="#16a34a"><title>zgemv_n OpenBLAS n=256: 23.088 Gops</title></rect>
<text x="1821.2" y="678.1" text-anchor="middle" class="val">23.1</text>
<text x="1796.2" y="778" text-anchor="end" transform="rotate(-28 1796.2 778)" class="op">zgemv_n</text>
<rect x="1883.6" y="659.1" width="24.0" height="100.9" fill="#2563eb"><title>zgemv_t Zynum n=256: 29.888 Gops</title></rect>
<text x="1895.6" y="655.1" text-anchor="middle" class="val">29.9</text>
<rect x="1909.6" y="631.7" width="24.0" height="128.3" fill="#dc2626"><title>zgemv_t Accelerate n=256: 38.017 Gops</title></rect>
<text x="1921.6" y="627.7" text-anchor="middle" class="val">38.0</text>
<rect x="1935.6" y="560.6" width="24.0" height="199.4" fill="#16a34a"><title>zgemv_t OpenBLAS n=256: 59.075 Gops</title></rect>
<text x="1947.6" y="556.6" text-anchor="middle" class="val">59.1</text>
<text x="1922.6" y="778" text-anchor="end" transform="rotate(-28 1922.6 778)" class="op">zgemv_t</text>
<rect x="2010.0" y="670.6" width="24.0" height="89.4" fill="#2563eb"><title>zhemv Zynum n=256: 26.490 Gops</title></rect>
<text x="2022.0" y="666.6" text-anchor="middle" class="val">26.5</text>
<rect x="2036.0" y="708.8" width="24.0" height="51.2" fill="#dc2626"><title>zhemv Accelerate n=256: 15.179 Gops</title></rect>
<text x="2048.0" y="704.8" text-anchor="middle" class="val">15.2</text>
<rect x="2062.0" y="728.9" width="24.0" height="31.1" fill="#16a34a"><title>zhemv OpenBLAS n=256: 9.225 Gops</title></rect>
<text x="2074.0" y="724.9" text-anchor="middle" class="val">9.2</text>
<text x="2049.0" y="778" text-anchor="end" transform="rotate(-28 2049.0 778)" class="op">zhemv</text>
<rect x="2136.4" y="641.7" width="24.0" height="118.3" fill="#2563eb"><title>zgeru Zynum n=256: 35.048 Gops</title></rect>
<text x="2148.4" y="637.7" text-anchor="middle" class="val">35.0</text>
<rect x="2162.4" y="729.5" width="24.0" height="30.5" fill="#dc2626"><title>zgeru Accelerate n=256: 9.033 Gops</title></rect>
<text x="2174.4" y="725.5" text-anchor="middle" class="val">9.0</text>
<rect x="2188.4" y="597.3" width="24.0" height="162.7" fill="#16a34a"><title>zgeru OpenBLAS n=256: 48.210 Gops</title></rect>
<text x="2200.4" y="593.3" text-anchor="middle" class="val">48.2</text>
<text x="2175.4" y="778" text-anchor="end" transform="rotate(-28 2175.4 778)" class="op">zgeru</text>
<rect x="2262.8" y="636.5" width="24.0" height="123.5" fill="#2563eb"><title>zgerc Zynum n=256: 36.579 Gops</title></rect>
<text x="2274.8" y="632.5" text-anchor="middle" class="val">36.6</text>
<rect x="2288.8" y="718.5" width="24.0" height="41.5" fill="#dc2626"><title>zgerc Accelerate n=256: 12.288 Gops</title></rect>
<text x="2300.8" y="714.5" text-anchor="middle" class="val">12.3</text>
<rect x="2314.8" y="602.1" width="24.0" height="157.9" fill="#16a34a"><title>zgerc OpenBLAS n=256: 46.778 Gops</title></rect>
<text x="2326.8" y="598.1" text-anchor="middle" class="val">46.8</text>
<text x="2301.8" y="778" text-anchor="end" transform="rotate(-28 2301.8 778)" class="op">zgerc</text>
<text x="90" y="839" class="panel">n=512</text>
<line x1="90" y1="1132.0" x2="2365" y2="1132.0" class="grid"/>
<text x="80" y="1136.0" text-anchor="end" class="tick">0</text>
<line x1="90" y1="1042.0" x2="2365" y2="1042.0" class="grid"/>
<text x="80" y="1046.0" text-anchor="end" class="tick">50</text>
<line x1="90" y1="952.0" x2="2365" y2="952.0" class="grid"/>
<text x="80" y="956.0" text-anchor="end" class="tick">100</text>
<line x1="90" y1="862.0" x2="2365" y2="862.0" class="grid"/>
<text x="80" y="866.0" text-anchor="end" class="tick">150</text>
<line x1="90" y1="862" x2="90" y2="1132" class="axis"/>
<line x1="90" y1="1132" x2="2365" y2="1132" class="axis"/>
<rect x="114.2" y="1019.9" width="24.0" height="112.1" fill="#2563eb"><title>sgemv_n Zynum n=512: 62.289 Gops</title></rect>
<text x="126.2" y="1015.9" text-anchor="middle" class="val">62.3</text>
<rect x="140.2" y="1002.6" width="24.0" height="129.4" fill="#dc2626"><title>sgemv_n Accelerate n=512: 71.909 Gops</title></rect>
<text x="152.2" y="998.6" text-anchor="middle" class="val">71.9</text>
<rect x="166.2" y="1106.0" width="24.0" height="26.0" fill="#16a34a"><title>sgemv_n OpenBLAS n=512: 14.430 Gops</title></rect>
<text x="178.2" y="1102.0" text-anchor="middle" class="val">14.4</text>
<text x="153.2" y="1150" text-anchor="end" transform="rotate(-28 153.2 1150)" class="op">sgemv_n</text>
<rect x="240.6" y="1052.8" width="24.0" height="79.2" fill="#2563eb"><title>sgemv_t Zynum n=512: 43.999 Gops</title></rect>
<text x="252.6" y="1048.8" text-anchor="middle" class="val">44.0</text>
<rect x="266.6" y="1037.2" width="24.0" height="94.8" fill="#dc2626"><title>sgemv_t Accelerate n=512: 52.645 Gops</title></rect>
<text x="278.6" y="1033.2" text-anchor="middle" class="val">52.6</text>
<rect x="292.6" y="1105.0" width="24.0" height="27.0" fill="#16a34a"><title>sgemv_t OpenBLAS n=512: 14.997 Gops</title></rect>
<text x="304.6" y="1101.0" text-anchor="middle" class="val">15.0</text>
<text x="279.6" y="1150" text-anchor="end" transform="rotate(-28 279.6 1150)" class="op">sgemv_t</text>
<rect x="367.0" y="1050.8" width="24.0" height="81.2" fill="#2563eb"><title>ssymv Zynum n=512: 45.100 Gops</title></rect>
<text x="379.0" y="1046.8" text-anchor="middle" class="val">45.1</text>
<rect x="393.0" y="1104.9" width="24.0" height="27.1" fill="#dc2626"><title>ssymv Accelerate n=512: 15.051 Gops</title></rect>
<text x="405.0" y="1100.9" text-anchor="middle" class="val">15.1</text>
<rect x="419.0" y="1057.3" width="24.0" height="74.7" fill="#16a34a"><title>ssymv OpenBLAS n=512: 41.528 Gops</title></rect>
<text x="431.0" y="1053.3" text-anchor="middle" class="val">41.5</text>
<text x="406.0" y="1150" text-anchor="end" transform="rotate(-28 406.0 1150)" class="op">ssymv</text>
<rect x="493.4" y="1072.9" width="24.0" height="59.1" fill="#2563eb"><title>sger Zynum n=512: 32.854 Gops</title></rect>
<text x="505.4" y="1068.9" text-anchor="middle" class="val">32.9</text>
<rect x="519.4" y="1097.4" width="24.0" height="34.6" fill="#dc2626"><title>sger Accelerate n=512: 19.240 Gops</title></rect>
<text x="531.4" y="1093.4" text-anchor="middle" class="val">19.2</text>
<rect x="545.4" y="1045.6" width="24.0" height="86.4" fill="#16a34a"><title>sger OpenBLAS n=512: 48.025 Gops</title></rect>
<text x="557.4" y="1041.6" text-anchor="middle" class="val">48.0</text>
<text x="532.4" y="1150" text-anchor="end" transform="rotate(-28 532.4 1150)" class="op">sger</text>
<rect x="619.8" y="1039.6" width="24.0" height="92.4" fill="#2563eb"><title>dgemv_n Zynum n=512: 51.355 Gops</title></rect>
<text x="631.8" y="1035.6" text-anchor="middle" class="val">51.4</text>
<rect x="645.8" y="1014.0" width="24.0" height="118.0" fill="#dc2626"><title>dgemv_n Accelerate n=512: 65.536 Gops</title></rect>
<text x="657.8" y="1010.0" text-anchor="middle" class="val">65.5</text>
<rect x="671.8" y="1118.2" width="24.0" height="13.8" fill="#16a34a"><title>dgemv_n OpenBLAS n=512: 7.673 Gops</title></rect>
<text x="683.8" y="1114.2" text-anchor="middle" class="val">7.7</text>
<text x="658.8" y="1150" text-anchor="end" transform="rotate(-28 658.8 1150)" class="op">dgemv_n</text>
<rect x="746.1" y="1069.9" width="24.0" height="62.1" fill="#2563eb"><title>dgemv_t Zynum n=512: 34.474 Gops</title></rect>
<text x="758.1" y="1065.9" text-anchor="middle" class="val">34.5</text>
<rect x="772.1" y="1037.2" width="24.0" height="94.8" fill="#dc2626"><title>dgemv_t Accelerate n=512: 52.645 Gops</title></rect>
<text x="784.1" y="1033.2" text-anchor="middle" class="val">52.6</text>
<rect x="798.1" y="1117.6" width="24.0" height="14.4" fill="#16a34a"><title>dgemv_t OpenBLAS n=512: 7.974 Gops</title></rect>
<text x="810.1" y="1113.6" text-anchor="middle" class="val">8.0</text>
<text x="785.1" y="1150" text-anchor="end" transform="rotate(-28 785.1 1150)" class="op">dgemv_t</text>
<rect x="872.5" y="1067.5" width="24.0" height="64.5" fill="#2563eb"><title>dsymv Zynum n=512: 35.849 Gops</title></rect>
<text x="884.5" y="1063.5" text-anchor="middle" class="val">35.8</text>
<rect x="898.5" y="1110.2" width="24.0" height="21.8" fill="#dc2626"><title>dsymv Accelerate n=512: 12.087 Gops</title></rect>
<text x="910.5" y="1106.2" text-anchor="middle" class="val">12.1</text>
<rect x="924.5" y="1112.4" width="24.0" height="19.6" fill="#16a34a"><title>dsymv OpenBLAS n=512: 10.875 Gops</title></rect>
<text x="936.5" y="1108.4" text-anchor="middle" class="val">10.9</text>
<text x="911.5" y="1150" text-anchor="end" transform="rotate(-28 911.5 1150)" class="op">dsymv</text>
<rect x="998.9" y="1092.5" width="24.0" height="39.5" fill="#2563eb"><title>dger Zynum n=512: 21.922 Gops</title></rect>
<text x="1010.9" y="1088.5" text-anchor="middle" class="val">21.9</text>
<rect x="1024.9" y="1104.7" width="24.0" height="27.3" fill="#dc2626"><title>dger Accelerate n=512: 15.160 Gops</title></rect>
<text x="1036.9" y="1100.7" text-anchor="middle" class="val">15.2</text>
<rect x="1050.9" y="1077.9" width="24.0" height="54.1" fill="#16a34a"><title>dger OpenBLAS n=512: 30.030 Gops</title></rect>
<text x="1062.9" y="1073.9" text-anchor="middle" class="val">30.0</text>
<text x="1037.9" y="1150" text-anchor="end" transform="rotate(-28 1037.9 1150)" class="op">dger</text>
<rect x="1125.3" y="904.9" width="24.0" height="227.1" fill="#2563eb"><title>cgemv_n Zynum n=512: 126.144 Gops</title></rect>
<text x="1137.3" y="900.9" text-anchor="middle" class="val">126.1</text>
<rect x="1151.3" y="915.8" width="24.0" height="216.2" fill="#dc2626"><title>cgemv_n Accelerate n=512: 120.119 Gops</title></rect>
<text x="1163.3" y="911.8" text-anchor="middle" class="val">120.1</text>
<rect x="1177.3" y="1072.0" width="24.0" height="60.0" fill="#16a34a"><title>cgemv_n OpenBLAS n=512: 33.333 Gops</title></rect>
<text x="1189.3" y="1068.0" text-anchor="middle" class="val">33.3</text>
<text x="1164.3" y="1150" text-anchor="end" transform="rotate(-28 1164.3 1150)" class="op">cgemv_n</text>
<rect x="1251.7" y="893.0" width="24.0" height="239.0" fill="#2563eb"><title>cgemv_t Zynum n=512: 132.798 Gops</title></rect>
<text x="1263.7" y="889.0" text-anchor="middle" class="val">132.8</text>
<rect x="1277.7" y="941.7" width="24.0" height="190.3" fill="#dc2626"><title>cgemv_t Accelerate n=512: 105.741 Gops</title></rect>
<text x="1289.7" y="937.7" text-anchor="middle" class="val">105.7</text>
<rect x="1303.7" y="1080.3" width="24.0" height="51.7" fill="#16a34a"><title>cgemv_t OpenBLAS n=512: 28.745 Gops</title></rect>
<text x="1315.7" y="1076.3" text-anchor="middle" class="val">28.7</text>
<text x="1290.7" y="1150" text-anchor="end" transform="rotate(-28 1290.7 1150)" class="op">cgemv_t</text>
<rect x="1378.1" y="940.5" width="24.0" height="191.5" fill="#2563eb"><title>chemv Zynum n=512: 106.406 Gops</title></rect>
<text x="1390.1" y="936.5" text-anchor="middle" class="val">106.4</text>
<rect x="1404.1" y="1072.0" width="24.0" height="60.0" fill="#dc2626"><title>chemv Accelerate n=512: 33.310 Gops</title></rect>
<text x="1416.1" y="1068.0" text-anchor="middle" class="val">33.3</text>
<rect x="1430.1" y="992.8" width="24.0" height="139.2" fill="#16a34a"><title>chemv OpenBLAS n=512: 77.314 Gops</title></rect>
<text x="1442.1" y="988.8" text-anchor="middle" class="val">77.3</text>
<text x="1417.1" y="1150" text-anchor="end" transform="rotate(-28 1417.1 1150)" class="op">chemv</text>
<rect x="1504.5" y="903.8" width="24.0" height="228.2" fill="#2563eb"><title>cgeru Zynum n=512: 126.777 Gops</title></rect>
<text x="1516.5" y="899.8" text-anchor="middle" class="val">126.8</text>
<rect x="1530.5" y="1077.0" width="24.0" height="55.0" fill="#dc2626"><title>cgeru Accelerate n=512: 30.560 Gops</title></rect>
<text x="1542.5" y="1073.0" text-anchor="middle" class="val">30.6</text>
<rect x="1556.5" y="1025.2" width="24.0" height="106.8" fill="#16a34a"><title>cgeru OpenBLAS n=512: 59.354 Gops</title></rect>
<text x="1568.5" y="1021.2" text-anchor="middle" class="val">59.4</text>
<text x="1543.5" y="1150" text-anchor="end" transform="rotate(-28 1543.5 1150)" class="op">cgeru</text>
<rect x="1630.9" y="922.8" width="24.0" height="209.2" fill="#2563eb"><title>cgerc Zynum n=512: 116.244 Gops</title></rect>
<text x="1642.9" y="918.8" text-anchor="middle" class="val">116.2</text>
<rect x="1656.9" y="1082.8" width="24.0" height="49.2" fill="#dc2626"><title>cgerc Accelerate n=512: 27.324 Gops</title></rect>
<text x="1668.9" y="1078.8" text-anchor="middle" class="val">27.3</text>
<rect x="1682.9" y="1011.7" width="24.0" height="120.3" fill="#16a34a"><title>cgerc OpenBLAS n=512: 66.841 Gops</title></rect>
<text x="1694.9" y="1007.7" text-anchor="middle" class="val">66.8</text>
<text x="1669.9" y="1150" text-anchor="end" transform="rotate(-28 1669.9 1150)" class="op">cgerc</text>
<rect x="1757.2" y="965.2" width="24.0" height="166.8" fill="#2563eb"><title>zgemv_n Zynum n=512: 92.692 Gops</title></rect>
<text x="1769.2" y="961.2" text-anchor="middle" class="val">92.7</text>
<rect x="1783.2" y="1027.6" width="24.0" height="104.4" fill="#dc2626"><title>zgemv_n Accelerate n=512: 57.985 Gops</title></rect>
<text x="1795.2" y="1023.6" text-anchor="middle" class="val">58.0</text>
<rect x="1809.2" y="1084.7" width="24.0" height="47.3" fill="#16a34a"><title>zgemv_n OpenBLAS n=512: 26.269 Gops</title></rect>
<text x="1821.2" y="1080.7" text-anchor="middle" class="val">26.3</text>
<text x="1796.2" y="1150" text-anchor="end" transform="rotate(-28 1796.2 1150)" class="op">zgemv_n</text>
<rect x="1883.6" y="962.7" width="24.0" height="169.3" fill="#2563eb"><title>zgemv_t Zynum n=512: 94.081 Gops</title></rect>
<text x="1895.6" y="958.7" text-anchor="middle" class="val">94.1</text>
<rect x="1909.6" y="1035.3" width="24.0" height="96.7" fill="#dc2626"><title>zgemv_t Accelerate n=512: 53.717 Gops</title></rect>
<text x="1921.6" y="1031.3" text-anchor="middle" class="val">53.7</text>
<rect x="1935.6" y="977.4" width="24.0" height="154.6" fill="#16a34a"><title>zgemv_t OpenBLAS n=512: 85.889 Gops</title></rect>
<text x="1947.6" y="973.4" text-anchor="middle" class="val">85.9</text>
<text x="1922.6" y="1150" text-anchor="end" transform="rotate(-28 1922.6 1150)" class="op">zgemv_t</text>
<rect x="2010.0" y="1012.0" width="24.0" height="120.0" fill="#2563eb"><title>zhemv Zynum n=512: 66.663 Gops</title></rect>
<text x="2022.0" y="1008.0" text-anchor="middle" class="val">66.7</text>
<rect x="2036.0" y="1096.1" width="24.0" height="35.9" fill="#dc2626"><title>zhemv Accelerate n=512: 19.933 Gops</title></rect>
<text x="2048.0" y="1092.1" text-anchor="middle" class="val">19.9</text>
<rect x="2062.0" y="1004.4" width="24.0" height="127.6" fill="#16a34a"><title>zhemv OpenBLAS n=512: 70.888 Gops</title></rect>
<text x="2074.0" y="1000.4" text-anchor="middle" class="val">70.9</text>
<text x="2049.0" y="1150" text-anchor="end" transform="rotate(-28 2049.0 1150)" class="op">zhemv</text>
<rect x="2136.4" y="1017.9" width="24.0" height="114.1" fill="#2563eb"><title>zgeru Zynum n=512: 63.391 Gops</title></rect>
<text x="2148.4" y="1013.9" text-anchor="middle" class="val">63.4</text>
<rect x="2162.4" y="1097.2" width="24.0" height="34.8" fill="#dc2626"><title>zgeru Accelerate n=512: 19.321 Gops</title></rect>
<text x="2174.4" y="1093.2" text-anchor="middle" class="val">19.3</text>
<rect x="2188.4" y="998.0" width="24.0" height="134.0" fill="#16a34a"><title>zgeru OpenBLAS n=512: 74.454 Gops</title></rect>
<text x="2200.4" y="994.0" text-anchor="middle" class="val">74.5</text>
<text x="2175.4" y="1150" text-anchor="end" transform="rotate(-28 2175.4 1150)" class="op">zgeru</text>
<rect x="2262.8" y="1030.4" width="24.0" height="101.6" fill="#2563eb"><title>zgerc Zynum n=512: 56.425 Gops</title></rect>
<text x="2274.8" y="1026.4" text-anchor="middle" class="val">56.4</text>
<rect x="2288.8" y="1096.8" width="24.0" height="35.2" fill="#dc2626"><title>zgerc Accelerate n=512: 19.562 Gops</title></rect>
<text x="2300.8" y="1092.8" text-anchor="middle" class="val">19.6</text>
<rect x="2314.8" y="998.8" width="24.0" height="133.2" fill="#16a34a"><title>zgerc OpenBLAS n=512: 74.018 Gops</title></rect>
<text x="2326.8" y="994.8" text-anchor="middle" class="val">74.0</text>
<text x="2301.8" y="1150" text-anchor="end" transform="rotate(-28 2301.8 1150)" class="op">zgerc</text>
</svg>
