<svg xmlns="http://www.w3.org/2000/svg" width="1180" height="560" viewBox="0 0 1180 560">
<rect width="100%" height="100%" fill="#ffffff"/>
<style><![CDATA[text{font-family:-apple-system,BlinkMacSystemFont,"Segoe UI",sans-serif;fill:#111827}.title{font-size:24px;font-weight:700}.sub{font-size:13px;fill:#4b5563}.axis{font-size:12px;fill:#374151}.tick{font-size:11px;fill:#4b5563}.legend{font-size:13px;font-weight:600}.grid{stroke:#e5e7eb;stroke-width:1}.axis-line{stroke:#9ca3af;stroke-width:1}.line{fill:none;stroke-width:2.8;stroke-linejoin:round;stroke-linecap:round}.marker{stroke:#fff;stroke-width:1.6}]]></style>
<text class="title" x="76" y="34">Level 2 BLAS current comparison</text>
<text class="sub" x="76" y="55">rate_Gops, size=1024, reps=120, ZYNUM_MAXIMUM_THREADS unset, OPENBLAS_DYNAMIC=0</text>
<line x1="780" y1="34" x2="806" y2="34" stroke="#2563eb" stroke-width="3" stroke-linecap="round"/>
<circle cx="793" cy="34" r="4" fill="#2563eb" stroke="#fff" stroke-width="1.5"/>
<text class="legend" x="814" y="38">zynum-blas</text>
<line x1="912" y1="34" x2="938" y2="34" stroke="#dc2626" stroke-width="3" stroke-linecap="round"/>
<circle cx="925" cy="34" r="4" fill="#dc2626" stroke="#fff" stroke-width="1.5"/>
<text class="legend" x="946" y="38">Accelerate</text>
<line x1="1044" y1="34" x2="1070" y2="34" stroke="#16a34a" stroke-width="3" stroke-linecap="round"/>
<circle cx="1057" cy="34" r="4" fill="#16a34a" stroke="#fff" stroke-width="1.5"/>
<text class="legend" x="1078" y="38">OpenBLAS</text>
<line class="grid" x1="76" y1="442.0" x2="1148" y2="442.0"/>
<text class="tick" text-anchor="end" x="66" y="446.0">0</text>
<line class="grid" x1="76" y1="368.0" x2="1148" y2="368.0"/>
<text class="tick" text-anchor="end" x="66" y="372.0">60</text>
<line class="grid" x1="76" y1="294.0" x2="1148" y2="294.0"/>
<text class="tick" text-anchor="end" x="66" y="298.0">120</text>
<line class="grid" x1="76" y1="220.0" x2="1148" y2="220.0"/>
<text class="tick" text-anchor="end" x="66" y="224.0">180</text>
<line class="grid" x1="76" y1="146.0" x2="1148" y2="146.0"/>
<text class="tick" text-anchor="end" x="66" y="150.0">240</text>
<line class="grid" x1="76" y1="72.0" x2="1148" y2="72.0"/>
<text class="tick" text-anchor="end" x="66" y="76.0">300</text>
<line class="axis-line" x1="76" y1="442" x2="1148" y2="442"/>
<line class="axis-line" x1="76" y1="72" x2="76" y2="442"/>
<text class="axis" transform="translate(20 257.0) rotate(-90)" text-anchor="middle">Gops/s</text>
<line class="grid" x1="76.0" y1="72" x2="76.0" y2="442" opacity="0.45"/>
<text class="axis" transform="translate(76.0 470) rotate(-32)" text-anchor="end">dgemv_n</text>
<line class="grid" x1="433.3" y1="72" x2="433.3" y2="442" opacity="0.45"/>
<text class="axis" transform="translate(433.3 470) rotate(-32)" text-anchor="end">dgemv_t</text>
<line class="grid" x1="790.7" y1="72" x2="790.7" y2="442" opacity="0.45"/>
<text class="axis" transform="translate(790.7 470) rotate(-32)" text-anchor="end">dsymv</text>
<line class="grid" x1="1148.0" y1="72" x2="1148.0" y2="442" opacity="0.45"/>
<text class="axis" transform="translate(1148.0 470) rotate(-32)" text-anchor="end">dger</text>
<polyline class="line" stroke="#2563eb" points="76.0,173.3 433.3,255.6 790.7,381.7 1148.0,390.5"/>
<circle class="marker" cx="76.0" cy="173.3" r="4.2" fill="#2563eb"><title>zynum-blas 217.886 Gops/s</title></circle>
<circle class="marker" cx="433.3" cy="255.6" r="4.2" fill="#2563eb"><title>zynum-blas 151.146 Gops/s</title></circle>
<circle class="marker" cx="790.7" cy="381.7" r="4.2" fill="#2563eb"><title>zynum-blas 48.913 Gops/s</title></circle>
<circle class="marker" cx="1148.0" cy="390.5" r="4.2" fill="#2563eb"><title>zynum-blas 41.734 Gops/s</title></circle>
<polyline class="line" stroke="#dc2626" points="76.0,188.6 433.3,258.9 790.7,402.7 1148.0,393.5"/>
<circle class="marker" cx="76.0" cy="188.6" r="4.2" fill="#dc2626"><title>Accelerate 205.422 Gops/s</title></circle>
<circle class="marker" cx="433.3" cy="258.9" r="4.2" fill="#dc2626"><title>Accelerate 148.471 Gops/s</title></circle>
<circle class="marker" cx="790.7" cy="402.7" r="4.2" fill="#dc2626"><title>Accelerate 31.835 Gops/s</title></circle>
<circle class="marker" cx="1148.0" cy="393.5" r="4.2" fill="#dc2626"><title>Accelerate 39.291 Gops/s</title></circle>
<polyline class="line" stroke="#16a34a" points="76.0,424.1 433.3,360.7 790.7,385.8 1148.0,380.6"/>
<circle class="marker" cx="76.0" cy="424.1" r="4.2" fill="#16a34a"><title>OpenBLAS 14.492 Gops/s</title></circle>
<circle class="marker" cx="433.3" cy="360.7" r="4.2" fill="#16a34a"><title>OpenBLAS 65.880 Gops/s</title></circle>
<circle class="marker" cx="790.7" cy="385.8" r="4.2" fill="#16a34a"><title>OpenBLAS 45.590 Gops/s</title></circle>
<circle class="marker" cx="1148.0" cy="380.6" r="4.2" fill="#16a34a"><title>OpenBLAS 49.784 Gops/s</title></circle>
</svg>
