<svg xmlns="http://www.w3.org/2000/svg" width="1180" height="560" viewBox="0 0 1180 560">
<rect width="100%" height="100%" fill="#ffffff"/>
<style><![CDATA[text{font-family:-apple-system,BlinkMacSystemFont,"Segoe UI",sans-serif;fill:#111827}.title{font-size:24px;font-weight:700}.sub{font-size:13px;fill:#4b5563}.axis{font-size:12px;fill:#374151}.tick{font-size:11px;fill:#4b5563}.legend{font-size:13px;font-weight:600}.grid{stroke:#e5e7eb;stroke-width:1}.axis-line{stroke:#9ca3af;stroke-width:1}.line{fill:none;stroke-width:2.8;stroke-linejoin:round;stroke-linecap:round}.marker{stroke:#fff;stroke-width:1.6}]]></style>
<text class="title" x="76" y="34">Level 1 BLAS current comparison</text>
<text class="sub" x="76" y="55">rate_Gops, size=1024, reps=120, ZYNUM_MAXIMUM_THREADS unset, OPENBLAS_DYNAMIC=0</text>
<line x1="780" y1="34" x2="806" y2="34" stroke="#2563eb" stroke-width="3" stroke-linecap="round"/>
<circle cx="793" cy="34" r="4" fill="#2563eb" stroke="#fff" stroke-width="1.5"/>
<text class="legend" x="814" y="38">zynum-blas</text>
<line x1="912" y1="34" x2="938" y2="34" stroke="#dc2626" stroke-width="3" stroke-linecap="round"/>
<circle cx="925" cy="34" r="4" fill="#dc2626" stroke="#fff" stroke-width="1.5"/>
<text class="legend" x="946" y="38">Accelerate</text>
<line x1="1044" y1="34" x2="1070" y2="34" stroke="#16a34a" stroke-width="3" stroke-linecap="round"/>
<circle cx="1057" cy="34" r="4" fill="#16a34a" stroke="#fff" stroke-width="1.5"/>
<text class="legend" x="1078" y="38">OpenBLAS</text>
<line class="grid" x1="76" y1="442.0" x2="1148" y2="442.0"/>
<text class="tick" text-anchor="end" x="66" y="446.0">0</text>
<line class="grid" x1="76" y1="368.0" x2="1148" y2="368.0"/>
<text class="tick" text-anchor="end" x="66" y="372.0">10</text>
<line class="grid" x1="76" y1="294.0" x2="1148" y2="294.0"/>
<text class="tick" text-anchor="end" x="66" y="298.0">20</text>
<line class="grid" x1="76" y1="220.0" x2="1148" y2="220.0"/>
<text class="tick" text-anchor="end" x="66" y="224.0">30</text>
<line class="grid" x1="76" y1="146.0" x2="1148" y2="146.0"/>
<text class="tick" text-anchor="end" x="66" y="150.0">40</text>
<line class="grid" x1="76" y1="72.0" x2="1148" y2="72.0"/>
<text class="tick" text-anchor="end" x="66" y="76.0">50</text>
<line class="axis-line" x1="76" y1="442" x2="1148" y2="442"/>
<line class="axis-line" x1="76" y1="72" x2="76" y2="442"/>
<text class="axis" transform="translate(20 257.0) rotate(-90)" text-anchor="middle">Gops/s</text>
<line class="grid" x1="76.0" y1="72" x2="76.0" y2="442" opacity="0.45"/>
<text class="axis" transform="translate(76.0 470) rotate(-32)" text-anchor="end">dcopy</text>
<line class="grid" x1="290.4" y1="72" x2="290.4" y2="442" opacity="0.45"/>
<text class="axis" transform="translate(290.4 470) rotate(-32)" text-anchor="end">dscal</text>
<line class="grid" x1="504.8" y1="72" x2="504.8" y2="442" opacity="0.45"/>
<text class="axis" transform="translate(504.8 470) rotate(-32)" text-anchor="end">daxpy</text>
<line class="grid" x1="719.2" y1="72" x2="719.2" y2="442" opacity="0.45"/>
<text class="axis" transform="translate(719.2 470) rotate(-32)" text-anchor="end">ddot</text>
<line class="grid" x1="933.6" y1="72" x2="933.6" y2="442" opacity="0.45"/>
<text class="axis" transform="translate(933.6 470) rotate(-32)" text-anchor="end">dasum</text>
<line class="grid" x1="1148.0" y1="72" x2="1148.0" y2="442" opacity="0.45"/>
<text class="axis" transform="translate(1148.0 470) rotate(-32)" text-anchor="end">dnrm2</text>
<polyline class="line" stroke="#2563eb" points="76.0,368.3 290.4,346.0 504.8,370.4 719.2,182.1 933.6,259.2 1148.0,366.5"/>
<circle class="marker" cx="76.0" cy="368.3" r="4.2" fill="#2563eb"><title>zynum-blas 9.959 Gops/s</title></circle>
<circle class="marker" cx="290.4" cy="346.0" r="4.2" fill="#2563eb"><title>zynum-blas 12.979 Gops/s</title></circle>
<circle class="marker" cx="504.8" cy="370.4" r="4.2" fill="#2563eb"><title>zynum-blas 9.679 Gops/s</title></circle>
<circle class="marker" cx="719.2" cy="182.1" r="4.2" fill="#2563eb"><title>zynum-blas 35.123 Gops/s</title></circle>
<circle class="marker" cx="933.6" cy="259.2" r="4.2" fill="#2563eb"><title>zynum-blas 24.697 Gops/s</title></circle>
<circle class="marker" cx="1148.0" cy="366.5" r="4.2" fill="#2563eb"><title>zynum-blas 10.197 Gops/s</title></circle>
<polyline class="line" stroke="#dc2626" points="76.0,227.9 290.4,214.9 504.8,336.6 719.2,130.3 933.6,213.2 1148.0,377.1"/>
<circle class="marker" cx="76.0" cy="227.9" r="4.2" fill="#dc2626"><title>Accelerate 28.926 Gops/s</title></circle>
<circle class="marker" cx="290.4" cy="214.9" r="4.2" fill="#dc2626"><title>Accelerate 30.690 Gops/s</title></circle>
<circle class="marker" cx="504.8" cy="336.6" r="4.2" fill="#dc2626"><title>Accelerate 14.246 Gops/s</title></circle>
<circle class="marker" cx="719.2" cy="130.3" r="4.2" fill="#dc2626"><title>Accelerate 42.118 Gops/s</title></circle>
<circle class="marker" cx="933.6" cy="213.2" r="4.2" fill="#dc2626"><title>Accelerate 30.917 Gops/s</title></circle>
<circle class="marker" cx="1148.0" cy="377.1" r="4.2" fill="#dc2626"><title>Accelerate 8.769 Gops/s</title></circle>
<polyline class="line" stroke="#16a34a" points="76.0,388.0 290.4,376.5 504.8,301.7 719.2,396.0 933.6,389.2 1148.0,426.3"/>
<circle class="marker" cx="76.0" cy="388.0" r="4.2" fill="#16a34a"><title>OpenBLAS 7.292 Gops/s</title></circle>
<circle class="marker" cx="290.4" cy="376.5" r="4.2" fill="#16a34a"><title>OpenBLAS 8.849 Gops/s</title></circle>
<circle class="marker" cx="504.8" cy="301.7" r="4.2" fill="#16a34a"><title>OpenBLAS 18.957 Gops/s</title></circle>
<circle class="marker" cx="719.2" cy="396.0" r="4.2" fill="#16a34a"><title>OpenBLAS 6.213 Gops/s</title></circle>
<circle class="marker" cx="933.6" cy="389.2" r="4.2" fill="#16a34a"><title>OpenBLAS 7.139 Gops/s</title></circle>
<circle class="marker" cx="1148.0" cy="426.3" r="4.2" fill="#16a34a"><title>OpenBLAS 2.125 Gops/s</title></circle>
</svg>
