<svg xmlns="http://www.w3.org/2000/svg" width="1500" height="1780" viewBox="0 0 1500 1780">

<style>
  text { font-family: -apple-system, BlinkMacSystemFont, "Segoe UI", sans-serif; fill: #111827; }
  .title { font-size: 25px; font-weight: 700; }
  .subtitle { font-size: 13px; fill: #4b5563; }
  .panel-title { font-size: 16px; font-weight: 700; }
  .axis-label { font-size: 11px; fill: #4b5563; }
  .op-label { font-size: 11px; fill: #374151; }
  .value-label { font-size: 10px; fill: #111827; }
  .legend { font-size: 13px; }
  .axis { stroke: #111827; stroke-width: 1; }
  .grid { stroke: #e5e7eb; stroke-width: 1; }
</style>

<rect x="0" y="0" width="100%" height="100%" fill="#ffffff"/>
<text x="40" y="42" class="title">Zynum Level 1 Performance Coverage</text>
<text x="40" y="66" class="subtitle">Higher is better. Fresh process per library/op; n=1048576; seconds=1; grouped bars use operation names on the x-axis</text>
<rect x="1030" y="33" width="18" height="12" fill="#2563eb"/>
<text x="1056" y="43" class="legend">Zynum</text>
<rect x="1175" y="33" width="18" height="12" fill="#dc2626"/>
<text x="1201" y="43" class="legend">Accelerate</text>
<rect x="1320" y="33" width="18" height="12" fill="#16a34a"/>
<text x="1346" y="43" class="legend">OpenBLAS</text>
<text x="105" y="100" class="panel-title">Copy bandwidth (GB/s)</text>
<line x1="105" y1="360.0" x2="1450" y2="360.0" class="grid"/>
<text x="95" y="364.0" text-anchor="end" class="axis-label">0</text>
<line x1="105" y1="300.0" x2="1450" y2="300.0" class="grid"/>
<text x="95" y="304.0" text-anchor="end" class="axis-label">100</text>
<line x1="105" y1="240.0" x2="1450" y2="240.0" class="grid"/>
<text x="95" y="244.0" text-anchor="end" class="axis-label">200</text>
<line x1="105" y1="180.0" x2="1450" y2="180.0" class="grid"/>
<text x="95" y="184.0" text-anchor="end" class="axis-label">300</text>
<line x1="105" y1="120.0" x2="1450" y2="120.0" class="grid"/>
<text x="95" y="124.0" text-anchor="end" class="axis-label">400</text>
<line x1="105" y1="120" x2="105" y2="360" class="axis"/>
<line x1="105" y1="360" x2="1450" y2="360" class="axis"/>
<rect x="234.1" y="145.1" width="24.0" height="214.9" fill="#2563eb"/>
<rect x="260.1" y="197.7" width="24.0" height="162.3" fill="#dc2626"/>
<rect x="286.1" y="322.2" width="24.0" height="37.8" fill="#16a34a"/>
<text x="273.1" y="378" text-anchor="middle" class="op-label">scopy</text>
<rect x="570.4" y="182.5" width="24.0" height="177.5" fill="#2563eb"/>
<rect x="596.4" y="256.4" width="24.0" height="103.6" fill="#dc2626"/>
<rect x="622.4" y="326.2" width="24.0" height="33.8" fill="#16a34a"/>
<text x="609.4" y="378" text-anchor="middle" class="op-label">dcopy</text>
<rect x="906.6" y="177.6" width="24.0" height="182.4" fill="#2563eb"/>
<rect x="932.6" y="278.7" width="24.0" height="81.3" fill="#dc2626"/>
<rect x="958.6" y="328.6" width="24.0" height="31.4" fill="#16a34a"/>
<text x="945.6" y="378" text-anchor="middle" class="op-label">ccopy</text>
<rect x="1242.9" y="294.6" width="24.0" height="65.4" fill="#2563eb"/>
<rect x="1268.9" y="301.2" width="24.0" height="58.8" fill="#dc2626"/>
<rect x="1294.9" y="331.7" width="24.0" height="28.3" fill="#16a34a"/>
<text x="1281.9" y="378" text-anchor="middle" class="op-label">zcopy</text>
<text x="105" y="435" class="panel-title">Real f32 Level 1 (Gops)</text>
<line x1="105" y1="695.0" x2="1450" y2="695.0" class="grid"/>
<text x="95" y="699.0" text-anchor="end" class="axis-label">0</text>
<line x1="105" y1="647.0" x2="1450" y2="647.0" class="grid"/>
<text x="95" y="651.0" text-anchor="end" class="axis-label">50</text>
<line x1="105" y1="599.0" x2="1450" y2="599.0" class="grid"/>
<text x="95" y="603.0" text-anchor="end" class="axis-label">100</text>
<line x1="105" y1="551.0" x2="1450" y2="551.0" class="grid"/>
<text x="95" y="555.0" text-anchor="end" class="axis-label">150</text>
<line x1="105" y1="503.0" x2="1450" y2="503.0" class="grid"/>
<text x="95" y="507.0" text-anchor="end" class="axis-label">200</text>
<line x1="105" y1="455.0" x2="1450" y2="455.0" class="grid"/>
<text x="95" y="459.0" text-anchor="end" class="axis-label">250</text>
<line x1="105" y1="455" x2="105" y2="695" class="axis"/>
<line x1="105" y1="695" x2="1450" y2="695" class="axis"/>
<rect x="200.5" y="630.9" width="24.0" height="64.1" fill="#2563eb"/>
<rect x="226.5" y="638.3" width="24.0" height="56.7" fill="#dc2626"/>
<rect x="252.5" y="687.9" width="24.0" height="7.1" fill="#16a34a"/>
<text x="239.5" y="713" text-anchor="middle" class="op-label">sscal</text>
<rect x="469.5" y="585.2" width="24.0" height="109.8" fill="#2563eb"/>
<rect x="495.5" y="601.0" width="24.0" height="94.0" fill="#dc2626"/>
<rect x="521.5" y="678.0" width="24.0" height="17.0" fill="#16a34a"/>
<text x="508.5" y="713" text-anchor="middle" class="op-label">saxpy</text>
<rect x="738.5" y="477.8" width="24.0" height="217.2" fill="#2563eb"/>
<rect x="764.5" y="501.3" width="24.0" height="193.7" fill="#dc2626"/>
<rect x="790.5" y="685.0" width="24.0" height="10.0" fill="#16a34a"/>
<text x="777.5" y="713" text-anchor="middle" class="op-label">sdot</text>
<rect x="1007.5" y="631.4" width="24.0" height="63.6" fill="#2563eb"/>
<rect x="1033.5" y="634.4" width="24.0" height="60.6" fill="#dc2626"/>
<rect x="1059.5" y="690.8" width="24.0" height="4.2" fill="#16a34a"/>
<text x="1046.5" y="713" text-anchor="middle" class="op-label">sasum</text>
<rect x="1276.5" y="664.0" width="24.0" height="31.0" fill="#2563eb"/>
<rect x="1302.5" y="678.1" width="24.0" height="16.9" fill="#dc2626"/>
<rect x="1328.5" y="693.9" width="24.0" height="1.1" fill="#16a34a"/>
<text x="1315.5" y="713" text-anchor="middle" class="op-label">snrm2</text>
<text x="105" y="770" class="panel-title">Real f64 Level 1 (Gops)</text>
<line x1="105" y1="1030.0" x2="1450" y2="1030.0" class="grid"/>
<text x="95" y="1034.0" text-anchor="end" class="axis-label">0</text>
<line x1="105" y1="970.0" x2="1450" y2="970.0" class="grid"/>
<text x="95" y="974.0" text-anchor="end" class="axis-label">10</text>
<line x1="105" y1="910.0" x2="1450" y2="910.0" class="grid"/>
<text x="95" y="914.0" text-anchor="end" class="axis-label">20</text>
<line x1="105" y1="850.0" x2="1450" y2="850.0" class="grid"/>
<text x="95" y="854.0" text-anchor="end" class="axis-label">30</text>
<line x1="105" y1="790.0" x2="1450" y2="790.0" class="grid"/>
<text x="95" y="794.0" text-anchor="end" class="axis-label">40</text>
<line x1="105" y1="790" x2="105" y2="1030" class="axis"/>
<line x1="105" y1="1030" x2="1450" y2="1030" class="axis"/>
<rect x="200.5" y="830.5" width="24.0" height="199.5" fill="#2563eb"/>
<rect x="226.5" y="847.7" width="24.0" height="182.3" fill="#dc2626"/>
<rect x="252.5" y="1008.6" width="24.0" height="21.4" fill="#16a34a"/>
<text x="239.5" y="1048" text-anchor="middle" class="op-label">dscal</text>
<rect x="469.5" y="871.8" width="24.0" height="158.2" fill="#2563eb"/>
<rect x="495.5" y="906.6" width="24.0" height="123.4" fill="#dc2626"/>
<rect x="521.5" y="1016.3" width="24.0" height="13.7" fill="#16a34a"/>
<text x="508.5" y="1048" text-anchor="middle" class="op-label">daxpy</text>
<rect x="738.5" y="830.7" width="24.0" height="199.3" fill="#2563eb"/>
<rect x="764.5" y="929.7" width="24.0" height="100.3" fill="#dc2626"/>
<rect x="790.5" y="1015.0" width="24.0" height="15.0" fill="#16a34a"/>
<text x="777.5" y="1048" text-anchor="middle" class="op-label">ddot</text>
<rect x="1007.5" y="836.9" width="24.0" height="193.1" fill="#2563eb"/>
<rect x="1033.5" y="846.3" width="24.0" height="183.7" fill="#dc2626"/>
<rect x="1059.5" y="1013.0" width="24.0" height="17.0" fill="#16a34a"/>
<text x="1046.5" y="1048" text-anchor="middle" class="op-label">dasum</text>
<rect x="1276.5" y="933.9" width="24.0" height="96.1" fill="#2563eb"/>
<rect x="1302.5" y="980.1" width="24.0" height="49.9" fill="#dc2626"/>
<rect x="1328.5" y="1025.1" width="24.0" height="4.9" fill="#16a34a"/>
<text x="1315.5" y="1048" text-anchor="middle" class="op-label">dnrm2</text>
<text x="105" y="1105" class="panel-title">Complex f32 Level 1 (Gops)</text>
<line x1="105" y1="1365.0" x2="1450" y2="1365.0" class="grid"/>
<text x="95" y="1369.0" text-anchor="end" class="axis-label">0</text>
<line x1="105" y1="1305.0" x2="1450" y2="1305.0" class="grid"/>
<text x="95" y="1309.0" text-anchor="end" class="axis-label">50</text>
<line x1="105" y1="1245.0" x2="1450" y2="1245.0" class="grid"/>
<text x="95" y="1249.0" text-anchor="end" class="axis-label">100</text>
<line x1="105" y1="1185.0" x2="1450" y2="1185.0" class="grid"/>
<text x="95" y="1189.0" text-anchor="end" class="axis-label">150</text>
<line x1="105" y1="1125.0" x2="1450" y2="1125.0" class="grid"/>
<text x="95" y="1129.0" text-anchor="end" class="axis-label">200</text>
<line x1="105" y1="1125" x2="105" y2="1365" class="axis"/>
<line x1="105" y1="1365" x2="1450" y2="1365" class="axis"/>
<rect x="150.1" y="1286.6" width="24.0" height="78.4" fill="#2563eb"/>
<rect x="176.1" y="1311.2" width="24.0" height="53.8" fill="#dc2626"/>
<rect x="202.1" y="1360.4" width="24.0" height="4.6" fill="#16a34a"/>
<text x="189.1" y="1383" text-anchor="middle" class="op-label">csscal</text>
<rect x="318.2" y="1149.5" width="24.0" height="215.5" fill="#2563eb"/>
<rect x="344.2" y="1319.1" width="24.0" height="45.9" fill="#dc2626"/>
<rect x="370.2" y="1345.7" width="24.0" height="19.3" fill="#16a34a"/>
<text x="357.2" y="1383" text-anchor="middle" class="op-label">cscal</text>
<rect x="486.3" y="1276.6" width="24.0" height="88.4" fill="#2563eb"/>
<rect x="512.3" y="1328.5" width="24.0" height="36.5" fill="#dc2626"/>
<rect x="538.3" y="1355.1" width="24.0" height="9.9" fill="#16a34a"/>
<text x="525.3" y="1383" text-anchor="middle" class="op-label">caxpy</text>
<rect x="654.4" y="1299.1" width="24.0" height="65.9" fill="#2563eb"/>
<rect x="706.4" y="1355.6" width="24.0" height="9.4" fill="#16a34a"/>
<text x="693.4" y="1383" text-anchor="middle" class="op-label">caxpby</text>
<rect x="822.6" y="1312.9" width="24.0" height="52.1" fill="#2563eb"/>
<rect x="848.6" y="1338.3" width="24.0" height="26.7" fill="#dc2626"/>
<rect x="874.6" y="1354.8" width="24.0" height="10.2" fill="#16a34a"/>
<text x="861.6" y="1383" text-anchor="middle" class="op-label">cdotu</text>
<rect x="990.7" y="1312.3" width="24.0" height="52.7" fill="#2563eb"/>
<rect x="1016.7" y="1340.1" width="24.0" height="24.9" fill="#dc2626"/>
<rect x="1042.7" y="1354.6" width="24.0" height="10.4" fill="#16a34a"/>
<text x="1029.7" y="1383" text-anchor="middle" class="op-label">cdotc</text>
<rect x="1158.8" y="1286.5" width="24.0" height="78.5" fill="#2563eb"/>
<rect x="1184.8" y="1317.4" width="24.0" height="47.6" fill="#dc2626"/>
<rect x="1210.8" y="1355.7" width="24.0" height="9.3" fill="#16a34a"/>
<text x="1197.8" y="1383" text-anchor="middle" class="op-label">scasum</text>
<rect x="1326.9" y="1327.8" width="24.0" height="37.2" fill="#2563eb"/>
<rect x="1352.9" y="1349.8" width="24.0" height="15.2" fill="#dc2626"/>
<rect x="1378.9" y="1363.4" width="24.0" height="1.6" fill="#16a34a"/>
<text x="1365.9" y="1383" text-anchor="middle" class="op-label">scnrm2</text>
<text x="105" y="1440" class="panel-title">Complex f64 Level 1 (Gops)</text>
<line x1="105" y1="1700.0" x2="1450" y2="1700.0" class="grid"/>
<text x="95" y="1704.0" text-anchor="end" class="axis-label">0</text>
<line x1="105" y1="1620.0" x2="1450" y2="1620.0" class="grid"/>
<text x="95" y="1624.0" text-anchor="end" class="axis-label">20</text>
<line x1="105" y1="1540.0" x2="1450" y2="1540.0" class="grid"/>
<text x="95" y="1544.0" text-anchor="end" class="axis-label">40</text>
<line x1="105" y1="1460.0" x2="1450" y2="1460.0" class="grid"/>
<text x="95" y="1464.0" text-anchor="end" class="axis-label">60</text>
<line x1="105" y1="1460" x2="105" y2="1700" class="axis"/>
<line x1="105" y1="1700" x2="1450" y2="1700" class="axis"/>
<rect x="150.1" y="1607.0" width="24.0" height="93.0" fill="#2563eb"/>
<rect x="176.1" y="1661.5" width="24.0" height="38.5" fill="#dc2626"/>
<rect x="202.1" y="1687.8" width="24.0" height="12.2" fill="#16a34a"/>
<text x="189.1" y="1718" text-anchor="middle" class="op-label">zdscal</text>
<rect x="318.2" y="1506.4" width="24.0" height="193.6" fill="#2563eb"/>
<rect x="344.2" y="1651.8" width="24.0" height="48.2" fill="#dc2626"/>
<rect x="370.2" y="1665.8" width="24.0" height="34.2" fill="#16a34a"/>
<text x="357.2" y="1718" text-anchor="middle" class="op-label">zscal</text>
<rect x="486.3" y="1593.4" width="24.0" height="106.6" fill="#2563eb"/>
<rect x="512.3" y="1660.1" width="24.0" height="39.9" fill="#dc2626"/>
<rect x="538.3" y="1681.8" width="24.0" height="18.2" fill="#16a34a"/>
<text x="525.3" y="1718" text-anchor="middle" class="op-label">zaxpy</text>
<rect x="654.4" y="1603.7" width="24.0" height="96.3" fill="#2563eb"/>
<rect x="706.4" y="1675.1" width="24.0" height="24.9" fill="#16a34a"/>
<text x="693.4" y="1718" text-anchor="middle" class="op-label">zaxpby</text>
<rect x="822.6" y="1583.6" width="24.0" height="116.4" fill="#2563eb"/>
<rect x="848.6" y="1654.1" width="24.0" height="45.9" fill="#dc2626"/>
<rect x="874.6" y="1677.2" width="24.0" height="22.8" fill="#16a34a"/>
<text x="861.6" y="1718" text-anchor="middle" class="op-label">zdotu</text>
<rect x="990.7" y="1584.8" width="24.0" height="115.2" fill="#2563eb"/>
<rect x="1016.7" y="1661.1" width="24.0" height="38.9" fill="#dc2626"/>
<rect x="1042.7" y="1680.5" width="24.0" height="19.5" fill="#16a34a"/>
<text x="1029.7" y="1718" text-anchor="middle" class="op-label">zdotc</text>
<rect x="1158.8" y="1613.0" width="24.0" height="87.0" fill="#2563eb"/>
<rect x="1184.8" y="1661.7" width="24.0" height="38.3" fill="#dc2626"/>
<rect x="1210.8" y="1688.6" width="24.0" height="11.4" fill="#16a34a"/>
<text x="1197.8" y="1718" text-anchor="middle" class="op-label">dzasum</text>
<rect x="1326.9" y="1624.0" width="24.0" height="76.0" fill="#2563eb"/>
<rect x="1352.9" y="1694.4" width="24.0" height="5.6" fill="#dc2626"/>
<rect x="1378.9" y="1694.9" width="24.0" height="5.1" fill="#16a34a"/>
<text x="1365.9" y="1718" text-anchor="middle" class="op-label">dznrm2</text>
</svg>
