<svg xmlns="http://www.w3.org/2000/svg" width="3950" height="1640" viewBox="0 0 3950 1640">

<style>
  text { font-family: -apple-system, BlinkMacSystemFont, "Segoe UI", sans-serif; fill: #111827; }
  .title { font-size: 24px; font-weight: 700; }
  .subtitle { font-size: 13px; fill: #4b5563; }
  .panel-title { font-size: 16px; font-weight: 700; }
  .axis-label { font-size: 11px; fill: #4b5563; }
  .shape-label { font-size: 10px; fill: #374151; }
  .axis { stroke: #111827; stroke-width: 1; }
  .grid { stroke: #e5e7eb; stroke-width: 1; }
  .legend { font-size: 13px; }
</style>

<rect x="0" y="0" width="100%" height="100%" fill="#ffffff"/>
<text x="40" y="42" class="title">SGEMM/DGEMM/CGEMM/ZGEMM Performance Sweep: Zynum vs Accelerate vs OpenBLAS</text>
<text x="40" y="66" class="subtitle">Higher is better. Shapes are ordered by m*n*k so smaller cases stay at the front. Best-of-reps GF/s across square, remainder, skinny, wide, and K-varied column-major GEMM shapes</text>
<line x1="1180" y1="38" x2="1212" y2="38" stroke="#2563eb" stroke-width="3"/>
<text x="1220" y="42" class="legend">Zynum</text>
<line x1="1325" y1="38" x2="1357" y2="38" stroke="#dc2626" stroke-width="3"/>
<text x="1365" y="42" class="legend">Accelerate</text>
<line x1="1470" y1="38" x2="1502" y2="38" stroke="#16a34a" stroke-width="3"/>
<text x="1510" y="42" class="legend">OpenBLAS</text>
<text x="110" y="92" class="panel-title">SGEMM GF/s</text>
<line x1="110" y1="370.0" x2="3890" y2="370.0" class="grid"/>
<text x="100" y="374.0" text-anchor="end" class="axis-label">0</text>
<line x1="110" y1="318.0" x2="3890" y2="318.0" class="grid"/>
<text x="100" y="322.0" text-anchor="end" class="axis-label">500</text>
<line x1="110" y1="266.0" x2="3890" y2="266.0" class="grid"/>
<text x="100" y="270.0" text-anchor="end" class="axis-label">1000</text>
<line x1="110" y1="214.0" x2="3890" y2="214.0" class="grid"/>
<text x="100" y="218.0" text-anchor="end" class="axis-label">1500</text>
<line x1="110" y1="162.0" x2="3890" y2="162.0" class="grid"/>
<text x="100" y="166.0" text-anchor="end" class="axis-label">2000</text>
<line x1="110" y1="110.0" x2="3890" y2="110.0" class="grid"/>
<text x="100" y="114.0" text-anchor="end" class="axis-label">2500</text>
<line x1="110" y1="110" x2="110" y2="370" class="axis"/>
<line x1="110" y1="370" x2="3890" y2="370" class="axis"/>
<polyline points="110.0,369.8 202.2,368.7 294.4,367.5 386.6,363.8 478.8,359.5 571.0,358.4 663.2,332.6 755.4,358.4 847.6,350.0 939.8,308.7 1032.0,363.3 1124.1,366.0 1216.3,290.7 1308.5,278.0 1400.7,332.5 1492.9,358.2 1585.1,250.0 1677.3,243.2 1769.5,238.6 1861.7,217.9 1953.9,295.0 2046.1,209.8 2138.3,198.1 2230.5,326.9 2322.7,239.0 2414.9,194.1 2507.1,202.4 2599.3,255.8 2691.5,328.3 2783.7,326.1 2875.9,197.1 2968.0,195.5 3060.2,187.2 3152.4,208.5 3244.6,190.3 3336.8,205.7 3429.0,192.6 3521.2,202.7 3613.4,191.7 3705.6,179.3 3797.8,152.8 3890.0,152.6" fill="none" stroke="#2563eb" stroke-width="2.4"/>
<circle cx="110.0" cy="369.8" r="2.4" fill="#2563eb"/>
<circle cx="202.2" cy="368.7" r="2.4" fill="#2563eb"/>
<circle cx="294.4" cy="367.5" r="2.4" fill="#2563eb"/>
<circle cx="386.6" cy="363.8" r="2.4" fill="#2563eb"/>
<circle cx="478.8" cy="359.5" r="2.4" fill="#2563eb"/>
<circle cx="571.0" cy="358.4" r="2.4" fill="#2563eb"/>
<circle cx="663.2" cy="332.6" r="2.4" fill="#2563eb"/>
<circle cx="755.4" cy="358.4" r="2.4" fill="#2563eb"/>
<circle cx="847.6" cy="350.0" r="2.4" fill="#2563eb"/>
<circle cx="939.8" cy="308.7" r="2.4" fill="#2563eb"/>
<circle cx="1032.0" cy="363.3" r="2.4" fill="#2563eb"/>
<circle cx="1124.1" cy="366.0" r="2.4" fill="#2563eb"/>
<circle cx="1216.3" cy="290.7" r="2.4" fill="#2563eb"/>
<circle cx="1308.5" cy="278.0" r="2.4" fill="#2563eb"/>
<circle cx="1400.7" cy="332.5" r="2.4" fill="#2563eb"/>
<circle cx="1492.9" cy="358.2" r="2.4" fill="#2563eb"/>
<circle cx="1585.1" cy="250.0" r="2.4" fill="#2563eb"/>
<circle cx="1677.3" cy="243.2" r="2.4" fill="#2563eb"/>
<circle cx="1769.5" cy="238.6" r="2.4" fill="#2563eb"/>
<circle cx="1861.7" cy="217.9" r="2.4" fill="#2563eb"/>
<circle cx="1953.9" cy="295.0" r="2.4" fill="#2563eb"/>
<circle cx="2046.1" cy="209.8" r="2.4" fill="#2563eb"/>
<circle cx="2138.3" cy="198.1" r="2.4" fill="#2563eb"/>
<circle cx="2230.5" cy="326.9" r="2.4" fill="#2563eb"/>
<circle cx="2322.7" cy="239.0" r="2.4" fill="#2563eb"/>
<circle cx="2414.9" cy="194.1" r="2.4" fill="#2563eb"/>
<circle cx="2507.1" cy="202.4" r="2.4" fill="#2563eb"/>
<circle cx="2599.3" cy="255.8" r="2.4" fill="#2563eb"/>
<circle cx="2691.5" cy="328.3" r="2.4" fill="#2563eb"/>
<circle cx="2783.7" cy="326.1" r="2.4" fill="#2563eb"/>
<circle cx="2875.9" cy="197.1" r="2.4" fill="#2563eb"/>
<circle cx="2968.0" cy="195.5" r="2.4" fill="#2563eb"/>
<circle cx="3060.2" cy="187.2" r="2.4" fill="#2563eb"/>
<circle cx="3152.4" cy="208.5" r="2.4" fill="#2563eb"/>
<circle cx="3244.6" cy="190.3" r="2.4" fill="#2563eb"/>
<circle cx="3336.8" cy="205.7" r="2.4" fill="#2563eb"/>
<circle cx="3429.0" cy="192.6" r="2.4" fill="#2563eb"/>
<circle cx="3521.2" cy="202.7" r="2.4" fill="#2563eb"/>
<circle cx="3613.4" cy="191.7" r="2.4" fill="#2563eb"/>
<circle cx="3705.6" cy="179.3" r="2.4" fill="#2563eb"/>
<circle cx="3797.8" cy="152.8" r="2.4" fill="#2563eb"/>
<circle cx="3890.0" cy="152.6" r="2.4" fill="#2563eb"/>
<polyline points="110.0,370.0 202.2,369.5 294.4,366.2 386.6,366.6 478.8,364.2 571.0,361.0 663.2,348.5 755.4,355.3 847.6,357.9 939.8,332.3 1032.0,362.4 1124.1,356.7 1216.3,334.6 1308.5,320.1 1400.7,339.4 1492.9,352.1 1585.1,320.1 1677.3,315.4 1769.5,313.7 1861.7,314.8 1953.9,331.8 2046.1,312.8 2138.3,312.6 2230.5,331.7 2322.7,326.1 2414.9,310.1 2507.1,314.0 2599.3,323.2 2691.5,323.5 2783.7,311.1 2875.9,305.8 2968.0,300.0 3060.2,299.0 3152.4,310.8 3244.6,304.0 3336.8,305.1 3429.0,317.9 3521.2,315.4 3613.4,308.4 3705.6,305.4 3797.8,307.0 3890.0,302.6" fill="none" stroke="#dc2626" stroke-width="2.4"/>
<circle cx="110.0" cy="370.0" r="2.4" fill="#dc2626"/>
<circle cx="202.2" cy="369.5" r="2.4" fill="#dc2626"/>
<circle cx="294.4" cy="366.2" r="2.4" fill="#dc2626"/>
<circle cx="386.6" cy="366.6" r="2.4" fill="#dc2626"/>
<circle cx="478.8" cy="364.2" r="2.4" fill="#dc2626"/>
<circle cx="571.0" cy="361.0" r="2.4" fill="#dc2626"/>
<circle cx="663.2" cy="348.5" r="2.4" fill="#dc2626"/>
<circle cx="755.4" cy="355.3" r="2.4" fill="#dc2626"/>
<circle cx="847.6" cy="357.9" r="2.4" fill="#dc2626"/>
<circle cx="939.8" cy="332.3" r="2.4" fill="#dc2626"/>
<circle cx="1032.0" cy="362.4" r="2.4" fill="#dc2626"/>
<circle cx="1124.1" cy="356.7" r="2.4" fill="#dc2626"/>
<circle cx="1216.3" cy="334.6" r="2.4" fill="#dc2626"/>
<circle cx="1308.5" cy="320.1" r="2.4" fill="#dc2626"/>
<circle cx="1400.7" cy="339.4" r="2.4" fill="#dc2626"/>
<circle cx="1492.9" cy="352.1" r="2.4" fill="#dc2626"/>
<circle cx="1585.1" cy="320.1" r="2.4" fill="#dc2626"/>
<circle cx="1677.3" cy="315.4" r="2.4" fill="#dc2626"/>
<circle cx="1769.5" cy="313.7" r="2.4" fill="#dc2626"/>
<circle cx="1861.7" cy="314.8" r="2.4" fill="#dc2626"/>
<circle cx="1953.9" cy="331.8" r="2.4" fill="#dc2626"/>
<circle cx="2046.1" cy="312.8" r="2.4" fill="#dc2626"/>
<circle cx="2138.3" cy="312.6" r="2.4" fill="#dc2626"/>
<circle cx="2230.5" cy="331.7" r="2.4" fill="#dc2626"/>
<circle cx="2322.7" cy="326.1" r="2.4" fill="#dc2626"/>
<circle cx="2414.9" cy="310.1" r="2.4" fill="#dc2626"/>
<circle cx="2507.1" cy="314.0" r="2.4" fill="#dc2626"/>
<circle cx="2599.3" cy="323.2" r="2.4" fill="#dc2626"/>
<circle cx="2691.5" cy="323.5" r="2.4" fill="#dc2626"/>
<circle cx="2783.7" cy="311.1" r="2.4" fill="#dc2626"/>
<circle cx="2875.9" cy="305.8" r="2.4" fill="#dc2626"/>
<circle cx="2968.0" cy="300.0" r="2.4" fill="#dc2626"/>
<circle cx="3060.2" cy="299.0" r="2.4" fill="#dc2626"/>
<circle cx="3152.4" cy="310.8" r="2.4" fill="#dc2626"/>
<circle cx="3244.6" cy="304.0" r="2.4" fill="#dc2626"/>
<circle cx="3336.8" cy="305.1" r="2.4" fill="#dc2626"/>
<circle cx="3429.0" cy="317.9" r="2.4" fill="#dc2626"/>
<circle cx="3521.2" cy="315.4" r="2.4" fill="#dc2626"/>
<circle cx="3613.4" cy="308.4" r="2.4" fill="#dc2626"/>
<circle cx="3705.6" cy="305.4" r="2.4" fill="#dc2626"/>
<circle cx="3797.8" cy="307.0" r="2.4" fill="#dc2626"/>
<circle cx="3890.0" cy="302.6" r="2.4" fill="#dc2626"/>
<polyline points="110.0,370.0 202.2,368.7 294.4,366.4 386.6,364.7 478.8,366.8 571.0,365.1 663.2,366.1 755.4,365.0 847.6,363.1 939.8,356.3 1032.0,359.8 1124.1,366.5 1216.3,353.3 1308.5,341.4 1400.7,356.0 1492.9,343.9 1585.1,331.4 1677.3,324.4 1769.5,329.4 1861.7,346.0 1953.9,321.0 2046.1,328.1 2138.3,346.7 2230.5,323.8 2322.7,335.2 2414.9,343.9 2507.1,348.7 2599.3,320.5 2691.5,325.9 2783.7,348.4 2875.9,336.5 2968.0,327.1 3060.2,328.8 3152.4,326.3 3244.6,331.7 3336.8,325.6 3429.0,325.8 3521.2,325.4 3613.4,338.9 3705.6,324.3 3797.8,321.8 3890.0,323.7" fill="none" stroke="#16a34a" stroke-width="2.4"/>
<circle cx="110.0" cy="370.0" r="2.4" fill="#16a34a"/>
<circle cx="202.2" cy="368.7" r="2.4" fill="#16a34a"/>
<circle cx="294.4" cy="366.4" r="2.4" fill="#16a34a"/>
<circle cx="386.6" cy="364.7" r="2.4" fill="#16a34a"/>
<circle cx="478.8" cy="366.8" r="2.4" fill="#16a34a"/>
<circle cx="571.0" cy="365.1" r="2.4" fill="#16a34a"/>
<circle cx="663.2" cy="366.1" r="2.4" fill="#16a34a"/>
<circle cx="755.4" cy="365.0" r="2.4" fill="#16a34a"/>
<circle cx="847.6" cy="363.1" r="2.4" fill="#16a34a"/>
<circle cx="939.8" cy="356.3" r="2.4" fill="#16a34a"/>
<circle cx="1032.0" cy="359.8" r="2.4" fill="#16a34a"/>
<circle cx="1124.1" cy="366.5" r="2.4" fill="#16a34a"/>
<circle cx="1216.3" cy="353.3" r="2.4" fill="#16a34a"/>
<circle cx="1308.5" cy="341.4" r="2.4" fill="#16a34a"/>
<circle cx="1400.7" cy="356.0" r="2.4" fill="#16a34a"/>
<circle cx="1492.9" cy="343.9" r="2.4" fill="#16a34a"/>
<circle cx="1585.1" cy="331.4" r="2.4" fill="#16a34a"/>
<circle cx="1677.3" cy="324.4" r="2.4" fill="#16a34a"/>
<circle cx="1769.5" cy="329.4" r="2.4" fill="#16a34a"/>
<circle cx="1861.7" cy="346.0" r="2.4" fill="#16a34a"/>
<circle cx="1953.9" cy="321.0" r="2.4" fill="#16a34a"/>
<circle cx="2046.1" cy="328.1" r="2.4" fill="#16a34a"/>
<circle cx="2138.3" cy="346.7" r="2.4" fill="#16a34a"/>
<circle cx="2230.5" cy="323.8" r="2.4" fill="#16a34a"/>
<circle cx="2322.7" cy="335.2" r="2.4" fill="#16a34a"/>
<circle cx="2414.9" cy="343.9" r="2.4" fill="#16a34a"/>
<circle cx="2507.1" cy="348.7" r="2.4" fill="#16a34a"/>
<circle cx="2599.3" cy="320.5" r="2.4" fill="#16a34a"/>
<circle cx="2691.5" cy="325.9" r="2.4" fill="#16a34a"/>
<circle cx="2783.7" cy="348.4" r="2.4" fill="#16a34a"/>
<circle cx="2875.9" cy="336.5" r="2.4" fill="#16a34a"/>
<circle cx="2968.0" cy="327.1" r="2.4" fill="#16a34a"/>
<circle cx="3060.2" cy="328.8" r="2.4" fill="#16a34a"/>
<circle cx="3152.4" cy="326.3" r="2.4" fill="#16a34a"/>
<circle cx="3244.6" cy="331.7" r="2.4" fill="#16a34a"/>
<circle cx="3336.8" cy="325.6" r="2.4" fill="#16a34a"/>
<circle cx="3429.0" cy="325.8" r="2.4" fill="#16a34a"/>
<circle cx="3521.2" cy="325.4" r="2.4" fill="#16a34a"/>
<circle cx="3613.4" cy="338.9" r="2.4" fill="#16a34a"/>
<circle cx="3705.6" cy="324.3" r="2.4" fill="#16a34a"/>
<circle cx="3797.8" cy="321.8" r="2.4" fill="#16a34a"/>
<circle cx="3890.0" cy="323.7" r="2.4" fill="#16a34a"/>
<text x="110" y="462" class="panel-title">DGEMM GF/s</text>
<line x1="110" y1="740.0" x2="3890" y2="740.0" class="grid"/>
<text x="100" y="744.0" text-anchor="end" class="axis-label">0</text>
<line x1="110" y1="653.3" x2="3890" y2="653.3" class="grid"/>
<text x="100" y="657.3" text-anchor="end" class="axis-label">200</text>
<line x1="110" y1="566.7" x2="3890" y2="566.7" class="grid"/>
<text x="100" y="570.7" text-anchor="end" class="axis-label">400</text>
<line x1="110" y1="480.0" x2="3890" y2="480.0" class="grid"/>
<text x="100" y="484.0" text-anchor="end" class="axis-label">600</text>
<line x1="110" y1="480" x2="110" y2="740" class="axis"/>
<line x1="110" y1="740" x2="3890" y2="740" class="axis"/>
<polyline points="110.0,739.1 202.2,734.7 294.4,725.9 386.6,728.3 478.8,717.4 571.0,708.8 663.2,663.2 755.4,716.1 847.6,684.3 939.8,627.8 1032.0,717.8 1124.1,727.0 1216.3,607.4 1308.5,600.2 1400.7,708.2 1492.9,705.6 1585.1,567.0 1677.3,557.2 1769.5,552.1 1861.7,542.3 1953.9,618.7 2046.1,526.1 2138.3,541.9 2230.5,562.0 2322.7,539.2 2414.9,512.8 2507.1,549.2 2599.3,555.9 2691.5,558.3 2783.7,561.5 2875.9,514.7 2968.0,522.1 3060.2,506.8 3152.4,508.3 3244.6,500.8 3336.8,522.1 3429.0,504.7 3521.2,514.0 3613.4,510.8 3705.6,500.4 3797.8,499.7 3890.0,510.7" fill="none" stroke="#2563eb" stroke-width="2.4"/>
<circle cx="110.0" cy="739.1" r="2.4" fill="#2563eb"/>
<circle cx="202.2" cy="734.7" r="2.4" fill="#2563eb"/>
<circle cx="294.4" cy="725.9" r="2.4" fill="#2563eb"/>
<circle cx="386.6" cy="728.3" r="2.4" fill="#2563eb"/>
<circle cx="478.8" cy="717.4" r="2.4" fill="#2563eb"/>
<circle cx="571.0" cy="708.8" r="2.4" fill="#2563eb"/>
<circle cx="663.2" cy="663.2" r="2.4" fill="#2563eb"/>
<circle cx="755.4" cy="716.1" r="2.4" fill="#2563eb"/>
<circle cx="847.6" cy="684.3" r="2.4" fill="#2563eb"/>
<circle cx="939.8" cy="627.8" r="2.4" fill="#2563eb"/>
<circle cx="1032.0" cy="717.8" r="2.4" fill="#2563eb"/>
<circle cx="1124.1" cy="727.0" r="2.4" fill="#2563eb"/>
<circle cx="1216.3" cy="607.4" r="2.4" fill="#2563eb"/>
<circle cx="1308.5" cy="600.2" r="2.4" fill="#2563eb"/>
<circle cx="1400.7" cy="708.2" r="2.4" fill="#2563eb"/>
<circle cx="1492.9" cy="705.6" r="2.4" fill="#2563eb"/>
<circle cx="1585.1" cy="567.0" r="2.4" fill="#2563eb"/>
<circle cx="1677.3" cy="557.2" r="2.4" fill="#2563eb"/>
<circle cx="1769.5" cy="552.1" r="2.4" fill="#2563eb"/>
<circle cx="1861.7" cy="542.3" r="2.4" fill="#2563eb"/>
<circle cx="1953.9" cy="618.7" r="2.4" fill="#2563eb"/>
<circle cx="2046.1" cy="526.1" r="2.4" fill="#2563eb"/>
<circle cx="2138.3" cy="541.9" r="2.4" fill="#2563eb"/>
<circle cx="2230.5" cy="562.0" r="2.4" fill="#2563eb"/>
<circle cx="2322.7" cy="539.2" r="2.4" fill="#2563eb"/>
<circle cx="2414.9" cy="512.8" r="2.4" fill="#2563eb"/>
<circle cx="2507.1" cy="549.2" r="2.4" fill="#2563eb"/>
<circle cx="2599.3" cy="555.9" r="2.4" fill="#2563eb"/>
<circle cx="2691.5" cy="558.3" r="2.4" fill="#2563eb"/>
<circle cx="2783.7" cy="561.5" r="2.4" fill="#2563eb"/>
<circle cx="2875.9" cy="514.7" r="2.4" fill="#2563eb"/>
<circle cx="2968.0" cy="522.1" r="2.4" fill="#2563eb"/>
<circle cx="3060.2" cy="506.8" r="2.4" fill="#2563eb"/>
<circle cx="3152.4" cy="508.3" r="2.4" fill="#2563eb"/>
<circle cx="3244.6" cy="500.8" r="2.4" fill="#2563eb"/>
<circle cx="3336.8" cy="522.1" r="2.4" fill="#2563eb"/>
<circle cx="3429.0" cy="504.7" r="2.4" fill="#2563eb"/>
<circle cx="3521.2" cy="514.0" r="2.4" fill="#2563eb"/>
<circle cx="3613.4" cy="510.8" r="2.4" fill="#2563eb"/>
<circle cx="3705.6" cy="500.4" r="2.4" fill="#2563eb"/>
<circle cx="3797.8" cy="499.7" r="2.4" fill="#2563eb"/>
<circle cx="3890.0" cy="510.7" r="2.4" fill="#2563eb"/>
<polyline points="110.0,740.0 202.2,737.3 294.4,721.8 386.6,722.6 478.8,717.4 571.0,706.1 663.2,683.2 755.4,686.9 847.6,693.1 939.8,656.7 1032.0,709.0 1124.1,699.5 1216.3,666.6 1308.5,649.8 1400.7,664.4 1492.9,697.5 1585.1,654.8 1677.3,633.9 1769.5,632.5 1861.7,696.5 1953.9,658.7 2046.1,639.0 2138.3,663.6 2230.5,652.9 2322.7,654.2 2414.9,672.0 2507.1,664.3 2599.3,644.9 2691.5,653.9 2783.7,653.0 2875.9,635.0 2968.0,638.0 3060.2,633.5 3152.4,641.5 3244.6,639.7 3336.8,640.9 3429.0,648.4 3521.2,653.6 3613.4,648.5 3705.6,620.3 3797.8,630.9 3890.0,635.7" fill="none" stroke="#dc2626" stroke-width="2.4"/>
<circle cx="110.0" cy="740.0" r="2.4" fill="#dc2626"/>
<circle cx="202.2" cy="737.3" r="2.4" fill="#dc2626"/>
<circle cx="294.4" cy="721.8" r="2.4" fill="#dc2626"/>
<circle cx="386.6" cy="722.6" r="2.4" fill="#dc2626"/>
<circle cx="478.8" cy="717.4" r="2.4" fill="#dc2626"/>
<circle cx="571.0" cy="706.1" r="2.4" fill="#dc2626"/>
<circle cx="663.2" cy="683.2" r="2.4" fill="#dc2626"/>
<circle cx="755.4" cy="686.9" r="2.4" fill="#dc2626"/>
<circle cx="847.6" cy="693.1" r="2.4" fill="#dc2626"/>
<circle cx="939.8" cy="656.7" r="2.4" fill="#dc2626"/>
<circle cx="1032.0" cy="709.0" r="2.4" fill="#dc2626"/>
<circle cx="1124.1" cy="699.5" r="2.4" fill="#dc2626"/>
<circle cx="1216.3" cy="666.6" r="2.4" fill="#dc2626"/>
<circle cx="1308.5" cy="649.8" r="2.4" fill="#dc2626"/>
<circle cx="1400.7" cy="664.4" r="2.4" fill="#dc2626"/>
<circle cx="1492.9" cy="697.5" r="2.4" fill="#dc2626"/>
<circle cx="1585.1" cy="654.8" r="2.4" fill="#dc2626"/>
<circle cx="1677.3" cy="633.9" r="2.4" fill="#dc2626"/>
<circle cx="1769.5" cy="632.5" r="2.4" fill="#dc2626"/>
<circle cx="1861.7" cy="696.5" r="2.4" fill="#dc2626"/>
<circle cx="1953.9" cy="658.7" r="2.4" fill="#dc2626"/>
<circle cx="2046.1" cy="639.0" r="2.4" fill="#dc2626"/>
<circle cx="2138.3" cy="663.6" r="2.4" fill="#dc2626"/>
<circle cx="2230.5" cy="652.9" r="2.4" fill="#dc2626"/>
<circle cx="2322.7" cy="654.2" r="2.4" fill="#dc2626"/>
<circle cx="2414.9" cy="672.0" r="2.4" fill="#dc2626"/>
<circle cx="2507.1" cy="664.3" r="2.4" fill="#dc2626"/>
<circle cx="2599.3" cy="644.9" r="2.4" fill="#dc2626"/>
<circle cx="2691.5" cy="653.9" r="2.4" fill="#dc2626"/>
<circle cx="2783.7" cy="653.0" r="2.4" fill="#dc2626"/>
<circle cx="2875.9" cy="635.0" r="2.4" fill="#dc2626"/>
<circle cx="2968.0" cy="638.0" r="2.4" fill="#dc2626"/>
<circle cx="3060.2" cy="633.5" r="2.4" fill="#dc2626"/>
<circle cx="3152.4" cy="641.5" r="2.4" fill="#dc2626"/>
<circle cx="3244.6" cy="639.7" r="2.4" fill="#dc2626"/>
<circle cx="3336.8" cy="640.9" r="2.4" fill="#dc2626"/>
<circle cx="3429.0" cy="648.4" r="2.4" fill="#dc2626"/>
<circle cx="3521.2" cy="653.6" r="2.4" fill="#dc2626"/>
<circle cx="3613.4" cy="648.5" r="2.4" fill="#dc2626"/>
<circle cx="3705.6" cy="620.3" r="2.4" fill="#dc2626"/>
<circle cx="3797.8" cy="630.9" r="2.4" fill="#dc2626"/>
<circle cx="3890.0" cy="635.7" r="2.4" fill="#dc2626"/>
<polyline points="110.0,740.0 202.2,738.2 294.4,734.7 386.6,734.0 478.8,732.8 571.0,731.7 663.2,736.6 755.4,731.2 847.6,724.3 939.8,720.9 1032.0,719.5 1124.1,732.1 1216.3,715.2 1308.5,690.8 1400.7,712.6 1492.9,691.0 1585.1,681.9 1677.3,669.6 1769.5,675.8 1861.7,701.6 1953.9,671.1 2046.1,678.9 2138.3,699.4 2230.5,655.1 2322.7,659.4 2414.9,697.0 2507.1,693.9 2599.3,652.3 2691.5,659.8 2783.7,687.3 2875.9,663.7 2968.0,654.3 3060.2,671.4 3152.4,669.5 3244.6,673.7 3336.8,649.2 3429.0,672.4 3521.2,655.3 3613.4,674.5 3705.6,654.5 3797.8,670.6 3890.0,665.1" fill="none" stroke="#16a34a" stroke-width="2.4"/>
<circle cx="110.0" cy="740.0" r="2.4" fill="#16a34a"/>
<circle cx="202.2" cy="738.2" r="2.4" fill="#16a34a"/>
<circle cx="294.4" cy="734.7" r="2.4" fill="#16a34a"/>
<circle cx="386.6" cy="734.0" r="2.4" fill="#16a34a"/>
<circle cx="478.8" cy="732.8" r="2.4" fill="#16a34a"/>
<circle cx="571.0" cy="731.7" r="2.4" fill="#16a34a"/>
<circle cx="663.2" cy="736.6" r="2.4" fill="#16a34a"/>
<circle cx="755.4" cy="731.2" r="2.4" fill="#16a34a"/>
<circle cx="847.6" cy="724.3" r="2.4" fill="#16a34a"/>
<circle cx="939.8" cy="720.9" r="2.4" fill="#16a34a"/>
<circle cx="1032.0" cy="719.5" r="2.4" fill="#16a34a"/>
<circle cx="1124.1" cy="732.1" r="2.4" fill="#16a34a"/>
<circle cx="1216.3" cy="715.2" r="2.4" fill="#16a34a"/>
<circle cx="1308.5" cy="690.8" r="2.4" fill="#16a34a"/>
<circle cx="1400.7" cy="712.6" r="2.4" fill="#16a34a"/>
<circle cx="1492.9" cy="691.0" r="2.4" fill="#16a34a"/>
<circle cx="1585.1" cy="681.9" r="2.4" fill="#16a34a"/>
<circle cx="1677.3" cy="669.6" r="2.4" fill="#16a34a"/>
<circle cx="1769.5" cy="675.8" r="2.4" fill="#16a34a"/>
<circle cx="1861.7" cy="701.6" r="2.4" fill="#16a34a"/>
<circle cx="1953.9" cy="671.1" r="2.4" fill="#16a34a"/>
<circle cx="2046.1" cy="678.9" r="2.4" fill="#16a34a"/>
<circle cx="2138.3" cy="699.4" r="2.4" fill="#16a34a"/>
<circle cx="2230.5" cy="655.1" r="2.4" fill="#16a34a"/>
<circle cx="2322.7" cy="659.4" r="2.4" fill="#16a34a"/>
<circle cx="2414.9" cy="697.0" r="2.4" fill="#16a34a"/>
<circle cx="2507.1" cy="693.9" r="2.4" fill="#16a34a"/>
<circle cx="2599.3" cy="652.3" r="2.4" fill="#16a34a"/>
<circle cx="2691.5" cy="659.8" r="2.4" fill="#16a34a"/>
<circle cx="2783.7" cy="687.3" r="2.4" fill="#16a34a"/>
<circle cx="2875.9" cy="663.7" r="2.4" fill="#16a34a"/>
<circle cx="2968.0" cy="654.3" r="2.4" fill="#16a34a"/>
<circle cx="3060.2" cy="671.4" r="2.4" fill="#16a34a"/>
<circle cx="3152.4" cy="669.5" r="2.4" fill="#16a34a"/>
<circle cx="3244.6" cy="673.7" r="2.4" fill="#16a34a"/>
<circle cx="3336.8" cy="649.2" r="2.4" fill="#16a34a"/>
<circle cx="3429.0" cy="672.4" r="2.4" fill="#16a34a"/>
<circle cx="3521.2" cy="655.3" r="2.4" fill="#16a34a"/>
<circle cx="3613.4" cy="674.5" r="2.4" fill="#16a34a"/>
<circle cx="3705.6" cy="654.5" r="2.4" fill="#16a34a"/>
<circle cx="3797.8" cy="670.6" r="2.4" fill="#16a34a"/>
<circle cx="3890.0" cy="665.1" r="2.4" fill="#16a34a"/>
<text x="110" y="832" class="panel-title">CGEMM GF/s</text>
<line x1="110" y1="1110.0" x2="3890" y2="1110.0" class="grid"/>
<text x="100" y="1114.0" text-anchor="end" class="axis-label">0</text>
<line x1="110" y1="1045.0" x2="3890" y2="1045.0" class="grid"/>
<text x="100" y="1049.0" text-anchor="end" class="axis-label">500</text>
<line x1="110" y1="980.0" x2="3890" y2="980.0" class="grid"/>
<text x="100" y="984.0" text-anchor="end" class="axis-label">1000</text>
<line x1="110" y1="915.0" x2="3890" y2="915.0" class="grid"/>
<text x="100" y="919.0" text-anchor="end" class="axis-label">1500</text>
<line x1="110" y1="850.0" x2="3890" y2="850.0" class="grid"/>
<text x="100" y="854.0" text-anchor="end" class="axis-label">2000</text>
<line x1="110" y1="850" x2="110" y2="1110" class="axis"/>
<line x1="110" y1="1110" x2="3890" y2="1110" class="axis"/>
<polyline points="110.0,1109.0 202.2,1097.3 294.4,1103.2 386.6,1102.5 478.8,1102.3 571.0,1096.3 663.2,1077.0 755.4,1095.2 847.6,1086.2 939.8,1058.5 1032.0,1082.9 1124.1,1092.6 1216.3,1047.8 1308.5,1023.4 1400.7,1087.5 1492.9,1084.9 1585.1,997.9 1677.3,989.3 1769.5,986.0 1861.7,1054.7 1953.9,1041.9 2046.1,957.4 2138.3,1019.0 2230.5,1058.2 2322.7,977.1 2414.9,1016.1 2507.1,1025.0 2599.3,1056.6 2691.5,1063.3 2783.7,1075.7 2875.9,939.8 2968.0,936.1 3060.2,922.6 3152.4,935.0 3244.6,955.0 3336.8,959.4 3429.0,917.9 3521.2,947.3 3613.4,967.2 3705.6,902.5 3797.8,867.6 3890.0,857.4" fill="none" stroke="#2563eb" stroke-width="2.4"/>
<circle cx="110.0" cy="1109.0" r="2.4" fill="#2563eb"/>
<circle cx="202.2" cy="1097.3" r="2.4" fill="#2563eb"/>
<circle cx="294.4" cy="1103.2" r="2.4" fill="#2563eb"/>
<circle cx="386.6" cy="1102.5" r="2.4" fill="#2563eb"/>
<circle cx="478.8" cy="1102.3" r="2.4" fill="#2563eb"/>
<circle cx="571.0" cy="1096.3" r="2.4" fill="#2563eb"/>
<circle cx="663.2" cy="1077.0" r="2.4" fill="#2563eb"/>
<circle cx="755.4" cy="1095.2" r="2.4" fill="#2563eb"/>
<circle cx="847.6" cy="1086.2" r="2.4" fill="#2563eb"/>
<circle cx="939.8" cy="1058.5" r="2.4" fill="#2563eb"/>
<circle cx="1032.0" cy="1082.9" r="2.4" fill="#2563eb"/>
<circle cx="1124.1" cy="1092.6" r="2.4" fill="#2563eb"/>
<circle cx="1216.3" cy="1047.8" r="2.4" fill="#2563eb"/>
<circle cx="1308.5" cy="1023.4" r="2.4" fill="#2563eb"/>
<circle cx="1400.7" cy="1087.5" r="2.4" fill="#2563eb"/>
<circle cx="1492.9" cy="1084.9" r="2.4" fill="#2563eb"/>
<circle cx="1585.1" cy="997.9" r="2.4" fill="#2563eb"/>
<circle cx="1677.3" cy="989.3" r="2.4" fill="#2563eb"/>
<circle cx="1769.5" cy="986.0" r="2.4" fill="#2563eb"/>
<circle cx="1861.7" cy="1054.7" r="2.4" fill="#2563eb"/>
<circle cx="1953.9" cy="1041.9" r="2.4" fill="#2563eb"/>
<circle cx="2046.1" cy="957.4" r="2.4" fill="#2563eb"/>
<circle cx="2138.3" cy="1019.0" r="2.4" fill="#2563eb"/>
<circle cx="2230.5" cy="1058.2" r="2.4" fill="#2563eb"/>
<circle cx="2322.7" cy="977.1" r="2.4" fill="#2563eb"/>
<circle cx="2414.9" cy="1016.1" r="2.4" fill="#2563eb"/>
<circle cx="2507.1" cy="1025.0" r="2.4" fill="#2563eb"/>
<circle cx="2599.3" cy="1056.6" r="2.4" fill="#2563eb"/>
<circle cx="2691.5" cy="1063.3" r="2.4" fill="#2563eb"/>
<circle cx="2783.7" cy="1075.7" r="2.4" fill="#2563eb"/>
<circle cx="2875.9" cy="939.8" r="2.4" fill="#2563eb"/>
<circle cx="2968.0" cy="936.1" r="2.4" fill="#2563eb"/>
<circle cx="3060.2" cy="922.6" r="2.4" fill="#2563eb"/>
<circle cx="3152.4" cy="935.0" r="2.4" fill="#2563eb"/>
<circle cx="3244.6" cy="955.0" r="2.4" fill="#2563eb"/>
<circle cx="3336.8" cy="959.4" r="2.4" fill="#2563eb"/>
<circle cx="3429.0" cy="917.9" r="2.4" fill="#2563eb"/>
<circle cx="3521.2" cy="947.3" r="2.4" fill="#2563eb"/>
<circle cx="3613.4" cy="967.2" r="2.4" fill="#2563eb"/>
<circle cx="3705.6" cy="902.5" r="2.4" fill="#2563eb"/>
<circle cx="3797.8" cy="867.6" r="2.4" fill="#2563eb"/>
<circle cx="3890.0" cy="857.4" r="2.4" fill="#2563eb"/>
<polyline points="110.0,1110.0 202.2,1108.7 294.4,1103.4 386.6,1104.5 478.8,1104.1 571.0,1100.1 663.2,1089.6 755.4,1095.1 847.6,1096.4 939.8,1076.3 1032.0,1108.2 1124.1,1108.1 1216.3,1068.4 1308.5,1046.6 1400.7,1086.6 1492.9,1092.8 1585.1,1038.8 1677.3,1051.5 1769.5,1050.1 1861.7,1069.7 1953.9,1076.0 2046.1,1013.9 2138.3,1048.7 2230.5,1053.5 2322.7,1058.9 2414.9,1049.0 2507.1,1043.1 2599.3,1055.1 2691.5,1054.6 2783.7,1043.0 2875.9,1014.9 2968.0,1010.9 3060.2,1024.6 3152.4,1031.2 3244.6,1022.6 3336.8,1024.5 3429.0,1009.0 3521.2,1034.3 3613.4,1022.6 3705.6,1013.1 3797.8,984.0 3890.0,991.6" fill="none" stroke="#dc2626" stroke-width="2.4"/>
<circle cx="110.0" cy="1110.0" r="2.4" fill="#dc2626"/>
<circle cx="202.2" cy="1108.7" r="2.4" fill="#dc2626"/>
<circle cx="294.4" cy="1103.4" r="2.4" fill="#dc2626"/>
<circle cx="386.6" cy="1104.5" r="2.4" fill="#dc2626"/>
<circle cx="478.8" cy="1104.1" r="2.4" fill="#dc2626"/>
<circle cx="571.0" cy="1100.1" r="2.4" fill="#dc2626"/>
<circle cx="663.2" cy="1089.6" r="2.4" fill="#dc2626"/>
<circle cx="755.4" cy="1095.1" r="2.4" fill="#dc2626"/>
<circle cx="847.6" cy="1096.4" r="2.4" fill="#dc2626"/>
<circle cx="939.8" cy="1076.3" r="2.4" fill="#dc2626"/>
<circle cx="1032.0" cy="1108.2" r="2.4" fill="#dc2626"/>
<circle cx="1124.1" cy="1108.1" r="2.4" fill="#dc2626"/>
<circle cx="1216.3" cy="1068.4" r="2.4" fill="#dc2626"/>
<circle cx="1308.5" cy="1046.6" r="2.4" fill="#dc2626"/>
<circle cx="1400.7" cy="1086.6" r="2.4" fill="#dc2626"/>
<circle cx="1492.9" cy="1092.8" r="2.4" fill="#dc2626"/>
<circle cx="1585.1" cy="1038.8" r="2.4" fill="#dc2626"/>
<circle cx="1677.3" cy="1051.5" r="2.4" fill="#dc2626"/>
<circle cx="1769.5" cy="1050.1" r="2.4" fill="#dc2626"/>
<circle cx="1861.7" cy="1069.7" r="2.4" fill="#dc2626"/>
<circle cx="1953.9" cy="1076.0" r="2.4" fill="#dc2626"/>
<circle cx="2046.1" cy="1013.9" r="2.4" fill="#dc2626"/>
<circle cx="2138.3" cy="1048.7" r="2.4" fill="#dc2626"/>
<circle cx="2230.5" cy="1053.5" r="2.4" fill="#dc2626"/>
<circle cx="2322.7" cy="1058.9" r="2.4" fill="#dc2626"/>
<circle cx="2414.9" cy="1049.0" r="2.4" fill="#dc2626"/>
<circle cx="2507.1" cy="1043.1" r="2.4" fill="#dc2626"/>
<circle cx="2599.3" cy="1055.1" r="2.4" fill="#dc2626"/>
<circle cx="2691.5" cy="1054.6" r="2.4" fill="#dc2626"/>
<circle cx="2783.7" cy="1043.0" r="2.4" fill="#dc2626"/>
<circle cx="2875.9" cy="1014.9" r="2.4" fill="#dc2626"/>
<circle cx="2968.0" cy="1010.9" r="2.4" fill="#dc2626"/>
<circle cx="3060.2" cy="1024.6" r="2.4" fill="#dc2626"/>
<circle cx="3152.4" cy="1031.2" r="2.4" fill="#dc2626"/>
<circle cx="3244.6" cy="1022.6" r="2.4" fill="#dc2626"/>
<circle cx="3336.8" cy="1024.5" r="2.4" fill="#dc2626"/>
<circle cx="3429.0" cy="1009.0" r="2.4" fill="#dc2626"/>
<circle cx="3521.2" cy="1034.3" r="2.4" fill="#dc2626"/>
<circle cx="3613.4" cy="1022.6" r="2.4" fill="#dc2626"/>
<circle cx="3705.6" cy="1013.1" r="2.4" fill="#dc2626"/>
<circle cx="3797.8" cy="984.0" r="2.4" fill="#dc2626"/>
<circle cx="3890.0" cy="991.6" r="2.4" fill="#dc2626"/>
<polyline points="110.0,1110.0 202.2,1107.9 294.4,1106.7 386.6,1106.1 478.8,1102.5 571.0,1095.6 663.2,1087.0 755.4,1087.9 847.6,1088.8 939.8,1088.3 1032.0,1104.8 1124.1,1104.9 1216.3,1080.5 1308.5,1078.3 1400.7,1097.0 1492.9,1070.5 1585.1,1072.7 1677.3,1061.0 1769.5,1066.7 1861.7,1088.3 1953.9,1088.6 2046.1,1069.1 2138.3,1089.0 2230.5,1071.4 2322.7,1064.9 2414.9,1086.9 2507.1,1090.9 2599.3,1070.4 2691.5,1060.3 2783.7,1078.3 2875.9,1069.6 2968.0,1062.3 3060.2,1063.2 3152.4,1061.8 3244.6,1065.5 3336.8,1057.1 3429.0,1065.6 3521.2,1063.9 3613.4,1072.0 3705.6,1075.4 3797.8,1063.4 3890.0,1070.2" fill="none" stroke="#16a34a" stroke-width="2.4"/>
<circle cx="110.0" cy="1110.0" r="2.4" fill="#16a34a"/>
<circle cx="202.2" cy="1107.9" r="2.4" fill="#16a34a"/>
<circle cx="294.4" cy="1106.7" r="2.4" fill="#16a34a"/>
<circle cx="386.6" cy="1106.1" r="2.4" fill="#16a34a"/>
<circle cx="478.8" cy="1102.5" r="2.4" fill="#16a34a"/>
<circle cx="571.0" cy="1095.6" r="2.4" fill="#16a34a"/>
<circle cx="663.2" cy="1087.0" r="2.4" fill="#16a34a"/>
<circle cx="755.4" cy="1087.9" r="2.4" fill="#16a34a"/>
<circle cx="847.6" cy="1088.8" r="2.4" fill="#16a34a"/>
<circle cx="939.8" cy="1088.3" r="2.4" fill="#16a34a"/>
<circle cx="1032.0" cy="1104.8" r="2.4" fill="#16a34a"/>
<circle cx="1124.1" cy="1104.9" r="2.4" fill="#16a34a"/>
<circle cx="1216.3" cy="1080.5" r="2.4" fill="#16a34a"/>
<circle cx="1308.5" cy="1078.3" r="2.4" fill="#16a34a"/>
<circle cx="1400.7" cy="1097.0" r="2.4" fill="#16a34a"/>
<circle cx="1492.9" cy="1070.5" r="2.4" fill="#16a34a"/>
<circle cx="1585.1" cy="1072.7" r="2.4" fill="#16a34a"/>
<circle cx="1677.3" cy="1061.0" r="2.4" fill="#16a34a"/>
<circle cx="1769.5" cy="1066.7" r="2.4" fill="#16a34a"/>
<circle cx="1861.7" cy="1088.3" r="2.4" fill="#16a34a"/>
<circle cx="1953.9" cy="1088.6" r="2.4" fill="#16a34a"/>
<circle cx="2046.1" cy="1069.1" r="2.4" fill="#16a34a"/>
<circle cx="2138.3" cy="1089.0" r="2.4" fill="#16a34a"/>
<circle cx="2230.5" cy="1071.4" r="2.4" fill="#16a34a"/>
<circle cx="2322.7" cy="1064.9" r="2.4" fill="#16a34a"/>
<circle cx="2414.9" cy="1086.9" r="2.4" fill="#16a34a"/>
<circle cx="2507.1" cy="1090.9" r="2.4" fill="#16a34a"/>
<circle cx="2599.3" cy="1070.4" r="2.4" fill="#16a34a"/>
<circle cx="2691.5" cy="1060.3" r="2.4" fill="#16a34a"/>
<circle cx="2783.7" cy="1078.3" r="2.4" fill="#16a34a"/>
<circle cx="2875.9" cy="1069.6" r="2.4" fill="#16a34a"/>
<circle cx="2968.0" cy="1062.3" r="2.4" fill="#16a34a"/>
<circle cx="3060.2" cy="1063.2" r="2.4" fill="#16a34a"/>
<circle cx="3152.4" cy="1061.8" r="2.4" fill="#16a34a"/>
<circle cx="3244.6" cy="1065.5" r="2.4" fill="#16a34a"/>
<circle cx="3336.8" cy="1057.1" r="2.4" fill="#16a34a"/>
<circle cx="3429.0" cy="1065.6" r="2.4" fill="#16a34a"/>
<circle cx="3521.2" cy="1063.9" r="2.4" fill="#16a34a"/>
<circle cx="3613.4" cy="1072.0" r="2.4" fill="#16a34a"/>
<circle cx="3705.6" cy="1075.4" r="2.4" fill="#16a34a"/>
<circle cx="3797.8" cy="1063.4" r="2.4" fill="#16a34a"/>
<circle cx="3890.0" cy="1070.2" r="2.4" fill="#16a34a"/>
<text x="110" y="1202" class="panel-title">ZGEMM GF/s</text>
<line x1="110" y1="1480.0" x2="3890" y2="1480.0" class="grid"/>
<text x="100" y="1484.0" text-anchor="end" class="axis-label">0</text>
<line x1="110" y1="1393.3" x2="3890" y2="1393.3" class="grid"/>
<text x="100" y="1397.3" text-anchor="end" class="axis-label">200</text>
<line x1="110" y1="1306.7" x2="3890" y2="1306.7" class="grid"/>
<text x="100" y="1310.7" text-anchor="end" class="axis-label">400</text>
<line x1="110" y1="1220.0" x2="3890" y2="1220.0" class="grid"/>
<text x="100" y="1224.0" text-anchor="end" class="axis-label">600</text>
<line x1="110" y1="1220" x2="110" y2="1480" class="axis"/>
<line x1="110" y1="1480" x2="3890" y2="1480" class="axis"/>
<polyline points="110.0,1476.5 202.2,1474.7 294.4,1460.9 386.6,1458.3 478.8,1465.4 571.0,1454.0 663.2,1413.1 755.4,1457.9 847.6,1440.5 939.8,1391.7 1032.0,1447.9 1124.1,1449.7 1216.3,1388.7 1308.5,1356.0 1400.7,1453.4 1492.9,1430.4 1585.1,1322.3 1677.3,1321.2 1769.5,1322.2 1861.7,1409.1 1953.9,1375.0 2046.1,1278.5 2138.3,1376.6 2230.5,1354.2 2322.7,1339.0 2414.9,1364.8 2507.1,1377.7 2599.3,1350.4 2691.5,1357.1 2783.7,1351.4 2875.9,1264.7 2968.0,1271.9 3060.2,1258.2 3152.4,1259.7 3244.6,1266.9 3336.8,1279.0 3429.0,1248.9 3521.2,1274.3 3613.4,1278.4 3705.6,1242.6 3797.8,1233.5 3890.0,1240.6" fill="none" stroke="#2563eb" stroke-width="2.4"/>
<circle cx="110.0" cy="1476.5" r="2.4" fill="#2563eb"/>
<circle cx="202.2" cy="1474.7" r="2.4" fill="#2563eb"/>
<circle cx="294.4" cy="1460.9" r="2.4" fill="#2563eb"/>
<circle cx="386.6" cy="1458.3" r="2.4" fill="#2563eb"/>
<circle cx="478.8" cy="1465.4" r="2.4" fill="#2563eb"/>
<circle cx="571.0" cy="1454.0" r="2.4" fill="#2563eb"/>
<circle cx="663.2" cy="1413.1" r="2.4" fill="#2563eb"/>
<circle cx="755.4" cy="1457.9" r="2.4" fill="#2563eb"/>
<circle cx="847.6" cy="1440.5" r="2.4" fill="#2563eb"/>
<circle cx="939.8" cy="1391.7" r="2.4" fill="#2563eb"/>
<circle cx="1032.0" cy="1447.9" r="2.4" fill="#2563eb"/>
<circle cx="1124.1" cy="1449.7" r="2.4" fill="#2563eb"/>
<circle cx="1216.3" cy="1388.7" r="2.4" fill="#2563eb"/>
<circle cx="1308.5" cy="1356.0" r="2.4" fill="#2563eb"/>
<circle cx="1400.7" cy="1453.4" r="2.4" fill="#2563eb"/>
<circle cx="1492.9" cy="1430.4" r="2.4" fill="#2563eb"/>
<circle cx="1585.1" cy="1322.3" r="2.4" fill="#2563eb"/>
<circle cx="1677.3" cy="1321.2" r="2.4" fill="#2563eb"/>
<circle cx="1769.5" cy="1322.2" r="2.4" fill="#2563eb"/>
<circle cx="1861.7" cy="1409.1" r="2.4" fill="#2563eb"/>
<circle cx="1953.9" cy="1375.0" r="2.4" fill="#2563eb"/>
<circle cx="2046.1" cy="1278.5" r="2.4" fill="#2563eb"/>
<circle cx="2138.3" cy="1376.6" r="2.4" fill="#2563eb"/>
<circle cx="2230.5" cy="1354.2" r="2.4" fill="#2563eb"/>
<circle cx="2322.7" cy="1339.0" r="2.4" fill="#2563eb"/>
<circle cx="2414.9" cy="1364.8" r="2.4" fill="#2563eb"/>
<circle cx="2507.1" cy="1377.7" r="2.4" fill="#2563eb"/>
<circle cx="2599.3" cy="1350.4" r="2.4" fill="#2563eb"/>
<circle cx="2691.5" cy="1357.1" r="2.4" fill="#2563eb"/>
<circle cx="2783.7" cy="1351.4" r="2.4" fill="#2563eb"/>
<circle cx="2875.9" cy="1264.7" r="2.4" fill="#2563eb"/>
<circle cx="2968.0" cy="1271.9" r="2.4" fill="#2563eb"/>
<circle cx="3060.2" cy="1258.2" r="2.4" fill="#2563eb"/>
<circle cx="3152.4" cy="1259.7" r="2.4" fill="#2563eb"/>
<circle cx="3244.6" cy="1266.9" r="2.4" fill="#2563eb"/>
<circle cx="3336.8" cy="1279.0" r="2.4" fill="#2563eb"/>
<circle cx="3429.0" cy="1248.9" r="2.4" fill="#2563eb"/>
<circle cx="3521.2" cy="1274.3" r="2.4" fill="#2563eb"/>
<circle cx="3613.4" cy="1278.4" r="2.4" fill="#2563eb"/>
<circle cx="3705.6" cy="1242.6" r="2.4" fill="#2563eb"/>
<circle cx="3797.8" cy="1233.5" r="2.4" fill="#2563eb"/>
<circle cx="3890.0" cy="1240.6" r="2.4" fill="#2563eb"/>
<polyline points="110.0,1480.0 202.2,1476.5 294.4,1465.0 386.6,1465.7 478.8,1467.8 571.0,1463.0 663.2,1446.9 755.4,1455.0 847.6,1454.7 939.8,1429.7 1032.0,1478.4 1124.1,1478.3 1216.3,1415.0 1308.5,1402.7 1400.7,1457.4 1492.9,1458.8 1585.1,1399.8 1677.3,1398.1 1769.5,1397.9 1861.7,1458.4 1953.9,1446.2 2046.1,1381.4 2138.3,1437.1 2230.5,1426.5 2322.7,1417.8 2414.9,1441.9 2507.1,1433.3 2599.3,1426.4 2691.5,1429.1 2783.7,1424.1 2875.9,1387.4 2968.0,1390.2 3060.2,1381.4 3152.4,1388.9 3244.6,1392.2 3336.8,1394.4 3429.0,1380.4 3521.2,1410.9 3613.4,1402.6 3705.6,1373.2 3797.8,1378.7 3890.0,1367.4" fill="none" stroke="#dc2626" stroke-width="2.4"/>
<circle cx="110.0" cy="1480.0" r="2.4" fill="#dc2626"/>
<circle cx="202.2" cy="1476.5" r="2.4" fill="#dc2626"/>
<circle cx="294.4" cy="1465.0" r="2.4" fill="#dc2626"/>
<circle cx="386.6" cy="1465.7" r="2.4" fill="#dc2626"/>
<circle cx="478.8" cy="1467.8" r="2.4" fill="#dc2626"/>
<circle cx="571.0" cy="1463.0" r="2.4" fill="#dc2626"/>
<circle cx="663.2" cy="1446.9" r="2.4" fill="#dc2626"/>
<circle cx="755.4" cy="1455.0" r="2.4" fill="#dc2626"/>
<circle cx="847.6" cy="1454.7" r="2.4" fill="#dc2626"/>
<circle cx="939.8" cy="1429.7" r="2.4" fill="#dc2626"/>
<circle cx="1032.0" cy="1478.4" r="2.4" fill="#dc2626"/>
<circle cx="1124.1" cy="1478.3" r="2.4" fill="#dc2626"/>
<circle cx="1216.3" cy="1415.0" r="2.4" fill="#dc2626"/>
<circle cx="1308.5" cy="1402.7" r="2.4" fill="#dc2626"/>
<circle cx="1400.7" cy="1457.4" r="2.4" fill="#dc2626"/>
<circle cx="1492.9" cy="1458.8" r="2.4" fill="#dc2626"/>
<circle cx="1585.1" cy="1399.8" r="2.4" fill="#dc2626"/>
<circle cx="1677.3" cy="1398.1" r="2.4" fill="#dc2626"/>
<circle cx="1769.5" cy="1397.9" r="2.4" fill="#dc2626"/>
<circle cx="1861.7" cy="1458.4" r="2.4" fill="#dc2626"/>
<circle cx="1953.9" cy="1446.2" r="2.4" fill="#dc2626"/>
<circle cx="2046.1" cy="1381.4" r="2.4" fill="#dc2626"/>
<circle cx="2138.3" cy="1437.1" r="2.4" fill="#dc2626"/>
<circle cx="2230.5" cy="1426.5" r="2.4" fill="#dc2626"/>
<circle cx="2322.7" cy="1417.8" r="2.4" fill="#dc2626"/>
<circle cx="2414.9" cy="1441.9" r="2.4" fill="#dc2626"/>
<circle cx="2507.1" cy="1433.3" r="2.4" fill="#dc2626"/>
<circle cx="2599.3" cy="1426.4" r="2.4" fill="#dc2626"/>
<circle cx="2691.5" cy="1429.1" r="2.4" fill="#dc2626"/>
<circle cx="2783.7" cy="1424.1" r="2.4" fill="#dc2626"/>
<circle cx="2875.9" cy="1387.4" r="2.4" fill="#dc2626"/>
<circle cx="2968.0" cy="1390.2" r="2.4" fill="#dc2626"/>
<circle cx="3060.2" cy="1381.4" r="2.4" fill="#dc2626"/>
<circle cx="3152.4" cy="1388.9" r="2.4" fill="#dc2626"/>
<circle cx="3244.6" cy="1392.2" r="2.4" fill="#dc2626"/>
<circle cx="3336.8" cy="1394.4" r="2.4" fill="#dc2626"/>
<circle cx="3429.0" cy="1380.4" r="2.4" fill="#dc2626"/>
<circle cx="3521.2" cy="1410.9" r="2.4" fill="#dc2626"/>
<circle cx="3613.4" cy="1402.6" r="2.4" fill="#dc2626"/>
<circle cx="3705.6" cy="1373.2" r="2.4" fill="#dc2626"/>
<circle cx="3797.8" cy="1378.7" r="2.4" fill="#dc2626"/>
<circle cx="3890.0" cy="1367.4" r="2.4" fill="#dc2626"/>
<polyline points="110.0,1480.0 202.2,1475.3 294.4,1473.4 386.6,1472.4 478.8,1466.3 571.0,1456.2 663.2,1454.3 755.4,1472.0 847.6,1468.8 939.8,1431.3 1032.0,1475.7 1124.1,1472.8 1216.3,1422.3 1308.5,1415.4 1400.7,1444.8 1492.9,1412.4 1585.1,1409.4 1677.3,1412.6 1769.5,1419.4 1861.7,1426.6 1953.9,1400.1 2046.1,1406.9 2138.3,1443.4 2230.5,1401.2 2322.7,1404.7 2414.9,1439.8 2507.1,1434.1 2599.3,1399.3 2691.5,1402.9 2783.7,1438.8 2875.9,1405.1 2968.0,1406.1 3060.2,1414.3 3152.4,1415.7 3244.6,1424.3 3336.8,1415.8 3429.0,1408.0 3521.2,1416.5 3613.4,1451.5 3705.6,1415.2 3797.8,1415.4 3890.0,1424.4" fill="none" stroke="#16a34a" stroke-width="2.4"/>
<circle cx="110.0" cy="1480.0" r="2.4" fill="#16a34a"/>
<circle cx="202.2" cy="1475.3" r="2.4" fill="#16a34a"/>
<circle cx="294.4" cy="1473.4" r="2.4" fill="#16a34a"/>
<circle cx="386.6" cy="1472.4" r="2.4" fill="#16a34a"/>
<circle cx="478.8" cy="1466.3" r="2.4" fill="#16a34a"/>
<circle cx="571.0" cy="1456.2" r="2.4" fill="#16a34a"/>
<circle cx="663.2" cy="1454.3" r="2.4" fill="#16a34a"/>
<circle cx="755.4" cy="1472.0" r="2.4" fill="#16a34a"/>
<circle cx="847.6" cy="1468.8" r="2.4" fill="#16a34a"/>
<circle cx="939.8" cy="1431.3" r="2.4" fill="#16a34a"/>
<circle cx="1032.0" cy="1475.7" r="2.4" fill="#16a34a"/>
<circle cx="1124.1" cy="1472.8" r="2.4" fill="#16a34a"/>
<circle cx="1216.3" cy="1422.3" r="2.4" fill="#16a34a"/>
<circle cx="1308.5" cy="1415.4" r="2.4" fill="#16a34a"/>
<circle cx="1400.7" cy="1444.8" r="2.4" fill="#16a34a"/>
<circle cx="1492.9" cy="1412.4" r="2.4" fill="#16a34a"/>
<circle cx="1585.1" cy="1409.4" r="2.4" fill="#16a34a"/>
<circle cx="1677.3" cy="1412.6" r="2.4" fill="#16a34a"/>
<circle cx="1769.5" cy="1419.4" r="2.4" fill="#16a34a"/>
<circle cx="1861.7" cy="1426.6" r="2.4" fill="#16a34a"/>
<circle cx="1953.9" cy="1400.1" r="2.4" fill="#16a34a"/>
<circle cx="2046.1" cy="1406.9" r="2.4" fill="#16a34a"/>
<circle cx="2138.3" cy="1443.4" r="2.4" fill="#16a34a"/>
<circle cx="2230.5" cy="1401.2" r="2.4" fill="#16a34a"/>
<circle cx="2322.7" cy="1404.7" r="2.4" fill="#16a34a"/>
<circle cx="2414.9" cy="1439.8" r="2.4" fill="#16a34a"/>
<circle cx="2507.1" cy="1434.1" r="2.4" fill="#16a34a"/>
<circle cx="2599.3" cy="1399.3" r="2.4" fill="#16a34a"/>
<circle cx="2691.5" cy="1402.9" r="2.4" fill="#16a34a"/>
<circle cx="2783.7" cy="1438.8" r="2.4" fill="#16a34a"/>
<circle cx="2875.9" cy="1405.1" r="2.4" fill="#16a34a"/>
<circle cx="2968.0" cy="1406.1" r="2.4" fill="#16a34a"/>
<circle cx="3060.2" cy="1414.3" r="2.4" fill="#16a34a"/>
<circle cx="3152.4" cy="1415.7" r="2.4" fill="#16a34a"/>
<circle cx="3244.6" cy="1424.3" r="2.4" fill="#16a34a"/>
<circle cx="3336.8" cy="1415.8" r="2.4" fill="#16a34a"/>
<circle cx="3429.0" cy="1408.0" r="2.4" fill="#16a34a"/>
<circle cx="3521.2" cy="1416.5" r="2.4" fill="#16a34a"/>
<circle cx="3613.4" cy="1451.5" r="2.4" fill="#16a34a"/>
<circle cx="3705.6" cy="1415.2" r="2.4" fill="#16a34a"/>
<circle cx="3797.8" cy="1415.4" r="2.4" fill="#16a34a"/>
<circle cx="3890.0" cy="1424.4" r="2.4" fill="#16a34a"/>
<g transform="translate(110.0,1498) rotate(58)">
<text class="shape-label">m1_n1_k1</text>
<text y="12" class="shape-label">1x1x1</text>
</g>
<g transform="translate(202.2,1498) rotate(58)">
<text class="shape-label">m8_n8_k8</text>
<text y="12" class="shape-label">8x8x8</text>
</g>
<g transform="translate(294.4,1498) rotate(58)">
<text class="shape-label">m31_n31_k31</text>
<text y="12" class="shape-label">31x31x31</text>
</g>
<g transform="translate(386.6,1498) rotate(58)">
<text class="shape-label">m33_n33_k33</text>
<text y="12" class="shape-label">33x33x33</text>
</g>
<g transform="translate(478.8,1498) rotate(58)">
<text class="shape-label">m63_n65_k17</text>
<text y="12" class="shape-label">63x65x17</text>
</g>
<g transform="translate(571.0,1498) rotate(58)">
<text class="shape-label">m65_n63_k33</text>
<text y="12" class="shape-label">65x63x33</text>
</g>
<g transform="translate(663.2,1498) rotate(58)">
<text class="shape-label">sq64</text>
<text y="12" class="shape-label">64x64x64</text>
</g>
<g transform="translate(755.4,1498) rotate(58)">
<text class="shape-label">m127_n129_k31</text>
<text y="12" class="shape-label">127x129x31</text>
</g>
<g transform="translate(847.6,1498) rotate(58)">
<text class="shape-label">m129_n127_k33</text>
<text y="12" class="shape-label">129x127x33</text>
</g>
<g transform="translate(939.8,1498) rotate(58)">
<text class="shape-label">sq96</text>
<text y="12" class="shape-label">96x96x96</text>
</g>
<g transform="translate(1032.0,1498) rotate(58)">
<text class="shape-label">m1_n4096_k256</text>
<text y="12" class="shape-label">1x4096x256</text>
</g>
<g transform="translate(1124.1,1498) rotate(58)">
<text class="shape-label">m4096_n1_k256</text>
<text y="12" class="shape-label">4096x1x256</text>
</g>
<g transform="translate(1216.3,1498) rotate(58)">
<text class="shape-label">sq128</text>
<text y="12" class="shape-label">128x128x128</text>
</g>
<g transform="translate(1308.5,1498) rotate(58)">
<text class="shape-label">sq192</text>
<text y="12" class="shape-label">192x192x192</text>
</g>
<g transform="translate(1400.7,1498) rotate(58)">
<text class="shape-label">m2048_n17_k257</text>
<text y="12" class="shape-label">2048x17x257</text>
</g>
<g transform="translate(1492.9,1498) rotate(58)">
<text class="shape-label">m17_n2048_k257</text>
<text y="12" class="shape-label">17x2048x257</text>
</g>
<g transform="translate(1585.1,1498) rotate(58)">
<text class="shape-label">sq256</text>
<text y="12" class="shape-label">256x256x256</text>
</g>
<g transform="translate(1677.3,1498) rotate(58)">
<text class="shape-label">m384_n640_k96</text>
<text y="12" class="shape-label">384x640x96</text>
</g>
<g transform="translate(1769.5,1498) rotate(58)">
<text class="shape-label">m640_n384_k96</text>
<text y="12" class="shape-label">640x384x96</text>
</g>
<g transform="translate(1861.7,1498) rotate(58)">
<text class="shape-label">m4096_n32_k256</text>
<text y="12" class="shape-label">4096x32x256</text>
</g>
<g transform="translate(1953.9,1498) rotate(58)">
<text class="shape-label">m32_n4096_k256</text>
<text y="12" class="shape-label">32x4096x256</text>
</g>
<g transform="translate(2046.1,1498) rotate(58)">
<text class="shape-label">sq384</text>
<text y="12" class="shape-label">384x384x384</text>
</g>
<g transform="translate(2138.3,1498) rotate(58)">
<text class="shape-label">m1024_n64_k1024</text>
<text y="12" class="shape-label">1024x64x1024</text>
</g>
<g transform="translate(2230.5,1498) rotate(58)">
<text class="shape-label">m64_n1024_k1024</text>
<text y="12" class="shape-label">64x1024x1024</text>
</g>
<g transform="translate(2322.7,1498) rotate(58)">
<text class="shape-label">m1024_n1024_k64</text>
<text y="12" class="shape-label">1024x1024x64</text>
</g>
<g transform="translate(2414.9,1498) rotate(58)">
<text class="shape-label">m2048_n64_k512</text>
<text y="12" class="shape-label">2048x64x512</text>
</g>
<g transform="translate(2507.1,1498) rotate(58)">
<text class="shape-label">m512_n64_k2048</text>
<text y="12" class="shape-label">512x64x2048</text>
</g>
<g transform="translate(2599.3,1498) rotate(58)">
<text class="shape-label">m64_n2048_k512</text>
<text y="12" class="shape-label">64x2048x512</text>
</g>
<g transform="translate(2691.5,1498) rotate(58)">
<text class="shape-label">m64_n512_k2048</text>
<text y="12" class="shape-label">64x512x2048</text>
</g>
<g transform="translate(2783.7,1498) rotate(58)">
<text class="shape-label">m128_n128_k4096</text>
<text y="12" class="shape-label">128x128x4096</text>
</g>
<g transform="translate(2875.9,1498) rotate(58)">
<text class="shape-label">m512_n256_k768</text>
<text y="12" class="shape-label">512x256x768</text>
</g>
<g transform="translate(2968.0,1498) rotate(58)">
<text class="shape-label">m256_n512_k768</text>
<text y="12" class="shape-label">256x512x768</text>
</g>
<g transform="translate(3060.2,1498) rotate(58)">
<text class="shape-label">m768_n512_k256</text>
<text y="12" class="shape-label">768x512x256</text>
</g>
<g transform="translate(3152.4,1498) rotate(58)">
<text class="shape-label">m512_n768_k256</text>
<text y="12" class="shape-label">512x768x256</text>
</g>
<g transform="translate(3244.6,1498) rotate(58)">
<text class="shape-label">m1536_n256_k256</text>
<text y="12" class="shape-label">1536x256x256</text>
</g>
<g transform="translate(3336.8,1498) rotate(58)">
<text class="shape-label">m256_n1536_k256</text>
<text y="12" class="shape-label">256x1536x256</text>
</g>
<g transform="translate(3429.0,1498) rotate(58)">
<text class="shape-label">sq512</text>
<text y="12" class="shape-label">512x512x512</text>
</g>
<g transform="translate(3521.2,1498) rotate(58)">
<text class="shape-label">m1024_n1024_k128</text>
<text y="12" class="shape-label">1024x1024x128</text>
</g>
<g transform="translate(3613.4,1498) rotate(58)">
<text class="shape-label">m256_n256_k2048</text>
<text y="12" class="shape-label">256x256x2048</text>
</g>
<g transform="translate(3705.6,1498) rotate(58)">
<text class="shape-label">m1024_n1024_k256</text>
<text y="12" class="shape-label">1024x1024x256</text>
</g>
<g transform="translate(3797.8,1498) rotate(58)">
<text class="shape-label">sq768</text>
<text y="12" class="shape-label">768x768x768</text>
</g>
<g transform="translate(3890.0,1498) rotate(58)">
<text class="shape-label">sq1024</text>
<text y="12" class="shape-label">1024x1024x1024</text>
</g>
</svg>