<svg xmlns="http://www.w3.org/2000/svg" width="3950" height="1640" viewBox="0 0 3950 1640">

<style>
  text { font-family: -apple-system, BlinkMacSystemFont, "Segoe UI", sans-serif; fill: #111827; }
  .title { font-size: 24px; font-weight: 700; }
  .subtitle { font-size: 13px; fill: #4b5563; }
  .panel-title { font-size: 16px; font-weight: 700; }
  .axis-label { font-size: 11px; fill: #4b5563; }
  .shape-label { font-size: 10px; fill: #374151; }
  .axis { stroke: #111827; stroke-width: 1; }
  .grid { stroke: #e5e7eb; stroke-width: 1; }
  .legend { font-size: 13px; }
</style>

<rect x="0" y="0" width="100%" height="100%" fill="#ffffff"/>
<text x="40" y="42" class="title">SGEMM/DGEMM/CGEMM/ZGEMM Performance Sweep: Zynum vs Accelerate vs OpenBLAS</text>
<text x="40" y="66" class="subtitle">Higher is better. Best-of-reps GF/s across square, remainder, skinny, wide, and K-varied column-major GEMM shapes</text>
<line x1="1180" y1="38" x2="1212" y2="38" stroke="#2563eb" stroke-width="3"/>
<text x="1220" y="42" class="legend">Zynum</text>
<line x1="1325" y1="38" x2="1357" y2="38" stroke="#dc2626" stroke-width="3"/>
<text x="1365" y="42" class="legend">Accelerate</text>
<line x1="1470" y1="38" x2="1502" y2="38" stroke="#16a34a" stroke-width="3"/>
<text x="1510" y="42" class="legend">OpenBLAS</text>
<text x="110" y="92" class="panel-title">SGEMM GF/s</text>
<line x1="110" y1="370.0" x2="3890" y2="370.0" class="grid"/>
<text x="100" y="374.0" text-anchor="end" class="axis-label">0</text>
<line x1="110" y1="305.0" x2="3890" y2="305.0" class="grid"/>
<text x="100" y="309.0" text-anchor="end" class="axis-label">500</text>
<line x1="110" y1="240.0" x2="3890" y2="240.0" class="grid"/>
<text x="100" y="244.0" text-anchor="end" class="axis-label">1000</text>
<line x1="110" y1="175.0" x2="3890" y2="175.0" class="grid"/>
<text x="100" y="179.0" text-anchor="end" class="axis-label">1500</text>
<line x1="110" y1="110.0" x2="3890" y2="110.0" class="grid"/>
<text x="100" y="114.0" text-anchor="end" class="axis-label">2000</text>
<line x1="110" y1="110" x2="110" y2="370" class="axis"/>
<line x1="110" y1="370" x2="3890" y2="370" class="axis"/>
<polyline points="110.0,370.0 202.2,366.8 294.4,366.9 386.6,362.3 478.8,320.4 571.0,293.3 663.2,272.3 755.4,247.0 847.6,224.8 939.8,182.4 1032.0,150.4 1124.1,113.9 1216.3,116.3 1308.5,359.1 1400.7,355.5 1492.9,358.0 1585.1,346.9 1677.3,342.5 1769.5,313.6 1861.7,157.4 1953.9,147.1 2046.1,186.2 2138.3,206.7 2230.5,173.7 2322.7,210.8 2414.9,226.8 2507.1,265.0 2599.3,356.3 2691.5,226.0 2783.7,196.8 2875.9,154.9 2968.0,114.3 3060.2,155.1 3152.4,203.6 3244.6,148.8 3336.8,161.6 3429.0,147.9 3521.2,161.5 3613.4,134.7 3705.6,159.3 3797.8,212.5 3890.0,205.1" fill="none" stroke="#2563eb" stroke-width="2.4"/>
<circle cx="110.0" cy="370.0" r="2.4" fill="#2563eb"/>
<circle cx="202.2" cy="366.8" r="2.4" fill="#2563eb"/>
<circle cx="294.4" cy="366.9" r="2.4" fill="#2563eb"/>
<circle cx="386.6" cy="362.3" r="2.4" fill="#2563eb"/>
<circle cx="478.8" cy="320.4" r="2.4" fill="#2563eb"/>
<circle cx="571.0" cy="293.3" r="2.4" fill="#2563eb"/>
<circle cx="663.2" cy="272.3" r="2.4" fill="#2563eb"/>
<circle cx="755.4" cy="247.0" r="2.4" fill="#2563eb"/>
<circle cx="847.6" cy="224.8" r="2.4" fill="#2563eb"/>
<circle cx="939.8" cy="182.4" r="2.4" fill="#2563eb"/>
<circle cx="1032.0" cy="150.4" r="2.4" fill="#2563eb"/>
<circle cx="1124.1" cy="113.9" r="2.4" fill="#2563eb"/>
<circle cx="1216.3" cy="116.3" r="2.4" fill="#2563eb"/>
<circle cx="1308.5" cy="359.1" r="2.4" fill="#2563eb"/>
<circle cx="1400.7" cy="355.5" r="2.4" fill="#2563eb"/>
<circle cx="1492.9" cy="358.0" r="2.4" fill="#2563eb"/>
<circle cx="1585.1" cy="346.9" r="2.4" fill="#2563eb"/>
<circle cx="1677.3" cy="342.5" r="2.4" fill="#2563eb"/>
<circle cx="1769.5" cy="313.6" r="2.4" fill="#2563eb"/>
<circle cx="1861.7" cy="157.4" r="2.4" fill="#2563eb"/>
<circle cx="1953.9" cy="147.1" r="2.4" fill="#2563eb"/>
<circle cx="2046.1" cy="186.2" r="2.4" fill="#2563eb"/>
<circle cx="2138.3" cy="206.7" r="2.4" fill="#2563eb"/>
<circle cx="2230.5" cy="173.7" r="2.4" fill="#2563eb"/>
<circle cx="2322.7" cy="210.8" r="2.4" fill="#2563eb"/>
<circle cx="2414.9" cy="226.8" r="2.4" fill="#2563eb"/>
<circle cx="2507.1" cy="265.0" r="2.4" fill="#2563eb"/>
<circle cx="2599.3" cy="356.3" r="2.4" fill="#2563eb"/>
<circle cx="2691.5" cy="226.0" r="2.4" fill="#2563eb"/>
<circle cx="2783.7" cy="196.8" r="2.4" fill="#2563eb"/>
<circle cx="2875.9" cy="154.9" r="2.4" fill="#2563eb"/>
<circle cx="2968.0" cy="114.3" r="2.4" fill="#2563eb"/>
<circle cx="3060.2" cy="155.1" r="2.4" fill="#2563eb"/>
<circle cx="3152.4" cy="203.6" r="2.4" fill="#2563eb"/>
<circle cx="3244.6" cy="148.8" r="2.4" fill="#2563eb"/>
<circle cx="3336.8" cy="161.6" r="2.4" fill="#2563eb"/>
<circle cx="3429.0" cy="147.9" r="2.4" fill="#2563eb"/>
<circle cx="3521.2" cy="161.5" r="2.4" fill="#2563eb"/>
<circle cx="3613.4" cy="134.7" r="2.4" fill="#2563eb"/>
<circle cx="3705.6" cy="159.3" r="2.4" fill="#2563eb"/>
<circle cx="3797.8" cy="212.5" r="2.4" fill="#2563eb"/>
<circle cx="3890.0" cy="205.1" r="2.4" fill="#2563eb"/>
<polyline points="110.0,370.0 202.2,368.4 294.4,361.1 386.6,362.3 478.8,318.9 571.0,285.1 663.2,287.7 755.4,242.0 847.6,257.6 939.8,236.3 1032.0,245.2 1124.1,219.0 1216.3,208.0 1308.5,356.0 1400.7,348.4 1492.9,336.6 1585.1,341.9 1677.3,352.4 1769.5,339.0 1861.7,235.2 1953.9,233.4 2046.1,238.0 2138.3,301.9 2230.5,236.1 2322.7,279.7 2414.9,268.9 2507.1,288.7 2599.3,332.5 2691.5,268.8 2783.7,270.0 2875.9,256.1 2968.0,226.4 3060.2,235.3 3152.4,241.8 3244.6,228.8 3336.8,228.3 3429.0,221.3 3521.2,218.6 3613.4,217.7 3705.6,235.9 3797.8,253.3 3890.0,251.6" fill="none" stroke="#dc2626" stroke-width="2.4"/>
<circle cx="110.0" cy="370.0" r="2.4" fill="#dc2626"/>
<circle cx="202.2" cy="368.4" r="2.4" fill="#dc2626"/>
<circle cx="294.4" cy="361.1" r="2.4" fill="#dc2626"/>
<circle cx="386.6" cy="362.3" r="2.4" fill="#dc2626"/>
<circle cx="478.8" cy="318.9" r="2.4" fill="#dc2626"/>
<circle cx="571.0" cy="285.1" r="2.4" fill="#dc2626"/>
<circle cx="663.2" cy="287.7" r="2.4" fill="#dc2626"/>
<circle cx="755.4" cy="242.0" r="2.4" fill="#dc2626"/>
<circle cx="847.6" cy="257.6" r="2.4" fill="#dc2626"/>
<circle cx="939.8" cy="236.3" r="2.4" fill="#dc2626"/>
<circle cx="1032.0" cy="245.2" r="2.4" fill="#dc2626"/>
<circle cx="1124.1" cy="219.0" r="2.4" fill="#dc2626"/>
<circle cx="1216.3" cy="208.0" r="2.4" fill="#dc2626"/>
<circle cx="1308.5" cy="356.0" r="2.4" fill="#dc2626"/>
<circle cx="1400.7" cy="348.4" r="2.4" fill="#dc2626"/>
<circle cx="1492.9" cy="336.6" r="2.4" fill="#dc2626"/>
<circle cx="1585.1" cy="341.9" r="2.4" fill="#dc2626"/>
<circle cx="1677.3" cy="352.4" r="2.4" fill="#dc2626"/>
<circle cx="1769.5" cy="339.0" r="2.4" fill="#dc2626"/>
<circle cx="1861.7" cy="235.2" r="2.4" fill="#dc2626"/>
<circle cx="1953.9" cy="233.4" r="2.4" fill="#dc2626"/>
<circle cx="2046.1" cy="238.0" r="2.4" fill="#dc2626"/>
<circle cx="2138.3" cy="301.9" r="2.4" fill="#dc2626"/>
<circle cx="2230.5" cy="236.1" r="2.4" fill="#dc2626"/>
<circle cx="2322.7" cy="279.7" r="2.4" fill="#dc2626"/>
<circle cx="2414.9" cy="268.9" r="2.4" fill="#dc2626"/>
<circle cx="2507.1" cy="288.7" r="2.4" fill="#dc2626"/>
<circle cx="2599.3" cy="332.5" r="2.4" fill="#dc2626"/>
<circle cx="2691.5" cy="268.8" r="2.4" fill="#dc2626"/>
<circle cx="2783.7" cy="270.0" r="2.4" fill="#dc2626"/>
<circle cx="2875.9" cy="256.1" r="2.4" fill="#dc2626"/>
<circle cx="2968.0" cy="226.4" r="2.4" fill="#dc2626"/>
<circle cx="3060.2" cy="235.3" r="2.4" fill="#dc2626"/>
<circle cx="3152.4" cy="241.8" r="2.4" fill="#dc2626"/>
<circle cx="3244.6" cy="228.8" r="2.4" fill="#dc2626"/>
<circle cx="3336.8" cy="228.3" r="2.4" fill="#dc2626"/>
<circle cx="3429.0" cy="221.3" r="2.4" fill="#dc2626"/>
<circle cx="3521.2" cy="218.6" r="2.4" fill="#dc2626"/>
<circle cx="3613.4" cy="217.7" r="2.4" fill="#dc2626"/>
<circle cx="3705.6" cy="235.9" r="2.4" fill="#dc2626"/>
<circle cx="3797.8" cy="253.3" r="2.4" fill="#dc2626"/>
<circle cx="3890.0" cy="251.6" r="2.4" fill="#dc2626"/>
<polyline points="110.0,370.0 202.2,368.4 294.4,364.7 386.6,362.3 478.8,366.1 571.0,343.3 663.2,344.2 755.4,332.3 847.6,320.9 939.8,318.0 1032.0,315.7 1124.1,309.2 1216.3,310.0 1308.5,365.7 1400.7,364.1 1492.9,364.2 1585.1,359.0 1677.3,356.0 1769.5,365.0 1861.7,338.0 1953.9,334.3 2046.1,337.6 2138.3,351.0 2230.5,340.4 2322.7,311.5 2414.9,306.6 2507.1,307.1 2599.3,329.1 2691.5,314.7 2783.7,315.3 2875.9,312.0 2968.0,312.2 3060.2,325.6 3152.4,363.5 3244.6,322.1 3336.8,306.2 3429.0,321.9 3521.2,308.5 3613.4,315.0 3705.6,307.9 3797.8,306.4 3890.0,318.6" fill="none" stroke="#16a34a" stroke-width="2.4"/>
<circle cx="110.0" cy="370.0" r="2.4" fill="#16a34a"/>
<circle cx="202.2" cy="368.4" r="2.4" fill="#16a34a"/>
<circle cx="294.4" cy="364.7" r="2.4" fill="#16a34a"/>
<circle cx="386.6" cy="362.3" r="2.4" fill="#16a34a"/>
<circle cx="478.8" cy="366.1" r="2.4" fill="#16a34a"/>
<circle cx="571.0" cy="343.3" r="2.4" fill="#16a34a"/>
<circle cx="663.2" cy="344.2" r="2.4" fill="#16a34a"/>
<circle cx="755.4" cy="332.3" r="2.4" fill="#16a34a"/>
<circle cx="847.6" cy="320.9" r="2.4" fill="#16a34a"/>
<circle cx="939.8" cy="318.0" r="2.4" fill="#16a34a"/>
<circle cx="1032.0" cy="315.7" r="2.4" fill="#16a34a"/>
<circle cx="1124.1" cy="309.2" r="2.4" fill="#16a34a"/>
<circle cx="1216.3" cy="310.0" r="2.4" fill="#16a34a"/>
<circle cx="1308.5" cy="365.7" r="2.4" fill="#16a34a"/>
<circle cx="1400.7" cy="364.1" r="2.4" fill="#16a34a"/>
<circle cx="1492.9" cy="364.2" r="2.4" fill="#16a34a"/>
<circle cx="1585.1" cy="359.0" r="2.4" fill="#16a34a"/>
<circle cx="1677.3" cy="356.0" r="2.4" fill="#16a34a"/>
<circle cx="1769.5" cy="365.0" r="2.4" fill="#16a34a"/>
<circle cx="1861.7" cy="338.0" r="2.4" fill="#16a34a"/>
<circle cx="1953.9" cy="334.3" r="2.4" fill="#16a34a"/>
<circle cx="2046.1" cy="337.6" r="2.4" fill="#16a34a"/>
<circle cx="2138.3" cy="351.0" r="2.4" fill="#16a34a"/>
<circle cx="2230.5" cy="340.4" r="2.4" fill="#16a34a"/>
<circle cx="2322.7" cy="311.5" r="2.4" fill="#16a34a"/>
<circle cx="2414.9" cy="306.6" r="2.4" fill="#16a34a"/>
<circle cx="2507.1" cy="307.1" r="2.4" fill="#16a34a"/>
<circle cx="2599.3" cy="329.1" r="2.4" fill="#16a34a"/>
<circle cx="2691.5" cy="314.7" r="2.4" fill="#16a34a"/>
<circle cx="2783.7" cy="315.3" r="2.4" fill="#16a34a"/>
<circle cx="2875.9" cy="312.0" r="2.4" fill="#16a34a"/>
<circle cx="2968.0" cy="312.2" r="2.4" fill="#16a34a"/>
<circle cx="3060.2" cy="325.6" r="2.4" fill="#16a34a"/>
<circle cx="3152.4" cy="363.5" r="2.4" fill="#16a34a"/>
<circle cx="3244.6" cy="322.1" r="2.4" fill="#16a34a"/>
<circle cx="3336.8" cy="306.2" r="2.4" fill="#16a34a"/>
<circle cx="3429.0" cy="321.9" r="2.4" fill="#16a34a"/>
<circle cx="3521.2" cy="308.5" r="2.4" fill="#16a34a"/>
<circle cx="3613.4" cy="315.0" r="2.4" fill="#16a34a"/>
<circle cx="3705.6" cy="307.9" r="2.4" fill="#16a34a"/>
<circle cx="3797.8" cy="306.4" r="2.4" fill="#16a34a"/>
<circle cx="3890.0" cy="318.6" r="2.4" fill="#16a34a"/>
<text x="110" y="462" class="panel-title">DGEMM GF/s</text>
<line x1="110" y1="740.0" x2="3890" y2="740.0" class="grid"/>
<text x="100" y="744.0" text-anchor="end" class="axis-label">0</text>
<line x1="110" y1="653.3" x2="3890" y2="653.3" class="grid"/>
<text x="100" y="657.3" text-anchor="end" class="axis-label">200</text>
<line x1="110" y1="566.7" x2="3890" y2="566.7" class="grid"/>
<text x="100" y="570.7" text-anchor="end" class="axis-label">400</text>
<line x1="110" y1="480.0" x2="3890" y2="480.0" class="grid"/>
<text x="100" y="484.0" text-anchor="end" class="axis-label">600</text>
<line x1="110" y1="480" x2="110" y2="740" class="axis"/>
<line x1="110" y1="740" x2="3890" y2="740" class="axis"/>
<polyline points="110.0,740.0 202.2,734.7 294.4,725.9 386.6,728.3 478.8,668.3 571.0,633.6 663.2,630.1 755.4,589.8 847.6,561.0 939.8,524.7 1032.0,515.8 1124.1,496.9 1216.3,493.8 1308.5,721.4 1400.7,709.4 1492.9,721.5 1585.1,684.1 1677.3,723.4 1769.5,726.5 1861.7,540.7 1953.9,513.0 2046.1,689.6 2138.3,721.1 2230.5,546.0 2322.7,660.0 2414.9,656.5 2507.1,676.5 2599.3,710.2 2691.5,655.8 2783.7,544.5 2875.9,522.6 2968.0,502.8 3060.2,515.0 3152.4,563.4 3244.6,515.7 3336.8,521.6 3429.0,662.6 3521.2,658.7 3613.4,514.4 3705.6,515.7 3797.8,549.8 3890.0,555.0" fill="none" stroke="#2563eb" stroke-width="2.4"/>
<circle cx="110.0" cy="740.0" r="2.4" fill="#2563eb"/>
<circle cx="202.2" cy="734.7" r="2.4" fill="#2563eb"/>
<circle cx="294.4" cy="725.9" r="2.4" fill="#2563eb"/>
<circle cx="386.6" cy="728.3" r="2.4" fill="#2563eb"/>
<circle cx="478.8" cy="668.3" r="2.4" fill="#2563eb"/>
<circle cx="571.0" cy="633.6" r="2.4" fill="#2563eb"/>
<circle cx="663.2" cy="630.1" r="2.4" fill="#2563eb"/>
<circle cx="755.4" cy="589.8" r="2.4" fill="#2563eb"/>
<circle cx="847.6" cy="561.0" r="2.4" fill="#2563eb"/>
<circle cx="939.8" cy="524.7" r="2.4" fill="#2563eb"/>
<circle cx="1032.0" cy="515.8" r="2.4" fill="#2563eb"/>
<circle cx="1124.1" cy="496.9" r="2.4" fill="#2563eb"/>
<circle cx="1216.3" cy="493.8" r="2.4" fill="#2563eb"/>
<circle cx="1308.5" cy="721.4" r="2.4" fill="#2563eb"/>
<circle cx="1400.7" cy="709.4" r="2.4" fill="#2563eb"/>
<circle cx="1492.9" cy="721.5" r="2.4" fill="#2563eb"/>
<circle cx="1585.1" cy="684.1" r="2.4" fill="#2563eb"/>
<circle cx="1677.3" cy="723.4" r="2.4" fill="#2563eb"/>
<circle cx="1769.5" cy="726.5" r="2.4" fill="#2563eb"/>
<circle cx="1861.7" cy="540.7" r="2.4" fill="#2563eb"/>
<circle cx="1953.9" cy="513.0" r="2.4" fill="#2563eb"/>
<circle cx="2046.1" cy="689.6" r="2.4" fill="#2563eb"/>
<circle cx="2138.3" cy="721.1" r="2.4" fill="#2563eb"/>
<circle cx="2230.5" cy="546.0" r="2.4" fill="#2563eb"/>
<circle cx="2322.7" cy="660.0" r="2.4" fill="#2563eb"/>
<circle cx="2414.9" cy="656.5" r="2.4" fill="#2563eb"/>
<circle cx="2507.1" cy="676.5" r="2.4" fill="#2563eb"/>
<circle cx="2599.3" cy="710.2" r="2.4" fill="#2563eb"/>
<circle cx="2691.5" cy="655.8" r="2.4" fill="#2563eb"/>
<circle cx="2783.7" cy="544.5" r="2.4" fill="#2563eb"/>
<circle cx="2875.9" cy="522.6" r="2.4" fill="#2563eb"/>
<circle cx="2968.0" cy="502.8" r="2.4" fill="#2563eb"/>
<circle cx="3060.2" cy="515.0" r="2.4" fill="#2563eb"/>
<circle cx="3152.4" cy="563.4" r="2.4" fill="#2563eb"/>
<circle cx="3244.6" cy="515.7" r="2.4" fill="#2563eb"/>
<circle cx="3336.8" cy="521.6" r="2.4" fill="#2563eb"/>
<circle cx="3429.0" cy="662.6" r="2.4" fill="#2563eb"/>
<circle cx="3521.2" cy="658.7" r="2.4" fill="#2563eb"/>
<circle cx="3613.4" cy="514.4" r="2.4" fill="#2563eb"/>
<circle cx="3705.6" cy="515.7" r="2.4" fill="#2563eb"/>
<circle cx="3797.8" cy="549.8" r="2.4" fill="#2563eb"/>
<circle cx="3890.0" cy="555.0" r="2.4" fill="#2563eb"/>
<polyline points="110.0,740.0 202.2,734.7 294.4,710.5 386.6,712.3 478.8,652.0 571.0,609.5 663.2,607.4 755.4,603.4 847.6,606.6 939.8,580.8 1032.0,595.8 1124.1,567.3 1216.3,573.0 1308.5,704.7 1400.7,690.7 1492.9,665.1 1585.1,667.9 1677.3,696.8 1769.5,678.9 1861.7,633.7 1953.9,645.3 2046.1,680.1 2138.3,637.9 2230.5,637.5 2322.7,620.4 2414.9,606.9 2507.1,629.7 2599.3,682.6 2691.5,621.0 2783.7,627.3 2875.9,617.1 2968.0,574.5 3060.2,608.0 3152.4,620.0 3244.6,603.2 3336.8,599.6 3429.0,592.5 3521.2,599.9 3613.4,592.6 3705.6,597.8 3797.8,593.6 3890.0,592.0" fill="none" stroke="#dc2626" stroke-width="2.4"/>
<circle cx="110.0" cy="740.0" r="2.4" fill="#dc2626"/>
<circle cx="202.2" cy="734.7" r="2.4" fill="#dc2626"/>
<circle cx="294.4" cy="710.5" r="2.4" fill="#dc2626"/>
<circle cx="386.6" cy="712.3" r="2.4" fill="#dc2626"/>
<circle cx="478.8" cy="652.0" r="2.4" fill="#dc2626"/>
<circle cx="571.0" cy="609.5" r="2.4" fill="#dc2626"/>
<circle cx="663.2" cy="607.4" r="2.4" fill="#dc2626"/>
<circle cx="755.4" cy="603.4" r="2.4" fill="#dc2626"/>
<circle cx="847.6" cy="606.6" r="2.4" fill="#dc2626"/>
<circle cx="939.8" cy="580.8" r="2.4" fill="#dc2626"/>
<circle cx="1032.0" cy="595.8" r="2.4" fill="#dc2626"/>
<circle cx="1124.1" cy="567.3" r="2.4" fill="#dc2626"/>
<circle cx="1216.3" cy="573.0" r="2.4" fill="#dc2626"/>
<circle cx="1308.5" cy="704.7" r="2.4" fill="#dc2626"/>
<circle cx="1400.7" cy="690.7" r="2.4" fill="#dc2626"/>
<circle cx="1492.9" cy="665.1" r="2.4" fill="#dc2626"/>
<circle cx="1585.1" cy="667.9" r="2.4" fill="#dc2626"/>
<circle cx="1677.3" cy="696.8" r="2.4" fill="#dc2626"/>
<circle cx="1769.5" cy="678.9" r="2.4" fill="#dc2626"/>
<circle cx="1861.7" cy="633.7" r="2.4" fill="#dc2626"/>
<circle cx="1953.9" cy="645.3" r="2.4" fill="#dc2626"/>
<circle cx="2046.1" cy="680.1" r="2.4" fill="#dc2626"/>
<circle cx="2138.3" cy="637.9" r="2.4" fill="#dc2626"/>
<circle cx="2230.5" cy="637.5" r="2.4" fill="#dc2626"/>
<circle cx="2322.7" cy="620.4" r="2.4" fill="#dc2626"/>
<circle cx="2414.9" cy="606.9" r="2.4" fill="#dc2626"/>
<circle cx="2507.1" cy="629.7" r="2.4" fill="#dc2626"/>
<circle cx="2599.3" cy="682.6" r="2.4" fill="#dc2626"/>
<circle cx="2691.5" cy="621.0" r="2.4" fill="#dc2626"/>
<circle cx="2783.7" cy="627.3" r="2.4" fill="#dc2626"/>
<circle cx="2875.9" cy="617.1" r="2.4" fill="#dc2626"/>
<circle cx="2968.0" cy="574.5" r="2.4" fill="#dc2626"/>
<circle cx="3060.2" cy="608.0" r="2.4" fill="#dc2626"/>
<circle cx="3152.4" cy="620.0" r="2.4" fill="#dc2626"/>
<circle cx="3244.6" cy="603.2" r="2.4" fill="#dc2626"/>
<circle cx="3336.8" cy="599.6" r="2.4" fill="#dc2626"/>
<circle cx="3429.0" cy="592.5" r="2.4" fill="#dc2626"/>
<circle cx="3521.2" cy="599.9" r="2.4" fill="#dc2626"/>
<circle cx="3613.4" cy="592.6" r="2.4" fill="#dc2626"/>
<circle cx="3705.6" cy="597.8" r="2.4" fill="#dc2626"/>
<circle cx="3797.8" cy="593.6" r="2.4" fill="#dc2626"/>
<circle cx="3890.0" cy="592.0" r="2.4" fill="#dc2626"/>
<polyline points="110.0,740.0 202.2,737.3 294.4,732.2 386.6,731.3 478.8,735.0 571.0,711.8 663.2,697.8 755.4,660.7 847.6,651.7 939.8,649.2 1032.0,644.3 1124.1,636.7 1216.3,641.9 1308.5,731.7 1400.7,730.8 1492.9,730.2 1585.1,725.4 1677.3,719.2 1769.5,729.2 1861.7,694.1 1953.9,692.6 2046.1,699.0 2138.3,710.2 2230.5,683.1 2322.7,640.4 2414.9,636.1 2507.1,639.0 2599.3,667.8 2691.5,646.8 2783.7,644.9 2875.9,640.4 2968.0,638.9 3060.2,652.4 3152.4,672.7 3244.6,644.0 3336.8,632.2 3429.0,652.2 3521.2,640.2 3613.4,639.6 3705.6,637.9 3797.8,653.3 3890.0,661.2" fill="none" stroke="#16a34a" stroke-width="2.4"/>
<circle cx="110.0" cy="740.0" r="2.4" fill="#16a34a"/>
<circle cx="202.2" cy="737.3" r="2.4" fill="#16a34a"/>
<circle cx="294.4" cy="732.2" r="2.4" fill="#16a34a"/>
<circle cx="386.6" cy="731.3" r="2.4" fill="#16a34a"/>
<circle cx="478.8" cy="735.0" r="2.4" fill="#16a34a"/>
<circle cx="571.0" cy="711.8" r="2.4" fill="#16a34a"/>
<circle cx="663.2" cy="697.8" r="2.4" fill="#16a34a"/>
<circle cx="755.4" cy="660.7" r="2.4" fill="#16a34a"/>
<circle cx="847.6" cy="651.7" r="2.4" fill="#16a34a"/>
<circle cx="939.8" cy="649.2" r="2.4" fill="#16a34a"/>
<circle cx="1032.0" cy="644.3" r="2.4" fill="#16a34a"/>
<circle cx="1124.1" cy="636.7" r="2.4" fill="#16a34a"/>
<circle cx="1216.3" cy="641.9" r="2.4" fill="#16a34a"/>
<circle cx="1308.5" cy="731.7" r="2.4" fill="#16a34a"/>
<circle cx="1400.7" cy="730.8" r="2.4" fill="#16a34a"/>
<circle cx="1492.9" cy="730.2" r="2.4" fill="#16a34a"/>
<circle cx="1585.1" cy="725.4" r="2.4" fill="#16a34a"/>
<circle cx="1677.3" cy="719.2" r="2.4" fill="#16a34a"/>
<circle cx="1769.5" cy="729.2" r="2.4" fill="#16a34a"/>
<circle cx="1861.7" cy="694.1" r="2.4" fill="#16a34a"/>
<circle cx="1953.9" cy="692.6" r="2.4" fill="#16a34a"/>
<circle cx="2046.1" cy="699.0" r="2.4" fill="#16a34a"/>
<circle cx="2138.3" cy="710.2" r="2.4" fill="#16a34a"/>
<circle cx="2230.5" cy="683.1" r="2.4" fill="#16a34a"/>
<circle cx="2322.7" cy="640.4" r="2.4" fill="#16a34a"/>
<circle cx="2414.9" cy="636.1" r="2.4" fill="#16a34a"/>
<circle cx="2507.1" cy="639.0" r="2.4" fill="#16a34a"/>
<circle cx="2599.3" cy="667.8" r="2.4" fill="#16a34a"/>
<circle cx="2691.5" cy="646.8" r="2.4" fill="#16a34a"/>
<circle cx="2783.7" cy="644.9" r="2.4" fill="#16a34a"/>
<circle cx="2875.9" cy="640.4" r="2.4" fill="#16a34a"/>
<circle cx="2968.0" cy="638.9" r="2.4" fill="#16a34a"/>
<circle cx="3060.2" cy="652.4" r="2.4" fill="#16a34a"/>
<circle cx="3152.4" cy="672.7" r="2.4" fill="#16a34a"/>
<circle cx="3244.6" cy="644.0" r="2.4" fill="#16a34a"/>
<circle cx="3336.8" cy="632.2" r="2.4" fill="#16a34a"/>
<circle cx="3429.0" cy="652.2" r="2.4" fill="#16a34a"/>
<circle cx="3521.2" cy="640.2" r="2.4" fill="#16a34a"/>
<circle cx="3613.4" cy="639.6" r="2.4" fill="#16a34a"/>
<circle cx="3705.6" cy="637.9" r="2.4" fill="#16a34a"/>
<circle cx="3797.8" cy="653.3" r="2.4" fill="#16a34a"/>
<circle cx="3890.0" cy="661.2" r="2.4" fill="#16a34a"/>
<text x="110" y="832" class="panel-title">CGEMM GF/s</text>
<line x1="110" y1="1110.0" x2="3890" y2="1110.0" class="grid"/>
<text x="100" y="1114.0" text-anchor="end" class="axis-label">0</text>
<line x1="110" y1="1045.0" x2="3890" y2="1045.0" class="grid"/>
<text x="100" y="1049.0" text-anchor="end" class="axis-label">500</text>
<line x1="110" y1="980.0" x2="3890" y2="980.0" class="grid"/>
<text x="100" y="984.0" text-anchor="end" class="axis-label">1000</text>
<line x1="110" y1="915.0" x2="3890" y2="915.0" class="grid"/>
<text x="100" y="919.0" text-anchor="end" class="axis-label">1500</text>
<line x1="110" y1="850.0" x2="3890" y2="850.0" class="grid"/>
<text x="100" y="854.0" text-anchor="end" class="axis-label">2000</text>
<line x1="110" y1="850" x2="110" y2="1110" class="axis"/>
<line x1="110" y1="1110" x2="3890" y2="1110" class="axis"/>
<polyline points="110.0,1110.0 202.2,1097.0 294.4,1103.4 386.6,1102.4 478.8,1077.1 571.0,1059.5 663.2,1044.0 755.4,1023.6 847.6,996.5 939.8,959.6 1032.0,919.7 1124.1,875.8 1216.3,854.9 1308.5,1102.3 1400.7,1096.7 1492.9,1098.2 1585.1,1087.0 1677.3,1108.7 1769.5,1107.8 1861.7,1018.3 1953.9,1017.4 2046.1,1055.0 2138.3,1076.5 2230.5,1024.6 2322.7,1065.5 2414.9,1063.7 2507.1,1038.6 2599.3,1086.7 2691.5,1032.5 2783.7,972.6 2875.9,938.0 2968.0,898.2 3060.2,965.7 3152.4,1009.1 3244.6,946.4 3336.8,950.8 3429.0,938.6 3521.2,936.8 3613.4,924.3 3705.6,930.5 3797.8,987.4 3890.0,988.1" fill="none" stroke="#2563eb" stroke-width="2.4"/>
<circle cx="110.0" cy="1110.0" r="2.4" fill="#2563eb"/>
<circle cx="202.2" cy="1097.0" r="2.4" fill="#2563eb"/>
<circle cx="294.4" cy="1103.4" r="2.4" fill="#2563eb"/>
<circle cx="386.6" cy="1102.4" r="2.4" fill="#2563eb"/>
<circle cx="478.8" cy="1077.1" r="2.4" fill="#2563eb"/>
<circle cx="571.0" cy="1059.5" r="2.4" fill="#2563eb"/>
<circle cx="663.2" cy="1044.0" r="2.4" fill="#2563eb"/>
<circle cx="755.4" cy="1023.6" r="2.4" fill="#2563eb"/>
<circle cx="847.6" cy="996.5" r="2.4" fill="#2563eb"/>
<circle cx="939.8" cy="959.6" r="2.4" fill="#2563eb"/>
<circle cx="1032.0" cy="919.7" r="2.4" fill="#2563eb"/>
<circle cx="1124.1" cy="875.8" r="2.4" fill="#2563eb"/>
<circle cx="1216.3" cy="854.9" r="2.4" fill="#2563eb"/>
<circle cx="1308.5" cy="1102.3" r="2.4" fill="#2563eb"/>
<circle cx="1400.7" cy="1096.7" r="2.4" fill="#2563eb"/>
<circle cx="1492.9" cy="1098.2" r="2.4" fill="#2563eb"/>
<circle cx="1585.1" cy="1087.0" r="2.4" fill="#2563eb"/>
<circle cx="1677.3" cy="1108.7" r="2.4" fill="#2563eb"/>
<circle cx="1769.5" cy="1107.8" r="2.4" fill="#2563eb"/>
<circle cx="1861.7" cy="1018.3" r="2.4" fill="#2563eb"/>
<circle cx="1953.9" cy="1017.4" r="2.4" fill="#2563eb"/>
<circle cx="2046.1" cy="1055.0" r="2.4" fill="#2563eb"/>
<circle cx="2138.3" cy="1076.5" r="2.4" fill="#2563eb"/>
<circle cx="2230.5" cy="1024.6" r="2.4" fill="#2563eb"/>
<circle cx="2322.7" cy="1065.5" r="2.4" fill="#2563eb"/>
<circle cx="2414.9" cy="1063.7" r="2.4" fill="#2563eb"/>
<circle cx="2507.1" cy="1038.6" r="2.4" fill="#2563eb"/>
<circle cx="2599.3" cy="1086.7" r="2.4" fill="#2563eb"/>
<circle cx="2691.5" cy="1032.5" r="2.4" fill="#2563eb"/>
<circle cx="2783.7" cy="972.6" r="2.4" fill="#2563eb"/>
<circle cx="2875.9" cy="938.0" r="2.4" fill="#2563eb"/>
<circle cx="2968.0" cy="898.2" r="2.4" fill="#2563eb"/>
<circle cx="3060.2" cy="965.7" r="2.4" fill="#2563eb"/>
<circle cx="3152.4" cy="1009.1" r="2.4" fill="#2563eb"/>
<circle cx="3244.6" cy="946.4" r="2.4" fill="#2563eb"/>
<circle cx="3336.8" cy="950.8" r="2.4" fill="#2563eb"/>
<circle cx="3429.0" cy="938.6" r="2.4" fill="#2563eb"/>
<circle cx="3521.2" cy="936.8" r="2.4" fill="#2563eb"/>
<circle cx="3613.4" cy="924.3" r="2.4" fill="#2563eb"/>
<circle cx="3705.6" cy="930.5" r="2.4" fill="#2563eb"/>
<circle cx="3797.8" cy="987.4" r="2.4" fill="#2563eb"/>
<circle cx="3890.0" cy="988.1" r="2.4" fill="#2563eb"/>
<polyline points="110.0,1110.0 202.2,1108.2 294.4,1102.8 386.6,1103.4 478.8,1086.4 571.0,1068.9 663.2,1061.5 755.4,1032.4 847.6,1023.1 939.8,992.8 1032.0,984.7 1124.1,953.4 1216.3,952.2 1308.5,1101.7 1400.7,1097.5 1492.9,1091.3 1585.1,1092.8 1677.3,1107.7 1769.5,1107.5 1861.7,1023.6 1953.9,1024.7 2046.1,1055.5 2138.3,1081.0 2230.5,1026.6 2322.7,1040.7 2414.9,1041.8 2507.1,1067.1 2599.3,1088.4 2691.5,1040.3 2783.7,1046.2 2875.9,1018.4 2968.0,995.2 3060.2,1000.6 3152.4,1026.0 3244.6,1000.3 3336.8,1004.7 3429.0,986.2 3521.2,987.0 3613.4,991.5 3705.6,1000.0 3797.8,1034.4 3890.0,1037.3" fill="none" stroke="#dc2626" stroke-width="2.4"/>
<circle cx="110.0" cy="1110.0" r="2.4" fill="#dc2626"/>
<circle cx="202.2" cy="1108.2" r="2.4" fill="#dc2626"/>
<circle cx="294.4" cy="1102.8" r="2.4" fill="#dc2626"/>
<circle cx="386.6" cy="1103.4" r="2.4" fill="#dc2626"/>
<circle cx="478.8" cy="1086.4" r="2.4" fill="#dc2626"/>
<circle cx="571.0" cy="1068.9" r="2.4" fill="#dc2626"/>
<circle cx="663.2" cy="1061.5" r="2.4" fill="#dc2626"/>
<circle cx="755.4" cy="1032.4" r="2.4" fill="#dc2626"/>
<circle cx="847.6" cy="1023.1" r="2.4" fill="#dc2626"/>
<circle cx="939.8" cy="992.8" r="2.4" fill="#dc2626"/>
<circle cx="1032.0" cy="984.7" r="2.4" fill="#dc2626"/>
<circle cx="1124.1" cy="953.4" r="2.4" fill="#dc2626"/>
<circle cx="1216.3" cy="952.2" r="2.4" fill="#dc2626"/>
<circle cx="1308.5" cy="1101.7" r="2.4" fill="#dc2626"/>
<circle cx="1400.7" cy="1097.5" r="2.4" fill="#dc2626"/>
<circle cx="1492.9" cy="1091.3" r="2.4" fill="#dc2626"/>
<circle cx="1585.1" cy="1092.8" r="2.4" fill="#dc2626"/>
<circle cx="1677.3" cy="1107.7" r="2.4" fill="#dc2626"/>
<circle cx="1769.5" cy="1107.5" r="2.4" fill="#dc2626"/>
<circle cx="1861.7" cy="1023.6" r="2.4" fill="#dc2626"/>
<circle cx="1953.9" cy="1024.7" r="2.4" fill="#dc2626"/>
<circle cx="2046.1" cy="1055.5" r="2.4" fill="#dc2626"/>
<circle cx="2138.3" cy="1081.0" r="2.4" fill="#dc2626"/>
<circle cx="2230.5" cy="1026.6" r="2.4" fill="#dc2626"/>
<circle cx="2322.7" cy="1040.7" r="2.4" fill="#dc2626"/>
<circle cx="2414.9" cy="1041.8" r="2.4" fill="#dc2626"/>
<circle cx="2507.1" cy="1067.1" r="2.4" fill="#dc2626"/>
<circle cx="2599.3" cy="1088.4" r="2.4" fill="#dc2626"/>
<circle cx="2691.5" cy="1040.3" r="2.4" fill="#dc2626"/>
<circle cx="2783.7" cy="1046.2" r="2.4" fill="#dc2626"/>
<circle cx="2875.9" cy="1018.4" r="2.4" fill="#dc2626"/>
<circle cx="2968.0" cy="995.2" r="2.4" fill="#dc2626"/>
<circle cx="3060.2" cy="1000.6" r="2.4" fill="#dc2626"/>
<circle cx="3152.4" cy="1026.0" r="2.4" fill="#dc2626"/>
<circle cx="3244.6" cy="1000.3" r="2.4" fill="#dc2626"/>
<circle cx="3336.8" cy="1004.7" r="2.4" fill="#dc2626"/>
<circle cx="3429.0" cy="986.2" r="2.4" fill="#dc2626"/>
<circle cx="3521.2" cy="987.0" r="2.4" fill="#dc2626"/>
<circle cx="3613.4" cy="991.5" r="2.4" fill="#dc2626"/>
<circle cx="3705.6" cy="1000.0" r="2.4" fill="#dc2626"/>
<circle cx="3797.8" cy="1034.4" r="2.4" fill="#dc2626"/>
<circle cx="3890.0" cy="1037.3" r="2.4" fill="#dc2626"/>
<polyline points="110.0,1110.0 202.2,1107.4 294.4,1105.4 386.6,1104.5 478.8,1082.0 571.0,1080.6 663.2,1069.7 755.4,1066.6 847.6,1061.3 939.8,1055.9 1032.0,1053.9 1124.1,1054.4 1216.3,1055.4 1308.5,1102.2 1400.7,1096.6 1492.9,1078.3 1585.1,1079.3 1677.3,1102.8 1769.5,1104.3 1861.7,1075.5 1953.9,1074.1 2046.1,1076.2 2138.3,1087.4 2230.5,1077.9 2322.7,1051.4 2414.9,1052.0 2507.1,1053.0 2599.3,1064.2 2691.5,1053.1 2783.7,1054.3 2875.9,1052.1 2968.0,1050.8 3060.2,1060.1 3152.4,1066.4 3244.6,1053.0 3336.8,1048.8 3429.0,1058.1 3521.2,1050.8 3613.4,1052.0 3705.6,1050.7 3797.8,1051.4 3890.0,1056.4" fill="none" stroke="#16a34a" stroke-width="2.4"/>
<circle cx="110.0" cy="1110.0" r="2.4" fill="#16a34a"/>
<circle cx="202.2" cy="1107.4" r="2.4" fill="#16a34a"/>
<circle cx="294.4" cy="1105.4" r="2.4" fill="#16a34a"/>
<circle cx="386.6" cy="1104.5" r="2.4" fill="#16a34a"/>
<circle cx="478.8" cy="1082.0" r="2.4" fill="#16a34a"/>
<circle cx="571.0" cy="1080.6" r="2.4" fill="#16a34a"/>
<circle cx="663.2" cy="1069.7" r="2.4" fill="#16a34a"/>
<circle cx="755.4" cy="1066.6" r="2.4" fill="#16a34a"/>
<circle cx="847.6" cy="1061.3" r="2.4" fill="#16a34a"/>
<circle cx="939.8" cy="1055.9" r="2.4" fill="#16a34a"/>
<circle cx="1032.0" cy="1053.9" r="2.4" fill="#16a34a"/>
<circle cx="1124.1" cy="1054.4" r="2.4" fill="#16a34a"/>
<circle cx="1216.3" cy="1055.4" r="2.4" fill="#16a34a"/>
<circle cx="1308.5" cy="1102.2" r="2.4" fill="#16a34a"/>
<circle cx="1400.7" cy="1096.6" r="2.4" fill="#16a34a"/>
<circle cx="1492.9" cy="1078.3" r="2.4" fill="#16a34a"/>
<circle cx="1585.1" cy="1079.3" r="2.4" fill="#16a34a"/>
<circle cx="1677.3" cy="1102.8" r="2.4" fill="#16a34a"/>
<circle cx="1769.5" cy="1104.3" r="2.4" fill="#16a34a"/>
<circle cx="1861.7" cy="1075.5" r="2.4" fill="#16a34a"/>
<circle cx="1953.9" cy="1074.1" r="2.4" fill="#16a34a"/>
<circle cx="2046.1" cy="1076.2" r="2.4" fill="#16a34a"/>
<circle cx="2138.3" cy="1087.4" r="2.4" fill="#16a34a"/>
<circle cx="2230.5" cy="1077.9" r="2.4" fill="#16a34a"/>
<circle cx="2322.7" cy="1051.4" r="2.4" fill="#16a34a"/>
<circle cx="2414.9" cy="1052.0" r="2.4" fill="#16a34a"/>
<circle cx="2507.1" cy="1053.0" r="2.4" fill="#16a34a"/>
<circle cx="2599.3" cy="1064.2" r="2.4" fill="#16a34a"/>
<circle cx="2691.5" cy="1053.1" r="2.4" fill="#16a34a"/>
<circle cx="2783.7" cy="1054.3" r="2.4" fill="#16a34a"/>
<circle cx="2875.9" cy="1052.1" r="2.4" fill="#16a34a"/>
<circle cx="2968.0" cy="1050.8" r="2.4" fill="#16a34a"/>
<circle cx="3060.2" cy="1060.1" r="2.4" fill="#16a34a"/>
<circle cx="3152.4" cy="1066.4" r="2.4" fill="#16a34a"/>
<circle cx="3244.6" cy="1053.0" r="2.4" fill="#16a34a"/>
<circle cx="3336.8" cy="1048.8" r="2.4" fill="#16a34a"/>
<circle cx="3429.0" cy="1058.1" r="2.4" fill="#16a34a"/>
<circle cx="3521.2" cy="1050.8" r="2.4" fill="#16a34a"/>
<circle cx="3613.4" cy="1052.0" r="2.4" fill="#16a34a"/>
<circle cx="3705.6" cy="1050.7" r="2.4" fill="#16a34a"/>
<circle cx="3797.8" cy="1051.4" r="2.4" fill="#16a34a"/>
<circle cx="3890.0" cy="1056.4" r="2.4" fill="#16a34a"/>
<text x="110" y="1202" class="panel-title">ZGEMM GF/s</text>
<line x1="110" y1="1480.0" x2="3890" y2="1480.0" class="grid"/>
<text x="100" y="1484.0" text-anchor="end" class="axis-label">0</text>
<line x1="110" y1="1393.3" x2="3890" y2="1393.3" class="grid"/>
<text x="100" y="1397.3" text-anchor="end" class="axis-label">200</text>
<line x1="110" y1="1306.7" x2="3890" y2="1306.7" class="grid"/>
<text x="100" y="1310.7" text-anchor="end" class="axis-label">400</text>
<line x1="110" y1="1220.0" x2="3890" y2="1220.0" class="grid"/>
<text x="100" y="1224.0" text-anchor="end" class="axis-label">600</text>
<line x1="110" y1="1220" x2="110" y2="1480" class="axis"/>
<line x1="110" y1="1480" x2="3890" y2="1480" class="axis"/>
<polyline points="110.0,1479.9 202.2,1475.3 294.4,1463.8 386.6,1458.8 478.8,1417.7 571.0,1393.0 663.2,1385.3 755.4,1350.9 847.6,1318.2 939.8,1276.9 1032.0,1248.3 1124.1,1231.8 1216.3,1261.6 1308.5,1466.7 1400.7,1460.1 1492.9,1464.2 1585.1,1448.3 1677.3,1477.2 1769.5,1476.9 1861.7,1369.5 1953.9,1371.2 2046.1,1442.1 2138.3,1462.8 2230.5,1378.9 2322.7,1405.5 2414.9,1399.0 2507.1,1389.7 2599.3,1454.0 2691.5,1402.9 2783.7,1357.7 2875.9,1313.0 2968.0,1284.1 3060.2,1312.7 3152.4,1368.2 3244.6,1309.8 3336.8,1312.5 3429.0,1410.4 3521.2,1399.2 3613.4,1326.5 3705.6,1329.1 3797.8,1369.2 3890.0,1368.0" fill="none" stroke="#2563eb" stroke-width="2.4"/>
<circle cx="110.0" cy="1479.9" r="2.4" fill="#2563eb"/>
<circle cx="202.2" cy="1475.3" r="2.4" fill="#2563eb"/>
<circle cx="294.4" cy="1463.8" r="2.4" fill="#2563eb"/>
<circle cx="386.6" cy="1458.8" r="2.4" fill="#2563eb"/>
<circle cx="478.8" cy="1417.7" r="2.4" fill="#2563eb"/>
<circle cx="571.0" cy="1393.0" r="2.4" fill="#2563eb"/>
<circle cx="663.2" cy="1385.3" r="2.4" fill="#2563eb"/>
<circle cx="755.4" cy="1350.9" r="2.4" fill="#2563eb"/>
<circle cx="847.6" cy="1318.2" r="2.4" fill="#2563eb"/>
<circle cx="939.8" cy="1276.9" r="2.4" fill="#2563eb"/>
<circle cx="1032.0" cy="1248.3" r="2.4" fill="#2563eb"/>
<circle cx="1124.1" cy="1231.8" r="2.4" fill="#2563eb"/>
<circle cx="1216.3" cy="1261.6" r="2.4" fill="#2563eb"/>
<circle cx="1308.5" cy="1466.7" r="2.4" fill="#2563eb"/>
<circle cx="1400.7" cy="1460.1" r="2.4" fill="#2563eb"/>
<circle cx="1492.9" cy="1464.2" r="2.4" fill="#2563eb"/>
<circle cx="1585.1" cy="1448.3" r="2.4" fill="#2563eb"/>
<circle cx="1677.3" cy="1477.2" r="2.4" fill="#2563eb"/>
<circle cx="1769.5" cy="1476.9" r="2.4" fill="#2563eb"/>
<circle cx="1861.7" cy="1369.5" r="2.4" fill="#2563eb"/>
<circle cx="1953.9" cy="1371.2" r="2.4" fill="#2563eb"/>
<circle cx="2046.1" cy="1442.1" r="2.4" fill="#2563eb"/>
<circle cx="2138.3" cy="1462.8" r="2.4" fill="#2563eb"/>
<circle cx="2230.5" cy="1378.9" r="2.4" fill="#2563eb"/>
<circle cx="2322.7" cy="1405.5" r="2.4" fill="#2563eb"/>
<circle cx="2414.9" cy="1399.0" r="2.4" fill="#2563eb"/>
<circle cx="2507.1" cy="1389.7" r="2.4" fill="#2563eb"/>
<circle cx="2599.3" cy="1454.0" r="2.4" fill="#2563eb"/>
<circle cx="2691.5" cy="1402.9" r="2.4" fill="#2563eb"/>
<circle cx="2783.7" cy="1357.7" r="2.4" fill="#2563eb"/>
<circle cx="2875.9" cy="1313.0" r="2.4" fill="#2563eb"/>
<circle cx="2968.0" cy="1284.1" r="2.4" fill="#2563eb"/>
<circle cx="3060.2" cy="1312.7" r="2.4" fill="#2563eb"/>
<circle cx="3152.4" cy="1368.2" r="2.4" fill="#2563eb"/>
<circle cx="3244.6" cy="1309.8" r="2.4" fill="#2563eb"/>
<circle cx="3336.8" cy="1312.5" r="2.4" fill="#2563eb"/>
<circle cx="3429.0" cy="1410.4" r="2.4" fill="#2563eb"/>
<circle cx="3521.2" cy="1399.2" r="2.4" fill="#2563eb"/>
<circle cx="3613.4" cy="1326.5" r="2.4" fill="#2563eb"/>
<circle cx="3705.6" cy="1329.1" r="2.4" fill="#2563eb"/>
<circle cx="3797.8" cy="1369.2" r="2.4" fill="#2563eb"/>
<circle cx="3890.0" cy="1368.0" r="2.4" fill="#2563eb"/>
<polyline points="110.0,1480.0 202.2,1475.3 294.4,1460.3 386.6,1463.1 478.8,1438.5 571.0,1402.4 663.2,1399.6 755.4,1381.9 847.6,1376.4 939.8,1351.4 1032.0,1346.6 1124.1,1337.4 1216.3,1325.3 1308.5,1462.1 1400.7,1457.8 1492.9,1447.2 1585.1,1441.8 1677.3,1477.8 1769.5,1477.6 1861.7,1421.2 1953.9,1423.8 2046.1,1449.1 2138.3,1446.9 2230.5,1415.0 2322.7,1403.9 2414.9,1406.4 2507.1,1432.2 2599.3,1451.0 2691.5,1408.9 2783.7,1397.5 2875.9,1384.6 2968.0,1339.0 3060.2,1381.8 3152.4,1405.3 3244.6,1359.3 3336.8,1370.0 3429.0,1354.0 3521.2,1363.1 3613.4,1355.5 3705.6,1352.4 3797.8,1371.2 3890.0,1372.4" fill="none" stroke="#dc2626" stroke-width="2.4"/>
<circle cx="110.0" cy="1480.0" r="2.4" fill="#dc2626"/>
<circle cx="202.2" cy="1475.3" r="2.4" fill="#dc2626"/>
<circle cx="294.4" cy="1460.3" r="2.4" fill="#dc2626"/>
<circle cx="386.6" cy="1463.1" r="2.4" fill="#dc2626"/>
<circle cx="478.8" cy="1438.5" r="2.4" fill="#dc2626"/>
<circle cx="571.0" cy="1402.4" r="2.4" fill="#dc2626"/>
<circle cx="663.2" cy="1399.6" r="2.4" fill="#dc2626"/>
<circle cx="755.4" cy="1381.9" r="2.4" fill="#dc2626"/>
<circle cx="847.6" cy="1376.4" r="2.4" fill="#dc2626"/>
<circle cx="939.8" cy="1351.4" r="2.4" fill="#dc2626"/>
<circle cx="1032.0" cy="1346.6" r="2.4" fill="#dc2626"/>
<circle cx="1124.1" cy="1337.4" r="2.4" fill="#dc2626"/>
<circle cx="1216.3" cy="1325.3" r="2.4" fill="#dc2626"/>
<circle cx="1308.5" cy="1462.1" r="2.4" fill="#dc2626"/>
<circle cx="1400.7" cy="1457.8" r="2.4" fill="#dc2626"/>
<circle cx="1492.9" cy="1447.2" r="2.4" fill="#dc2626"/>
<circle cx="1585.1" cy="1441.8" r="2.4" fill="#dc2626"/>
<circle cx="1677.3" cy="1477.8" r="2.4" fill="#dc2626"/>
<circle cx="1769.5" cy="1477.6" r="2.4" fill="#dc2626"/>
<circle cx="1861.7" cy="1421.2" r="2.4" fill="#dc2626"/>
<circle cx="1953.9" cy="1423.8" r="2.4" fill="#dc2626"/>
<circle cx="2046.1" cy="1449.1" r="2.4" fill="#dc2626"/>
<circle cx="2138.3" cy="1446.9" r="2.4" fill="#dc2626"/>
<circle cx="2230.5" cy="1415.0" r="2.4" fill="#dc2626"/>
<circle cx="2322.7" cy="1403.9" r="2.4" fill="#dc2626"/>
<circle cx="2414.9" cy="1406.4" r="2.4" fill="#dc2626"/>
<circle cx="2507.1" cy="1432.2" r="2.4" fill="#dc2626"/>
<circle cx="2599.3" cy="1451.0" r="2.4" fill="#dc2626"/>
<circle cx="2691.5" cy="1408.9" r="2.4" fill="#dc2626"/>
<circle cx="2783.7" cy="1397.5" r="2.4" fill="#dc2626"/>
<circle cx="2875.9" cy="1384.6" r="2.4" fill="#dc2626"/>
<circle cx="2968.0" cy="1339.0" r="2.4" fill="#dc2626"/>
<circle cx="3060.2" cy="1381.8" r="2.4" fill="#dc2626"/>
<circle cx="3152.4" cy="1405.3" r="2.4" fill="#dc2626"/>
<circle cx="3244.6" cy="1359.3" r="2.4" fill="#dc2626"/>
<circle cx="3336.8" cy="1370.0" r="2.4" fill="#dc2626"/>
<circle cx="3429.0" cy="1354.0" r="2.4" fill="#dc2626"/>
<circle cx="3521.2" cy="1363.1" r="2.4" fill="#dc2626"/>
<circle cx="3613.4" cy="1355.5" r="2.4" fill="#dc2626"/>
<circle cx="3705.6" cy="1352.4" r="2.4" fill="#dc2626"/>
<circle cx="3797.8" cy="1371.2" r="2.4" fill="#dc2626"/>
<circle cx="3890.0" cy="1372.4" r="2.4" fill="#dc2626"/>
<polyline points="110.0,1479.9 202.2,1472.9 294.4,1470.9 386.6,1470.2 478.8,1443.8 571.0,1415.3 663.2,1404.0 755.4,1394.5 847.6,1389.2 939.8,1386.3 1032.0,1382.0 1124.1,1386.0 1216.3,1386.5 1308.5,1466.3 1400.7,1453.2 1492.9,1422.1 1585.1,1422.0 1677.3,1470.4 1769.5,1468.1 1861.7,1420.3 1953.9,1411.7 2046.1,1416.8 2138.3,1438.5 2230.5,1417.3 2322.7,1384.2 2414.9,1382.5 2507.1,1387.3 2599.3,1398.1 2691.5,1387.9 2783.7,1387.6 2875.9,1384.9 2968.0,1383.6 3060.2,1394.8 3152.4,1408.3 3244.6,1384.7 3336.8,1381.3 3429.0,1391.9 3521.2,1412.6 3613.4,1384.9 3705.6,1386.1 3797.8,1380.6 3890.0,1386.9" fill="none" stroke="#16a34a" stroke-width="2.4"/>
<circle cx="110.0" cy="1479.9" r="2.4" fill="#16a34a"/>
<circle cx="202.2" cy="1472.9" r="2.4" fill="#16a34a"/>
<circle cx="294.4" cy="1470.9" r="2.4" fill="#16a34a"/>
<circle cx="386.6" cy="1470.2" r="2.4" fill="#16a34a"/>
<circle cx="478.8" cy="1443.8" r="2.4" fill="#16a34a"/>
<circle cx="571.0" cy="1415.3" r="2.4" fill="#16a34a"/>
<circle cx="663.2" cy="1404.0" r="2.4" fill="#16a34a"/>
<circle cx="755.4" cy="1394.5" r="2.4" fill="#16a34a"/>
<circle cx="847.6" cy="1389.2" r="2.4" fill="#16a34a"/>
<circle cx="939.8" cy="1386.3" r="2.4" fill="#16a34a"/>
<circle cx="1032.0" cy="1382.0" r="2.4" fill="#16a34a"/>
<circle cx="1124.1" cy="1386.0" r="2.4" fill="#16a34a"/>
<circle cx="1216.3" cy="1386.5" r="2.4" fill="#16a34a"/>
<circle cx="1308.5" cy="1466.3" r="2.4" fill="#16a34a"/>
<circle cx="1400.7" cy="1453.2" r="2.4" fill="#16a34a"/>
<circle cx="1492.9" cy="1422.1" r="2.4" fill="#16a34a"/>
<circle cx="1585.1" cy="1422.0" r="2.4" fill="#16a34a"/>
<circle cx="1677.3" cy="1470.4" r="2.4" fill="#16a34a"/>
<circle cx="1769.5" cy="1468.1" r="2.4" fill="#16a34a"/>
<circle cx="1861.7" cy="1420.3" r="2.4" fill="#16a34a"/>
<circle cx="1953.9" cy="1411.7" r="2.4" fill="#16a34a"/>
<circle cx="2046.1" cy="1416.8" r="2.4" fill="#16a34a"/>
<circle cx="2138.3" cy="1438.5" r="2.4" fill="#16a34a"/>
<circle cx="2230.5" cy="1417.3" r="2.4" fill="#16a34a"/>
<circle cx="2322.7" cy="1384.2" r="2.4" fill="#16a34a"/>
<circle cx="2414.9" cy="1382.5" r="2.4" fill="#16a34a"/>
<circle cx="2507.1" cy="1387.3" r="2.4" fill="#16a34a"/>
<circle cx="2599.3" cy="1398.1" r="2.4" fill="#16a34a"/>
<circle cx="2691.5" cy="1387.9" r="2.4" fill="#16a34a"/>
<circle cx="2783.7" cy="1387.6" r="2.4" fill="#16a34a"/>
<circle cx="2875.9" cy="1384.9" r="2.4" fill="#16a34a"/>
<circle cx="2968.0" cy="1383.6" r="2.4" fill="#16a34a"/>
<circle cx="3060.2" cy="1394.8" r="2.4" fill="#16a34a"/>
<circle cx="3152.4" cy="1408.3" r="2.4" fill="#16a34a"/>
<circle cx="3244.6" cy="1384.7" r="2.4" fill="#16a34a"/>
<circle cx="3336.8" cy="1381.3" r="2.4" fill="#16a34a"/>
<circle cx="3429.0" cy="1391.9" r="2.4" fill="#16a34a"/>
<circle cx="3521.2" cy="1412.6" r="2.4" fill="#16a34a"/>
<circle cx="3613.4" cy="1384.9" r="2.4" fill="#16a34a"/>
<circle cx="3705.6" cy="1386.1" r="2.4" fill="#16a34a"/>
<circle cx="3797.8" cy="1380.6" r="2.4" fill="#16a34a"/>
<circle cx="3890.0" cy="1386.9" r="2.4" fill="#16a34a"/>
<g transform="translate(110.0,1498) rotate(58)">
<text class="shape-label">m1_n1_k1</text>
<text y="12" class="shape-label">1x1x1</text>
</g>
<g transform="translate(202.2,1498) rotate(58)">
<text class="shape-label">m8_n8_k8</text>
<text y="12" class="shape-label">8x8x8</text>
</g>
<g transform="translate(294.4,1498) rotate(58)">
<text class="shape-label">m31_n31_k31</text>
<text y="12" class="shape-label">31x31x31</text>
</g>
<g transform="translate(386.6,1498) rotate(58)">
<text class="shape-label">m33_n33_k33</text>
<text y="12" class="shape-label">33x33x33</text>
</g>
<g transform="translate(478.8,1498) rotate(58)">
<text class="shape-label">sq64</text>
<text y="12" class="shape-label">64x64x64</text>
</g>
<g transform="translate(571.0,1498) rotate(58)">
<text class="shape-label">sq96</text>
<text y="12" class="shape-label">96x96x96</text>
</g>
<g transform="translate(663.2,1498) rotate(58)">
<text class="shape-label">sq128</text>
<text y="12" class="shape-label">128x128x128</text>
</g>
<g transform="translate(755.4,1498) rotate(58)">
<text class="shape-label">sq192</text>
<text y="12" class="shape-label">192x192x192</text>
</g>
<g transform="translate(847.6,1498) rotate(58)">
<text class="shape-label">sq256</text>
<text y="12" class="shape-label">256x256x256</text>
</g>
<g transform="translate(939.8,1498) rotate(58)">
<text class="shape-label">sq384</text>
<text y="12" class="shape-label">384x384x384</text>
</g>
<g transform="translate(1032.0,1498) rotate(58)">
<text class="shape-label">sq512</text>
<text y="12" class="shape-label">512x512x512</text>
</g>
<g transform="translate(1124.1,1498) rotate(58)">
<text class="shape-label">sq768</text>
<text y="12" class="shape-label">768x768x768</text>
</g>
<g transform="translate(1216.3,1498) rotate(58)">
<text class="shape-label">sq1024</text>
<text y="12" class="shape-label">1024x1024x1024</text>
</g>
<g transform="translate(1308.5,1498) rotate(58)">
<text class="shape-label">m63_n65_k17</text>
<text y="12" class="shape-label">63x65x17</text>
</g>
<g transform="translate(1400.7,1498) rotate(58)">
<text class="shape-label">m65_n63_k33</text>
<text y="12" class="shape-label">65x63x33</text>
</g>
<g transform="translate(1492.9,1498) rotate(58)">
<text class="shape-label">m127_n129_k31</text>
<text y="12" class="shape-label">127x129x31</text>
</g>
<g transform="translate(1585.1,1498) rotate(58)">
<text class="shape-label">m129_n127_k33</text>
<text y="12" class="shape-label">129x127x33</text>
</g>
<g transform="translate(1677.3,1498) rotate(58)">
<text class="shape-label">m1_n4096_k256</text>
<text y="12" class="shape-label">1x4096x256</text>
</g>
<g transform="translate(1769.5,1498) rotate(58)">
<text class="shape-label">m4096_n1_k256</text>
<text y="12" class="shape-label">4096x1x256</text>
</g>
<g transform="translate(1861.7,1498) rotate(58)">
<text class="shape-label">m1024_n64_k1024</text>
<text y="12" class="shape-label">1024x64x1024</text>
</g>
<g transform="translate(1953.9,1498) rotate(58)">
<text class="shape-label">m2048_n64_k512</text>
<text y="12" class="shape-label">2048x64x512</text>
</g>
<g transform="translate(2046.1,1498) rotate(58)">
<text class="shape-label">m4096_n32_k256</text>
<text y="12" class="shape-label">4096x32x256</text>
</g>
<g transform="translate(2138.3,1498) rotate(58)">
<text class="shape-label">m2048_n17_k257</text>
<text y="12" class="shape-label">2048x17x257</text>
</g>
<g transform="translate(2230.5,1498) rotate(58)">
<text class="shape-label">m512_n64_k2048</text>
<text y="12" class="shape-label">512x64x2048</text>
</g>
<g transform="translate(2322.7,1498) rotate(58)">
<text class="shape-label">m64_n1024_k1024</text>
<text y="12" class="shape-label">64x1024x1024</text>
</g>
<g transform="translate(2414.9,1498) rotate(58)">
<text class="shape-label">m64_n2048_k512</text>
<text y="12" class="shape-label">64x2048x512</text>
</g>
<g transform="translate(2507.1,1498) rotate(58)">
<text class="shape-label">m32_n4096_k256</text>
<text y="12" class="shape-label">32x4096x256</text>
</g>
<g transform="translate(2599.3,1498) rotate(58)">
<text class="shape-label">m17_n2048_k257</text>
<text y="12" class="shape-label">17x2048x257</text>
</g>
<g transform="translate(2691.5,1498) rotate(58)">
<text class="shape-label">m64_n512_k2048</text>
<text y="12" class="shape-label">64x512x2048</text>
</g>
<g transform="translate(2783.7,1498) rotate(58)">
<text class="shape-label">m1024_n1024_k64</text>
<text y="12" class="shape-label">1024x1024x64</text>
</g>
<g transform="translate(2875.9,1498) rotate(58)">
<text class="shape-label">m1024_n1024_k128</text>
<text y="12" class="shape-label">1024x1024x128</text>
</g>
<g transform="translate(2968.0,1498) rotate(58)">
<text class="shape-label">m1024_n1024_k256</text>
<text y="12" class="shape-label">1024x1024x256</text>
</g>
<g transform="translate(3060.2,1498) rotate(58)">
<text class="shape-label">m256_n256_k2048</text>
<text y="12" class="shape-label">256x256x2048</text>
</g>
<g transform="translate(3152.4,1498) rotate(58)">
<text class="shape-label">m128_n128_k4096</text>
<text y="12" class="shape-label">128x128x4096</text>
</g>
<g transform="translate(3244.6,1498) rotate(58)">
<text class="shape-label">m1536_n256_k256</text>
<text y="12" class="shape-label">1536x256x256</text>
</g>
<g transform="translate(3336.8,1498) rotate(58)">
<text class="shape-label">m256_n1536_k256</text>
<text y="12" class="shape-label">256x1536x256</text>
</g>
<g transform="translate(3429.0,1498) rotate(58)">
<text class="shape-label">m512_n256_k768</text>
<text y="12" class="shape-label">512x256x768</text>
</g>
<g transform="translate(3521.2,1498) rotate(58)">
<text class="shape-label">m256_n512_k768</text>
<text y="12" class="shape-label">256x512x768</text>
</g>
<g transform="translate(3613.4,1498) rotate(58)">
<text class="shape-label">m768_n512_k256</text>
<text y="12" class="shape-label">768x512x256</text>
</g>
<g transform="translate(3705.6,1498) rotate(58)">
<text class="shape-label">m512_n768_k256</text>
<text y="12" class="shape-label">512x768x256</text>
</g>
<g transform="translate(3797.8,1498) rotate(58)">
<text class="shape-label">m384_n640_k96</text>
<text y="12" class="shape-label">384x640x96</text>
</g>
<g transform="translate(3890.0,1498) rotate(58)">
<text class="shape-label">m640_n384_k96</text>
<text y="12" class="shape-label">640x384x96</text>
</g>
</svg>