<svg xmlns="http://www.w3.org/2000/svg" width="3950" height="1640" viewBox="0 0 3950 1640">

<style>
  text { font-family: -apple-system, BlinkMacSystemFont, "Segoe UI", sans-serif; fill: #111827; }
  .title { font-size: 24px; font-weight: 700; }
  .subtitle { font-size: 13px; fill: #4b5563; }
  .panel-title { font-size: 16px; font-weight: 700; }
  .axis-label { font-size: 11px; fill: #4b5563; }
  .shape-label { font-size: 10px; fill: #374151; }
  .axis { stroke: #111827; stroke-width: 1; }
  .grid { stroke: #e5e7eb; stroke-width: 1; }
  .legend { font-size: 13px; }
</style>

<rect x="0" y="0" width="100%" height="100%" fill="#ffffff"/>
<text x="40" y="42" class="title">SGEMM/DGEMM/CGEMM/ZGEMM Performance Sweep: Zynum BLAS vs Accelerate vs OpenBLAS</text>
<text x="40" y="66" class="subtitle">Best-of-reps GF/s across square, remainder, skinny, wide, and K-varied column-major GEMM shapes</text>
<line x1="1180" y1="38" x2="1212" y2="38" stroke="#2563eb" stroke-width="3"/>
<text x="1220" y="42" class="legend">Zynum BLAS</text>
<line x1="1325" y1="38" x2="1357" y2="38" stroke="#dc2626" stroke-width="3"/>
<text x="1365" y="42" class="legend">Accelerate</text>
<line x1="1470" y1="38" x2="1502" y2="38" stroke="#16a34a" stroke-width="3"/>
<text x="1510" y="42" class="legend">OpenBLAS</text>
<text x="110" y="92" class="panel-title">SGEMM GF/s</text>
<line x1="110" y1="370.0" x2="3890" y2="370.0" class="grid"/>
<text x="100" y="374.0" text-anchor="end" class="axis-label">0</text>
<line x1="110" y1="318.0" x2="3890" y2="318.0" class="grid"/>
<text x="100" y="322.0" text-anchor="end" class="axis-label">500</text>
<line x1="110" y1="266.0" x2="3890" y2="266.0" class="grid"/>
<text x="100" y="270.0" text-anchor="end" class="axis-label">1000</text>
<line x1="110" y1="214.0" x2="3890" y2="214.0" class="grid"/>
<text x="100" y="218.0" text-anchor="end" class="axis-label">1500</text>
<line x1="110" y1="162.0" x2="3890" y2="162.0" class="grid"/>
<text x="100" y="166.0" text-anchor="end" class="axis-label">2000</text>
<line x1="110" y1="110.0" x2="3890" y2="110.0" class="grid"/>
<text x="100" y="114.0" text-anchor="end" class="axis-label">2500</text>
<line x1="110" y1="110" x2="110" y2="370" class="axis"/>
<line x1="110" y1="370" x2="3890" y2="370" class="axis"/>
<polyline points="110.0,370.0 202.2,368.7 294.4,367.8 386.6,364.4 478.8,331.5 571.0,303.1 663.2,295.2 755.4,267.0 847.6,247.6 939.8,209.8 1032.0,185.9 1124.1,151.2 1216.3,164.8 1308.5,361.3 1400.7,360.8 1492.9,360.9 1585.1,352.0 1677.3,365.6 1769.5,365.0 1861.7,362.5 1953.9,236.3 2046.1,351.7 2138.3,360.3 2230.5,213.8 2322.7,266.9 2414.9,256.6 2507.1,296.9 2599.3,359.3 2691.5,251.8 2783.7,333.2 2875.9,331.7 2968.0,330.5 3060.2,327.0 3152.4,237.1 3244.6,333.6 3336.8,326.4 3429.0,333.9 3521.2,326.7 3613.4,327.1 3705.6,331.8 3797.8,338.5 3890.0,338.8" fill="none" stroke="#2563eb" stroke-width="2.4"/>
<circle cx="110.0" cy="370.0" r="2.4" fill="#2563eb"/>
<circle cx="202.2" cy="368.7" r="2.4" fill="#2563eb"/>
<circle cx="294.4" cy="367.8" r="2.4" fill="#2563eb"/>
<circle cx="386.6" cy="364.4" r="2.4" fill="#2563eb"/>
<circle cx="478.8" cy="331.5" r="2.4" fill="#2563eb"/>
<circle cx="571.0" cy="303.1" r="2.4" fill="#2563eb"/>
<circle cx="663.2" cy="295.2" r="2.4" fill="#2563eb"/>
<circle cx="755.4" cy="267.0" r="2.4" fill="#2563eb"/>
<circle cx="847.6" cy="247.6" r="2.4" fill="#2563eb"/>
<circle cx="939.8" cy="209.8" r="2.4" fill="#2563eb"/>
<circle cx="1032.0" cy="185.9" r="2.4" fill="#2563eb"/>
<circle cx="1124.1" cy="151.2" r="2.4" fill="#2563eb"/>
<circle cx="1216.3" cy="164.8" r="2.4" fill="#2563eb"/>
<circle cx="1308.5" cy="361.3" r="2.4" fill="#2563eb"/>
<circle cx="1400.7" cy="360.8" r="2.4" fill="#2563eb"/>
<circle cx="1492.9" cy="360.9" r="2.4" fill="#2563eb"/>
<circle cx="1585.1" cy="352.0" r="2.4" fill="#2563eb"/>
<circle cx="1677.3" cy="365.6" r="2.4" fill="#2563eb"/>
<circle cx="1769.5" cy="365.0" r="2.4" fill="#2563eb"/>
<circle cx="1861.7" cy="362.5" r="2.4" fill="#2563eb"/>
<circle cx="1953.9" cy="236.3" r="2.4" fill="#2563eb"/>
<circle cx="2046.1" cy="351.7" r="2.4" fill="#2563eb"/>
<circle cx="2138.3" cy="360.3" r="2.4" fill="#2563eb"/>
<circle cx="2230.5" cy="213.8" r="2.4" fill="#2563eb"/>
<circle cx="2322.7" cy="266.9" r="2.4" fill="#2563eb"/>
<circle cx="2414.9" cy="256.6" r="2.4" fill="#2563eb"/>
<circle cx="2507.1" cy="296.9" r="2.4" fill="#2563eb"/>
<circle cx="2599.3" cy="359.3" r="2.4" fill="#2563eb"/>
<circle cx="2691.5" cy="251.8" r="2.4" fill="#2563eb"/>
<circle cx="2783.7" cy="333.2" r="2.4" fill="#2563eb"/>
<circle cx="2875.9" cy="331.7" r="2.4" fill="#2563eb"/>
<circle cx="2968.0" cy="330.5" r="2.4" fill="#2563eb"/>
<circle cx="3060.2" cy="327.0" r="2.4" fill="#2563eb"/>
<circle cx="3152.4" cy="237.1" r="2.4" fill="#2563eb"/>
<circle cx="3244.6" cy="333.6" r="2.4" fill="#2563eb"/>
<circle cx="3336.8" cy="326.4" r="2.4" fill="#2563eb"/>
<circle cx="3429.0" cy="333.9" r="2.4" fill="#2563eb"/>
<circle cx="3521.2" cy="326.7" r="2.4" fill="#2563eb"/>
<circle cx="3613.4" cy="327.1" r="2.4" fill="#2563eb"/>
<circle cx="3705.6" cy="331.8" r="2.4" fill="#2563eb"/>
<circle cx="3797.8" cy="338.5" r="2.4" fill="#2563eb"/>
<circle cx="3890.0" cy="338.8" r="2.4" fill="#2563eb"/>
<polyline points="110.0,370.0 202.2,367.5 294.4,358.5 386.6,360.0 478.8,307.7 571.0,267.3 663.2,266.3 755.4,230.9 847.6,243.7 939.8,213.7 1032.0,221.7 1124.1,182.9 1216.3,177.7 1308.5,352.6 1400.7,343.0 1492.9,332.2 1585.1,336.3 1677.3,351.8 1769.5,333.1 1861.7,211.2 1953.9,212.8 2046.1,236.5 2138.3,298.0 2230.5,208.6 2322.7,263.8 2414.9,255.3 2507.1,276.8 2599.3,325.4 2691.5,255.4 2783.7,247.2 2875.9,222.9 2968.0,214.8 3060.2,219.3 3152.4,224.2 3244.6,213.2 3336.8,211.4 3429.0,203.7 3521.2,198.9 3613.4,200.4 3705.6,220.6 3797.8,233.2 3890.0,230.8" fill="none" stroke="#dc2626" stroke-width="2.4"/>
<circle cx="110.0" cy="370.0" r="2.4" fill="#dc2626"/>
<circle cx="202.2" cy="367.5" r="2.4" fill="#dc2626"/>
<circle cx="294.4" cy="358.5" r="2.4" fill="#dc2626"/>
<circle cx="386.6" cy="360.0" r="2.4" fill="#dc2626"/>
<circle cx="478.8" cy="307.7" r="2.4" fill="#dc2626"/>
<circle cx="571.0" cy="267.3" r="2.4" fill="#dc2626"/>
<circle cx="663.2" cy="266.3" r="2.4" fill="#dc2626"/>
<circle cx="755.4" cy="230.9" r="2.4" fill="#dc2626"/>
<circle cx="847.6" cy="243.7" r="2.4" fill="#dc2626"/>
<circle cx="939.8" cy="213.7" r="2.4" fill="#dc2626"/>
<circle cx="1032.0" cy="221.7" r="2.4" fill="#dc2626"/>
<circle cx="1124.1" cy="182.9" r="2.4" fill="#dc2626"/>
<circle cx="1216.3" cy="177.7" r="2.4" fill="#dc2626"/>
<circle cx="1308.5" cy="352.6" r="2.4" fill="#dc2626"/>
<circle cx="1400.7" cy="343.0" r="2.4" fill="#dc2626"/>
<circle cx="1492.9" cy="332.2" r="2.4" fill="#dc2626"/>
<circle cx="1585.1" cy="336.3" r="2.4" fill="#dc2626"/>
<circle cx="1677.3" cy="351.8" r="2.4" fill="#dc2626"/>
<circle cx="1769.5" cy="333.1" r="2.4" fill="#dc2626"/>
<circle cx="1861.7" cy="211.2" r="2.4" fill="#dc2626"/>
<circle cx="1953.9" cy="212.8" r="2.4" fill="#dc2626"/>
<circle cx="2046.1" cy="236.5" r="2.4" fill="#dc2626"/>
<circle cx="2138.3" cy="298.0" r="2.4" fill="#dc2626"/>
<circle cx="2230.5" cy="208.6" r="2.4" fill="#dc2626"/>
<circle cx="2322.7" cy="263.8" r="2.4" fill="#dc2626"/>
<circle cx="2414.9" cy="255.3" r="2.4" fill="#dc2626"/>
<circle cx="2507.1" cy="276.8" r="2.4" fill="#dc2626"/>
<circle cx="2599.3" cy="325.4" r="2.4" fill="#dc2626"/>
<circle cx="2691.5" cy="255.4" r="2.4" fill="#dc2626"/>
<circle cx="2783.7" cy="247.2" r="2.4" fill="#dc2626"/>
<circle cx="2875.9" cy="222.9" r="2.4" fill="#dc2626"/>
<circle cx="2968.0" cy="214.8" r="2.4" fill="#dc2626"/>
<circle cx="3060.2" cy="219.3" r="2.4" fill="#dc2626"/>
<circle cx="3152.4" cy="224.2" r="2.4" fill="#dc2626"/>
<circle cx="3244.6" cy="213.2" r="2.4" fill="#dc2626"/>
<circle cx="3336.8" cy="211.4" r="2.4" fill="#dc2626"/>
<circle cx="3429.0" cy="203.7" r="2.4" fill="#dc2626"/>
<circle cx="3521.2" cy="198.9" r="2.4" fill="#dc2626"/>
<circle cx="3613.4" cy="200.4" r="2.4" fill="#dc2626"/>
<circle cx="3705.6" cy="220.6" r="2.4" fill="#dc2626"/>
<circle cx="3797.8" cy="233.2" r="2.4" fill="#dc2626"/>
<circle cx="3890.0" cy="230.8" r="2.4" fill="#dc2626"/>
<polyline points="110.0,370.0 202.2,367.4 294.4,364.5 386.6,361.8 478.8,366.1 571.0,350.9 663.2,344.7 755.4,339.2 847.6,330.7 939.8,327.9 1032.0,326.4 1124.1,321.3 1216.3,323.2 1308.5,366.5 1400.7,365.2 1492.9,365.4 1585.1,361.5 1677.3,358.4 1769.5,365.6 1861.7,344.4 1953.9,341.8 2046.1,344.0 2138.3,354.6 2230.5,346.0 2322.7,326.1 2414.9,319.3 2507.1,319.1 2599.3,340.3 2691.5,325.6 2783.7,321.8 2875.9,321.4 2968.0,323.9 3060.2,331.4 3152.4,341.2 3244.6,325.0 3336.8,318.9 3429.0,329.8 3521.2,320.7 3613.4,323.4 3705.6,320.4 3797.8,318.0 3890.0,323.7" fill="none" stroke="#16a34a" stroke-width="2.4"/>
<circle cx="110.0" cy="370.0" r="2.4" fill="#16a34a"/>
<circle cx="202.2" cy="367.4" r="2.4" fill="#16a34a"/>
<circle cx="294.4" cy="364.5" r="2.4" fill="#16a34a"/>
<circle cx="386.6" cy="361.8" r="2.4" fill="#16a34a"/>
<circle cx="478.8" cy="366.1" r="2.4" fill="#16a34a"/>
<circle cx="571.0" cy="350.9" r="2.4" fill="#16a34a"/>
<circle cx="663.2" cy="344.7" r="2.4" fill="#16a34a"/>
<circle cx="755.4" cy="339.2" r="2.4" fill="#16a34a"/>
<circle cx="847.6" cy="330.7" r="2.4" fill="#16a34a"/>
<circle cx="939.8" cy="327.9" r="2.4" fill="#16a34a"/>
<circle cx="1032.0" cy="326.4" r="2.4" fill="#16a34a"/>
<circle cx="1124.1" cy="321.3" r="2.4" fill="#16a34a"/>
<circle cx="1216.3" cy="323.2" r="2.4" fill="#16a34a"/>
<circle cx="1308.5" cy="366.5" r="2.4" fill="#16a34a"/>
<circle cx="1400.7" cy="365.2" r="2.4" fill="#16a34a"/>
<circle cx="1492.9" cy="365.4" r="2.4" fill="#16a34a"/>
<circle cx="1585.1" cy="361.5" r="2.4" fill="#16a34a"/>
<circle cx="1677.3" cy="358.4" r="2.4" fill="#16a34a"/>
<circle cx="1769.5" cy="365.6" r="2.4" fill="#16a34a"/>
<circle cx="1861.7" cy="344.4" r="2.4" fill="#16a34a"/>
<circle cx="1953.9" cy="341.8" r="2.4" fill="#16a34a"/>
<circle cx="2046.1" cy="344.0" r="2.4" fill="#16a34a"/>
<circle cx="2138.3" cy="354.6" r="2.4" fill="#16a34a"/>
<circle cx="2230.5" cy="346.0" r="2.4" fill="#16a34a"/>
<circle cx="2322.7" cy="326.1" r="2.4" fill="#16a34a"/>
<circle cx="2414.9" cy="319.3" r="2.4" fill="#16a34a"/>
<circle cx="2507.1" cy="319.1" r="2.4" fill="#16a34a"/>
<circle cx="2599.3" cy="340.3" r="2.4" fill="#16a34a"/>
<circle cx="2691.5" cy="325.6" r="2.4" fill="#16a34a"/>
<circle cx="2783.7" cy="321.8" r="2.4" fill="#16a34a"/>
<circle cx="2875.9" cy="321.4" r="2.4" fill="#16a34a"/>
<circle cx="2968.0" cy="323.9" r="2.4" fill="#16a34a"/>
<circle cx="3060.2" cy="331.4" r="2.4" fill="#16a34a"/>
<circle cx="3152.4" cy="341.2" r="2.4" fill="#16a34a"/>
<circle cx="3244.6" cy="325.0" r="2.4" fill="#16a34a"/>
<circle cx="3336.8" cy="318.9" r="2.4" fill="#16a34a"/>
<circle cx="3429.0" cy="329.8" r="2.4" fill="#16a34a"/>
<circle cx="3521.2" cy="320.7" r="2.4" fill="#16a34a"/>
<circle cx="3613.4" cy="323.4" r="2.4" fill="#16a34a"/>
<circle cx="3705.6" cy="320.4" r="2.4" fill="#16a34a"/>
<circle cx="3797.8" cy="318.0" r="2.4" fill="#16a34a"/>
<circle cx="3890.0" cy="323.7" r="2.4" fill="#16a34a"/>
<text x="110" y="462" class="panel-title">DGEMM GF/s</text>
<line x1="110" y1="740.0" x2="3890" y2="740.0" class="grid"/>
<text x="100" y="744.0" text-anchor="end" class="axis-label">0</text>
<line x1="110" y1="653.3" x2="3890" y2="653.3" class="grid"/>
<text x="100" y="657.3" text-anchor="end" class="axis-label">200</text>
<line x1="110" y1="566.7" x2="3890" y2="566.7" class="grid"/>
<text x="100" y="570.7" text-anchor="end" class="axis-label">400</text>
<line x1="110" y1="480.0" x2="3890" y2="480.0" class="grid"/>
<text x="100" y="484.0" text-anchor="end" class="axis-label">600</text>
<line x1="110" y1="480" x2="110" y2="740" class="axis"/>
<line x1="110" y1="740" x2="3890" y2="740" class="axis"/>
<polyline points="110.0,740.0 202.2,734.7 294.4,726.5 386.6,728.8 478.8,663.2 571.0,627.8 663.2,611.3 755.4,595.8 847.6,558.8 939.8,519.8 1032.0,502.9 1124.1,490.3 1216.3,499.4 1308.5,721.4 1400.7,708.4 1492.9,720.5 1585.1,684.3 1677.3,721.5 1769.5,727.0 1861.7,724.8 1953.9,724.4 2046.1,689.1 2138.3,721.1 2230.5,547.7 2322.7,651.9 2414.9,649.3 2507.1,676.3 2599.3,711.0 2691.5,653.8 2783.7,665.7 2875.9,505.4 2968.0,499.7 3060.2,512.5 3152.4,554.0 3244.6,657.6 3336.8,659.0 3429.0,665.3 3521.2,657.6 3613.4,654.3 3705.6,657.6 3797.8,679.2 3890.0,679.5" fill="none" stroke="#2563eb" stroke-width="2.4"/>
<circle cx="110.0" cy="740.0" r="2.4" fill="#2563eb"/>
<circle cx="202.2" cy="734.7" r="2.4" fill="#2563eb"/>
<circle cx="294.4" cy="726.5" r="2.4" fill="#2563eb"/>
<circle cx="386.6" cy="728.8" r="2.4" fill="#2563eb"/>
<circle cx="478.8" cy="663.2" r="2.4" fill="#2563eb"/>
<circle cx="571.0" cy="627.8" r="2.4" fill="#2563eb"/>
<circle cx="663.2" cy="611.3" r="2.4" fill="#2563eb"/>
<circle cx="755.4" cy="595.8" r="2.4" fill="#2563eb"/>
<circle cx="847.6" cy="558.8" r="2.4" fill="#2563eb"/>
<circle cx="939.8" cy="519.8" r="2.4" fill="#2563eb"/>
<circle cx="1032.0" cy="502.9" r="2.4" fill="#2563eb"/>
<circle cx="1124.1" cy="490.3" r="2.4" fill="#2563eb"/>
<circle cx="1216.3" cy="499.4" r="2.4" fill="#2563eb"/>
<circle cx="1308.5" cy="721.4" r="2.4" fill="#2563eb"/>
<circle cx="1400.7" cy="708.4" r="2.4" fill="#2563eb"/>
<circle cx="1492.9" cy="720.5" r="2.4" fill="#2563eb"/>
<circle cx="1585.1" cy="684.3" r="2.4" fill="#2563eb"/>
<circle cx="1677.3" cy="721.5" r="2.4" fill="#2563eb"/>
<circle cx="1769.5" cy="727.0" r="2.4" fill="#2563eb"/>
<circle cx="1861.7" cy="724.8" r="2.4" fill="#2563eb"/>
<circle cx="1953.9" cy="724.4" r="2.4" fill="#2563eb"/>
<circle cx="2046.1" cy="689.1" r="2.4" fill="#2563eb"/>
<circle cx="2138.3" cy="721.1" r="2.4" fill="#2563eb"/>
<circle cx="2230.5" cy="547.7" r="2.4" fill="#2563eb"/>
<circle cx="2322.7" cy="651.9" r="2.4" fill="#2563eb"/>
<circle cx="2414.9" cy="649.3" r="2.4" fill="#2563eb"/>
<circle cx="2507.1" cy="676.3" r="2.4" fill="#2563eb"/>
<circle cx="2599.3" cy="711.0" r="2.4" fill="#2563eb"/>
<circle cx="2691.5" cy="653.8" r="2.4" fill="#2563eb"/>
<circle cx="2783.7" cy="665.7" r="2.4" fill="#2563eb"/>
<circle cx="2875.9" cy="505.4" r="2.4" fill="#2563eb"/>
<circle cx="2968.0" cy="499.7" r="2.4" fill="#2563eb"/>
<circle cx="3060.2" cy="512.5" r="2.4" fill="#2563eb"/>
<circle cx="3152.4" cy="554.0" r="2.4" fill="#2563eb"/>
<circle cx="3244.6" cy="657.6" r="2.4" fill="#2563eb"/>
<circle cx="3336.8" cy="659.0" r="2.4" fill="#2563eb"/>
<circle cx="3429.0" cy="665.3" r="2.4" fill="#2563eb"/>
<circle cx="3521.2" cy="657.6" r="2.4" fill="#2563eb"/>
<circle cx="3613.4" cy="654.3" r="2.4" fill="#2563eb"/>
<circle cx="3705.6" cy="657.6" r="2.4" fill="#2563eb"/>
<circle cx="3797.8" cy="679.2" r="2.4" fill="#2563eb"/>
<circle cx="3890.0" cy="679.5" r="2.4" fill="#2563eb"/>
<polyline points="110.0,740.0 202.2,734.7 294.4,703.5 386.6,706.0 478.8,624.0 571.0,571.2 663.2,566.9 755.4,549.5 847.6,563.7 939.8,536.9 1032.0,556.0 1124.1,528.2 1216.3,531.5 1308.5,693.3 1400.7,674.6 1492.9,631.1 1585.1,635.9 1677.3,686.5 1769.5,652.1 1861.7,604.6 1953.9,619.9 2046.1,661.2 2138.3,604.4 2230.5,606.1 2322.7,588.0 2414.9,570.2 2507.1,597.2 2599.3,663.9 2691.5,589.4 2783.7,592.5 2875.9,586.3 2968.0,529.2 3060.2,566.3 3152.4,582.4 3244.6,561.9 3336.8,561.1 3429.0,545.2 3521.2,550.8 3613.4,550.2 3705.6,560.4 3797.8,549.4 3890.0,545.1" fill="none" stroke="#dc2626" stroke-width="2.4"/>
<circle cx="110.0" cy="740.0" r="2.4" fill="#dc2626"/>
<circle cx="202.2" cy="734.7" r="2.4" fill="#dc2626"/>
<circle cx="294.4" cy="703.5" r="2.4" fill="#dc2626"/>
<circle cx="386.6" cy="706.0" r="2.4" fill="#dc2626"/>
<circle cx="478.8" cy="624.0" r="2.4" fill="#dc2626"/>
<circle cx="571.0" cy="571.2" r="2.4" fill="#dc2626"/>
<circle cx="663.2" cy="566.9" r="2.4" fill="#dc2626"/>
<circle cx="755.4" cy="549.5" r="2.4" fill="#dc2626"/>
<circle cx="847.6" cy="563.7" r="2.4" fill="#dc2626"/>
<circle cx="939.8" cy="536.9" r="2.4" fill="#dc2626"/>
<circle cx="1032.0" cy="556.0" r="2.4" fill="#dc2626"/>
<circle cx="1124.1" cy="528.2" r="2.4" fill="#dc2626"/>
<circle cx="1216.3" cy="531.5" r="2.4" fill="#dc2626"/>
<circle cx="1308.5" cy="693.3" r="2.4" fill="#dc2626"/>
<circle cx="1400.7" cy="674.6" r="2.4" fill="#dc2626"/>
<circle cx="1492.9" cy="631.1" r="2.4" fill="#dc2626"/>
<circle cx="1585.1" cy="635.9" r="2.4" fill="#dc2626"/>
<circle cx="1677.3" cy="686.5" r="2.4" fill="#dc2626"/>
<circle cx="1769.5" cy="652.1" r="2.4" fill="#dc2626"/>
<circle cx="1861.7" cy="604.6" r="2.4" fill="#dc2626"/>
<circle cx="1953.9" cy="619.9" r="2.4" fill="#dc2626"/>
<circle cx="2046.1" cy="661.2" r="2.4" fill="#dc2626"/>
<circle cx="2138.3" cy="604.4" r="2.4" fill="#dc2626"/>
<circle cx="2230.5" cy="606.1" r="2.4" fill="#dc2626"/>
<circle cx="2322.7" cy="588.0" r="2.4" fill="#dc2626"/>
<circle cx="2414.9" cy="570.2" r="2.4" fill="#dc2626"/>
<circle cx="2507.1" cy="597.2" r="2.4" fill="#dc2626"/>
<circle cx="2599.3" cy="663.9" r="2.4" fill="#dc2626"/>
<circle cx="2691.5" cy="589.4" r="2.4" fill="#dc2626"/>
<circle cx="2783.7" cy="592.5" r="2.4" fill="#dc2626"/>
<circle cx="2875.9" cy="586.3" r="2.4" fill="#dc2626"/>
<circle cx="2968.0" cy="529.2" r="2.4" fill="#dc2626"/>
<circle cx="3060.2" cy="566.3" r="2.4" fill="#dc2626"/>
<circle cx="3152.4" cy="582.4" r="2.4" fill="#dc2626"/>
<circle cx="3244.6" cy="561.9" r="2.4" fill="#dc2626"/>
<circle cx="3336.8" cy="561.1" r="2.4" fill="#dc2626"/>
<circle cx="3429.0" cy="545.2" r="2.4" fill="#dc2626"/>
<circle cx="3521.2" cy="550.8" r="2.4" fill="#dc2626"/>
<circle cx="3613.4" cy="550.2" r="2.4" fill="#dc2626"/>
<circle cx="3705.6" cy="560.4" r="2.4" fill="#dc2626"/>
<circle cx="3797.8" cy="549.4" r="2.4" fill="#dc2626"/>
<circle cx="3890.0" cy="545.1" r="2.4" fill="#dc2626"/>
<polyline points="110.0,740.0 202.2,734.7 294.4,724.5 386.6,722.6 478.8,729.8 571.0,683.4 663.2,667.3 755.4,654.2 847.6,649.2 939.8,649.5 1032.0,642.5 1124.1,637.8 1216.3,642.2 1308.5,723.2 1400.7,721.1 1492.9,720.2 1585.1,722.5 1677.3,716.3 1769.5,727.7 1861.7,683.4 1953.9,681.7 2046.1,690.4 2138.3,701.9 2230.5,674.8 2322.7,644.0 2414.9,637.0 2507.1,641.6 2599.3,659.6 2691.5,646.6 2783.7,645.7 2875.9,643.2 2968.0,640.1 3060.2,647.0 3152.4,660.4 3244.6,646.1 3336.8,632.5 3429.0,649.1 3521.2,638.0 3613.4,639.1 3705.6,635.0 3797.8,637.8 3890.0,652.1" fill="none" stroke="#16a34a" stroke-width="2.4"/>
<circle cx="110.0" cy="740.0" r="2.4" fill="#16a34a"/>
<circle cx="202.2" cy="734.7" r="2.4" fill="#16a34a"/>
<circle cx="294.4" cy="724.5" r="2.4" fill="#16a34a"/>
<circle cx="386.6" cy="722.6" r="2.4" fill="#16a34a"/>
<circle cx="478.8" cy="729.8" r="2.4" fill="#16a34a"/>
<circle cx="571.0" cy="683.4" r="2.4" fill="#16a34a"/>
<circle cx="663.2" cy="667.3" r="2.4" fill="#16a34a"/>
<circle cx="755.4" cy="654.2" r="2.4" fill="#16a34a"/>
<circle cx="847.6" cy="649.2" r="2.4" fill="#16a34a"/>
<circle cx="939.8" cy="649.5" r="2.4" fill="#16a34a"/>
<circle cx="1032.0" cy="642.5" r="2.4" fill="#16a34a"/>
<circle cx="1124.1" cy="637.8" r="2.4" fill="#16a34a"/>
<circle cx="1216.3" cy="642.2" r="2.4" fill="#16a34a"/>
<circle cx="1308.5" cy="723.2" r="2.4" fill="#16a34a"/>
<circle cx="1400.7" cy="721.1" r="2.4" fill="#16a34a"/>
<circle cx="1492.9" cy="720.2" r="2.4" fill="#16a34a"/>
<circle cx="1585.1" cy="722.5" r="2.4" fill="#16a34a"/>
<circle cx="1677.3" cy="716.3" r="2.4" fill="#16a34a"/>
<circle cx="1769.5" cy="727.7" r="2.4" fill="#16a34a"/>
<circle cx="1861.7" cy="683.4" r="2.4" fill="#16a34a"/>
<circle cx="1953.9" cy="681.7" r="2.4" fill="#16a34a"/>
<circle cx="2046.1" cy="690.4" r="2.4" fill="#16a34a"/>
<circle cx="2138.3" cy="701.9" r="2.4" fill="#16a34a"/>
<circle cx="2230.5" cy="674.8" r="2.4" fill="#16a34a"/>
<circle cx="2322.7" cy="644.0" r="2.4" fill="#16a34a"/>
<circle cx="2414.9" cy="637.0" r="2.4" fill="#16a34a"/>
<circle cx="2507.1" cy="641.6" r="2.4" fill="#16a34a"/>
<circle cx="2599.3" cy="659.6" r="2.4" fill="#16a34a"/>
<circle cx="2691.5" cy="646.6" r="2.4" fill="#16a34a"/>
<circle cx="2783.7" cy="645.7" r="2.4" fill="#16a34a"/>
<circle cx="2875.9" cy="643.2" r="2.4" fill="#16a34a"/>
<circle cx="2968.0" cy="640.1" r="2.4" fill="#16a34a"/>
<circle cx="3060.2" cy="647.0" r="2.4" fill="#16a34a"/>
<circle cx="3152.4" cy="660.4" r="2.4" fill="#16a34a"/>
<circle cx="3244.6" cy="646.1" r="2.4" fill="#16a34a"/>
<circle cx="3336.8" cy="632.5" r="2.4" fill="#16a34a"/>
<circle cx="3429.0" cy="649.1" r="2.4" fill="#16a34a"/>
<circle cx="3521.2" cy="638.0" r="2.4" fill="#16a34a"/>
<circle cx="3613.4" cy="639.1" r="2.4" fill="#16a34a"/>
<circle cx="3705.6" cy="635.0" r="2.4" fill="#16a34a"/>
<circle cx="3797.8" cy="637.8" r="2.4" fill="#16a34a"/>
<circle cx="3890.0" cy="652.1" r="2.4" fill="#16a34a"/>
<text x="110" y="832" class="panel-title">CGEMM GF/s</text>
<line x1="110" y1="1110.0" x2="3890" y2="1110.0" class="grid"/>
<text x="100" y="1114.0" text-anchor="end" class="axis-label">0</text>
<line x1="110" y1="1045.0" x2="3890" y2="1045.0" class="grid"/>
<text x="100" y="1049.0" text-anchor="end" class="axis-label">500</text>
<line x1="110" y1="980.0" x2="3890" y2="980.0" class="grid"/>
<text x="100" y="984.0" text-anchor="end" class="axis-label">1000</text>
<line x1="110" y1="915.0" x2="3890" y2="915.0" class="grid"/>
<text x="100" y="919.0" text-anchor="end" class="axis-label">1500</text>
<line x1="110" y1="850.0" x2="3890" y2="850.0" class="grid"/>
<text x="100" y="854.0" text-anchor="end" class="axis-label">2000</text>
<line x1="110" y1="850" x2="110" y2="1110" class="axis"/>
<line x1="110" y1="1110" x2="3890" y2="1110" class="axis"/>
<polyline points="110.0,1110.0 202.2,1097.0 294.4,1103.3 386.6,1102.4 478.8,1076.8 571.0,1058.0 663.2,1045.5 755.4,1025.5 847.6,998.4 939.8,957.8 1032.0,923.7 1124.1,877.0 1216.3,860.6 1308.5,1102.3 1400.7,1096.6 1492.9,1098.0 1585.1,1086.5 1677.3,1108.7 1769.5,1108.2 1861.7,1099.4 1953.9,1025.1 2046.1,1085.6 2138.3,1098.4 2230.5,1021.6 2322.7,1064.8 2414.9,1063.3 2507.1,1038.2 2599.3,1086.6 2691.5,1032.2 2783.7,1068.6 2875.9,1054.3 2968.0,1051.9 3060.2,1057.9 3152.4,1005.8 3244.6,1056.5 3336.8,1050.1 3429.0,1075.4 3521.2,1069.3 3613.4,1049.8 3705.6,1055.9 3797.8,1067.4 3890.0,1067.6" fill="none" stroke="#2563eb" stroke-width="2.4"/>
<circle cx="110.0" cy="1110.0" r="2.4" fill="#2563eb"/>
<circle cx="202.2" cy="1097.0" r="2.4" fill="#2563eb"/>
<circle cx="294.4" cy="1103.3" r="2.4" fill="#2563eb"/>
<circle cx="386.6" cy="1102.4" r="2.4" fill="#2563eb"/>
<circle cx="478.8" cy="1076.8" r="2.4" fill="#2563eb"/>
<circle cx="571.0" cy="1058.0" r="2.4" fill="#2563eb"/>
<circle cx="663.2" cy="1045.5" r="2.4" fill="#2563eb"/>
<circle cx="755.4" cy="1025.5" r="2.4" fill="#2563eb"/>
<circle cx="847.6" cy="998.4" r="2.4" fill="#2563eb"/>
<circle cx="939.8" cy="957.8" r="2.4" fill="#2563eb"/>
<circle cx="1032.0" cy="923.7" r="2.4" fill="#2563eb"/>
<circle cx="1124.1" cy="877.0" r="2.4" fill="#2563eb"/>
<circle cx="1216.3" cy="860.6" r="2.4" fill="#2563eb"/>
<circle cx="1308.5" cy="1102.3" r="2.4" fill="#2563eb"/>
<circle cx="1400.7" cy="1096.6" r="2.4" fill="#2563eb"/>
<circle cx="1492.9" cy="1098.0" r="2.4" fill="#2563eb"/>
<circle cx="1585.1" cy="1086.5" r="2.4" fill="#2563eb"/>
<circle cx="1677.3" cy="1108.7" r="2.4" fill="#2563eb"/>
<circle cx="1769.5" cy="1108.2" r="2.4" fill="#2563eb"/>
<circle cx="1861.7" cy="1099.4" r="2.4" fill="#2563eb"/>
<circle cx="1953.9" cy="1025.1" r="2.4" fill="#2563eb"/>
<circle cx="2046.1" cy="1085.6" r="2.4" fill="#2563eb"/>
<circle cx="2138.3" cy="1098.4" r="2.4" fill="#2563eb"/>
<circle cx="2230.5" cy="1021.6" r="2.4" fill="#2563eb"/>
<circle cx="2322.7" cy="1064.8" r="2.4" fill="#2563eb"/>
<circle cx="2414.9" cy="1063.3" r="2.4" fill="#2563eb"/>
<circle cx="2507.1" cy="1038.2" r="2.4" fill="#2563eb"/>
<circle cx="2599.3" cy="1086.6" r="2.4" fill="#2563eb"/>
<circle cx="2691.5" cy="1032.2" r="2.4" fill="#2563eb"/>
<circle cx="2783.7" cy="1068.6" r="2.4" fill="#2563eb"/>
<circle cx="2875.9" cy="1054.3" r="2.4" fill="#2563eb"/>
<circle cx="2968.0" cy="1051.9" r="2.4" fill="#2563eb"/>
<circle cx="3060.2" cy="1057.9" r="2.4" fill="#2563eb"/>
<circle cx="3152.4" cy="1005.8" r="2.4" fill="#2563eb"/>
<circle cx="3244.6" cy="1056.5" r="2.4" fill="#2563eb"/>
<circle cx="3336.8" cy="1050.1" r="2.4" fill="#2563eb"/>
<circle cx="3429.0" cy="1075.4" r="2.4" fill="#2563eb"/>
<circle cx="3521.2" cy="1069.3" r="2.4" fill="#2563eb"/>
<circle cx="3613.4" cy="1049.8" r="2.4" fill="#2563eb"/>
<circle cx="3705.6" cy="1055.9" r="2.4" fill="#2563eb"/>
<circle cx="3797.8" cy="1067.4" r="2.4" fill="#2563eb"/>
<circle cx="3890.0" cy="1067.6" r="2.4" fill="#2563eb"/>
<polyline points="110.0,1110.0 202.2,1107.9 294.4,1101.5 386.6,1102.7 478.8,1082.0 571.0,1063.9 663.2,1053.0 755.4,1021.2 847.6,1008.0 939.8,975.7 1032.0,965.4 1124.1,930.4 1216.3,929.7 1308.5,1100.0 1400.7,1095.1 1492.9,1087.1 1585.1,1087.4 1677.3,1107.2 1769.5,1106.9 1861.7,1005.2 1953.9,1006.4 2046.1,1044.0 2138.3,1074.8 2230.5,1008.6 2322.7,1024.9 2414.9,1026.9 2507.1,1057.9 2599.3,1084.1 2691.5,1025.2 2783.7,1034.6 2875.9,995.8 2968.0,961.4 3060.2,977.8 3152.4,1008.3 3244.6,976.6 3336.8,981.9 3429.0,961.3 3521.2,961.3 3613.4,967.1 3705.6,976.1 3797.8,1017.5 3890.0,1015.6" fill="none" stroke="#dc2626" stroke-width="2.4"/>
<circle cx="110.0" cy="1110.0" r="2.4" fill="#dc2626"/>
<circle cx="202.2" cy="1107.9" r="2.4" fill="#dc2626"/>
<circle cx="294.4" cy="1101.5" r="2.4" fill="#dc2626"/>
<circle cx="386.6" cy="1102.7" r="2.4" fill="#dc2626"/>
<circle cx="478.8" cy="1082.0" r="2.4" fill="#dc2626"/>
<circle cx="571.0" cy="1063.9" r="2.4" fill="#dc2626"/>
<circle cx="663.2" cy="1053.0" r="2.4" fill="#dc2626"/>
<circle cx="755.4" cy="1021.2" r="2.4" fill="#dc2626"/>
<circle cx="847.6" cy="1008.0" r="2.4" fill="#dc2626"/>
<circle cx="939.8" cy="975.7" r="2.4" fill="#dc2626"/>
<circle cx="1032.0" cy="965.4" r="2.4" fill="#dc2626"/>
<circle cx="1124.1" cy="930.4" r="2.4" fill="#dc2626"/>
<circle cx="1216.3" cy="929.7" r="2.4" fill="#dc2626"/>
<circle cx="1308.5" cy="1100.0" r="2.4" fill="#dc2626"/>
<circle cx="1400.7" cy="1095.1" r="2.4" fill="#dc2626"/>
<circle cx="1492.9" cy="1087.1" r="2.4" fill="#dc2626"/>
<circle cx="1585.1" cy="1087.4" r="2.4" fill="#dc2626"/>
<circle cx="1677.3" cy="1107.2" r="2.4" fill="#dc2626"/>
<circle cx="1769.5" cy="1106.9" r="2.4" fill="#dc2626"/>
<circle cx="1861.7" cy="1005.2" r="2.4" fill="#dc2626"/>
<circle cx="1953.9" cy="1006.4" r="2.4" fill="#dc2626"/>
<circle cx="2046.1" cy="1044.0" r="2.4" fill="#dc2626"/>
<circle cx="2138.3" cy="1074.8" r="2.4" fill="#dc2626"/>
<circle cx="2230.5" cy="1008.6" r="2.4" fill="#dc2626"/>
<circle cx="2322.7" cy="1024.9" r="2.4" fill="#dc2626"/>
<circle cx="2414.9" cy="1026.9" r="2.4" fill="#dc2626"/>
<circle cx="2507.1" cy="1057.9" r="2.4" fill="#dc2626"/>
<circle cx="2599.3" cy="1084.1" r="2.4" fill="#dc2626"/>
<circle cx="2691.5" cy="1025.2" r="2.4" fill="#dc2626"/>
<circle cx="2783.7" cy="1034.6" r="2.4" fill="#dc2626"/>
<circle cx="2875.9" cy="995.8" r="2.4" fill="#dc2626"/>
<circle cx="2968.0" cy="961.4" r="2.4" fill="#dc2626"/>
<circle cx="3060.2" cy="977.8" r="2.4" fill="#dc2626"/>
<circle cx="3152.4" cy="1008.3" r="2.4" fill="#dc2626"/>
<circle cx="3244.6" cy="976.6" r="2.4" fill="#dc2626"/>
<circle cx="3336.8" cy="981.9" r="2.4" fill="#dc2626"/>
<circle cx="3429.0" cy="961.3" r="2.4" fill="#dc2626"/>
<circle cx="3521.2" cy="961.3" r="2.4" fill="#dc2626"/>
<circle cx="3613.4" cy="967.1" r="2.4" fill="#dc2626"/>
<circle cx="3705.6" cy="976.1" r="2.4" fill="#dc2626"/>
<circle cx="3797.8" cy="1017.5" r="2.4" fill="#dc2626"/>
<circle cx="3890.0" cy="1015.6" r="2.4" fill="#dc2626"/>
<polyline points="110.0,1110.0 202.2,1103.6 294.4,1102.3 386.6,1100.8 478.8,1077.0 571.0,1079.2 663.2,1069.5 755.4,1066.5 847.6,1060.6 939.8,1050.5 1032.0,1047.5 1124.1,1045.6 1216.3,1047.4 1308.5,1100.5 1400.7,1092.0 1492.9,1072.3 1585.1,1074.9 1677.3,1101.3 1769.5,1102.7 1861.7,1069.4 1953.9,1066.9 2046.1,1069.6 2138.3,1084.3 2230.5,1072.7 2322.7,1047.1 2414.9,1046.0 2507.1,1048.0 2599.3,1060.0 2691.5,1049.1 2783.7,1049.2 2875.9,1047.3 2968.0,1048.3 3060.2,1055.7 3152.4,1062.3 3244.6,1048.7 3336.8,1044.4 3429.0,1052.2 3521.2,1046.1 3613.4,1045.9 3705.6,1046.8 3797.8,1045.5 3890.0,1050.1" fill="none" stroke="#16a34a" stroke-width="2.4"/>
<circle cx="110.0" cy="1110.0" r="2.4" fill="#16a34a"/>
<circle cx="202.2" cy="1103.6" r="2.4" fill="#16a34a"/>
<circle cx="294.4" cy="1102.3" r="2.4" fill="#16a34a"/>
<circle cx="386.6" cy="1100.8" r="2.4" fill="#16a34a"/>
<circle cx="478.8" cy="1077.0" r="2.4" fill="#16a34a"/>
<circle cx="571.0" cy="1079.2" r="2.4" fill="#16a34a"/>
<circle cx="663.2" cy="1069.5" r="2.4" fill="#16a34a"/>
<circle cx="755.4" cy="1066.5" r="2.4" fill="#16a34a"/>
<circle cx="847.6" cy="1060.6" r="2.4" fill="#16a34a"/>
<circle cx="939.8" cy="1050.5" r="2.4" fill="#16a34a"/>
<circle cx="1032.0" cy="1047.5" r="2.4" fill="#16a34a"/>
<circle cx="1124.1" cy="1045.6" r="2.4" fill="#16a34a"/>
<circle cx="1216.3" cy="1047.4" r="2.4" fill="#16a34a"/>
<circle cx="1308.5" cy="1100.5" r="2.4" fill="#16a34a"/>
<circle cx="1400.7" cy="1092.0" r="2.4" fill="#16a34a"/>
<circle cx="1492.9" cy="1072.3" r="2.4" fill="#16a34a"/>
<circle cx="1585.1" cy="1074.9" r="2.4" fill="#16a34a"/>
<circle cx="1677.3" cy="1101.3" r="2.4" fill="#16a34a"/>
<circle cx="1769.5" cy="1102.7" r="2.4" fill="#16a34a"/>
<circle cx="1861.7" cy="1069.4" r="2.4" fill="#16a34a"/>
<circle cx="1953.9" cy="1066.9" r="2.4" fill="#16a34a"/>
<circle cx="2046.1" cy="1069.6" r="2.4" fill="#16a34a"/>
<circle cx="2138.3" cy="1084.3" r="2.4" fill="#16a34a"/>
<circle cx="2230.5" cy="1072.7" r="2.4" fill="#16a34a"/>
<circle cx="2322.7" cy="1047.1" r="2.4" fill="#16a34a"/>
<circle cx="2414.9" cy="1046.0" r="2.4" fill="#16a34a"/>
<circle cx="2507.1" cy="1048.0" r="2.4" fill="#16a34a"/>
<circle cx="2599.3" cy="1060.0" r="2.4" fill="#16a34a"/>
<circle cx="2691.5" cy="1049.1" r="2.4" fill="#16a34a"/>
<circle cx="2783.7" cy="1049.2" r="2.4" fill="#16a34a"/>
<circle cx="2875.9" cy="1047.3" r="2.4" fill="#16a34a"/>
<circle cx="2968.0" cy="1048.3" r="2.4" fill="#16a34a"/>
<circle cx="3060.2" cy="1055.7" r="2.4" fill="#16a34a"/>
<circle cx="3152.4" cy="1062.3" r="2.4" fill="#16a34a"/>
<circle cx="3244.6" cy="1048.7" r="2.4" fill="#16a34a"/>
<circle cx="3336.8" cy="1044.4" r="2.4" fill="#16a34a"/>
<circle cx="3429.0" cy="1052.2" r="2.4" fill="#16a34a"/>
<circle cx="3521.2" cy="1046.1" r="2.4" fill="#16a34a"/>
<circle cx="3613.4" cy="1045.9" r="2.4" fill="#16a34a"/>
<circle cx="3705.6" cy="1046.8" r="2.4" fill="#16a34a"/>
<circle cx="3797.8" cy="1045.5" r="2.4" fill="#16a34a"/>
<circle cx="3890.0" cy="1050.1" r="2.4" fill="#16a34a"/>
<text x="110" y="1202" class="panel-title">ZGEMM GF/s</text>
<line x1="110" y1="1480.0" x2="3890" y2="1480.0" class="grid"/>
<text x="100" y="1484.0" text-anchor="end" class="axis-label">0</text>
<line x1="110" y1="1393.3" x2="3890" y2="1393.3" class="grid"/>
<text x="100" y="1397.3" text-anchor="end" class="axis-label">200</text>
<line x1="110" y1="1306.7" x2="3890" y2="1306.7" class="grid"/>
<text x="100" y="1310.7" text-anchor="end" class="axis-label">400</text>
<line x1="110" y1="1220.0" x2="3890" y2="1220.0" class="grid"/>
<text x="100" y="1224.0" text-anchor="end" class="axis-label">600</text>
<line x1="110" y1="1220" x2="110" y2="1480" class="axis"/>
<line x1="110" y1="1480" x2="3890" y2="1480" class="axis"/>
<polyline points="110.0,1479.9 202.2,1474.7 294.4,1463.8 386.6,1458.0 478.8,1414.3 571.0,1394.8 663.2,1385.8 755.4,1348.3 847.6,1316.0 939.8,1275.1 1032.0,1247.2 1124.1,1222.1 1216.3,1238.6 1308.5,1463.5 1400.7,1451.2 1492.9,1460.3 1585.1,1430.8 1677.3,1476.5 1769.5,1476.1 1861.7,1461.3 1953.9,1461.8 2046.1,1437.5 2138.3,1459.0 2230.5,1359.5 2322.7,1394.9 2414.9,1394.6 2507.1,1375.1 2599.3,1439.3 2691.5,1398.7 2783.7,1406.0 2875.9,1262.2 2968.0,1234.3 3060.2,1277.2 3152.4,1348.6 3244.6,1387.3 3336.8,1386.2 3429.0,1394.1 3521.2,1391.4 3613.4,1383.1 3705.6,1387.2 3797.8,1412.8 3890.0,1413.2" fill="none" stroke="#2563eb" stroke-width="2.4"/>
<circle cx="110.0" cy="1479.9" r="2.4" fill="#2563eb"/>
<circle cx="202.2" cy="1474.7" r="2.4" fill="#2563eb"/>
<circle cx="294.4" cy="1463.8" r="2.4" fill="#2563eb"/>
<circle cx="386.6" cy="1458.0" r="2.4" fill="#2563eb"/>
<circle cx="478.8" cy="1414.3" r="2.4" fill="#2563eb"/>
<circle cx="571.0" cy="1394.8" r="2.4" fill="#2563eb"/>
<circle cx="663.2" cy="1385.8" r="2.4" fill="#2563eb"/>
<circle cx="755.4" cy="1348.3" r="2.4" fill="#2563eb"/>
<circle cx="847.6" cy="1316.0" r="2.4" fill="#2563eb"/>
<circle cx="939.8" cy="1275.1" r="2.4" fill="#2563eb"/>
<circle cx="1032.0" cy="1247.2" r="2.4" fill="#2563eb"/>
<circle cx="1124.1" cy="1222.1" r="2.4" fill="#2563eb"/>
<circle cx="1216.3" cy="1238.6" r="2.4" fill="#2563eb"/>
<circle cx="1308.5" cy="1463.5" r="2.4" fill="#2563eb"/>
<circle cx="1400.7" cy="1451.2" r="2.4" fill="#2563eb"/>
<circle cx="1492.9" cy="1460.3" r="2.4" fill="#2563eb"/>
<circle cx="1585.1" cy="1430.8" r="2.4" fill="#2563eb"/>
<circle cx="1677.3" cy="1476.5" r="2.4" fill="#2563eb"/>
<circle cx="1769.5" cy="1476.1" r="2.4" fill="#2563eb"/>
<circle cx="1861.7" cy="1461.3" r="2.4" fill="#2563eb"/>
<circle cx="1953.9" cy="1461.8" r="2.4" fill="#2563eb"/>
<circle cx="2046.1" cy="1437.5" r="2.4" fill="#2563eb"/>
<circle cx="2138.3" cy="1459.0" r="2.4" fill="#2563eb"/>
<circle cx="2230.5" cy="1359.5" r="2.4" fill="#2563eb"/>
<circle cx="2322.7" cy="1394.9" r="2.4" fill="#2563eb"/>
<circle cx="2414.9" cy="1394.6" r="2.4" fill="#2563eb"/>
<circle cx="2507.1" cy="1375.1" r="2.4" fill="#2563eb"/>
<circle cx="2599.3" cy="1439.3" r="2.4" fill="#2563eb"/>
<circle cx="2691.5" cy="1398.7" r="2.4" fill="#2563eb"/>
<circle cx="2783.7" cy="1406.0" r="2.4" fill="#2563eb"/>
<circle cx="2875.9" cy="1262.2" r="2.4" fill="#2563eb"/>
<circle cx="2968.0" cy="1234.3" r="2.4" fill="#2563eb"/>
<circle cx="3060.2" cy="1277.2" r="2.4" fill="#2563eb"/>
<circle cx="3152.4" cy="1348.6" r="2.4" fill="#2563eb"/>
<circle cx="3244.6" cy="1387.3" r="2.4" fill="#2563eb"/>
<circle cx="3336.8" cy="1386.2" r="2.4" fill="#2563eb"/>
<circle cx="3429.0" cy="1394.1" r="2.4" fill="#2563eb"/>
<circle cx="3521.2" cy="1391.4" r="2.4" fill="#2563eb"/>
<circle cx="3613.4" cy="1383.1" r="2.4" fill="#2563eb"/>
<circle cx="3705.6" cy="1387.2" r="2.4" fill="#2563eb"/>
<circle cx="3797.8" cy="1412.8" r="2.4" fill="#2563eb"/>
<circle cx="3890.0" cy="1413.2" r="2.4" fill="#2563eb"/>
<polyline points="110.0,1479.9 202.2,1474.7 294.4,1458.3 386.6,1460.1 478.8,1435.1 571.0,1410.3 663.2,1390.6 755.4,1367.3 847.6,1361.0 939.8,1331.7 1032.0,1336.2 1124.1,1318.1 1216.3,1306.7 1308.5,1459.4 1400.7,1453.6 1492.9,1442.9 1585.1,1440.4 1677.3,1477.4 1769.5,1477.3 1861.7,1406.6 1953.9,1415.5 2046.1,1444.4 2138.3,1441.2 2230.5,1410.7 2322.7,1399.5 2414.9,1397.9 2507.1,1429.0 2599.3,1448.4 2691.5,1403.5 2783.7,1387.6 2875.9,1376.6 2968.0,1320.5 3060.2,1364.8 3152.4,1394.4 3244.6,1343.4 3336.8,1350.4 3429.0,1337.7 3521.2,1345.2 3613.4,1332.0 3705.6,1336.8 3797.8,1359.4 3890.0,1356.2" fill="none" stroke="#dc2626" stroke-width="2.4"/>
<circle cx="110.0" cy="1479.9" r="2.4" fill="#dc2626"/>
<circle cx="202.2" cy="1474.7" r="2.4" fill="#dc2626"/>
<circle cx="294.4" cy="1458.3" r="2.4" fill="#dc2626"/>
<circle cx="386.6" cy="1460.1" r="2.4" fill="#dc2626"/>
<circle cx="478.8" cy="1435.1" r="2.4" fill="#dc2626"/>
<circle cx="571.0" cy="1410.3" r="2.4" fill="#dc2626"/>
<circle cx="663.2" cy="1390.6" r="2.4" fill="#dc2626"/>
<circle cx="755.4" cy="1367.3" r="2.4" fill="#dc2626"/>
<circle cx="847.6" cy="1361.0" r="2.4" fill="#dc2626"/>
<circle cx="939.8" cy="1331.7" r="2.4" fill="#dc2626"/>
<circle cx="1032.0" cy="1336.2" r="2.4" fill="#dc2626"/>
<circle cx="1124.1" cy="1318.1" r="2.4" fill="#dc2626"/>
<circle cx="1216.3" cy="1306.7" r="2.4" fill="#dc2626"/>
<circle cx="1308.5" cy="1459.4" r="2.4" fill="#dc2626"/>
<circle cx="1400.7" cy="1453.6" r="2.4" fill="#dc2626"/>
<circle cx="1492.9" cy="1442.9" r="2.4" fill="#dc2626"/>
<circle cx="1585.1" cy="1440.4" r="2.4" fill="#dc2626"/>
<circle cx="1677.3" cy="1477.4" r="2.4" fill="#dc2626"/>
<circle cx="1769.5" cy="1477.3" r="2.4" fill="#dc2626"/>
<circle cx="1861.7" cy="1406.6" r="2.4" fill="#dc2626"/>
<circle cx="1953.9" cy="1415.5" r="2.4" fill="#dc2626"/>
<circle cx="2046.1" cy="1444.4" r="2.4" fill="#dc2626"/>
<circle cx="2138.3" cy="1441.2" r="2.4" fill="#dc2626"/>
<circle cx="2230.5" cy="1410.7" r="2.4" fill="#dc2626"/>
<circle cx="2322.7" cy="1399.5" r="2.4" fill="#dc2626"/>
<circle cx="2414.9" cy="1397.9" r="2.4" fill="#dc2626"/>
<circle cx="2507.1" cy="1429.0" r="2.4" fill="#dc2626"/>
<circle cx="2599.3" cy="1448.4" r="2.4" fill="#dc2626"/>
<circle cx="2691.5" cy="1403.5" r="2.4" fill="#dc2626"/>
<circle cx="2783.7" cy="1387.6" r="2.4" fill="#dc2626"/>
<circle cx="2875.9" cy="1376.6" r="2.4" fill="#dc2626"/>
<circle cx="2968.0" cy="1320.5" r="2.4" fill="#dc2626"/>
<circle cx="3060.2" cy="1364.8" r="2.4" fill="#dc2626"/>
<circle cx="3152.4" cy="1394.4" r="2.4" fill="#dc2626"/>
<circle cx="3244.6" cy="1343.4" r="2.4" fill="#dc2626"/>
<circle cx="3336.8" cy="1350.4" r="2.4" fill="#dc2626"/>
<circle cx="3429.0" cy="1337.7" r="2.4" fill="#dc2626"/>
<circle cx="3521.2" cy="1345.2" r="2.4" fill="#dc2626"/>
<circle cx="3613.4" cy="1332.0" r="2.4" fill="#dc2626"/>
<circle cx="3705.6" cy="1336.8" r="2.4" fill="#dc2626"/>
<circle cx="3797.8" cy="1359.4" r="2.4" fill="#dc2626"/>
<circle cx="3890.0" cy="1356.2" r="2.4" fill="#dc2626"/>
<polyline points="110.0,1479.9 202.2,1469.3 294.4,1465.5 386.6,1464.3 478.8,1426.3 571.0,1408.4 663.2,1396.5 755.4,1386.9 847.6,1383.2 939.8,1381.3 1032.0,1379.7 1124.1,1382.1 1216.3,1379.4 1308.5,1462.6 1400.7,1445.7 1492.9,1407.1 1585.1,1407.1 1677.3,1469.7 1769.5,1467.0 1861.7,1405.3 1953.9,1405.2 2046.1,1412.1 2138.3,1434.9 2230.5,1409.2 2322.7,1380.3 2414.9,1380.1 2507.1,1384.2 2599.3,1392.0 2691.5,1382.3 2783.7,1384.2 2875.9,1384.2 2968.0,1382.4 3060.2,1385.5 3152.4,1393.4 3244.6,1382.3 3336.8,1380.5 3429.0,1383.1 3521.2,1379.3 3613.4,1378.9 3705.6,1380.0 3797.8,1378.7 3890.0,1383.6" fill="none" stroke="#16a34a" stroke-width="2.4"/>
<circle cx="110.0" cy="1479.9" r="2.4" fill="#16a34a"/>
<circle cx="202.2" cy="1469.3" r="2.4" fill="#16a34a"/>
<circle cx="294.4" cy="1465.5" r="2.4" fill="#16a34a"/>
<circle cx="386.6" cy="1464.3" r="2.4" fill="#16a34a"/>
<circle cx="478.8" cy="1426.3" r="2.4" fill="#16a34a"/>
<circle cx="571.0" cy="1408.4" r="2.4" fill="#16a34a"/>
<circle cx="663.2" cy="1396.5" r="2.4" fill="#16a34a"/>
<circle cx="755.4" cy="1386.9" r="2.4" fill="#16a34a"/>
<circle cx="847.6" cy="1383.2" r="2.4" fill="#16a34a"/>
<circle cx="939.8" cy="1381.3" r="2.4" fill="#16a34a"/>
<circle cx="1032.0" cy="1379.7" r="2.4" fill="#16a34a"/>
<circle cx="1124.1" cy="1382.1" r="2.4" fill="#16a34a"/>
<circle cx="1216.3" cy="1379.4" r="2.4" fill="#16a34a"/>
<circle cx="1308.5" cy="1462.6" r="2.4" fill="#16a34a"/>
<circle cx="1400.7" cy="1445.7" r="2.4" fill="#16a34a"/>
<circle cx="1492.9" cy="1407.1" r="2.4" fill="#16a34a"/>
<circle cx="1585.1" cy="1407.1" r="2.4" fill="#16a34a"/>
<circle cx="1677.3" cy="1469.7" r="2.4" fill="#16a34a"/>
<circle cx="1769.5" cy="1467.0" r="2.4" fill="#16a34a"/>
<circle cx="1861.7" cy="1405.3" r="2.4" fill="#16a34a"/>
<circle cx="1953.9" cy="1405.2" r="2.4" fill="#16a34a"/>
<circle cx="2046.1" cy="1412.1" r="2.4" fill="#16a34a"/>
<circle cx="2138.3" cy="1434.9" r="2.4" fill="#16a34a"/>
<circle cx="2230.5" cy="1409.2" r="2.4" fill="#16a34a"/>
<circle cx="2322.7" cy="1380.3" r="2.4" fill="#16a34a"/>
<circle cx="2414.9" cy="1380.1" r="2.4" fill="#16a34a"/>
<circle cx="2507.1" cy="1384.2" r="2.4" fill="#16a34a"/>
<circle cx="2599.3" cy="1392.0" r="2.4" fill="#16a34a"/>
<circle cx="2691.5" cy="1382.3" r="2.4" fill="#16a34a"/>
<circle cx="2783.7" cy="1384.2" r="2.4" fill="#16a34a"/>
<circle cx="2875.9" cy="1384.2" r="2.4" fill="#16a34a"/>
<circle cx="2968.0" cy="1382.4" r="2.4" fill="#16a34a"/>
<circle cx="3060.2" cy="1385.5" r="2.4" fill="#16a34a"/>
<circle cx="3152.4" cy="1393.4" r="2.4" fill="#16a34a"/>
<circle cx="3244.6" cy="1382.3" r="2.4" fill="#16a34a"/>
<circle cx="3336.8" cy="1380.5" r="2.4" fill="#16a34a"/>
<circle cx="3429.0" cy="1383.1" r="2.4" fill="#16a34a"/>
<circle cx="3521.2" cy="1379.3" r="2.4" fill="#16a34a"/>
<circle cx="3613.4" cy="1378.9" r="2.4" fill="#16a34a"/>
<circle cx="3705.6" cy="1380.0" r="2.4" fill="#16a34a"/>
<circle cx="3797.8" cy="1378.7" r="2.4" fill="#16a34a"/>
<circle cx="3890.0" cy="1383.6" r="2.4" fill="#16a34a"/>
<g transform="translate(110.0,1498) rotate(58)">
<text class="shape-label">m1_n1_k1</text>
<text y="12" class="shape-label">1x1x1</text>
</g>
<g transform="translate(202.2,1498) rotate(58)">
<text class="shape-label">m8_n8_k8</text>
<text y="12" class="shape-label">8x8x8</text>
</g>
<g transform="translate(294.4,1498) rotate(58)">
<text class="shape-label">m31_n31_k31</text>
<text y="12" class="shape-label">31x31x31</text>
</g>
<g transform="translate(386.6,1498) rotate(58)">
<text class="shape-label">m33_n33_k33</text>
<text y="12" class="shape-label">33x33x33</text>
</g>
<g transform="translate(478.8,1498) rotate(58)">
<text class="shape-label">sq64</text>
<text y="12" class="shape-label">64x64x64</text>
</g>
<g transform="translate(571.0,1498) rotate(58)">
<text class="shape-label">sq96</text>
<text y="12" class="shape-label">96x96x96</text>
</g>
<g transform="translate(663.2,1498) rotate(58)">
<text class="shape-label">sq128</text>
<text y="12" class="shape-label">128x128x128</text>
</g>
<g transform="translate(755.4,1498) rotate(58)">
<text class="shape-label">sq192</text>
<text y="12" class="shape-label">192x192x192</text>
</g>
<g transform="translate(847.6,1498) rotate(58)">
<text class="shape-label">sq256</text>
<text y="12" class="shape-label">256x256x256</text>
</g>
<g transform="translate(939.8,1498) rotate(58)">
<text class="shape-label">sq384</text>
<text y="12" class="shape-label">384x384x384</text>
</g>
<g transform="translate(1032.0,1498) rotate(58)">
<text class="shape-label">sq512</text>
<text y="12" class="shape-label">512x512x512</text>
</g>
<g transform="translate(1124.1,1498) rotate(58)">
<text class="shape-label">sq768</text>
<text y="12" class="shape-label">768x768x768</text>
</g>
<g transform="translate(1216.3,1498) rotate(58)">
<text class="shape-label">sq1024</text>
<text y="12" class="shape-label">1024x1024x1024</text>
</g>
<g transform="translate(1308.5,1498) rotate(58)">
<text class="shape-label">m63_n65_k17</text>
<text y="12" class="shape-label">63x65x17</text>
</g>
<g transform="translate(1400.7,1498) rotate(58)">
<text class="shape-label">m65_n63_k33</text>
<text y="12" class="shape-label">65x63x33</text>
</g>
<g transform="translate(1492.9,1498) rotate(58)">
<text class="shape-label">m127_n129_k31</text>
<text y="12" class="shape-label">127x129x31</text>
</g>
<g transform="translate(1585.1,1498) rotate(58)">
<text class="shape-label">m129_n127_k33</text>
<text y="12" class="shape-label">129x127x33</text>
</g>
<g transform="translate(1677.3,1498) rotate(58)">
<text class="shape-label">m1_n4096_k256</text>
<text y="12" class="shape-label">1x4096x256</text>
</g>
<g transform="translate(1769.5,1498) rotate(58)">
<text class="shape-label">m4096_n1_k256</text>
<text y="12" class="shape-label">4096x1x256</text>
</g>
<g transform="translate(1861.7,1498) rotate(58)">
<text class="shape-label">m1024_n64_k1024</text>
<text y="12" class="shape-label">1024x64x1024</text>
</g>
<g transform="translate(1953.9,1498) rotate(58)">
<text class="shape-label">m2048_n64_k512</text>
<text y="12" class="shape-label">2048x64x512</text>
</g>
<g transform="translate(2046.1,1498) rotate(58)">
<text class="shape-label">m4096_n32_k256</text>
<text y="12" class="shape-label">4096x32x256</text>
</g>
<g transform="translate(2138.3,1498) rotate(58)">
<text class="shape-label">m2048_n17_k257</text>
<text y="12" class="shape-label">2048x17x257</text>
</g>
<g transform="translate(2230.5,1498) rotate(58)">
<text class="shape-label">m512_n64_k2048</text>
<text y="12" class="shape-label">512x64x2048</text>
</g>
<g transform="translate(2322.7,1498) rotate(58)">
<text class="shape-label">m64_n1024_k1024</text>
<text y="12" class="shape-label">64x1024x1024</text>
</g>
<g transform="translate(2414.9,1498) rotate(58)">
<text class="shape-label">m64_n2048_k512</text>
<text y="12" class="shape-label">64x2048x512</text>
</g>
<g transform="translate(2507.1,1498) rotate(58)">
<text class="shape-label">m32_n4096_k256</text>
<text y="12" class="shape-label">32x4096x256</text>
</g>
<g transform="translate(2599.3,1498) rotate(58)">
<text class="shape-label">m17_n2048_k257</text>
<text y="12" class="shape-label">17x2048x257</text>
</g>
<g transform="translate(2691.5,1498) rotate(58)">
<text class="shape-label">m64_n512_k2048</text>
<text y="12" class="shape-label">64x512x2048</text>
</g>
<g transform="translate(2783.7,1498) rotate(58)">
<text class="shape-label">m1024_n1024_k64</text>
<text y="12" class="shape-label">1024x1024x64</text>
</g>
<g transform="translate(2875.9,1498) rotate(58)">
<text class="shape-label">m1024_n1024_k128</text>
<text y="12" class="shape-label">1024x1024x128</text>
</g>
<g transform="translate(2968.0,1498) rotate(58)">
<text class="shape-label">m1024_n1024_k256</text>
<text y="12" class="shape-label">1024x1024x256</text>
</g>
<g transform="translate(3060.2,1498) rotate(58)">
<text class="shape-label">m256_n256_k2048</text>
<text y="12" class="shape-label">256x256x2048</text>
</g>
<g transform="translate(3152.4,1498) rotate(58)">
<text class="shape-label">m128_n128_k4096</text>
<text y="12" class="shape-label">128x128x4096</text>
</g>
<g transform="translate(3244.6,1498) rotate(58)">
<text class="shape-label">m1536_n256_k256</text>
<text y="12" class="shape-label">1536x256x256</text>
</g>
<g transform="translate(3336.8,1498) rotate(58)">
<text class="shape-label">m256_n1536_k256</text>
<text y="12" class="shape-label">256x1536x256</text>
</g>
<g transform="translate(3429.0,1498) rotate(58)">
<text class="shape-label">m512_n256_k768</text>
<text y="12" class="shape-label">512x256x768</text>
</g>
<g transform="translate(3521.2,1498) rotate(58)">
<text class="shape-label">m256_n512_k768</text>
<text y="12" class="shape-label">256x512x768</text>
</g>
<g transform="translate(3613.4,1498) rotate(58)">
<text class="shape-label">m768_n512_k256</text>
<text y="12" class="shape-label">768x512x256</text>
</g>
<g transform="translate(3705.6,1498) rotate(58)">
<text class="shape-label">m512_n768_k256</text>
<text y="12" class="shape-label">512x768x256</text>
</g>
<g transform="translate(3797.8,1498) rotate(58)">
<text class="shape-label">m384_n640_k96</text>
<text y="12" class="shape-label">384x640x96</text>
</g>
<g transform="translate(3890.0,1498) rotate(58)">
<text class="shape-label">m640_n384_k96</text>
<text y="12" class="shape-label">640x384x96</text>
</g>
</svg>