<svg xmlns="http://www.w3.org/2000/svg" width="1500" height="1780" viewBox="0 0 1500 1780">

<style>
  text { font-family: -apple-system, BlinkMacSystemFont, "Segoe UI", sans-serif; fill: #111827; }
  .title { font-size: 25px; font-weight: 700; }
  .subtitle { font-size: 13px; fill: #4b5563; }
  .panel-title { font-size: 16px; font-weight: 700; }
  .axis-label { font-size: 11px; fill: #4b5563; }
  .op-label { font-size: 11px; fill: #374151; }
  .value-label { font-size: 10px; fill: #111827; }
  .legend { font-size: 13px; }
  .axis { stroke: #111827; stroke-width: 1; }
  .grid { stroke: #e5e7eb; stroke-width: 1; }
</style>

<rect x="0" y="0" width="100%" height="100%" fill="#ffffff"/>
<text x="40" y="42" class="title">Zynum Level 1 Performance Coverage</text>
<text x="40" y="66" class="subtitle">Higher is better. Fresh process per library/op; n=1048576; seconds=1; grouped bars use operation names on the x-axis</text>
<rect x="930" y="33" width="18" height="12" fill="#2563eb"/>
<text x="956" y="43" class="legend">Zynum</text>
<rect x="1080" y="33" width="18" height="12" fill="#dc2626"/>
<text x="1106" y="43" class="legend">Accelerate</text>
<rect x="1230" y="33" width="18" height="12" fill="#16a34a"/>
<text x="1256" y="43" class="legend">OpenBLAS</text>
<text x="105" y="100" class="panel-title">Copy bandwidth (GB/s)</text>
<line x1="105" y1="360.0" x2="1450" y2="360.0" class="grid"/>
<text x="95" y="364.0" text-anchor="end" class="axis-label">0</text>
<line x1="105" y1="300.0" x2="1450" y2="300.0" class="grid"/>
<text x="95" y="304.0" text-anchor="end" class="axis-label">100</text>
<line x1="105" y1="240.0" x2="1450" y2="240.0" class="grid"/>
<text x="95" y="244.0" text-anchor="end" class="axis-label">200</text>
<line x1="105" y1="180.0" x2="1450" y2="180.0" class="grid"/>
<text x="95" y="184.0" text-anchor="end" class="axis-label">300</text>
<line x1="105" y1="120.0" x2="1450" y2="120.0" class="grid"/>
<text x="95" y="124.0" text-anchor="end" class="axis-label">400</text>
<line x1="105" y1="120" x2="105" y2="360" class="axis"/>
<line x1="105" y1="360" x2="1450" y2="360" class="axis"/>
<rect x="234.1" y="168.7" width="24.0" height="191.3" fill="#2563eb"/>
<rect x="260.1" y="197.5" width="24.0" height="162.5" fill="#dc2626"/>
<rect x="286.1" y="291.9" width="24.0" height="68.1" fill="#16a34a"/>
<text x="273.1" y="378" text-anchor="middle" class="op-label">scopy</text>
<rect x="570.4" y="251.4" width="24.0" height="108.6" fill="#2563eb"/>
<rect x="596.4" y="252.9" width="24.0" height="107.1" fill="#dc2626"/>
<rect x="622.4" y="290.9" width="24.0" height="69.1" fill="#16a34a"/>
<text x="609.4" y="378" text-anchor="middle" class="op-label">dcopy</text>
<rect x="906.6" y="248.4" width="24.0" height="111.6" fill="#2563eb"/>
<rect x="932.6" y="269.4" width="24.0" height="90.6" fill="#dc2626"/>
<rect x="958.6" y="297.5" width="24.0" height="62.5" fill="#16a34a"/>
<text x="945.6" y="378" text-anchor="middle" class="op-label">ccopy</text>
<rect x="1242.9" y="292.0" width="24.0" height="68.0" fill="#2563eb"/>
<rect x="1268.9" y="293.3" width="24.0" height="66.7" fill="#dc2626"/>
<rect x="1294.9" y="307.6" width="24.0" height="52.4" fill="#16a34a"/>
<text x="1281.9" y="378" text-anchor="middle" class="op-label">zcopy</text>
<text x="105" y="435" class="panel-title">Real f32 Level 1 (Gops)</text>
<line x1="105" y1="695.0" x2="1450" y2="695.0" class="grid"/>
<text x="95" y="699.0" text-anchor="end" class="axis-label">0</text>
<line x1="105" y1="615.0" x2="1450" y2="615.0" class="grid"/>
<text x="95" y="619.0" text-anchor="end" class="axis-label">100</text>
<line x1="105" y1="535.0" x2="1450" y2="535.0" class="grid"/>
<text x="95" y="539.0" text-anchor="end" class="axis-label">200</text>
<line x1="105" y1="455.0" x2="1450" y2="455.0" class="grid"/>
<text x="95" y="459.0" text-anchor="end" class="axis-label">300</text>
<line x1="105" y1="455" x2="105" y2="695" class="axis"/>
<line x1="105" y1="695" x2="1450" y2="695" class="axis"/>
<rect x="200.5" y="641.4" width="24.0" height="53.6" fill="#2563eb"/>
<rect x="226.5" y="642.6" width="24.0" height="52.4" fill="#dc2626"/>
<rect x="252.5" y="683.1" width="24.0" height="11.9" fill="#16a34a"/>
<text x="239.5" y="713" text-anchor="middle" class="op-label">sscal</text>
<rect x="469.5" y="597.6" width="24.0" height="97.4" fill="#2563eb"/>
<rect x="495.5" y="607.0" width="24.0" height="88.0" fill="#dc2626"/>
<rect x="521.5" y="650.6" width="24.0" height="44.4" fill="#16a34a"/>
<text x="508.5" y="713" text-anchor="middle" class="op-label">saxpy</text>
<rect x="738.5" y="496.9" width="24.0" height="198.1" fill="#2563eb"/>
<rect x="764.5" y="515.4" width="24.0" height="179.6" fill="#dc2626"/>
<rect x="790.5" y="674.8" width="24.0" height="20.2" fill="#16a34a"/>
<text x="777.5" y="713" text-anchor="middle" class="op-label">sdot</text>
<rect x="1007.5" y="641.5" width="24.0" height="53.5" fill="#2563eb"/>
<rect x="1033.5" y="641.5" width="24.0" height="53.5" fill="#dc2626"/>
<rect x="1059.5" y="685.3" width="24.0" height="9.7" fill="#16a34a"/>
<text x="1046.5" y="713" text-anchor="middle" class="op-label">sasum</text>
<rect x="1276.5" y="673.2" width="24.0" height="21.8" fill="#2563eb"/>
<rect x="1302.5" y="680.7" width="24.0" height="14.3" fill="#dc2626"/>
<rect x="1328.5" y="693.4" width="24.0" height="1.6" fill="#16a34a"/>
<text x="1315.5" y="713" text-anchor="middle" class="op-label">snrm2</text>
<text x="105" y="770" class="panel-title">Real f64 Level 1 (Gops)</text>
<line x1="105" y1="1030.0" x2="1450" y2="1030.0" class="grid"/>
<text x="95" y="1034.0" text-anchor="end" class="axis-label">0</text>
<line x1="105" y1="982.0" x2="1450" y2="982.0" class="grid"/>
<text x="95" y="986.0" text-anchor="end" class="axis-label">10</text>
<line x1="105" y1="934.0" x2="1450" y2="934.0" class="grid"/>
<text x="95" y="938.0" text-anchor="end" class="axis-label">20</text>
<line x1="105" y1="886.0" x2="1450" y2="886.0" class="grid"/>
<text x="95" y="890.0" text-anchor="end" class="axis-label">30</text>
<line x1="105" y1="838.0" x2="1450" y2="838.0" class="grid"/>
<text x="95" y="842.0" text-anchor="end" class="axis-label">40</text>
<line x1="105" y1="790.0" x2="1450" y2="790.0" class="grid"/>
<text x="95" y="794.0" text-anchor="end" class="axis-label">50</text>
<line x1="105" y1="790" x2="105" y2="1030" class="axis"/>
<line x1="105" y1="1030" x2="1450" y2="1030" class="axis"/>
<rect x="200.5" y="869.6" width="24.0" height="160.4" fill="#2563eb"/>
<rect x="226.5" y="870.6" width="24.0" height="159.4" fill="#dc2626"/>
<rect x="252.5" y="990.5" width="24.0" height="39.5" fill="#16a34a"/>
<text x="239.5" y="1048" text-anchor="middle" class="op-label">dscal</text>
<rect x="469.5" y="904.5" width="24.0" height="125.5" fill="#2563eb"/>
<rect x="495.5" y="918.3" width="24.0" height="111.7" fill="#dc2626"/>
<rect x="521.5" y="976.1" width="24.0" height="53.9" fill="#16a34a"/>
<text x="508.5" y="1048" text-anchor="middle" class="op-label">daxpy</text>
<rect x="738.5" y="823.3" width="24.0" height="206.7" fill="#2563eb"/>
<rect x="764.5" y="910.9" width="24.0" height="119.1" fill="#dc2626"/>
<rect x="790.5" y="999.8" width="24.0" height="30.2" fill="#16a34a"/>
<text x="777.5" y="1048" text-anchor="middle" class="op-label">ddot</text>
<rect x="1007.5" y="869.6" width="24.0" height="160.4" fill="#2563eb"/>
<rect x="1033.5" y="869.8" width="24.0" height="160.2" fill="#dc2626"/>
<rect x="1059.5" y="1000.9" width="24.0" height="29.1" fill="#16a34a"/>
<text x="1046.5" y="1048" text-anchor="middle" class="op-label">dasum</text>
<rect x="1276.5" y="967.2" width="24.0" height="62.8" fill="#2563eb"/>
<rect x="1302.5" y="986.6" width="24.0" height="43.4" fill="#dc2626"/>
<rect x="1328.5" y="1020.3" width="24.0" height="9.7" fill="#16a34a"/>
<text x="1315.5" y="1048" text-anchor="middle" class="op-label">dnrm2</text>
<text x="105" y="1105" class="panel-title">Complex f32 Level 1 (Gops)</text>
<line x1="105" y1="1365.0" x2="1450" y2="1365.0" class="grid"/>
<text x="95" y="1369.0" text-anchor="end" class="axis-label">0</text>
<line x1="105" y1="1305.0" x2="1450" y2="1305.0" class="grid"/>
<text x="95" y="1309.0" text-anchor="end" class="axis-label">20</text>
<line x1="105" y1="1245.0" x2="1450" y2="1245.0" class="grid"/>
<text x="95" y="1249.0" text-anchor="end" class="axis-label">40</text>
<line x1="105" y1="1185.0" x2="1450" y2="1185.0" class="grid"/>
<text x="95" y="1189.0" text-anchor="end" class="axis-label">60</text>
<line x1="105" y1="1125.0" x2="1450" y2="1125.0" class="grid"/>
<text x="95" y="1129.0" text-anchor="end" class="axis-label">80</text>
<line x1="105" y1="1125" x2="105" y2="1365" class="axis"/>
<line x1="105" y1="1365" x2="1450" y2="1365" class="axis"/>
<rect x="150.1" y="1164.5" width="24.0" height="200.5" fill="#2563eb"/>
<rect x="176.1" y="1166.0" width="24.0" height="199.0" fill="#dc2626"/>
<rect x="202.1" y="1331.6" width="24.0" height="33.4" fill="#16a34a"/>
<text x="189.1" y="1383" text-anchor="middle" class="op-label">csscal</text>
<rect x="318.2" y="1210.5" width="24.0" height="154.5" fill="#2563eb"/>
<rect x="344.2" y="1217.3" width="24.0" height="147.7" fill="#dc2626"/>
<rect x="370.2" y="1270.7" width="24.0" height="94.3" fill="#16a34a"/>
<text x="357.2" y="1383" text-anchor="middle" class="op-label">cscal</text>
<rect x="486.3" y="1225.6" width="24.0" height="139.4" fill="#2563eb"/>
<rect x="512.3" y="1229.3" width="24.0" height="135.7" fill="#dc2626"/>
<rect x="538.3" y="1260.5" width="24.0" height="104.5" fill="#16a34a"/>
<text x="525.3" y="1383" text-anchor="middle" class="op-label">caxpy</text>
<rect x="654.4" y="1179.9" width="24.0" height="185.1" fill="#2563eb"/>
<rect x="706.4" y="1314.6" width="24.0" height="50.4" fill="#16a34a"/>
<text x="693.4" y="1383" text-anchor="middle" class="op-label">caxpby</text>
<rect x="822.6" y="1236.4" width="24.0" height="128.6" fill="#2563eb"/>
<rect x="848.6" y="1259.6" width="24.0" height="105.4" fill="#dc2626"/>
<rect x="874.6" y="1312.0" width="24.0" height="53.0" fill="#16a34a"/>
<text x="861.6" y="1383" text-anchor="middle" class="op-label">cdotu</text>
<rect x="990.7" y="1236.2" width="24.0" height="128.8" fill="#2563eb"/>
<rect x="1016.7" y="1258.5" width="24.0" height="106.5" fill="#dc2626"/>
<rect x="1042.7" y="1311.0" width="24.0" height="54.0" fill="#16a34a"/>
<text x="1029.7" y="1383" text-anchor="middle" class="op-label">cdotc</text>
<rect x="1158.8" y="1165.3" width="24.0" height="199.7" fill="#2563eb"/>
<rect x="1184.8" y="1164.8" width="24.0" height="200.2" fill="#dc2626"/>
<rect x="1210.8" y="1328.0" width="24.0" height="37.0" fill="#16a34a"/>
<text x="1197.8" y="1383" text-anchor="middle" class="op-label">scasum</text>
<rect x="1326.9" y="1285.8" width="24.0" height="79.2" fill="#2563eb"/>
<rect x="1352.9" y="1311.5" width="24.0" height="53.5" fill="#dc2626"/>
<rect x="1378.9" y="1359.0" width="24.0" height="6.0" fill="#16a34a"/>
<text x="1365.9" y="1383" text-anchor="middle" class="op-label">scnrm2</text>
<text x="105" y="1440" class="panel-title">Complex f64 Level 1 (Gops)</text>
<line x1="105" y1="1700.0" x2="1450" y2="1700.0" class="grid"/>
<text x="95" y="1704.0" text-anchor="end" class="axis-label">0</text>
<line x1="105" y1="1640.0" x2="1450" y2="1640.0" class="grid"/>
<text x="95" y="1644.0" text-anchor="end" class="axis-label">10</text>
<line x1="105" y1="1580.0" x2="1450" y2="1580.0" class="grid"/>
<text x="95" y="1584.0" text-anchor="end" class="axis-label">20</text>
<line x1="105" y1="1520.0" x2="1450" y2="1520.0" class="grid"/>
<text x="95" y="1524.0" text-anchor="end" class="axis-label">30</text>
<line x1="105" y1="1460.0" x2="1450" y2="1460.0" class="grid"/>
<text x="95" y="1464.0" text-anchor="end" class="axis-label">40</text>
<line x1="105" y1="1460" x2="105" y2="1700" class="axis"/>
<line x1="105" y1="1700" x2="1450" y2="1700" class="axis"/>
<rect x="150.1" y="1556.4" width="24.0" height="143.6" fill="#2563eb"/>
<rect x="176.1" y="1584.2" width="24.0" height="115.8" fill="#dc2626"/>
<rect x="202.1" y="1667.9" width="24.0" height="32.1" fill="#16a34a"/>
<text x="189.1" y="1718" text-anchor="middle" class="op-label">zdscal</text>
<rect x="318.2" y="1549.5" width="24.0" height="150.5" fill="#2563eb"/>
<rect x="344.2" y="1553.5" width="24.0" height="146.5" fill="#dc2626"/>
<rect x="370.2" y="1610.9" width="24.0" height="89.1" fill="#16a34a"/>
<text x="357.2" y="1718" text-anchor="middle" class="op-label">zscal</text>
<rect x="486.3" y="1573.8" width="24.0" height="126.2" fill="#2563eb"/>
<rect x="512.3" y="1580.5" width="24.0" height="119.5" fill="#dc2626"/>
<rect x="538.3" y="1632.1" width="24.0" height="67.9" fill="#16a34a"/>
<text x="525.3" y="1718" text-anchor="middle" class="op-label">zaxpy</text>
<rect x="654.4" y="1528.6" width="24.0" height="171.4" fill="#2563eb"/>
<rect x="706.4" y="1613.5" width="24.0" height="86.5" fill="#16a34a"/>
<text x="693.4" y="1718" text-anchor="middle" class="op-label">zaxpby</text>
<rect x="822.6" y="1495.0" width="24.0" height="205.0" fill="#2563eb"/>
<rect x="848.6" y="1564.5" width="24.0" height="135.5" fill="#dc2626"/>
<rect x="874.6" y="1638.8" width="24.0" height="61.2" fill="#16a34a"/>
<text x="861.6" y="1718" text-anchor="middle" class="op-label">zdotu</text>
<rect x="990.7" y="1507.8" width="24.0" height="192.2" fill="#2563eb"/>
<rect x="1016.7" y="1569.3" width="24.0" height="130.7" fill="#dc2626"/>
<rect x="1042.7" y="1638.7" width="24.0" height="61.3" fill="#16a34a"/>
<text x="1029.7" y="1718" text-anchor="middle" class="op-label">zdotc</text>
<rect x="1158.8" y="1538.7" width="24.0" height="161.3" fill="#2563eb"/>
<rect x="1184.8" y="1579.0" width="24.0" height="121.0" fill="#dc2626"/>
<rect x="1210.8" y="1664.2" width="24.0" height="35.8" fill="#16a34a"/>
<text x="1197.8" y="1718" text-anchor="middle" class="op-label">dzasum</text>
<rect x="1326.9" y="1626.3" width="24.0" height="73.7" fill="#2563eb"/>
<rect x="1352.9" y="1685.7" width="24.0" height="14.3" fill="#dc2626"/>
<rect x="1378.9" y="1688.0" width="24.0" height="12.0" fill="#16a34a"/>
<text x="1365.9" y="1718" text-anchor="middle" class="op-label">dznrm2</text>
</svg>
