<svg xmlns="http://www.w3.org/2000/svg" width="3950" height="1640" viewBox="0 0 3950 1640">

<style>
  text { font-family: -apple-system, BlinkMacSystemFont, "Segoe UI", sans-serif; fill: #111827; }
  .title { font-size: 24px; font-weight: 700; }
  .subtitle { font-size: 13px; fill: #4b5563; }
  .panel-title { font-size: 16px; font-weight: 700; }
  .axis-label { font-size: 11px; fill: #4b5563; }
  .shape-label { font-size: 10px; fill: #374151; }
  .axis { stroke: #111827; stroke-width: 1; }
  .grid { stroke: #e5e7eb; stroke-width: 1; }
  .legend { font-size: 13px; }
</style>

<rect x="0" y="0" width="100%" height="100%" fill="#ffffff"/>
<text x="40" y="42" class="title">SGEMM/DGEMM/CGEMM/ZGEMM Performance Sweep: Zynum BLAS vs Accelerate vs OpenBLAS</text>
<text x="40" y="66" class="subtitle">Best-of-reps GF/s across square, remainder, skinny, wide, and K-varied column-major GEMM shapes</text>
<line x1="1180" y1="38" x2="1212" y2="38" stroke="#2563eb" stroke-width="3"/>
<text x="1220" y="42" class="legend">Zynum BLAS</text>
<line x1="1325" y1="38" x2="1357" y2="38" stroke="#dc2626" stroke-width="3"/>
<text x="1365" y="42" class="legend">Accelerate</text>
<line x1="1470" y1="38" x2="1502" y2="38" stroke="#16a34a" stroke-width="3"/>
<text x="1510" y="42" class="legend">OpenBLAS</text>
<text x="110" y="92" class="panel-title">SGEMM GF/s</text>
<line x1="110" y1="370.0" x2="3890" y2="370.0" class="grid"/>
<text x="100" y="374.0" text-anchor="end" class="axis-label">0</text>
<line x1="110" y1="318.0" x2="3890" y2="318.0" class="grid"/>
<text x="100" y="322.0" text-anchor="end" class="axis-label">500</text>
<line x1="110" y1="266.0" x2="3890" y2="266.0" class="grid"/>
<text x="100" y="270.0" text-anchor="end" class="axis-label">1000</text>
<line x1="110" y1="214.0" x2="3890" y2="214.0" class="grid"/>
<text x="100" y="218.0" text-anchor="end" class="axis-label">1500</text>
<line x1="110" y1="162.0" x2="3890" y2="162.0" class="grid"/>
<text x="100" y="166.0" text-anchor="end" class="axis-label">2000</text>
<line x1="110" y1="110.0" x2="3890" y2="110.0" class="grid"/>
<text x="100" y="114.0" text-anchor="end" class="axis-label">2500</text>
<line x1="110" y1="110" x2="110" y2="370" class="axis"/>
<line x1="110" y1="370" x2="3890" y2="370" class="axis"/>
<polyline points="110.0,370.0 202.2,367.4 294.4,367.8 386.6,364.6 478.8,329.1 571.0,306.9 663.2,359.2 755.4,349.5 847.6,336.8 939.8,333.9 1032.0,190.6 1124.1,162.4 1216.3,148.0 1308.5,359.1 1400.7,358.0 1492.9,358.4 1585.1,348.9 1677.3,365.5 1769.5,365.3 1861.7,363.5 1953.9,363.5 2046.1,347.9 2138.3,361.1 2230.5,363.4 2322.7,327.1 2414.9,331.1 2507.1,335.3 2599.3,358.3 2691.5,326.4 2783.7,331.8 2875.9,332.3 2968.0,330.9 3060.2,326.5 3152.4,328.7 3244.6,329.7 3336.8,324.1 3429.0,333.9 3521.2,327.5 3613.4,327.1 3705.6,331.5 3797.8,332.4 3890.0,332.2" fill="none" stroke="#2563eb" stroke-width="2.4"/>
<circle cx="110.0" cy="370.0" r="2.4" fill="#2563eb"/>
<circle cx="202.2" cy="367.4" r="2.4" fill="#2563eb"/>
<circle cx="294.4" cy="367.8" r="2.4" fill="#2563eb"/>
<circle cx="386.6" cy="364.6" r="2.4" fill="#2563eb"/>
<circle cx="478.8" cy="329.1" r="2.4" fill="#2563eb"/>
<circle cx="571.0" cy="306.9" r="2.4" fill="#2563eb"/>
<circle cx="663.2" cy="359.2" r="2.4" fill="#2563eb"/>
<circle cx="755.4" cy="349.5" r="2.4" fill="#2563eb"/>
<circle cx="847.6" cy="336.8" r="2.4" fill="#2563eb"/>
<circle cx="939.8" cy="333.9" r="2.4" fill="#2563eb"/>
<circle cx="1032.0" cy="190.6" r="2.4" fill="#2563eb"/>
<circle cx="1124.1" cy="162.4" r="2.4" fill="#2563eb"/>
<circle cx="1216.3" cy="148.0" r="2.4" fill="#2563eb"/>
<circle cx="1308.5" cy="359.1" r="2.4" fill="#2563eb"/>
<circle cx="1400.7" cy="358.0" r="2.4" fill="#2563eb"/>
<circle cx="1492.9" cy="358.4" r="2.4" fill="#2563eb"/>
<circle cx="1585.1" cy="348.9" r="2.4" fill="#2563eb"/>
<circle cx="1677.3" cy="365.5" r="2.4" fill="#2563eb"/>
<circle cx="1769.5" cy="365.3" r="2.4" fill="#2563eb"/>
<circle cx="1861.7" cy="363.5" r="2.4" fill="#2563eb"/>
<circle cx="1953.9" cy="363.5" r="2.4" fill="#2563eb"/>
<circle cx="2046.1" cy="347.9" r="2.4" fill="#2563eb"/>
<circle cx="2138.3" cy="361.1" r="2.4" fill="#2563eb"/>
<circle cx="2230.5" cy="363.4" r="2.4" fill="#2563eb"/>
<circle cx="2322.7" cy="327.1" r="2.4" fill="#2563eb"/>
<circle cx="2414.9" cy="331.1" r="2.4" fill="#2563eb"/>
<circle cx="2507.1" cy="335.3" r="2.4" fill="#2563eb"/>
<circle cx="2599.3" cy="358.3" r="2.4" fill="#2563eb"/>
<circle cx="2691.5" cy="326.4" r="2.4" fill="#2563eb"/>
<circle cx="2783.7" cy="331.8" r="2.4" fill="#2563eb"/>
<circle cx="2875.9" cy="332.3" r="2.4" fill="#2563eb"/>
<circle cx="2968.0" cy="330.9" r="2.4" fill="#2563eb"/>
<circle cx="3060.2" cy="326.5" r="2.4" fill="#2563eb"/>
<circle cx="3152.4" cy="328.7" r="2.4" fill="#2563eb"/>
<circle cx="3244.6" cy="329.7" r="2.4" fill="#2563eb"/>
<circle cx="3336.8" cy="324.1" r="2.4" fill="#2563eb"/>
<circle cx="3429.0" cy="333.9" r="2.4" fill="#2563eb"/>
<circle cx="3521.2" cy="327.5" r="2.4" fill="#2563eb"/>
<circle cx="3613.4" cy="327.1" r="2.4" fill="#2563eb"/>
<circle cx="3705.6" cy="331.5" r="2.4" fill="#2563eb"/>
<circle cx="3797.8" cy="332.4" r="2.4" fill="#2563eb"/>
<circle cx="3890.0" cy="332.2" r="2.4" fill="#2563eb"/>
<polyline points="110.0,370.0 202.2,367.4 294.4,358.5 386.6,360.0 478.8,304.6 571.0,267.3 663.2,265.3 755.4,218.4 847.6,227.6 939.8,213.0 1032.0,218.9 1124.1,191.0 1216.3,170.1 1308.5,353.5 1400.7,345.0 1492.9,332.2 1585.1,338.6 1677.3,352.4 1769.5,333.1 1861.7,194.3 1953.9,189.8 2046.1,198.0 2138.3,295.4 2230.5,211.7 2322.7,263.3 2414.9,262.6 2507.1,276.6 2599.3,325.4 2691.5,255.7 2783.7,251.9 2875.9,230.2 2968.0,219.0 3060.2,228.6 3152.4,224.0 3244.6,207.6 3336.8,220.8 3429.0,216.7 3521.2,210.3 3613.4,208.6 3705.6,228.2 3797.8,248.1 3890.0,248.1" fill="none" stroke="#dc2626" stroke-width="2.4"/>
<circle cx="110.0" cy="370.0" r="2.4" fill="#dc2626"/>
<circle cx="202.2" cy="367.4" r="2.4" fill="#dc2626"/>
<circle cx="294.4" cy="358.5" r="2.4" fill="#dc2626"/>
<circle cx="386.6" cy="360.0" r="2.4" fill="#dc2626"/>
<circle cx="478.8" cy="304.6" r="2.4" fill="#dc2626"/>
<circle cx="571.0" cy="267.3" r="2.4" fill="#dc2626"/>
<circle cx="663.2" cy="265.3" r="2.4" fill="#dc2626"/>
<circle cx="755.4" cy="218.4" r="2.4" fill="#dc2626"/>
<circle cx="847.6" cy="227.6" r="2.4" fill="#dc2626"/>
<circle cx="939.8" cy="213.0" r="2.4" fill="#dc2626"/>
<circle cx="1032.0" cy="218.9" r="2.4" fill="#dc2626"/>
<circle cx="1124.1" cy="191.0" r="2.4" fill="#dc2626"/>
<circle cx="1216.3" cy="170.1" r="2.4" fill="#dc2626"/>
<circle cx="1308.5" cy="353.5" r="2.4" fill="#dc2626"/>
<circle cx="1400.7" cy="345.0" r="2.4" fill="#dc2626"/>
<circle cx="1492.9" cy="332.2" r="2.4" fill="#dc2626"/>
<circle cx="1585.1" cy="338.6" r="2.4" fill="#dc2626"/>
<circle cx="1677.3" cy="352.4" r="2.4" fill="#dc2626"/>
<circle cx="1769.5" cy="333.1" r="2.4" fill="#dc2626"/>
<circle cx="1861.7" cy="194.3" r="2.4" fill="#dc2626"/>
<circle cx="1953.9" cy="189.8" r="2.4" fill="#dc2626"/>
<circle cx="2046.1" cy="198.0" r="2.4" fill="#dc2626"/>
<circle cx="2138.3" cy="295.4" r="2.4" fill="#dc2626"/>
<circle cx="2230.5" cy="211.7" r="2.4" fill="#dc2626"/>
<circle cx="2322.7" cy="263.3" r="2.4" fill="#dc2626"/>
<circle cx="2414.9" cy="262.6" r="2.4" fill="#dc2626"/>
<circle cx="2507.1" cy="276.6" r="2.4" fill="#dc2626"/>
<circle cx="2599.3" cy="325.4" r="2.4" fill="#dc2626"/>
<circle cx="2691.5" cy="255.7" r="2.4" fill="#dc2626"/>
<circle cx="2783.7" cy="251.9" r="2.4" fill="#dc2626"/>
<circle cx="2875.9" cy="230.2" r="2.4" fill="#dc2626"/>
<circle cx="2968.0" cy="219.0" r="2.4" fill="#dc2626"/>
<circle cx="3060.2" cy="228.6" r="2.4" fill="#dc2626"/>
<circle cx="3152.4" cy="224.0" r="2.4" fill="#dc2626"/>
<circle cx="3244.6" cy="207.6" r="2.4" fill="#dc2626"/>
<circle cx="3336.8" cy="220.8" r="2.4" fill="#dc2626"/>
<circle cx="3429.0" cy="216.7" r="2.4" fill="#dc2626"/>
<circle cx="3521.2" cy="210.3" r="2.4" fill="#dc2626"/>
<circle cx="3613.4" cy="208.6" r="2.4" fill="#dc2626"/>
<circle cx="3705.6" cy="228.2" r="2.4" fill="#dc2626"/>
<circle cx="3797.8" cy="248.1" r="2.4" fill="#dc2626"/>
<circle cx="3890.0" cy="248.1" r="2.4" fill="#dc2626"/>
<polyline points="110.0,370.0 202.2,367.5 294.4,365.0 386.6,362.5 478.8,365.0 571.0,346.8 663.2,346.7 755.4,339.5 847.6,330.8 939.8,327.2 1032.0,327.2 1124.1,321.0 1216.3,321.8 1308.5,364.7 1400.7,362.2 1492.9,362.1 1585.1,362.5 1677.3,358.4 1769.5,365.0 1861.7,344.5 1953.9,342.0 2046.1,344.4 2138.3,354.7 2230.5,346.2 2322.7,326.8 2414.9,319.3 2507.1,318.8 2599.3,340.2 2691.5,325.8 2783.7,325.0 2875.9,320.7 2968.0,322.7 3060.2,331.9 3152.4,341.1 3244.6,326.1 3336.8,318.1 3429.0,330.1 3521.2,320.5 3613.4,323.0 3705.6,318.9 3797.8,317.9 3890.0,323.6" fill="none" stroke="#16a34a" stroke-width="2.4"/>
<circle cx="110.0" cy="370.0" r="2.4" fill="#16a34a"/>
<circle cx="202.2" cy="367.5" r="2.4" fill="#16a34a"/>
<circle cx="294.4" cy="365.0" r="2.4" fill="#16a34a"/>
<circle cx="386.6" cy="362.5" r="2.4" fill="#16a34a"/>
<circle cx="478.8" cy="365.0" r="2.4" fill="#16a34a"/>
<circle cx="571.0" cy="346.8" r="2.4" fill="#16a34a"/>
<circle cx="663.2" cy="346.7" r="2.4" fill="#16a34a"/>
<circle cx="755.4" cy="339.5" r="2.4" fill="#16a34a"/>
<circle cx="847.6" cy="330.8" r="2.4" fill="#16a34a"/>
<circle cx="939.8" cy="327.2" r="2.4" fill="#16a34a"/>
<circle cx="1032.0" cy="327.2" r="2.4" fill="#16a34a"/>
<circle cx="1124.1" cy="321.0" r="2.4" fill="#16a34a"/>
<circle cx="1216.3" cy="321.8" r="2.4" fill="#16a34a"/>
<circle cx="1308.5" cy="364.7" r="2.4" fill="#16a34a"/>
<circle cx="1400.7" cy="362.2" r="2.4" fill="#16a34a"/>
<circle cx="1492.9" cy="362.1" r="2.4" fill="#16a34a"/>
<circle cx="1585.1" cy="362.5" r="2.4" fill="#16a34a"/>
<circle cx="1677.3" cy="358.4" r="2.4" fill="#16a34a"/>
<circle cx="1769.5" cy="365.0" r="2.4" fill="#16a34a"/>
<circle cx="1861.7" cy="344.5" r="2.4" fill="#16a34a"/>
<circle cx="1953.9" cy="342.0" r="2.4" fill="#16a34a"/>
<circle cx="2046.1" cy="344.4" r="2.4" fill="#16a34a"/>
<circle cx="2138.3" cy="354.7" r="2.4" fill="#16a34a"/>
<circle cx="2230.5" cy="346.2" r="2.4" fill="#16a34a"/>
<circle cx="2322.7" cy="326.8" r="2.4" fill="#16a34a"/>
<circle cx="2414.9" cy="319.3" r="2.4" fill="#16a34a"/>
<circle cx="2507.1" cy="318.8" r="2.4" fill="#16a34a"/>
<circle cx="2599.3" cy="340.2" r="2.4" fill="#16a34a"/>
<circle cx="2691.5" cy="325.8" r="2.4" fill="#16a34a"/>
<circle cx="2783.7" cy="325.0" r="2.4" fill="#16a34a"/>
<circle cx="2875.9" cy="320.7" r="2.4" fill="#16a34a"/>
<circle cx="2968.0" cy="322.7" r="2.4" fill="#16a34a"/>
<circle cx="3060.2" cy="331.9" r="2.4" fill="#16a34a"/>
<circle cx="3152.4" cy="341.1" r="2.4" fill="#16a34a"/>
<circle cx="3244.6" cy="326.1" r="2.4" fill="#16a34a"/>
<circle cx="3336.8" cy="318.1" r="2.4" fill="#16a34a"/>
<circle cx="3429.0" cy="330.1" r="2.4" fill="#16a34a"/>
<circle cx="3521.2" cy="320.5" r="2.4" fill="#16a34a"/>
<circle cx="3613.4" cy="323.0" r="2.4" fill="#16a34a"/>
<circle cx="3705.6" cy="318.9" r="2.4" fill="#16a34a"/>
<circle cx="3797.8" cy="317.9" r="2.4" fill="#16a34a"/>
<circle cx="3890.0" cy="323.6" r="2.4" fill="#16a34a"/>
<text x="110" y="462" class="panel-title">DGEMM GF/s</text>
<line x1="110" y1="740.0" x2="3890" y2="740.0" class="grid"/>
<text x="100" y="744.0" text-anchor="end" class="axis-label">0</text>
<line x1="110" y1="653.3" x2="3890" y2="653.3" class="grid"/>
<text x="100" y="657.3" text-anchor="end" class="axis-label">200</text>
<line x1="110" y1="566.7" x2="3890" y2="566.7" class="grid"/>
<text x="100" y="570.7" text-anchor="end" class="axis-label">400</text>
<line x1="110" y1="480.0" x2="3890" y2="480.0" class="grid"/>
<text x="100" y="484.0" text-anchor="end" class="axis-label">600</text>
<line x1="110" y1="480" x2="110" y2="740" class="axis"/>
<line x1="110" y1="740" x2="3890" y2="740" class="axis"/>
<polyline points="110.0,740.0 202.2,734.7 294.4,725.6 386.6,728.1 478.8,665.3 571.0,633.0 663.2,629.8 755.4,703.8 847.6,689.0 939.8,651.3 1032.0,501.3 1124.1,492.8 1216.3,504.4 1308.5,717.0 1400.7,708.4 1492.9,717.1 1585.1,684.3 1677.3,722.1 1769.5,726.3 1861.7,727.3 1953.9,726.7 2046.1,692.0 2138.3,721.5 2230.5,726.6 2322.7,650.0 2414.9,649.2 2507.1,675.3 2599.3,704.8 2691.5,656.1 2783.7,664.1 2875.9,503.6 2968.0,499.6 3060.2,514.4 3152.4,674.7 3244.6,649.1 3336.8,657.0 3429.0,660.7 3521.2,660.2 3613.4,657.3 3705.6,658.3 3797.8,684.9 3890.0,684.7" fill="none" stroke="#2563eb" stroke-width="2.4"/>
<circle cx="110.0" cy="740.0" r="2.4" fill="#2563eb"/>
<circle cx="202.2" cy="734.7" r="2.4" fill="#2563eb"/>
<circle cx="294.4" cy="725.6" r="2.4" fill="#2563eb"/>
<circle cx="386.6" cy="728.1" r="2.4" fill="#2563eb"/>
<circle cx="478.8" cy="665.3" r="2.4" fill="#2563eb"/>
<circle cx="571.0" cy="633.0" r="2.4" fill="#2563eb"/>
<circle cx="663.2" cy="629.8" r="2.4" fill="#2563eb"/>
<circle cx="755.4" cy="703.8" r="2.4" fill="#2563eb"/>
<circle cx="847.6" cy="689.0" r="2.4" fill="#2563eb"/>
<circle cx="939.8" cy="651.3" r="2.4" fill="#2563eb"/>
<circle cx="1032.0" cy="501.3" r="2.4" fill="#2563eb"/>
<circle cx="1124.1" cy="492.8" r="2.4" fill="#2563eb"/>
<circle cx="1216.3" cy="504.4" r="2.4" fill="#2563eb"/>
<circle cx="1308.5" cy="717.0" r="2.4" fill="#2563eb"/>
<circle cx="1400.7" cy="708.4" r="2.4" fill="#2563eb"/>
<circle cx="1492.9" cy="717.1" r="2.4" fill="#2563eb"/>
<circle cx="1585.1" cy="684.3" r="2.4" fill="#2563eb"/>
<circle cx="1677.3" cy="722.1" r="2.4" fill="#2563eb"/>
<circle cx="1769.5" cy="726.3" r="2.4" fill="#2563eb"/>
<circle cx="1861.7" cy="727.3" r="2.4" fill="#2563eb"/>
<circle cx="1953.9" cy="726.7" r="2.4" fill="#2563eb"/>
<circle cx="2046.1" cy="692.0" r="2.4" fill="#2563eb"/>
<circle cx="2138.3" cy="721.5" r="2.4" fill="#2563eb"/>
<circle cx="2230.5" cy="726.6" r="2.4" fill="#2563eb"/>
<circle cx="2322.7" cy="650.0" r="2.4" fill="#2563eb"/>
<circle cx="2414.9" cy="649.2" r="2.4" fill="#2563eb"/>
<circle cx="2507.1" cy="675.3" r="2.4" fill="#2563eb"/>
<circle cx="2599.3" cy="704.8" r="2.4" fill="#2563eb"/>
<circle cx="2691.5" cy="656.1" r="2.4" fill="#2563eb"/>
<circle cx="2783.7" cy="664.1" r="2.4" fill="#2563eb"/>
<circle cx="2875.9" cy="503.6" r="2.4" fill="#2563eb"/>
<circle cx="2968.0" cy="499.6" r="2.4" fill="#2563eb"/>
<circle cx="3060.2" cy="514.4" r="2.4" fill="#2563eb"/>
<circle cx="3152.4" cy="674.7" r="2.4" fill="#2563eb"/>
<circle cx="3244.6" cy="649.1" r="2.4" fill="#2563eb"/>
<circle cx="3336.8" cy="657.0" r="2.4" fill="#2563eb"/>
<circle cx="3429.0" cy="660.7" r="2.4" fill="#2563eb"/>
<circle cx="3521.2" cy="660.2" r="2.4" fill="#2563eb"/>
<circle cx="3613.4" cy="657.3" r="2.4" fill="#2563eb"/>
<circle cx="3705.6" cy="658.3" r="2.4" fill="#2563eb"/>
<circle cx="3797.8" cy="684.9" r="2.4" fill="#2563eb"/>
<circle cx="3890.0" cy="684.7" r="2.4" fill="#2563eb"/>
<polyline points="110.0,740.0 202.2,729.2 294.4,701.3 386.6,702.6 478.8,621.5 571.0,569.6 663.2,566.2 755.4,549.3 847.6,563.5 939.8,547.3 1032.0,558.9 1124.1,534.0 1216.3,545.7 1308.5,697.4 1400.7,681.4 1492.9,648.9 1585.1,647.8 1677.3,687.9 1769.5,655.1 1861.7,605.0 1953.9,617.7 2046.1,662.0 2138.3,613.6 2230.5,608.3 2322.7,586.0 2414.9,570.5 2507.1,596.9 2599.3,663.9 2691.5,591.5 2783.7,599.1 2875.9,589.3 2968.0,531.2 3060.2,579.5 3152.4,594.5 3244.6,570.7 3336.8,574.0 3429.0,556.0 3521.2,569.2 3613.4,560.8 3705.6,574.0 3797.8,562.5 3890.0,560.3" fill="none" stroke="#dc2626" stroke-width="2.4"/>
<circle cx="110.0" cy="740.0" r="2.4" fill="#dc2626"/>
<circle cx="202.2" cy="729.2" r="2.4" fill="#dc2626"/>
<circle cx="294.4" cy="701.3" r="2.4" fill="#dc2626"/>
<circle cx="386.6" cy="702.6" r="2.4" fill="#dc2626"/>
<circle cx="478.8" cy="621.5" r="2.4" fill="#dc2626"/>
<circle cx="571.0" cy="569.6" r="2.4" fill="#dc2626"/>
<circle cx="663.2" cy="566.2" r="2.4" fill="#dc2626"/>
<circle cx="755.4" cy="549.3" r="2.4" fill="#dc2626"/>
<circle cx="847.6" cy="563.5" r="2.4" fill="#dc2626"/>
<circle cx="939.8" cy="547.3" r="2.4" fill="#dc2626"/>
<circle cx="1032.0" cy="558.9" r="2.4" fill="#dc2626"/>
<circle cx="1124.1" cy="534.0" r="2.4" fill="#dc2626"/>
<circle cx="1216.3" cy="545.7" r="2.4" fill="#dc2626"/>
<circle cx="1308.5" cy="697.4" r="2.4" fill="#dc2626"/>
<circle cx="1400.7" cy="681.4" r="2.4" fill="#dc2626"/>
<circle cx="1492.9" cy="648.9" r="2.4" fill="#dc2626"/>
<circle cx="1585.1" cy="647.8" r="2.4" fill="#dc2626"/>
<circle cx="1677.3" cy="687.9" r="2.4" fill="#dc2626"/>
<circle cx="1769.5" cy="655.1" r="2.4" fill="#dc2626"/>
<circle cx="1861.7" cy="605.0" r="2.4" fill="#dc2626"/>
<circle cx="1953.9" cy="617.7" r="2.4" fill="#dc2626"/>
<circle cx="2046.1" cy="662.0" r="2.4" fill="#dc2626"/>
<circle cx="2138.3" cy="613.6" r="2.4" fill="#dc2626"/>
<circle cx="2230.5" cy="608.3" r="2.4" fill="#dc2626"/>
<circle cx="2322.7" cy="586.0" r="2.4" fill="#dc2626"/>
<circle cx="2414.9" cy="570.5" r="2.4" fill="#dc2626"/>
<circle cx="2507.1" cy="596.9" r="2.4" fill="#dc2626"/>
<circle cx="2599.3" cy="663.9" r="2.4" fill="#dc2626"/>
<circle cx="2691.5" cy="591.5" r="2.4" fill="#dc2626"/>
<circle cx="2783.7" cy="599.1" r="2.4" fill="#dc2626"/>
<circle cx="2875.9" cy="589.3" r="2.4" fill="#dc2626"/>
<circle cx="2968.0" cy="531.2" r="2.4" fill="#dc2626"/>
<circle cx="3060.2" cy="579.5" r="2.4" fill="#dc2626"/>
<circle cx="3152.4" cy="594.5" r="2.4" fill="#dc2626"/>
<circle cx="3244.6" cy="570.7" r="2.4" fill="#dc2626"/>
<circle cx="3336.8" cy="574.0" r="2.4" fill="#dc2626"/>
<circle cx="3429.0" cy="556.0" r="2.4" fill="#dc2626"/>
<circle cx="3521.2" cy="569.2" r="2.4" fill="#dc2626"/>
<circle cx="3613.4" cy="560.8" r="2.4" fill="#dc2626"/>
<circle cx="3705.6" cy="574.0" r="2.4" fill="#dc2626"/>
<circle cx="3797.8" cy="562.5" r="2.4" fill="#dc2626"/>
<circle cx="3890.0" cy="560.3" r="2.4" fill="#dc2626"/>
<polyline points="110.0,740.0 202.2,734.7 294.4,725.6 386.6,724.1 478.8,730.7 571.0,690.4 663.2,677.7 755.4,660.0 847.6,647.0 939.8,649.7 1032.0,640.7 1124.1,637.1 1216.3,638.5 1308.5,726.8 1400.7,724.7 1492.9,724.3 1585.1,721.5 1677.3,713.7 1769.5,725.5 1861.7,682.4 1953.9,680.9 2046.1,688.9 2138.3,702.3 2230.5,674.9 2322.7,641.2 2414.9,636.4 2507.1,637.3 2599.3,661.9 2691.5,646.3 2783.7,640.6 2875.9,642.0 2968.0,639.3 3060.2,647.7 3152.4,659.1 3244.6,644.4 3336.8,632.0 3429.0,649.8 3521.2,637.7 3613.4,639.0 3705.6,636.6 3797.8,638.8 3890.0,649.0" fill="none" stroke="#16a34a" stroke-width="2.4"/>
<circle cx="110.0" cy="740.0" r="2.4" fill="#16a34a"/>
<circle cx="202.2" cy="734.7" r="2.4" fill="#16a34a"/>
<circle cx="294.4" cy="725.6" r="2.4" fill="#16a34a"/>
<circle cx="386.6" cy="724.1" r="2.4" fill="#16a34a"/>
<circle cx="478.8" cy="730.7" r="2.4" fill="#16a34a"/>
<circle cx="571.0" cy="690.4" r="2.4" fill="#16a34a"/>
<circle cx="663.2" cy="677.7" r="2.4" fill="#16a34a"/>
<circle cx="755.4" cy="660.0" r="2.4" fill="#16a34a"/>
<circle cx="847.6" cy="647.0" r="2.4" fill="#16a34a"/>
<circle cx="939.8" cy="649.7" r="2.4" fill="#16a34a"/>
<circle cx="1032.0" cy="640.7" r="2.4" fill="#16a34a"/>
<circle cx="1124.1" cy="637.1" r="2.4" fill="#16a34a"/>
<circle cx="1216.3" cy="638.5" r="2.4" fill="#16a34a"/>
<circle cx="1308.5" cy="726.8" r="2.4" fill="#16a34a"/>
<circle cx="1400.7" cy="724.7" r="2.4" fill="#16a34a"/>
<circle cx="1492.9" cy="724.3" r="2.4" fill="#16a34a"/>
<circle cx="1585.1" cy="721.5" r="2.4" fill="#16a34a"/>
<circle cx="1677.3" cy="713.7" r="2.4" fill="#16a34a"/>
<circle cx="1769.5" cy="725.5" r="2.4" fill="#16a34a"/>
<circle cx="1861.7" cy="682.4" r="2.4" fill="#16a34a"/>
<circle cx="1953.9" cy="680.9" r="2.4" fill="#16a34a"/>
<circle cx="2046.1" cy="688.9" r="2.4" fill="#16a34a"/>
<circle cx="2138.3" cy="702.3" r="2.4" fill="#16a34a"/>
<circle cx="2230.5" cy="674.9" r="2.4" fill="#16a34a"/>
<circle cx="2322.7" cy="641.2" r="2.4" fill="#16a34a"/>
<circle cx="2414.9" cy="636.4" r="2.4" fill="#16a34a"/>
<circle cx="2507.1" cy="637.3" r="2.4" fill="#16a34a"/>
<circle cx="2599.3" cy="661.9" r="2.4" fill="#16a34a"/>
<circle cx="2691.5" cy="646.3" r="2.4" fill="#16a34a"/>
<circle cx="2783.7" cy="640.6" r="2.4" fill="#16a34a"/>
<circle cx="2875.9" cy="642.0" r="2.4" fill="#16a34a"/>
<circle cx="2968.0" cy="639.3" r="2.4" fill="#16a34a"/>
<circle cx="3060.2" cy="647.7" r="2.4" fill="#16a34a"/>
<circle cx="3152.4" cy="659.1" r="2.4" fill="#16a34a"/>
<circle cx="3244.6" cy="644.4" r="2.4" fill="#16a34a"/>
<circle cx="3336.8" cy="632.0" r="2.4" fill="#16a34a"/>
<circle cx="3429.0" cy="649.8" r="2.4" fill="#16a34a"/>
<circle cx="3521.2" cy="637.7" r="2.4" fill="#16a34a"/>
<circle cx="3613.4" cy="639.0" r="2.4" fill="#16a34a"/>
<circle cx="3705.6" cy="636.6" r="2.4" fill="#16a34a"/>
<circle cx="3797.8" cy="638.8" r="2.4" fill="#16a34a"/>
<circle cx="3890.0" cy="649.0" r="2.4" fill="#16a34a"/>
<text x="110" y="832" class="panel-title">CGEMM GF/s</text>
<line x1="110" y1="1110.0" x2="3890" y2="1110.0" class="grid"/>
<text x="100" y="1114.0" text-anchor="end" class="axis-label">0</text>
<line x1="110" y1="1045.0" x2="3890" y2="1045.0" class="grid"/>
<text x="100" y="1049.0" text-anchor="end" class="axis-label">500</text>
<line x1="110" y1="980.0" x2="3890" y2="980.0" class="grid"/>
<text x="100" y="984.0" text-anchor="end" class="axis-label">1000</text>
<line x1="110" y1="915.0" x2="3890" y2="915.0" class="grid"/>
<text x="100" y="919.0" text-anchor="end" class="axis-label">1500</text>
<line x1="110" y1="850.0" x2="3890" y2="850.0" class="grid"/>
<text x="100" y="854.0" text-anchor="end" class="axis-label">2000</text>
<line x1="110" y1="850" x2="110" y2="1110" class="axis"/>
<line x1="110" y1="1110" x2="3890" y2="1110" class="axis"/>
<polyline points="110.0,1110.0 202.2,1097.0 294.4,1103.1 386.6,1102.1 478.8,1077.4 571.0,1059.2 663.2,1093.0 755.4,1079.9 847.6,1069.9 939.8,1052.5 1032.0,923.8 1124.1,873.7 1216.3,855.9 1308.5,1102.3 1400.7,1096.2 1492.9,1095.4 1585.1,1085.4 1677.3,1108.7 1769.5,1108.2 1861.7,1100.0 1953.9,1099.8 2046.1,1085.6 2138.3,1098.6 2230.5,1099.7 2322.7,1063.8 2414.9,1063.2 2507.1,1074.1 2599.3,1084.9 2691.5,1065.2 2783.7,1069.3 2875.9,1055.4 2968.0,1051.0 3060.2,1056.3 3152.4,1080.4 3244.6,1057.5 3336.8,1049.8 3429.0,1075.6 3521.2,1068.5 3613.4,1050.2 3705.6,1053.6 3797.8,1059.4 3890.0,1059.0" fill="none" stroke="#2563eb" stroke-width="2.4"/>
<circle cx="110.0" cy="1110.0" r="2.4" fill="#2563eb"/>
<circle cx="202.2" cy="1097.0" r="2.4" fill="#2563eb"/>
<circle cx="294.4" cy="1103.1" r="2.4" fill="#2563eb"/>
<circle cx="386.6" cy="1102.1" r="2.4" fill="#2563eb"/>
<circle cx="478.8" cy="1077.4" r="2.4" fill="#2563eb"/>
<circle cx="571.0" cy="1059.2" r="2.4" fill="#2563eb"/>
<circle cx="663.2" cy="1093.0" r="2.4" fill="#2563eb"/>
<circle cx="755.4" cy="1079.9" r="2.4" fill="#2563eb"/>
<circle cx="847.6" cy="1069.9" r="2.4" fill="#2563eb"/>
<circle cx="939.8" cy="1052.5" r="2.4" fill="#2563eb"/>
<circle cx="1032.0" cy="923.8" r="2.4" fill="#2563eb"/>
<circle cx="1124.1" cy="873.7" r="2.4" fill="#2563eb"/>
<circle cx="1216.3" cy="855.9" r="2.4" fill="#2563eb"/>
<circle cx="1308.5" cy="1102.3" r="2.4" fill="#2563eb"/>
<circle cx="1400.7" cy="1096.2" r="2.4" fill="#2563eb"/>
<circle cx="1492.9" cy="1095.4" r="2.4" fill="#2563eb"/>
<circle cx="1585.1" cy="1085.4" r="2.4" fill="#2563eb"/>
<circle cx="1677.3" cy="1108.7" r="2.4" fill="#2563eb"/>
<circle cx="1769.5" cy="1108.2" r="2.4" fill="#2563eb"/>
<circle cx="1861.7" cy="1100.0" r="2.4" fill="#2563eb"/>
<circle cx="1953.9" cy="1099.8" r="2.4" fill="#2563eb"/>
<circle cx="2046.1" cy="1085.6" r="2.4" fill="#2563eb"/>
<circle cx="2138.3" cy="1098.6" r="2.4" fill="#2563eb"/>
<circle cx="2230.5" cy="1099.7" r="2.4" fill="#2563eb"/>
<circle cx="2322.7" cy="1063.8" r="2.4" fill="#2563eb"/>
<circle cx="2414.9" cy="1063.2" r="2.4" fill="#2563eb"/>
<circle cx="2507.1" cy="1074.1" r="2.4" fill="#2563eb"/>
<circle cx="2599.3" cy="1084.9" r="2.4" fill="#2563eb"/>
<circle cx="2691.5" cy="1065.2" r="2.4" fill="#2563eb"/>
<circle cx="2783.7" cy="1069.3" r="2.4" fill="#2563eb"/>
<circle cx="2875.9" cy="1055.4" r="2.4" fill="#2563eb"/>
<circle cx="2968.0" cy="1051.0" r="2.4" fill="#2563eb"/>
<circle cx="3060.2" cy="1056.3" r="2.4" fill="#2563eb"/>
<circle cx="3152.4" cy="1080.4" r="2.4" fill="#2563eb"/>
<circle cx="3244.6" cy="1057.5" r="2.4" fill="#2563eb"/>
<circle cx="3336.8" cy="1049.8" r="2.4" fill="#2563eb"/>
<circle cx="3429.0" cy="1075.6" r="2.4" fill="#2563eb"/>
<circle cx="3521.2" cy="1068.5" r="2.4" fill="#2563eb"/>
<circle cx="3613.4" cy="1050.2" r="2.4" fill="#2563eb"/>
<circle cx="3705.6" cy="1053.6" r="2.4" fill="#2563eb"/>
<circle cx="3797.8" cy="1059.4" r="2.4" fill="#2563eb"/>
<circle cx="3890.0" cy="1059.0" r="2.4" fill="#2563eb"/>
<polyline points="110.0,1110.0 202.2,1107.9 294.4,1100.3 386.6,1101.9 478.8,1077.1 571.0,1059.1 663.2,1048.9 755.4,1016.6 847.6,1001.9 939.8,966.8 1032.0,958.0 1124.1,937.6 1216.3,930.4 1308.5,1099.3 1400.7,1092.9 1492.9,1084.9 1585.1,1086.8 1677.3,1107.1 1769.5,1106.8 1861.7,1004.4 1953.9,1005.7 2046.1,1043.0 2138.3,1076.6 2230.5,1014.2 2322.7,1024.0 2414.9,1027.0 2507.1,1057.7 2599.3,1084.1 2691.5,1024.8 2783.7,1030.1 2875.9,993.5 2968.0,962.9 3060.2,976.1 3152.4,1007.2 3244.6,979.5 3336.8,981.2 3429.0,961.6 3521.2,961.0 3613.4,962.2 3705.6,979.5 3797.8,1020.6 3890.0,1013.0" fill="none" stroke="#dc2626" stroke-width="2.4"/>
<circle cx="110.0" cy="1110.0" r="2.4" fill="#dc2626"/>
<circle cx="202.2" cy="1107.9" r="2.4" fill="#dc2626"/>
<circle cx="294.4" cy="1100.3" r="2.4" fill="#dc2626"/>
<circle cx="386.6" cy="1101.9" r="2.4" fill="#dc2626"/>
<circle cx="478.8" cy="1077.1" r="2.4" fill="#dc2626"/>
<circle cx="571.0" cy="1059.1" r="2.4" fill="#dc2626"/>
<circle cx="663.2" cy="1048.9" r="2.4" fill="#dc2626"/>
<circle cx="755.4" cy="1016.6" r="2.4" fill="#dc2626"/>
<circle cx="847.6" cy="1001.9" r="2.4" fill="#dc2626"/>
<circle cx="939.8" cy="966.8" r="2.4" fill="#dc2626"/>
<circle cx="1032.0" cy="958.0" r="2.4" fill="#dc2626"/>
<circle cx="1124.1" cy="937.6" r="2.4" fill="#dc2626"/>
<circle cx="1216.3" cy="930.4" r="2.4" fill="#dc2626"/>
<circle cx="1308.5" cy="1099.3" r="2.4" fill="#dc2626"/>
<circle cx="1400.7" cy="1092.9" r="2.4" fill="#dc2626"/>
<circle cx="1492.9" cy="1084.9" r="2.4" fill="#dc2626"/>
<circle cx="1585.1" cy="1086.8" r="2.4" fill="#dc2626"/>
<circle cx="1677.3" cy="1107.1" r="2.4" fill="#dc2626"/>
<circle cx="1769.5" cy="1106.8" r="2.4" fill="#dc2626"/>
<circle cx="1861.7" cy="1004.4" r="2.4" fill="#dc2626"/>
<circle cx="1953.9" cy="1005.7" r="2.4" fill="#dc2626"/>
<circle cx="2046.1" cy="1043.0" r="2.4" fill="#dc2626"/>
<circle cx="2138.3" cy="1076.6" r="2.4" fill="#dc2626"/>
<circle cx="2230.5" cy="1014.2" r="2.4" fill="#dc2626"/>
<circle cx="2322.7" cy="1024.0" r="2.4" fill="#dc2626"/>
<circle cx="2414.9" cy="1027.0" r="2.4" fill="#dc2626"/>
<circle cx="2507.1" cy="1057.7" r="2.4" fill="#dc2626"/>
<circle cx="2599.3" cy="1084.1" r="2.4" fill="#dc2626"/>
<circle cx="2691.5" cy="1024.8" r="2.4" fill="#dc2626"/>
<circle cx="2783.7" cy="1030.1" r="2.4" fill="#dc2626"/>
<circle cx="2875.9" cy="993.5" r="2.4" fill="#dc2626"/>
<circle cx="2968.0" cy="962.9" r="2.4" fill="#dc2626"/>
<circle cx="3060.2" cy="976.1" r="2.4" fill="#dc2626"/>
<circle cx="3152.4" cy="1007.2" r="2.4" fill="#dc2626"/>
<circle cx="3244.6" cy="979.5" r="2.4" fill="#dc2626"/>
<circle cx="3336.8" cy="981.2" r="2.4" fill="#dc2626"/>
<circle cx="3429.0" cy="961.6" r="2.4" fill="#dc2626"/>
<circle cx="3521.2" cy="961.0" r="2.4" fill="#dc2626"/>
<circle cx="3613.4" cy="962.2" r="2.4" fill="#dc2626"/>
<circle cx="3705.6" cy="979.5" r="2.4" fill="#dc2626"/>
<circle cx="3797.8" cy="1020.6" r="2.4" fill="#dc2626"/>
<circle cx="3890.0" cy="1013.0" r="2.4" fill="#dc2626"/>
<polyline points="110.0,1110.0 202.2,1105.7 294.4,1103.6 386.6,1102.4 478.8,1074.4 571.0,1076.7 663.2,1065.5 755.4,1061.5 847.6,1055.8 939.8,1050.0 1032.0,1048.9 1124.1,1047.7 1216.3,1051.5 1308.5,1098.0 1400.7,1093.5 1492.9,1074.6 1585.1,1077.4 1677.3,1101.4 1769.5,1102.0 1861.7,1070.0 1953.9,1066.9 2046.1,1069.1 2138.3,1084.5 2230.5,1072.6 2322.7,1047.5 2414.9,1047.6 2507.1,1048.2 2599.3,1060.0 2691.5,1049.4 2783.7,1048.8 2875.9,1048.4 2968.0,1047.1 3060.2,1055.6 3152.4,1062.0 3244.6,1048.2 3336.8,1045.1 3429.0,1050.4 3521.2,1046.1 3613.4,1047.0 3705.6,1045.9 3797.8,1045.3 3890.0,1050.8" fill="none" stroke="#16a34a" stroke-width="2.4"/>
<circle cx="110.0" cy="1110.0" r="2.4" fill="#16a34a"/>
<circle cx="202.2" cy="1105.7" r="2.4" fill="#16a34a"/>
<circle cx="294.4" cy="1103.6" r="2.4" fill="#16a34a"/>
<circle cx="386.6" cy="1102.4" r="2.4" fill="#16a34a"/>
<circle cx="478.8" cy="1074.4" r="2.4" fill="#16a34a"/>
<circle cx="571.0" cy="1076.7" r="2.4" fill="#16a34a"/>
<circle cx="663.2" cy="1065.5" r="2.4" fill="#16a34a"/>
<circle cx="755.4" cy="1061.5" r="2.4" fill="#16a34a"/>
<circle cx="847.6" cy="1055.8" r="2.4" fill="#16a34a"/>
<circle cx="939.8" cy="1050.0" r="2.4" fill="#16a34a"/>
<circle cx="1032.0" cy="1048.9" r="2.4" fill="#16a34a"/>
<circle cx="1124.1" cy="1047.7" r="2.4" fill="#16a34a"/>
<circle cx="1216.3" cy="1051.5" r="2.4" fill="#16a34a"/>
<circle cx="1308.5" cy="1098.0" r="2.4" fill="#16a34a"/>
<circle cx="1400.7" cy="1093.5" r="2.4" fill="#16a34a"/>
<circle cx="1492.9" cy="1074.6" r="2.4" fill="#16a34a"/>
<circle cx="1585.1" cy="1077.4" r="2.4" fill="#16a34a"/>
<circle cx="1677.3" cy="1101.4" r="2.4" fill="#16a34a"/>
<circle cx="1769.5" cy="1102.0" r="2.4" fill="#16a34a"/>
<circle cx="1861.7" cy="1070.0" r="2.4" fill="#16a34a"/>
<circle cx="1953.9" cy="1066.9" r="2.4" fill="#16a34a"/>
<circle cx="2046.1" cy="1069.1" r="2.4" fill="#16a34a"/>
<circle cx="2138.3" cy="1084.5" r="2.4" fill="#16a34a"/>
<circle cx="2230.5" cy="1072.6" r="2.4" fill="#16a34a"/>
<circle cx="2322.7" cy="1047.5" r="2.4" fill="#16a34a"/>
<circle cx="2414.9" cy="1047.6" r="2.4" fill="#16a34a"/>
<circle cx="2507.1" cy="1048.2" r="2.4" fill="#16a34a"/>
<circle cx="2599.3" cy="1060.0" r="2.4" fill="#16a34a"/>
<circle cx="2691.5" cy="1049.4" r="2.4" fill="#16a34a"/>
<circle cx="2783.7" cy="1048.8" r="2.4" fill="#16a34a"/>
<circle cx="2875.9" cy="1048.4" r="2.4" fill="#16a34a"/>
<circle cx="2968.0" cy="1047.1" r="2.4" fill="#16a34a"/>
<circle cx="3060.2" cy="1055.6" r="2.4" fill="#16a34a"/>
<circle cx="3152.4" cy="1062.0" r="2.4" fill="#16a34a"/>
<circle cx="3244.6" cy="1048.2" r="2.4" fill="#16a34a"/>
<circle cx="3336.8" cy="1045.1" r="2.4" fill="#16a34a"/>
<circle cx="3429.0" cy="1050.4" r="2.4" fill="#16a34a"/>
<circle cx="3521.2" cy="1046.1" r="2.4" fill="#16a34a"/>
<circle cx="3613.4" cy="1047.0" r="2.4" fill="#16a34a"/>
<circle cx="3705.6" cy="1045.9" r="2.4" fill="#16a34a"/>
<circle cx="3797.8" cy="1045.3" r="2.4" fill="#16a34a"/>
<circle cx="3890.0" cy="1050.8" r="2.4" fill="#16a34a"/>
<text x="110" y="1202" class="panel-title">ZGEMM GF/s</text>
<line x1="110" y1="1480.0" x2="3890" y2="1480.0" class="grid"/>
<text x="100" y="1484.0" text-anchor="end" class="axis-label">0</text>
<line x1="110" y1="1393.3" x2="3890" y2="1393.3" class="grid"/>
<text x="100" y="1397.3" text-anchor="end" class="axis-label">200</text>
<line x1="110" y1="1306.7" x2="3890" y2="1306.7" class="grid"/>
<text x="100" y="1310.7" text-anchor="end" class="axis-label">400</text>
<line x1="110" y1="1220.0" x2="3890" y2="1220.0" class="grid"/>
<text x="100" y="1224.0" text-anchor="end" class="axis-label">600</text>
<line x1="110" y1="1220" x2="110" y2="1480" class="axis"/>
<line x1="110" y1="1480" x2="3890" y2="1480" class="axis"/>
<polyline points="110.0,1479.9 202.2,1474.7 294.4,1460.8 386.6,1458.5 478.8,1416.2 571.0,1393.9 663.2,1378.7 755.4,1445.6 847.6,1424.1 939.8,1383.0 1032.0,1249.6 1124.1,1246.1 1216.3,1239.5 1308.5,1465.8 1400.7,1455.6 1492.9,1457.2 1585.1,1440.2 1677.3,1476.6 1769.5,1476.3 1861.7,1463.5 1953.9,1464.1 2046.1,1437.4 2138.3,1460.1 2230.5,1464.0 2322.7,1394.1 2414.9,1393.1 2507.1,1373.5 2599.3,1441.9 2691.5,1401.4 2783.7,1404.8 2875.9,1265.4 2968.0,1253.6 3060.2,1285.6 3152.4,1414.4 3244.6,1389.5 3336.8,1388.2 3429.0,1400.5 3521.2,1395.4 3613.4,1389.0 3705.6,1389.4 3797.8,1422.4 3890.0,1421.5" fill="none" stroke="#2563eb" stroke-width="2.4"/>
<circle cx="110.0" cy="1479.9" r="2.4" fill="#2563eb"/>
<circle cx="202.2" cy="1474.7" r="2.4" fill="#2563eb"/>
<circle cx="294.4" cy="1460.8" r="2.4" fill="#2563eb"/>
<circle cx="386.6" cy="1458.5" r="2.4" fill="#2563eb"/>
<circle cx="478.8" cy="1416.2" r="2.4" fill="#2563eb"/>
<circle cx="571.0" cy="1393.9" r="2.4" fill="#2563eb"/>
<circle cx="663.2" cy="1378.7" r="2.4" fill="#2563eb"/>
<circle cx="755.4" cy="1445.6" r="2.4" fill="#2563eb"/>
<circle cx="847.6" cy="1424.1" r="2.4" fill="#2563eb"/>
<circle cx="939.8" cy="1383.0" r="2.4" fill="#2563eb"/>
<circle cx="1032.0" cy="1249.6" r="2.4" fill="#2563eb"/>
<circle cx="1124.1" cy="1246.1" r="2.4" fill="#2563eb"/>
<circle cx="1216.3" cy="1239.5" r="2.4" fill="#2563eb"/>
<circle cx="1308.5" cy="1465.8" r="2.4" fill="#2563eb"/>
<circle cx="1400.7" cy="1455.6" r="2.4" fill="#2563eb"/>
<circle cx="1492.9" cy="1457.2" r="2.4" fill="#2563eb"/>
<circle cx="1585.1" cy="1440.2" r="2.4" fill="#2563eb"/>
<circle cx="1677.3" cy="1476.6" r="2.4" fill="#2563eb"/>
<circle cx="1769.5" cy="1476.3" r="2.4" fill="#2563eb"/>
<circle cx="1861.7" cy="1463.5" r="2.4" fill="#2563eb"/>
<circle cx="1953.9" cy="1464.1" r="2.4" fill="#2563eb"/>
<circle cx="2046.1" cy="1437.4" r="2.4" fill="#2563eb"/>
<circle cx="2138.3" cy="1460.1" r="2.4" fill="#2563eb"/>
<circle cx="2230.5" cy="1464.0" r="2.4" fill="#2563eb"/>
<circle cx="2322.7" cy="1394.1" r="2.4" fill="#2563eb"/>
<circle cx="2414.9" cy="1393.1" r="2.4" fill="#2563eb"/>
<circle cx="2507.1" cy="1373.5" r="2.4" fill="#2563eb"/>
<circle cx="2599.3" cy="1441.9" r="2.4" fill="#2563eb"/>
<circle cx="2691.5" cy="1401.4" r="2.4" fill="#2563eb"/>
<circle cx="2783.7" cy="1404.8" r="2.4" fill="#2563eb"/>
<circle cx="2875.9" cy="1265.4" r="2.4" fill="#2563eb"/>
<circle cx="2968.0" cy="1253.6" r="2.4" fill="#2563eb"/>
<circle cx="3060.2" cy="1285.6" r="2.4" fill="#2563eb"/>
<circle cx="3152.4" cy="1414.4" r="2.4" fill="#2563eb"/>
<circle cx="3244.6" cy="1389.5" r="2.4" fill="#2563eb"/>
<circle cx="3336.8" cy="1388.2" r="2.4" fill="#2563eb"/>
<circle cx="3429.0" cy="1400.5" r="2.4" fill="#2563eb"/>
<circle cx="3521.2" cy="1395.4" r="2.4" fill="#2563eb"/>
<circle cx="3613.4" cy="1389.0" r="2.4" fill="#2563eb"/>
<circle cx="3705.6" cy="1389.4" r="2.4" fill="#2563eb"/>
<circle cx="3797.8" cy="1422.4" r="2.4" fill="#2563eb"/>
<circle cx="3890.0" cy="1421.5" r="2.4" fill="#2563eb"/>
<polyline points="110.0,1479.9 202.2,1473.9 294.4,1457.3 386.6,1459.4 478.8,1427.4 571.0,1394.5 663.2,1385.5 755.4,1372.6 847.6,1366.2 939.8,1330.1 1032.0,1341.6 1124.1,1329.8 1216.3,1315.4 1308.5,1459.5 1400.7,1450.2 1492.9,1440.9 1585.1,1437.8 1677.3,1477.4 1769.5,1477.2 1861.7,1406.8 1953.9,1415.4 2046.1,1444.0 2138.3,1440.7 2230.5,1410.5 2322.7,1398.1 2414.9,1396.4 2507.1,1428.9 2599.3,1447.3 2691.5,1400.7 2783.7,1386.6 2875.9,1376.5 2968.0,1332.4 3060.2,1369.4 3152.4,1394.0 3244.6,1350.7 3336.8,1355.9 3429.0,1345.2 3521.2,1350.6 3613.4,1338.4 3705.6,1345.3 3797.8,1367.2 3890.0,1365.3" fill="none" stroke="#dc2626" stroke-width="2.4"/>
<circle cx="110.0" cy="1479.9" r="2.4" fill="#dc2626"/>
<circle cx="202.2" cy="1473.9" r="2.4" fill="#dc2626"/>
<circle cx="294.4" cy="1457.3" r="2.4" fill="#dc2626"/>
<circle cx="386.6" cy="1459.4" r="2.4" fill="#dc2626"/>
<circle cx="478.8" cy="1427.4" r="2.4" fill="#dc2626"/>
<circle cx="571.0" cy="1394.5" r="2.4" fill="#dc2626"/>
<circle cx="663.2" cy="1385.5" r="2.4" fill="#dc2626"/>
<circle cx="755.4" cy="1372.6" r="2.4" fill="#dc2626"/>
<circle cx="847.6" cy="1366.2" r="2.4" fill="#dc2626"/>
<circle cx="939.8" cy="1330.1" r="2.4" fill="#dc2626"/>
<circle cx="1032.0" cy="1341.6" r="2.4" fill="#dc2626"/>
<circle cx="1124.1" cy="1329.8" r="2.4" fill="#dc2626"/>
<circle cx="1216.3" cy="1315.4" r="2.4" fill="#dc2626"/>
<circle cx="1308.5" cy="1459.5" r="2.4" fill="#dc2626"/>
<circle cx="1400.7" cy="1450.2" r="2.4" fill="#dc2626"/>
<circle cx="1492.9" cy="1440.9" r="2.4" fill="#dc2626"/>
<circle cx="1585.1" cy="1437.8" r="2.4" fill="#dc2626"/>
<circle cx="1677.3" cy="1477.4" r="2.4" fill="#dc2626"/>
<circle cx="1769.5" cy="1477.2" r="2.4" fill="#dc2626"/>
<circle cx="1861.7" cy="1406.8" r="2.4" fill="#dc2626"/>
<circle cx="1953.9" cy="1415.4" r="2.4" fill="#dc2626"/>
<circle cx="2046.1" cy="1444.0" r="2.4" fill="#dc2626"/>
<circle cx="2138.3" cy="1440.7" r="2.4" fill="#dc2626"/>
<circle cx="2230.5" cy="1410.5" r="2.4" fill="#dc2626"/>
<circle cx="2322.7" cy="1398.1" r="2.4" fill="#dc2626"/>
<circle cx="2414.9" cy="1396.4" r="2.4" fill="#dc2626"/>
<circle cx="2507.1" cy="1428.9" r="2.4" fill="#dc2626"/>
<circle cx="2599.3" cy="1447.3" r="2.4" fill="#dc2626"/>
<circle cx="2691.5" cy="1400.7" r="2.4" fill="#dc2626"/>
<circle cx="2783.7" cy="1386.6" r="2.4" fill="#dc2626"/>
<circle cx="2875.9" cy="1376.5" r="2.4" fill="#dc2626"/>
<circle cx="2968.0" cy="1332.4" r="2.4" fill="#dc2626"/>
<circle cx="3060.2" cy="1369.4" r="2.4" fill="#dc2626"/>
<circle cx="3152.4" cy="1394.0" r="2.4" fill="#dc2626"/>
<circle cx="3244.6" cy="1350.7" r="2.4" fill="#dc2626"/>
<circle cx="3336.8" cy="1355.9" r="2.4" fill="#dc2626"/>
<circle cx="3429.0" cy="1345.2" r="2.4" fill="#dc2626"/>
<circle cx="3521.2" cy="1350.6" r="2.4" fill="#dc2626"/>
<circle cx="3613.4" cy="1338.4" r="2.4" fill="#dc2626"/>
<circle cx="3705.6" cy="1345.3" r="2.4" fill="#dc2626"/>
<circle cx="3797.8" cy="1367.2" r="2.4" fill="#dc2626"/>
<circle cx="3890.0" cy="1365.3" r="2.4" fill="#dc2626"/>
<polyline points="110.0,1479.9 202.2,1469.3 294.4,1467.4 386.6,1466.3 478.8,1429.6 571.0,1408.7 663.2,1396.8 755.4,1387.4 847.6,1385.3 939.8,1382.5 1032.0,1380.5 1124.1,1382.0 1216.3,1382.9 1308.5,1464.3 1400.7,1449.4 1492.9,1416.6 1585.1,1413.2 1677.3,1468.2 1769.5,1465.5 1861.7,1405.6 1953.9,1405.3 2046.1,1412.4 2138.3,1434.4 2230.5,1409.6 2322.7,1382.0 2414.9,1383.0 2507.1,1385.6 2599.3,1391.8 2691.5,1383.2 2783.7,1388.4 2875.9,1383.7 2968.0,1381.5 3060.2,1386.4 3152.4,1393.1 3244.6,1384.3 3336.8,1379.0 3429.0,1384.5 3521.2,1379.5 3613.4,1380.4 3705.6,1379.3 3797.8,1377.4 3890.0,1385.4" fill="none" stroke="#16a34a" stroke-width="2.4"/>
<circle cx="110.0" cy="1479.9" r="2.4" fill="#16a34a"/>
<circle cx="202.2" cy="1469.3" r="2.4" fill="#16a34a"/>
<circle cx="294.4" cy="1467.4" r="2.4" fill="#16a34a"/>
<circle cx="386.6" cy="1466.3" r="2.4" fill="#16a34a"/>
<circle cx="478.8" cy="1429.6" r="2.4" fill="#16a34a"/>
<circle cx="571.0" cy="1408.7" r="2.4" fill="#16a34a"/>
<circle cx="663.2" cy="1396.8" r="2.4" fill="#16a34a"/>
<circle cx="755.4" cy="1387.4" r="2.4" fill="#16a34a"/>
<circle cx="847.6" cy="1385.3" r="2.4" fill="#16a34a"/>
<circle cx="939.8" cy="1382.5" r="2.4" fill="#16a34a"/>
<circle cx="1032.0" cy="1380.5" r="2.4" fill="#16a34a"/>
<circle cx="1124.1" cy="1382.0" r="2.4" fill="#16a34a"/>
<circle cx="1216.3" cy="1382.9" r="2.4" fill="#16a34a"/>
<circle cx="1308.5" cy="1464.3" r="2.4" fill="#16a34a"/>
<circle cx="1400.7" cy="1449.4" r="2.4" fill="#16a34a"/>
<circle cx="1492.9" cy="1416.6" r="2.4" fill="#16a34a"/>
<circle cx="1585.1" cy="1413.2" r="2.4" fill="#16a34a"/>
<circle cx="1677.3" cy="1468.2" r="2.4" fill="#16a34a"/>
<circle cx="1769.5" cy="1465.5" r="2.4" fill="#16a34a"/>
<circle cx="1861.7" cy="1405.6" r="2.4" fill="#16a34a"/>
<circle cx="1953.9" cy="1405.3" r="2.4" fill="#16a34a"/>
<circle cx="2046.1" cy="1412.4" r="2.4" fill="#16a34a"/>
<circle cx="2138.3" cy="1434.4" r="2.4" fill="#16a34a"/>
<circle cx="2230.5" cy="1409.6" r="2.4" fill="#16a34a"/>
<circle cx="2322.7" cy="1382.0" r="2.4" fill="#16a34a"/>
<circle cx="2414.9" cy="1383.0" r="2.4" fill="#16a34a"/>
<circle cx="2507.1" cy="1385.6" r="2.4" fill="#16a34a"/>
<circle cx="2599.3" cy="1391.8" r="2.4" fill="#16a34a"/>
<circle cx="2691.5" cy="1383.2" r="2.4" fill="#16a34a"/>
<circle cx="2783.7" cy="1388.4" r="2.4" fill="#16a34a"/>
<circle cx="2875.9" cy="1383.7" r="2.4" fill="#16a34a"/>
<circle cx="2968.0" cy="1381.5" r="2.4" fill="#16a34a"/>
<circle cx="3060.2" cy="1386.4" r="2.4" fill="#16a34a"/>
<circle cx="3152.4" cy="1393.1" r="2.4" fill="#16a34a"/>
<circle cx="3244.6" cy="1384.3" r="2.4" fill="#16a34a"/>
<circle cx="3336.8" cy="1379.0" r="2.4" fill="#16a34a"/>
<circle cx="3429.0" cy="1384.5" r="2.4" fill="#16a34a"/>
<circle cx="3521.2" cy="1379.5" r="2.4" fill="#16a34a"/>
<circle cx="3613.4" cy="1380.4" r="2.4" fill="#16a34a"/>
<circle cx="3705.6" cy="1379.3" r="2.4" fill="#16a34a"/>
<circle cx="3797.8" cy="1377.4" r="2.4" fill="#16a34a"/>
<circle cx="3890.0" cy="1385.4" r="2.4" fill="#16a34a"/>
<g transform="translate(110.0,1498) rotate(58)">
<text class="shape-label">m1_n1_k1</text>
<text y="12" class="shape-label">1x1x1</text>
</g>
<g transform="translate(202.2,1498) rotate(58)">
<text class="shape-label">m8_n8_k8</text>
<text y="12" class="shape-label">8x8x8</text>
</g>
<g transform="translate(294.4,1498) rotate(58)">
<text class="shape-label">m31_n31_k31</text>
<text y="12" class="shape-label">31x31x31</text>
</g>
<g transform="translate(386.6,1498) rotate(58)">
<text class="shape-label">m33_n33_k33</text>
<text y="12" class="shape-label">33x33x33</text>
</g>
<g transform="translate(478.8,1498) rotate(58)">
<text class="shape-label">sq64</text>
<text y="12" class="shape-label">64x64x64</text>
</g>
<g transform="translate(571.0,1498) rotate(58)">
<text class="shape-label">sq96</text>
<text y="12" class="shape-label">96x96x96</text>
</g>
<g transform="translate(663.2,1498) rotate(58)">
<text class="shape-label">sq128</text>
<text y="12" class="shape-label">128x128x128</text>
</g>
<g transform="translate(755.4,1498) rotate(58)">
<text class="shape-label">sq192</text>
<text y="12" class="shape-label">192x192x192</text>
</g>
<g transform="translate(847.6,1498) rotate(58)">
<text class="shape-label">sq256</text>
<text y="12" class="shape-label">256x256x256</text>
</g>
<g transform="translate(939.8,1498) rotate(58)">
<text class="shape-label">sq384</text>
<text y="12" class="shape-label">384x384x384</text>
</g>
<g transform="translate(1032.0,1498) rotate(58)">
<text class="shape-label">sq512</text>
<text y="12" class="shape-label">512x512x512</text>
</g>
<g transform="translate(1124.1,1498) rotate(58)">
<text class="shape-label">sq768</text>
<text y="12" class="shape-label">768x768x768</text>
</g>
<g transform="translate(1216.3,1498) rotate(58)">
<text class="shape-label">sq1024</text>
<text y="12" class="shape-label">1024x1024x1024</text>
</g>
<g transform="translate(1308.5,1498) rotate(58)">
<text class="shape-label">m63_n65_k17</text>
<text y="12" class="shape-label">63x65x17</text>
</g>
<g transform="translate(1400.7,1498) rotate(58)">
<text class="shape-label">m65_n63_k33</text>
<text y="12" class="shape-label">65x63x33</text>
</g>
<g transform="translate(1492.9,1498) rotate(58)">
<text class="shape-label">m127_n129_k31</text>
<text y="12" class="shape-label">127x129x31</text>
</g>
<g transform="translate(1585.1,1498) rotate(58)">
<text class="shape-label">m129_n127_k33</text>
<text y="12" class="shape-label">129x127x33</text>
</g>
<g transform="translate(1677.3,1498) rotate(58)">
<text class="shape-label">m1_n4096_k256</text>
<text y="12" class="shape-label">1x4096x256</text>
</g>
<g transform="translate(1769.5,1498) rotate(58)">
<text class="shape-label">m4096_n1_k256</text>
<text y="12" class="shape-label">4096x1x256</text>
</g>
<g transform="translate(1861.7,1498) rotate(58)">
<text class="shape-label">m1024_n64_k1024</text>
<text y="12" class="shape-label">1024x64x1024</text>
</g>
<g transform="translate(1953.9,1498) rotate(58)">
<text class="shape-label">m2048_n64_k512</text>
<text y="12" class="shape-label">2048x64x512</text>
</g>
<g transform="translate(2046.1,1498) rotate(58)">
<text class="shape-label">m4096_n32_k256</text>
<text y="12" class="shape-label">4096x32x256</text>
</g>
<g transform="translate(2138.3,1498) rotate(58)">
<text class="shape-label">m2048_n17_k257</text>
<text y="12" class="shape-label">2048x17x257</text>
</g>
<g transform="translate(2230.5,1498) rotate(58)">
<text class="shape-label">m512_n64_k2048</text>
<text y="12" class="shape-label">512x64x2048</text>
</g>
<g transform="translate(2322.7,1498) rotate(58)">
<text class="shape-label">m64_n1024_k1024</text>
<text y="12" class="shape-label">64x1024x1024</text>
</g>
<g transform="translate(2414.9,1498) rotate(58)">
<text class="shape-label">m64_n2048_k512</text>
<text y="12" class="shape-label">64x2048x512</text>
</g>
<g transform="translate(2507.1,1498) rotate(58)">
<text class="shape-label">m32_n4096_k256</text>
<text y="12" class="shape-label">32x4096x256</text>
</g>
<g transform="translate(2599.3,1498) rotate(58)">
<text class="shape-label">m17_n2048_k257</text>
<text y="12" class="shape-label">17x2048x257</text>
</g>
<g transform="translate(2691.5,1498) rotate(58)">
<text class="shape-label">m64_n512_k2048</text>
<text y="12" class="shape-label">64x512x2048</text>
</g>
<g transform="translate(2783.7,1498) rotate(58)">
<text class="shape-label">m1024_n1024_k64</text>
<text y="12" class="shape-label">1024x1024x64</text>
</g>
<g transform="translate(2875.9,1498) rotate(58)">
<text class="shape-label">m1024_n1024_k128</text>
<text y="12" class="shape-label">1024x1024x128</text>
</g>
<g transform="translate(2968.0,1498) rotate(58)">
<text class="shape-label">m1024_n1024_k256</text>
<text y="12" class="shape-label">1024x1024x256</text>
</g>
<g transform="translate(3060.2,1498) rotate(58)">
<text class="shape-label">m256_n256_k2048</text>
<text y="12" class="shape-label">256x256x2048</text>
</g>
<g transform="translate(3152.4,1498) rotate(58)">
<text class="shape-label">m128_n128_k4096</text>
<text y="12" class="shape-label">128x128x4096</text>
</g>
<g transform="translate(3244.6,1498) rotate(58)">
<text class="shape-label">m1536_n256_k256</text>
<text y="12" class="shape-label">1536x256x256</text>
</g>
<g transform="translate(3336.8,1498) rotate(58)">
<text class="shape-label">m256_n1536_k256</text>
<text y="12" class="shape-label">256x1536x256</text>
</g>
<g transform="translate(3429.0,1498) rotate(58)">
<text class="shape-label">m512_n256_k768</text>
<text y="12" class="shape-label">512x256x768</text>
</g>
<g transform="translate(3521.2,1498) rotate(58)">
<text class="shape-label">m256_n512_k768</text>
<text y="12" class="shape-label">256x512x768</text>
</g>
<g transform="translate(3613.4,1498) rotate(58)">
<text class="shape-label">m768_n512_k256</text>
<text y="12" class="shape-label">768x512x256</text>
</g>
<g transform="translate(3705.6,1498) rotate(58)">
<text class="shape-label">m512_n768_k256</text>
<text y="12" class="shape-label">512x768x256</text>
</g>
<g transform="translate(3797.8,1498) rotate(58)">
<text class="shape-label">m384_n640_k96</text>
<text y="12" class="shape-label">384x640x96</text>
</g>
<g transform="translate(3890.0,1498) rotate(58)">
<text class="shape-label">m640_n384_k96</text>
<text y="12" class="shape-label">640x384x96</text>
</g>
</svg>