<svg xmlns="http://www.w3.org/2000/svg" width="3950" height="1640" viewBox="0 0 3950 1640">

<style>
  text { font-family: -apple-system, BlinkMacSystemFont, "Segoe UI", sans-serif; fill: #111827; }
  .title { font-size: 24px; font-weight: 700; }
  .subtitle { font-size: 13px; fill: #4b5563; }
  .panel-title { font-size: 16px; font-weight: 700; }
  .axis-label { font-size: 11px; fill: #4b5563; }
  .shape-label { font-size: 10px; fill: #374151; }
  .axis { stroke: #111827; stroke-width: 1; }
  .grid { stroke: #e5e7eb; stroke-width: 1; }
  .legend { font-size: 13px; }
</style>

<rect x="0" y="0" width="100%" height="100%" fill="#ffffff"/>
<text x="40" y="42" class="title">SGEMM/DGEMM/CGEMM/ZGEMM Performance Sweep: Zynum BLAS vs Accelerate vs OpenBLAS</text>
<text x="40" y="66" class="subtitle">Best-of-reps GF/s across square, remainder, skinny, wide, and K-varied column-major GEMM shapes</text>
<line x1="1180" y1="38" x2="1212" y2="38" stroke="#2563eb" stroke-width="3"/>
<text x="1220" y="42" class="legend">Zynum BLAS</text>
<line x1="1325" y1="38" x2="1357" y2="38" stroke="#dc2626" stroke-width="3"/>
<text x="1365" y="42" class="legend">Accelerate</text>
<line x1="1470" y1="38" x2="1502" y2="38" stroke="#16a34a" stroke-width="3"/>
<text x="1510" y="42" class="legend">OpenBLAS</text>
<text x="110" y="92" class="panel-title">SGEMM GF/s</text>
<line x1="110" y1="370.0" x2="3890" y2="370.0" class="grid"/>
<text x="100" y="374.0" text-anchor="end" class="axis-label">0</text>
<line x1="110" y1="318.0" x2="3890" y2="318.0" class="grid"/>
<text x="100" y="322.0" text-anchor="end" class="axis-label">500</text>
<line x1="110" y1="266.0" x2="3890" y2="266.0" class="grid"/>
<text x="100" y="270.0" text-anchor="end" class="axis-label">1000</text>
<line x1="110" y1="214.0" x2="3890" y2="214.0" class="grid"/>
<text x="100" y="218.0" text-anchor="end" class="axis-label">1500</text>
<line x1="110" y1="162.0" x2="3890" y2="162.0" class="grid"/>
<text x="100" y="166.0" text-anchor="end" class="axis-label">2000</text>
<line x1="110" y1="110.0" x2="3890" y2="110.0" class="grid"/>
<text x="100" y="114.0" text-anchor="end" class="axis-label">2500</text>
<line x1="110" y1="110" x2="110" y2="370" class="axis"/>
<line x1="110" y1="370" x2="3890" y2="370" class="axis"/>
<polyline points="110.0,370.0 202.2,367.4 294.4,367.6 386.6,364.0 478.8,304.5 571.0,301.0 663.2,356.9 755.4,345.9 847.6,343.6 939.8,319.3 1032.0,176.9 1124.1,152.2 1216.3,151.9 1308.5,360.1 1400.7,358.6 1492.9,359.9 1585.1,349.6 1677.3,369.2 1769.5,368.4 1861.7,358.6 1953.9,358.6 2046.1,337.6 2138.3,359.0 2230.5,358.5 2322.7,323.2 2414.9,322.7 2507.1,335.6 2599.3,358.4 2691.5,322.0 2783.7,321.2 2875.9,319.2 2968.0,318.5 3060.2,316.5 3152.4,322.3 3244.6,317.8 3336.8,316.1 3429.0,322.7 3521.2,318.0 3613.4,312.5 3705.6,320.1 3797.8,328.0 3890.0,328.0" fill="none" stroke="#2563eb" stroke-width="2.4"/>
<circle cx="110.0" cy="370.0" r="2.4" fill="#2563eb"/>
<circle cx="202.2" cy="367.4" r="2.4" fill="#2563eb"/>
<circle cx="294.4" cy="367.6" r="2.4" fill="#2563eb"/>
<circle cx="386.6" cy="364.0" r="2.4" fill="#2563eb"/>
<circle cx="478.8" cy="304.5" r="2.4" fill="#2563eb"/>
<circle cx="571.0" cy="301.0" r="2.4" fill="#2563eb"/>
<circle cx="663.2" cy="356.9" r="2.4" fill="#2563eb"/>
<circle cx="755.4" cy="345.9" r="2.4" fill="#2563eb"/>
<circle cx="847.6" cy="343.6" r="2.4" fill="#2563eb"/>
<circle cx="939.8" cy="319.3" r="2.4" fill="#2563eb"/>
<circle cx="1032.0" cy="176.9" r="2.4" fill="#2563eb"/>
<circle cx="1124.1" cy="152.2" r="2.4" fill="#2563eb"/>
<circle cx="1216.3" cy="151.9" r="2.4" fill="#2563eb"/>
<circle cx="1308.5" cy="360.1" r="2.4" fill="#2563eb"/>
<circle cx="1400.7" cy="358.6" r="2.4" fill="#2563eb"/>
<circle cx="1492.9" cy="359.9" r="2.4" fill="#2563eb"/>
<circle cx="1585.1" cy="349.6" r="2.4" fill="#2563eb"/>
<circle cx="1677.3" cy="369.2" r="2.4" fill="#2563eb"/>
<circle cx="1769.5" cy="368.4" r="2.4" fill="#2563eb"/>
<circle cx="1861.7" cy="358.6" r="2.4" fill="#2563eb"/>
<circle cx="1953.9" cy="358.6" r="2.4" fill="#2563eb"/>
<circle cx="2046.1" cy="337.6" r="2.4" fill="#2563eb"/>
<circle cx="2138.3" cy="359.0" r="2.4" fill="#2563eb"/>
<circle cx="2230.5" cy="358.5" r="2.4" fill="#2563eb"/>
<circle cx="2322.7" cy="323.2" r="2.4" fill="#2563eb"/>
<circle cx="2414.9" cy="322.7" r="2.4" fill="#2563eb"/>
<circle cx="2507.1" cy="335.6" r="2.4" fill="#2563eb"/>
<circle cx="2599.3" cy="358.4" r="2.4" fill="#2563eb"/>
<circle cx="2691.5" cy="322.0" r="2.4" fill="#2563eb"/>
<circle cx="2783.7" cy="321.2" r="2.4" fill="#2563eb"/>
<circle cx="2875.9" cy="319.2" r="2.4" fill="#2563eb"/>
<circle cx="2968.0" cy="318.5" r="2.4" fill="#2563eb"/>
<circle cx="3060.2" cy="316.5" r="2.4" fill="#2563eb"/>
<circle cx="3152.4" cy="322.3" r="2.4" fill="#2563eb"/>
<circle cx="3244.6" cy="317.8" r="2.4" fill="#2563eb"/>
<circle cx="3336.8" cy="316.1" r="2.4" fill="#2563eb"/>
<circle cx="3429.0" cy="322.7" r="2.4" fill="#2563eb"/>
<circle cx="3521.2" cy="318.0" r="2.4" fill="#2563eb"/>
<circle cx="3613.4" cy="312.5" r="2.4" fill="#2563eb"/>
<circle cx="3705.6" cy="320.1" r="2.4" fill="#2563eb"/>
<circle cx="3797.8" cy="328.0" r="2.4" fill="#2563eb"/>
<circle cx="3890.0" cy="328.0" r="2.4" fill="#2563eb"/>
<polyline points="110.0,370.0 202.2,367.4 294.4,360.1 386.6,360.0 478.8,313.1 571.0,279.8 663.2,285.6 755.4,236.2 847.6,244.1 939.8,214.2 1032.0,221.7 1124.1,191.1 1216.3,178.1 1308.5,355.5 1400.7,346.8 1492.9,334.8 1585.1,340.7 1677.3,353.1 1769.5,330.9 1861.7,197.2 1953.9,219.7 2046.1,232.1 2138.3,284.9 2230.5,213.8 2322.7,263.6 2414.9,263.1 2507.1,284.5 2599.3,325.3 2691.5,255.5 2783.7,253.8 2875.9,238.9 2968.0,213.0 3060.2,229.0 3152.4,235.6 3244.6,219.7 3336.8,221.2 3429.0,218.0 3521.2,208.6 3613.4,210.9 3705.6,229.5 3797.8,249.6 3890.0,247.6" fill="none" stroke="#dc2626" stroke-width="2.4"/>
<circle cx="110.0" cy="370.0" r="2.4" fill="#dc2626"/>
<circle cx="202.2" cy="367.4" r="2.4" fill="#dc2626"/>
<circle cx="294.4" cy="360.1" r="2.4" fill="#dc2626"/>
<circle cx="386.6" cy="360.0" r="2.4" fill="#dc2626"/>
<circle cx="478.8" cy="313.1" r="2.4" fill="#dc2626"/>
<circle cx="571.0" cy="279.8" r="2.4" fill="#dc2626"/>
<circle cx="663.2" cy="285.6" r="2.4" fill="#dc2626"/>
<circle cx="755.4" cy="236.2" r="2.4" fill="#dc2626"/>
<circle cx="847.6" cy="244.1" r="2.4" fill="#dc2626"/>
<circle cx="939.8" cy="214.2" r="2.4" fill="#dc2626"/>
<circle cx="1032.0" cy="221.7" r="2.4" fill="#dc2626"/>
<circle cx="1124.1" cy="191.1" r="2.4" fill="#dc2626"/>
<circle cx="1216.3" cy="178.1" r="2.4" fill="#dc2626"/>
<circle cx="1308.5" cy="355.5" r="2.4" fill="#dc2626"/>
<circle cx="1400.7" cy="346.8" r="2.4" fill="#dc2626"/>
<circle cx="1492.9" cy="334.8" r="2.4" fill="#dc2626"/>
<circle cx="1585.1" cy="340.7" r="2.4" fill="#dc2626"/>
<circle cx="1677.3" cy="353.1" r="2.4" fill="#dc2626"/>
<circle cx="1769.5" cy="330.9" r="2.4" fill="#dc2626"/>
<circle cx="1861.7" cy="197.2" r="2.4" fill="#dc2626"/>
<circle cx="1953.9" cy="219.7" r="2.4" fill="#dc2626"/>
<circle cx="2046.1" cy="232.1" r="2.4" fill="#dc2626"/>
<circle cx="2138.3" cy="284.9" r="2.4" fill="#dc2626"/>
<circle cx="2230.5" cy="213.8" r="2.4" fill="#dc2626"/>
<circle cx="2322.7" cy="263.6" r="2.4" fill="#dc2626"/>
<circle cx="2414.9" cy="263.1" r="2.4" fill="#dc2626"/>
<circle cx="2507.1" cy="284.5" r="2.4" fill="#dc2626"/>
<circle cx="2599.3" cy="325.3" r="2.4" fill="#dc2626"/>
<circle cx="2691.5" cy="255.5" r="2.4" fill="#dc2626"/>
<circle cx="2783.7" cy="253.8" r="2.4" fill="#dc2626"/>
<circle cx="2875.9" cy="238.9" r="2.4" fill="#dc2626"/>
<circle cx="2968.0" cy="213.0" r="2.4" fill="#dc2626"/>
<circle cx="3060.2" cy="229.0" r="2.4" fill="#dc2626"/>
<circle cx="3152.4" cy="235.6" r="2.4" fill="#dc2626"/>
<circle cx="3244.6" cy="219.7" r="2.4" fill="#dc2626"/>
<circle cx="3336.8" cy="221.2" r="2.4" fill="#dc2626"/>
<circle cx="3429.0" cy="218.0" r="2.4" fill="#dc2626"/>
<circle cx="3521.2" cy="208.6" r="2.4" fill="#dc2626"/>
<circle cx="3613.4" cy="210.9" r="2.4" fill="#dc2626"/>
<circle cx="3705.6" cy="229.5" r="2.4" fill="#dc2626"/>
<circle cx="3797.8" cy="249.6" r="2.4" fill="#dc2626"/>
<circle cx="3890.0" cy="247.6" r="2.4" fill="#dc2626"/>
<polyline points="110.0,370.0 202.2,367.4 294.4,364.5 386.6,361.8 478.8,366.0 571.0,345.6 663.2,344.1 755.4,340.0 847.6,330.9 939.8,328.3 1032.0,325.5 1124.1,320.5 1216.3,321.9 1308.5,364.7 1400.7,362.1 1492.9,361.6 1585.1,362.3 1677.3,358.3 1769.5,365.1 1861.7,344.4 1953.9,341.8 2046.1,344.6 2138.3,354.6 2230.5,346.0 2322.7,323.2 2414.9,319.2 2507.1,318.8 2599.3,340.1 2691.5,325.6 2783.7,324.6 2875.9,320.2 2968.0,321.9 3060.2,331.5 3152.4,341.1 3244.6,325.3 3336.8,318.2 3429.0,330.0 3521.2,320.5 3613.4,322.8 3705.6,319.1 3797.8,316.8 3890.0,323.5" fill="none" stroke="#16a34a" stroke-width="2.4"/>
<circle cx="110.0" cy="370.0" r="2.4" fill="#16a34a"/>
<circle cx="202.2" cy="367.4" r="2.4" fill="#16a34a"/>
<circle cx="294.4" cy="364.5" r="2.4" fill="#16a34a"/>
<circle cx="386.6" cy="361.8" r="2.4" fill="#16a34a"/>
<circle cx="478.8" cy="366.0" r="2.4" fill="#16a34a"/>
<circle cx="571.0" cy="345.6" r="2.4" fill="#16a34a"/>
<circle cx="663.2" cy="344.1" r="2.4" fill="#16a34a"/>
<circle cx="755.4" cy="340.0" r="2.4" fill="#16a34a"/>
<circle cx="847.6" cy="330.9" r="2.4" fill="#16a34a"/>
<circle cx="939.8" cy="328.3" r="2.4" fill="#16a34a"/>
<circle cx="1032.0" cy="325.5" r="2.4" fill="#16a34a"/>
<circle cx="1124.1" cy="320.5" r="2.4" fill="#16a34a"/>
<circle cx="1216.3" cy="321.9" r="2.4" fill="#16a34a"/>
<circle cx="1308.5" cy="364.7" r="2.4" fill="#16a34a"/>
<circle cx="1400.7" cy="362.1" r="2.4" fill="#16a34a"/>
<circle cx="1492.9" cy="361.6" r="2.4" fill="#16a34a"/>
<circle cx="1585.1" cy="362.3" r="2.4" fill="#16a34a"/>
<circle cx="1677.3" cy="358.3" r="2.4" fill="#16a34a"/>
<circle cx="1769.5" cy="365.1" r="2.4" fill="#16a34a"/>
<circle cx="1861.7" cy="344.4" r="2.4" fill="#16a34a"/>
<circle cx="1953.9" cy="341.8" r="2.4" fill="#16a34a"/>
<circle cx="2046.1" cy="344.6" r="2.4" fill="#16a34a"/>
<circle cx="2138.3" cy="354.6" r="2.4" fill="#16a34a"/>
<circle cx="2230.5" cy="346.0" r="2.4" fill="#16a34a"/>
<circle cx="2322.7" cy="323.2" r="2.4" fill="#16a34a"/>
<circle cx="2414.9" cy="319.2" r="2.4" fill="#16a34a"/>
<circle cx="2507.1" cy="318.8" r="2.4" fill="#16a34a"/>
<circle cx="2599.3" cy="340.1" r="2.4" fill="#16a34a"/>
<circle cx="2691.5" cy="325.6" r="2.4" fill="#16a34a"/>
<circle cx="2783.7" cy="324.6" r="2.4" fill="#16a34a"/>
<circle cx="2875.9" cy="320.2" r="2.4" fill="#16a34a"/>
<circle cx="2968.0" cy="321.9" r="2.4" fill="#16a34a"/>
<circle cx="3060.2" cy="331.5" r="2.4" fill="#16a34a"/>
<circle cx="3152.4" cy="341.1" r="2.4" fill="#16a34a"/>
<circle cx="3244.6" cy="325.3" r="2.4" fill="#16a34a"/>
<circle cx="3336.8" cy="318.2" r="2.4" fill="#16a34a"/>
<circle cx="3429.0" cy="330.0" r="2.4" fill="#16a34a"/>
<circle cx="3521.2" cy="320.5" r="2.4" fill="#16a34a"/>
<circle cx="3613.4" cy="322.8" r="2.4" fill="#16a34a"/>
<circle cx="3705.6" cy="319.1" r="2.4" fill="#16a34a"/>
<circle cx="3797.8" cy="316.8" r="2.4" fill="#16a34a"/>
<circle cx="3890.0" cy="323.5" r="2.4" fill="#16a34a"/>
<text x="110" y="462" class="panel-title">DGEMM GF/s</text>
<line x1="110" y1="740.0" x2="3890" y2="740.0" class="grid"/>
<text x="100" y="744.0" text-anchor="end" class="axis-label">0</text>
<line x1="110" y1="653.3" x2="3890" y2="653.3" class="grid"/>
<text x="100" y="657.3" text-anchor="end" class="axis-label">200</text>
<line x1="110" y1="566.7" x2="3890" y2="566.7" class="grid"/>
<text x="100" y="570.7" text-anchor="end" class="axis-label">400</text>
<line x1="110" y1="480.0" x2="3890" y2="480.0" class="grid"/>
<text x="100" y="484.0" text-anchor="end" class="axis-label">600</text>
<line x1="110" y1="480" x2="110" y2="740" class="axis"/>
<line x1="110" y1="740" x2="3890" y2="740" class="axis"/>
<polyline points="110.0,740.0 202.2,729.2 294.4,727.3 386.6,729.6 478.8,659.8 571.0,640.0 663.2,625.8 755.4,696.1 847.6,653.7 939.8,624.6 1032.0,568.4 1124.1,506.1 1216.3,507.6 1308.5,717.0 1400.7,706.9 1492.9,716.2 1585.1,680.8 1677.3,737.1 1769.5,736.9 1861.7,717.1 1953.9,718.0 2046.1,672.0 2138.3,717.4 2230.5,716.9 2322.7,629.6 2414.9,629.7 2507.1,661.6 2599.3,706.6 2691.5,630.5 2783.7,633.5 2875.9,510.7 2968.0,507.2 3060.2,524.5 3152.4,655.4 3244.6,627.9 3336.8,632.6 3429.0,638.9 3521.2,635.3 3613.4,631.0 3705.6,632.3 3797.8,650.9 3890.0,651.0" fill="none" stroke="#2563eb" stroke-width="2.4"/>
<circle cx="110.0" cy="740.0" r="2.4" fill="#2563eb"/>
<circle cx="202.2" cy="729.2" r="2.4" fill="#2563eb"/>
<circle cx="294.4" cy="727.3" r="2.4" fill="#2563eb"/>
<circle cx="386.6" cy="729.6" r="2.4" fill="#2563eb"/>
<circle cx="478.8" cy="659.8" r="2.4" fill="#2563eb"/>
<circle cx="571.0" cy="640.0" r="2.4" fill="#2563eb"/>
<circle cx="663.2" cy="625.8" r="2.4" fill="#2563eb"/>
<circle cx="755.4" cy="696.1" r="2.4" fill="#2563eb"/>
<circle cx="847.6" cy="653.7" r="2.4" fill="#2563eb"/>
<circle cx="939.8" cy="624.6" r="2.4" fill="#2563eb"/>
<circle cx="1032.0" cy="568.4" r="2.4" fill="#2563eb"/>
<circle cx="1124.1" cy="506.1" r="2.4" fill="#2563eb"/>
<circle cx="1216.3" cy="507.6" r="2.4" fill="#2563eb"/>
<circle cx="1308.5" cy="717.0" r="2.4" fill="#2563eb"/>
<circle cx="1400.7" cy="706.9" r="2.4" fill="#2563eb"/>
<circle cx="1492.9" cy="716.2" r="2.4" fill="#2563eb"/>
<circle cx="1585.1" cy="680.8" r="2.4" fill="#2563eb"/>
<circle cx="1677.3" cy="737.1" r="2.4" fill="#2563eb"/>
<circle cx="1769.5" cy="736.9" r="2.4" fill="#2563eb"/>
<circle cx="1861.7" cy="717.1" r="2.4" fill="#2563eb"/>
<circle cx="1953.9" cy="718.0" r="2.4" fill="#2563eb"/>
<circle cx="2046.1" cy="672.0" r="2.4" fill="#2563eb"/>
<circle cx="2138.3" cy="717.4" r="2.4" fill="#2563eb"/>
<circle cx="2230.5" cy="716.9" r="2.4" fill="#2563eb"/>
<circle cx="2322.7" cy="629.6" r="2.4" fill="#2563eb"/>
<circle cx="2414.9" cy="629.7" r="2.4" fill="#2563eb"/>
<circle cx="2507.1" cy="661.6" r="2.4" fill="#2563eb"/>
<circle cx="2599.3" cy="706.6" r="2.4" fill="#2563eb"/>
<circle cx="2691.5" cy="630.5" r="2.4" fill="#2563eb"/>
<circle cx="2783.7" cy="633.5" r="2.4" fill="#2563eb"/>
<circle cx="2875.9" cy="510.7" r="2.4" fill="#2563eb"/>
<circle cx="2968.0" cy="507.2" r="2.4" fill="#2563eb"/>
<circle cx="3060.2" cy="524.5" r="2.4" fill="#2563eb"/>
<circle cx="3152.4" cy="655.4" r="2.4" fill="#2563eb"/>
<circle cx="3244.6" cy="627.9" r="2.4" fill="#2563eb"/>
<circle cx="3336.8" cy="632.6" r="2.4" fill="#2563eb"/>
<circle cx="3429.0" cy="638.9" r="2.4" fill="#2563eb"/>
<circle cx="3521.2" cy="635.3" r="2.4" fill="#2563eb"/>
<circle cx="3613.4" cy="631.0" r="2.4" fill="#2563eb"/>
<circle cx="3705.6" cy="632.3" r="2.4" fill="#2563eb"/>
<circle cx="3797.8" cy="650.9" r="2.4" fill="#2563eb"/>
<circle cx="3890.0" cy="651.0" r="2.4" fill="#2563eb"/>
<polyline points="110.0,740.0 202.2,729.2 294.4,703.5 386.6,702.6 478.8,624.0 571.0,569.6 663.2,566.9 755.4,549.5 847.6,564.4 939.8,546.9 1032.0,573.4 1124.1,523.5 1216.3,542.6 1308.5,698.6 1400.7,681.4 1492.9,646.5 1585.1,647.8 1677.3,690.8 1769.5,655.1 1861.7,605.3 1953.9,620.7 2046.1,662.7 2138.3,613.5 2230.5,606.1 2322.7,586.8 2414.9,570.2 2507.1,597.3 2599.3,664.0 2691.5,590.1 2783.7,593.0 2875.9,584.8 2968.0,533.0 3060.2,572.9 3152.4,587.2 3244.6,564.3 3336.8,574.2 3429.0,561.8 3521.2,565.6 3613.4,558.2 3705.6,569.5 3797.8,563.8 3890.0,559.5" fill="none" stroke="#dc2626" stroke-width="2.4"/>
<circle cx="110.0" cy="740.0" r="2.4" fill="#dc2626"/>
<circle cx="202.2" cy="729.2" r="2.4" fill="#dc2626"/>
<circle cx="294.4" cy="703.5" r="2.4" fill="#dc2626"/>
<circle cx="386.6" cy="702.6" r="2.4" fill="#dc2626"/>
<circle cx="478.8" cy="624.0" r="2.4" fill="#dc2626"/>
<circle cx="571.0" cy="569.6" r="2.4" fill="#dc2626"/>
<circle cx="663.2" cy="566.9" r="2.4" fill="#dc2626"/>
<circle cx="755.4" cy="549.5" r="2.4" fill="#dc2626"/>
<circle cx="847.6" cy="564.4" r="2.4" fill="#dc2626"/>
<circle cx="939.8" cy="546.9" r="2.4" fill="#dc2626"/>
<circle cx="1032.0" cy="573.4" r="2.4" fill="#dc2626"/>
<circle cx="1124.1" cy="523.5" r="2.4" fill="#dc2626"/>
<circle cx="1216.3" cy="542.6" r="2.4" fill="#dc2626"/>
<circle cx="1308.5" cy="698.6" r="2.4" fill="#dc2626"/>
<circle cx="1400.7" cy="681.4" r="2.4" fill="#dc2626"/>
<circle cx="1492.9" cy="646.5" r="2.4" fill="#dc2626"/>
<circle cx="1585.1" cy="647.8" r="2.4" fill="#dc2626"/>
<circle cx="1677.3" cy="690.8" r="2.4" fill="#dc2626"/>
<circle cx="1769.5" cy="655.1" r="2.4" fill="#dc2626"/>
<circle cx="1861.7" cy="605.3" r="2.4" fill="#dc2626"/>
<circle cx="1953.9" cy="620.7" r="2.4" fill="#dc2626"/>
<circle cx="2046.1" cy="662.7" r="2.4" fill="#dc2626"/>
<circle cx="2138.3" cy="613.5" r="2.4" fill="#dc2626"/>
<circle cx="2230.5" cy="606.1" r="2.4" fill="#dc2626"/>
<circle cx="2322.7" cy="586.8" r="2.4" fill="#dc2626"/>
<circle cx="2414.9" cy="570.2" r="2.4" fill="#dc2626"/>
<circle cx="2507.1" cy="597.3" r="2.4" fill="#dc2626"/>
<circle cx="2599.3" cy="664.0" r="2.4" fill="#dc2626"/>
<circle cx="2691.5" cy="590.1" r="2.4" fill="#dc2626"/>
<circle cx="2783.7" cy="593.0" r="2.4" fill="#dc2626"/>
<circle cx="2875.9" cy="584.8" r="2.4" fill="#dc2626"/>
<circle cx="2968.0" cy="533.0" r="2.4" fill="#dc2626"/>
<circle cx="3060.2" cy="572.9" r="2.4" fill="#dc2626"/>
<circle cx="3152.4" cy="587.2" r="2.4" fill="#dc2626"/>
<circle cx="3244.6" cy="564.3" r="2.4" fill="#dc2626"/>
<circle cx="3336.8" cy="574.2" r="2.4" fill="#dc2626"/>
<circle cx="3429.0" cy="561.8" r="2.4" fill="#dc2626"/>
<circle cx="3521.2" cy="565.6" r="2.4" fill="#dc2626"/>
<circle cx="3613.4" cy="558.2" r="2.4" fill="#dc2626"/>
<circle cx="3705.6" cy="569.5" r="2.4" fill="#dc2626"/>
<circle cx="3797.8" cy="563.8" r="2.4" fill="#dc2626"/>
<circle cx="3890.0" cy="559.5" r="2.4" fill="#dc2626"/>
<polyline points="110.0,740.0 202.2,734.7 294.4,724.9 386.6,723.4 478.8,730.2 571.0,685.2 663.2,670.3 755.4,655.0 847.6,649.2 939.8,650.0 1032.0,641.3 1124.1,634.3 1216.3,638.9 1308.5,725.8 1400.7,724.0 1492.9,729.0 1585.1,721.6 1677.3,713.0 1769.5,726.8 1861.7,681.4 1953.9,680.7 2046.1,690.0 2138.3,702.3 2230.5,674.6 2322.7,640.1 2414.9,635.6 2507.1,643.4 2599.3,661.6 2691.5,646.6 2783.7,642.7 2875.9,642.3 2968.0,636.9 3060.2,646.7 3152.4,659.8 3244.6,643.8 3336.8,631.4 3429.0,649.2 3521.2,636.8 3613.4,638.7 3705.6,635.4 3797.8,638.2 3890.0,651.0" fill="none" stroke="#16a34a" stroke-width="2.4"/>
<circle cx="110.0" cy="740.0" r="2.4" fill="#16a34a"/>
<circle cx="202.2" cy="734.7" r="2.4" fill="#16a34a"/>
<circle cx="294.4" cy="724.9" r="2.4" fill="#16a34a"/>
<circle cx="386.6" cy="723.4" r="2.4" fill="#16a34a"/>
<circle cx="478.8" cy="730.2" r="2.4" fill="#16a34a"/>
<circle cx="571.0" cy="685.2" r="2.4" fill="#16a34a"/>
<circle cx="663.2" cy="670.3" r="2.4" fill="#16a34a"/>
<circle cx="755.4" cy="655.0" r="2.4" fill="#16a34a"/>
<circle cx="847.6" cy="649.2" r="2.4" fill="#16a34a"/>
<circle cx="939.8" cy="650.0" r="2.4" fill="#16a34a"/>
<circle cx="1032.0" cy="641.3" r="2.4" fill="#16a34a"/>
<circle cx="1124.1" cy="634.3" r="2.4" fill="#16a34a"/>
<circle cx="1216.3" cy="638.9" r="2.4" fill="#16a34a"/>
<circle cx="1308.5" cy="725.8" r="2.4" fill="#16a34a"/>
<circle cx="1400.7" cy="724.0" r="2.4" fill="#16a34a"/>
<circle cx="1492.9" cy="729.0" r="2.4" fill="#16a34a"/>
<circle cx="1585.1" cy="721.6" r="2.4" fill="#16a34a"/>
<circle cx="1677.3" cy="713.0" r="2.4" fill="#16a34a"/>
<circle cx="1769.5" cy="726.8" r="2.4" fill="#16a34a"/>
<circle cx="1861.7" cy="681.4" r="2.4" fill="#16a34a"/>
<circle cx="1953.9" cy="680.7" r="2.4" fill="#16a34a"/>
<circle cx="2046.1" cy="690.0" r="2.4" fill="#16a34a"/>
<circle cx="2138.3" cy="702.3" r="2.4" fill="#16a34a"/>
<circle cx="2230.5" cy="674.6" r="2.4" fill="#16a34a"/>
<circle cx="2322.7" cy="640.1" r="2.4" fill="#16a34a"/>
<circle cx="2414.9" cy="635.6" r="2.4" fill="#16a34a"/>
<circle cx="2507.1" cy="643.4" r="2.4" fill="#16a34a"/>
<circle cx="2599.3" cy="661.6" r="2.4" fill="#16a34a"/>
<circle cx="2691.5" cy="646.6" r="2.4" fill="#16a34a"/>
<circle cx="2783.7" cy="642.7" r="2.4" fill="#16a34a"/>
<circle cx="2875.9" cy="642.3" r="2.4" fill="#16a34a"/>
<circle cx="2968.0" cy="636.9" r="2.4" fill="#16a34a"/>
<circle cx="3060.2" cy="646.7" r="2.4" fill="#16a34a"/>
<circle cx="3152.4" cy="659.8" r="2.4" fill="#16a34a"/>
<circle cx="3244.6" cy="643.8" r="2.4" fill="#16a34a"/>
<circle cx="3336.8" cy="631.4" r="2.4" fill="#16a34a"/>
<circle cx="3429.0" cy="649.2" r="2.4" fill="#16a34a"/>
<circle cx="3521.2" cy="636.8" r="2.4" fill="#16a34a"/>
<circle cx="3613.4" cy="638.7" r="2.4" fill="#16a34a"/>
<circle cx="3705.6" cy="635.4" r="2.4" fill="#16a34a"/>
<circle cx="3797.8" cy="638.2" r="2.4" fill="#16a34a"/>
<circle cx="3890.0" cy="651.0" r="2.4" fill="#16a34a"/>
<text x="110" y="832" class="panel-title">CGEMM GF/s</text>
<line x1="110" y1="1110.0" x2="3890" y2="1110.0" class="grid"/>
<text x="100" y="1114.0" text-anchor="end" class="axis-label">0</text>
<line x1="110" y1="1045.0" x2="3890" y2="1045.0" class="grid"/>
<text x="100" y="1049.0" text-anchor="end" class="axis-label">500</text>
<line x1="110" y1="980.0" x2="3890" y2="980.0" class="grid"/>
<text x="100" y="984.0" text-anchor="end" class="axis-label">1000</text>
<line x1="110" y1="915.0" x2="3890" y2="915.0" class="grid"/>
<text x="100" y="919.0" text-anchor="end" class="axis-label">1500</text>
<line x1="110" y1="850.0" x2="3890" y2="850.0" class="grid"/>
<text x="100" y="854.0" text-anchor="end" class="axis-label">2000</text>
<line x1="110" y1="850" x2="110" y2="1110" class="axis"/>
<line x1="110" y1="1110" x2="3890" y2="1110" class="axis"/>
<polyline points="110.0,1110.0 202.2,1097.0 294.4,1103.6 386.6,1102.7 478.8,1077.3 571.0,1061.7 663.2,1094.0 755.4,1081.5 847.6,1060.9 939.8,1047.7 1032.0,931.9 1124.1,879.1 1216.3,855.4 1308.5,1102.3 1400.7,1095.9 1492.9,1095.6 1585.1,1084.9 1677.3,1108.7 1769.5,1108.7 1861.7,1093.0 1953.9,1093.2 2046.1,1081.6 2138.3,1097.3 2230.5,1093.5 2322.7,1056.7 2414.9,1056.8 2507.1,1067.9 2599.3,1084.8 2691.5,1062.1 2783.7,1058.1 2875.9,1040.2 2968.0,1036.7 3060.2,1049.0 3152.4,1074.7 3244.6,1045.0 3336.8,1039.4 3429.0,1064.6 3521.2,1059.6 3613.4,1033.1 3705.6,1041.1 3797.8,1055.4 3890.0,1055.9" fill="none" stroke="#2563eb" stroke-width="2.4"/>
<circle cx="110.0" cy="1110.0" r="2.4" fill="#2563eb"/>
<circle cx="202.2" cy="1097.0" r="2.4" fill="#2563eb"/>
<circle cx="294.4" cy="1103.6" r="2.4" fill="#2563eb"/>
<circle cx="386.6" cy="1102.7" r="2.4" fill="#2563eb"/>
<circle cx="478.8" cy="1077.3" r="2.4" fill="#2563eb"/>
<circle cx="571.0" cy="1061.7" r="2.4" fill="#2563eb"/>
<circle cx="663.2" cy="1094.0" r="2.4" fill="#2563eb"/>
<circle cx="755.4" cy="1081.5" r="2.4" fill="#2563eb"/>
<circle cx="847.6" cy="1060.9" r="2.4" fill="#2563eb"/>
<circle cx="939.8" cy="1047.7" r="2.4" fill="#2563eb"/>
<circle cx="1032.0" cy="931.9" r="2.4" fill="#2563eb"/>
<circle cx="1124.1" cy="879.1" r="2.4" fill="#2563eb"/>
<circle cx="1216.3" cy="855.4" r="2.4" fill="#2563eb"/>
<circle cx="1308.5" cy="1102.3" r="2.4" fill="#2563eb"/>
<circle cx="1400.7" cy="1095.9" r="2.4" fill="#2563eb"/>
<circle cx="1492.9" cy="1095.6" r="2.4" fill="#2563eb"/>
<circle cx="1585.1" cy="1084.9" r="2.4" fill="#2563eb"/>
<circle cx="1677.3" cy="1108.7" r="2.4" fill="#2563eb"/>
<circle cx="1769.5" cy="1108.7" r="2.4" fill="#2563eb"/>
<circle cx="1861.7" cy="1093.0" r="2.4" fill="#2563eb"/>
<circle cx="1953.9" cy="1093.2" r="2.4" fill="#2563eb"/>
<circle cx="2046.1" cy="1081.6" r="2.4" fill="#2563eb"/>
<circle cx="2138.3" cy="1097.3" r="2.4" fill="#2563eb"/>
<circle cx="2230.5" cy="1093.5" r="2.4" fill="#2563eb"/>
<circle cx="2322.7" cy="1056.7" r="2.4" fill="#2563eb"/>
<circle cx="2414.9" cy="1056.8" r="2.4" fill="#2563eb"/>
<circle cx="2507.1" cy="1067.9" r="2.4" fill="#2563eb"/>
<circle cx="2599.3" cy="1084.8" r="2.4" fill="#2563eb"/>
<circle cx="2691.5" cy="1062.1" r="2.4" fill="#2563eb"/>
<circle cx="2783.7" cy="1058.1" r="2.4" fill="#2563eb"/>
<circle cx="2875.9" cy="1040.2" r="2.4" fill="#2563eb"/>
<circle cx="2968.0" cy="1036.7" r="2.4" fill="#2563eb"/>
<circle cx="3060.2" cy="1049.0" r="2.4" fill="#2563eb"/>
<circle cx="3152.4" cy="1074.7" r="2.4" fill="#2563eb"/>
<circle cx="3244.6" cy="1045.0" r="2.4" fill="#2563eb"/>
<circle cx="3336.8" cy="1039.4" r="2.4" fill="#2563eb"/>
<circle cx="3429.0" cy="1064.6" r="2.4" fill="#2563eb"/>
<circle cx="3521.2" cy="1059.6" r="2.4" fill="#2563eb"/>
<circle cx="3613.4" cy="1033.1" r="2.4" fill="#2563eb"/>
<circle cx="3705.6" cy="1041.1" r="2.4" fill="#2563eb"/>
<circle cx="3797.8" cy="1055.4" r="2.4" fill="#2563eb"/>
<circle cx="3890.0" cy="1055.9" r="2.4" fill="#2563eb"/>
<polyline points="110.0,1110.0 202.2,1107.4 294.4,1100.3 386.6,1101.8 478.8,1077.0 571.0,1056.9 663.2,1048.9 755.4,1015.6 847.6,999.7 939.8,965.0 1032.0,965.5 1124.1,934.4 1216.3,928.1 1308.5,1099.3 1400.7,1093.1 1492.9,1084.9 1585.1,1086.1 1677.3,1107.0 1769.5,1107.0 1861.7,1004.9 1953.9,1005.8 2046.1,1042.4 2138.3,1076.3 2230.5,1008.0 2322.7,1026.6 2414.9,1026.5 2507.1,1057.8 2599.3,1083.8 2691.5,1024.5 2783.7,1029.5 2875.9,993.5 2968.0,962.2 3060.2,977.7 3152.4,1007.6 3244.6,975.4 3336.8,978.5 3429.0,960.6 3521.2,961.2 3613.4,965.9 3705.6,976.0 3797.8,1015.6 3890.0,1013.5" fill="none" stroke="#dc2626" stroke-width="2.4"/>
<circle cx="110.0" cy="1110.0" r="2.4" fill="#dc2626"/>
<circle cx="202.2" cy="1107.4" r="2.4" fill="#dc2626"/>
<circle cx="294.4" cy="1100.3" r="2.4" fill="#dc2626"/>
<circle cx="386.6" cy="1101.8" r="2.4" fill="#dc2626"/>
<circle cx="478.8" cy="1077.0" r="2.4" fill="#dc2626"/>
<circle cx="571.0" cy="1056.9" r="2.4" fill="#dc2626"/>
<circle cx="663.2" cy="1048.9" r="2.4" fill="#dc2626"/>
<circle cx="755.4" cy="1015.6" r="2.4" fill="#dc2626"/>
<circle cx="847.6" cy="999.7" r="2.4" fill="#dc2626"/>
<circle cx="939.8" cy="965.0" r="2.4" fill="#dc2626"/>
<circle cx="1032.0" cy="965.5" r="2.4" fill="#dc2626"/>
<circle cx="1124.1" cy="934.4" r="2.4" fill="#dc2626"/>
<circle cx="1216.3" cy="928.1" r="2.4" fill="#dc2626"/>
<circle cx="1308.5" cy="1099.3" r="2.4" fill="#dc2626"/>
<circle cx="1400.7" cy="1093.1" r="2.4" fill="#dc2626"/>
<circle cx="1492.9" cy="1084.9" r="2.4" fill="#dc2626"/>
<circle cx="1585.1" cy="1086.1" r="2.4" fill="#dc2626"/>
<circle cx="1677.3" cy="1107.0" r="2.4" fill="#dc2626"/>
<circle cx="1769.5" cy="1107.0" r="2.4" fill="#dc2626"/>
<circle cx="1861.7" cy="1004.9" r="2.4" fill="#dc2626"/>
<circle cx="1953.9" cy="1005.8" r="2.4" fill="#dc2626"/>
<circle cx="2046.1" cy="1042.4" r="2.4" fill="#dc2626"/>
<circle cx="2138.3" cy="1076.3" r="2.4" fill="#dc2626"/>
<circle cx="2230.5" cy="1008.0" r="2.4" fill="#dc2626"/>
<circle cx="2322.7" cy="1026.6" r="2.4" fill="#dc2626"/>
<circle cx="2414.9" cy="1026.5" r="2.4" fill="#dc2626"/>
<circle cx="2507.1" cy="1057.8" r="2.4" fill="#dc2626"/>
<circle cx="2599.3" cy="1083.8" r="2.4" fill="#dc2626"/>
<circle cx="2691.5" cy="1024.5" r="2.4" fill="#dc2626"/>
<circle cx="2783.7" cy="1029.5" r="2.4" fill="#dc2626"/>
<circle cx="2875.9" cy="993.5" r="2.4" fill="#dc2626"/>
<circle cx="2968.0" cy="962.2" r="2.4" fill="#dc2626"/>
<circle cx="3060.2" cy="977.7" r="2.4" fill="#dc2626"/>
<circle cx="3152.4" cy="1007.6" r="2.4" fill="#dc2626"/>
<circle cx="3244.6" cy="975.4" r="2.4" fill="#dc2626"/>
<circle cx="3336.8" cy="978.5" r="2.4" fill="#dc2626"/>
<circle cx="3429.0" cy="960.6" r="2.4" fill="#dc2626"/>
<circle cx="3521.2" cy="961.2" r="2.4" fill="#dc2626"/>
<circle cx="3613.4" cy="965.9" r="2.4" fill="#dc2626"/>
<circle cx="3705.6" cy="976.0" r="2.4" fill="#dc2626"/>
<circle cx="3797.8" cy="1015.6" r="2.4" fill="#dc2626"/>
<circle cx="3890.0" cy="1013.5" r="2.4" fill="#dc2626"/>
<polyline points="110.0,1110.0 202.2,1103.6 294.4,1102.6 386.6,1101.3 478.8,1074.4 571.0,1076.7 663.2,1065.5 755.4,1061.7 847.6,1055.8 939.8,1050.7 1032.0,1046.2 1124.1,1048.5 1216.3,1047.2 1308.5,1097.1 1400.7,1093.5 1492.9,1073.5 1585.1,1074.4 1677.3,1101.3 1769.5,1101.4 1861.7,1068.4 1953.9,1066.8 2046.1,1068.8 2138.3,1084.3 2230.5,1072.6 2322.7,1047.0 2414.9,1046.9 2507.1,1046.7 2599.3,1059.5 2691.5,1049.3 2783.7,1049.1 2875.9,1047.2 2968.0,1046.1 3060.2,1055.5 3152.4,1061.9 3244.6,1047.9 3336.8,1045.4 3429.0,1052.6 3521.2,1047.8 3613.4,1046.4 3705.6,1045.9 3797.8,1046.2 3890.0,1050.6" fill="none" stroke="#16a34a" stroke-width="2.4"/>
<circle cx="110.0" cy="1110.0" r="2.4" fill="#16a34a"/>
<circle cx="202.2" cy="1103.6" r="2.4" fill="#16a34a"/>
<circle cx="294.4" cy="1102.6" r="2.4" fill="#16a34a"/>
<circle cx="386.6" cy="1101.3" r="2.4" fill="#16a34a"/>
<circle cx="478.8" cy="1074.4" r="2.4" fill="#16a34a"/>
<circle cx="571.0" cy="1076.7" r="2.4" fill="#16a34a"/>
<circle cx="663.2" cy="1065.5" r="2.4" fill="#16a34a"/>
<circle cx="755.4" cy="1061.7" r="2.4" fill="#16a34a"/>
<circle cx="847.6" cy="1055.8" r="2.4" fill="#16a34a"/>
<circle cx="939.8" cy="1050.7" r="2.4" fill="#16a34a"/>
<circle cx="1032.0" cy="1046.2" r="2.4" fill="#16a34a"/>
<circle cx="1124.1" cy="1048.5" r="2.4" fill="#16a34a"/>
<circle cx="1216.3" cy="1047.2" r="2.4" fill="#16a34a"/>
<circle cx="1308.5" cy="1097.1" r="2.4" fill="#16a34a"/>
<circle cx="1400.7" cy="1093.5" r="2.4" fill="#16a34a"/>
<circle cx="1492.9" cy="1073.5" r="2.4" fill="#16a34a"/>
<circle cx="1585.1" cy="1074.4" r="2.4" fill="#16a34a"/>
<circle cx="1677.3" cy="1101.3" r="2.4" fill="#16a34a"/>
<circle cx="1769.5" cy="1101.4" r="2.4" fill="#16a34a"/>
<circle cx="1861.7" cy="1068.4" r="2.4" fill="#16a34a"/>
<circle cx="1953.9" cy="1066.8" r="2.4" fill="#16a34a"/>
<circle cx="2046.1" cy="1068.8" r="2.4" fill="#16a34a"/>
<circle cx="2138.3" cy="1084.3" r="2.4" fill="#16a34a"/>
<circle cx="2230.5" cy="1072.6" r="2.4" fill="#16a34a"/>
<circle cx="2322.7" cy="1047.0" r="2.4" fill="#16a34a"/>
<circle cx="2414.9" cy="1046.9" r="2.4" fill="#16a34a"/>
<circle cx="2507.1" cy="1046.7" r="2.4" fill="#16a34a"/>
<circle cx="2599.3" cy="1059.5" r="2.4" fill="#16a34a"/>
<circle cx="2691.5" cy="1049.3" r="2.4" fill="#16a34a"/>
<circle cx="2783.7" cy="1049.1" r="2.4" fill="#16a34a"/>
<circle cx="2875.9" cy="1047.2" r="2.4" fill="#16a34a"/>
<circle cx="2968.0" cy="1046.1" r="2.4" fill="#16a34a"/>
<circle cx="3060.2" cy="1055.5" r="2.4" fill="#16a34a"/>
<circle cx="3152.4" cy="1061.9" r="2.4" fill="#16a34a"/>
<circle cx="3244.6" cy="1047.9" r="2.4" fill="#16a34a"/>
<circle cx="3336.8" cy="1045.4" r="2.4" fill="#16a34a"/>
<circle cx="3429.0" cy="1052.6" r="2.4" fill="#16a34a"/>
<circle cx="3521.2" cy="1047.8" r="2.4" fill="#16a34a"/>
<circle cx="3613.4" cy="1046.4" r="2.4" fill="#16a34a"/>
<circle cx="3705.6" cy="1045.9" r="2.4" fill="#16a34a"/>
<circle cx="3797.8" cy="1046.2" r="2.4" fill="#16a34a"/>
<circle cx="3890.0" cy="1050.6" r="2.4" fill="#16a34a"/>
<text x="110" y="1202" class="panel-title">ZGEMM GF/s</text>
<line x1="110" y1="1480.0" x2="3890" y2="1480.0" class="grid"/>
<text x="100" y="1484.0" text-anchor="end" class="axis-label">0</text>
<line x1="110" y1="1393.3" x2="3890" y2="1393.3" class="grid"/>
<text x="100" y="1397.3" text-anchor="end" class="axis-label">200</text>
<line x1="110" y1="1306.7" x2="3890" y2="1306.7" class="grid"/>
<text x="100" y="1310.7" text-anchor="end" class="axis-label">400</text>
<line x1="110" y1="1220.0" x2="3890" y2="1220.0" class="grid"/>
<text x="100" y="1224.0" text-anchor="end" class="axis-label">600</text>
<line x1="110" y1="1220" x2="110" y2="1480" class="axis"/>
<line x1="110" y1="1480" x2="3890" y2="1480" class="axis"/>
<polyline points="110.0,1479.9 202.2,1474.7 294.4,1461.5 386.6,1461.5 478.8,1422.8 571.0,1400.8 663.2,1392.3 755.4,1428.4 847.6,1392.7 939.8,1360.3 1032.0,1293.8 1124.1,1228.9 1216.3,1231.4 1308.5,1464.7 1400.7,1454.2 1492.9,1457.6 1585.1,1431.9 1677.3,1476.6 1769.5,1477.6 1861.7,1454.2 1953.9,1454.1 2046.1,1430.9 2138.3,1455.4 2230.5,1453.8 2322.7,1383.4 2414.9,1383.1 2507.1,1374.9 2599.3,1430.5 2691.5,1387.5 2783.7,1384.2 2875.9,1269.4 2968.0,1242.6 3060.2,1276.9 3152.4,1408.4 3244.6,1368.1 3336.8,1364.0 3429.0,1370.5 3521.2,1372.2 3613.4,1365.0 3705.6,1367.4 3797.8,1394.2 3890.0,1390.1" fill="none" stroke="#2563eb" stroke-width="2.4"/>
<circle cx="110.0" cy="1479.9" r="2.4" fill="#2563eb"/>
<circle cx="202.2" cy="1474.7" r="2.4" fill="#2563eb"/>
<circle cx="294.4" cy="1461.5" r="2.4" fill="#2563eb"/>
<circle cx="386.6" cy="1461.5" r="2.4" fill="#2563eb"/>
<circle cx="478.8" cy="1422.8" r="2.4" fill="#2563eb"/>
<circle cx="571.0" cy="1400.8" r="2.4" fill="#2563eb"/>
<circle cx="663.2" cy="1392.3" r="2.4" fill="#2563eb"/>
<circle cx="755.4" cy="1428.4" r="2.4" fill="#2563eb"/>
<circle cx="847.6" cy="1392.7" r="2.4" fill="#2563eb"/>
<circle cx="939.8" cy="1360.3" r="2.4" fill="#2563eb"/>
<circle cx="1032.0" cy="1293.8" r="2.4" fill="#2563eb"/>
<circle cx="1124.1" cy="1228.9" r="2.4" fill="#2563eb"/>
<circle cx="1216.3" cy="1231.4" r="2.4" fill="#2563eb"/>
<circle cx="1308.5" cy="1464.7" r="2.4" fill="#2563eb"/>
<circle cx="1400.7" cy="1454.2" r="2.4" fill="#2563eb"/>
<circle cx="1492.9" cy="1457.6" r="2.4" fill="#2563eb"/>
<circle cx="1585.1" cy="1431.9" r="2.4" fill="#2563eb"/>
<circle cx="1677.3" cy="1476.6" r="2.4" fill="#2563eb"/>
<circle cx="1769.5" cy="1477.6" r="2.4" fill="#2563eb"/>
<circle cx="1861.7" cy="1454.2" r="2.4" fill="#2563eb"/>
<circle cx="1953.9" cy="1454.1" r="2.4" fill="#2563eb"/>
<circle cx="2046.1" cy="1430.9" r="2.4" fill="#2563eb"/>
<circle cx="2138.3" cy="1455.4" r="2.4" fill="#2563eb"/>
<circle cx="2230.5" cy="1453.8" r="2.4" fill="#2563eb"/>
<circle cx="2322.7" cy="1383.4" r="2.4" fill="#2563eb"/>
<circle cx="2414.9" cy="1383.1" r="2.4" fill="#2563eb"/>
<circle cx="2507.1" cy="1374.9" r="2.4" fill="#2563eb"/>
<circle cx="2599.3" cy="1430.5" r="2.4" fill="#2563eb"/>
<circle cx="2691.5" cy="1387.5" r="2.4" fill="#2563eb"/>
<circle cx="2783.7" cy="1384.2" r="2.4" fill="#2563eb"/>
<circle cx="2875.9" cy="1269.4" r="2.4" fill="#2563eb"/>
<circle cx="2968.0" cy="1242.6" r="2.4" fill="#2563eb"/>
<circle cx="3060.2" cy="1276.9" r="2.4" fill="#2563eb"/>
<circle cx="3152.4" cy="1408.4" r="2.4" fill="#2563eb"/>
<circle cx="3244.6" cy="1368.1" r="2.4" fill="#2563eb"/>
<circle cx="3336.8" cy="1364.0" r="2.4" fill="#2563eb"/>
<circle cx="3429.0" cy="1370.5" r="2.4" fill="#2563eb"/>
<circle cx="3521.2" cy="1372.2" r="2.4" fill="#2563eb"/>
<circle cx="3613.4" cy="1365.0" r="2.4" fill="#2563eb"/>
<circle cx="3705.6" cy="1367.4" r="2.4" fill="#2563eb"/>
<circle cx="3797.8" cy="1394.2" r="2.4" fill="#2563eb"/>
<circle cx="3890.0" cy="1390.1" r="2.4" fill="#2563eb"/>
<polyline points="110.0,1479.9 202.2,1473.9 294.4,1457.3 386.6,1460.2 478.8,1430.3 571.0,1392.2 663.2,1383.5 755.4,1364.1 847.6,1358.9 939.8,1331.7 1032.0,1338.2 1124.1,1319.1 1216.3,1305.8 1308.5,1459.5 1400.7,1452.5 1492.9,1439.2 1585.1,1438.0 1677.3,1477.4 1769.5,1477.2 1861.7,1406.6 1953.9,1414.5 2046.1,1443.3 2138.3,1440.9 2230.5,1408.6 2322.7,1396.0 2414.9,1395.3 2507.1,1427.6 2599.3,1447.0 2691.5,1399.8 2783.7,1386.8 2875.9,1368.5 2968.0,1326.9 3060.2,1363.1 3152.4,1392.0 3244.6,1345.3 3336.8,1350.2 3429.0,1339.4 3521.2,1342.6 3613.4,1336.5 3705.6,1335.4 3797.8,1359.0 3890.0,1358.3" fill="none" stroke="#dc2626" stroke-width="2.4"/>
<circle cx="110.0" cy="1479.9" r="2.4" fill="#dc2626"/>
<circle cx="202.2" cy="1473.9" r="2.4" fill="#dc2626"/>
<circle cx="294.4" cy="1457.3" r="2.4" fill="#dc2626"/>
<circle cx="386.6" cy="1460.2" r="2.4" fill="#dc2626"/>
<circle cx="478.8" cy="1430.3" r="2.4" fill="#dc2626"/>
<circle cx="571.0" cy="1392.2" r="2.4" fill="#dc2626"/>
<circle cx="663.2" cy="1383.5" r="2.4" fill="#dc2626"/>
<circle cx="755.4" cy="1364.1" r="2.4" fill="#dc2626"/>
<circle cx="847.6" cy="1358.9" r="2.4" fill="#dc2626"/>
<circle cx="939.8" cy="1331.7" r="2.4" fill="#dc2626"/>
<circle cx="1032.0" cy="1338.2" r="2.4" fill="#dc2626"/>
<circle cx="1124.1" cy="1319.1" r="2.4" fill="#dc2626"/>
<circle cx="1216.3" cy="1305.8" r="2.4" fill="#dc2626"/>
<circle cx="1308.5" cy="1459.5" r="2.4" fill="#dc2626"/>
<circle cx="1400.7" cy="1452.5" r="2.4" fill="#dc2626"/>
<circle cx="1492.9" cy="1439.2" r="2.4" fill="#dc2626"/>
<circle cx="1585.1" cy="1438.0" r="2.4" fill="#dc2626"/>
<circle cx="1677.3" cy="1477.4" r="2.4" fill="#dc2626"/>
<circle cx="1769.5" cy="1477.2" r="2.4" fill="#dc2626"/>
<circle cx="1861.7" cy="1406.6" r="2.4" fill="#dc2626"/>
<circle cx="1953.9" cy="1414.5" r="2.4" fill="#dc2626"/>
<circle cx="2046.1" cy="1443.3" r="2.4" fill="#dc2626"/>
<circle cx="2138.3" cy="1440.9" r="2.4" fill="#dc2626"/>
<circle cx="2230.5" cy="1408.6" r="2.4" fill="#dc2626"/>
<circle cx="2322.7" cy="1396.0" r="2.4" fill="#dc2626"/>
<circle cx="2414.9" cy="1395.3" r="2.4" fill="#dc2626"/>
<circle cx="2507.1" cy="1427.6" r="2.4" fill="#dc2626"/>
<circle cx="2599.3" cy="1447.0" r="2.4" fill="#dc2626"/>
<circle cx="2691.5" cy="1399.8" r="2.4" fill="#dc2626"/>
<circle cx="2783.7" cy="1386.8" r="2.4" fill="#dc2626"/>
<circle cx="2875.9" cy="1368.5" r="2.4" fill="#dc2626"/>
<circle cx="2968.0" cy="1326.9" r="2.4" fill="#dc2626"/>
<circle cx="3060.2" cy="1363.1" r="2.4" fill="#dc2626"/>
<circle cx="3152.4" cy="1392.0" r="2.4" fill="#dc2626"/>
<circle cx="3244.6" cy="1345.3" r="2.4" fill="#dc2626"/>
<circle cx="3336.8" cy="1350.2" r="2.4" fill="#dc2626"/>
<circle cx="3429.0" cy="1339.4" r="2.4" fill="#dc2626"/>
<circle cx="3521.2" cy="1342.6" r="2.4" fill="#dc2626"/>
<circle cx="3613.4" cy="1336.5" r="2.4" fill="#dc2626"/>
<circle cx="3705.6" cy="1335.4" r="2.4" fill="#dc2626"/>
<circle cx="3797.8" cy="1359.0" r="2.4" fill="#dc2626"/>
<circle cx="3890.0" cy="1358.3" r="2.4" fill="#dc2626"/>
<polyline points="110.0,1479.9 202.2,1469.3 294.4,1467.3 386.6,1466.3 478.8,1430.2 571.0,1408.9 663.2,1396.6 755.4,1388.3 847.6,1385.0 939.8,1383.4 1032.0,1379.9 1124.1,1384.2 1216.3,1381.4 1308.5,1462.9 1400.7,1446.9 1492.9,1413.0 1585.1,1413.5 1677.3,1469.6 1769.5,1465.0 1861.7,1405.7 1953.9,1405.7 2046.1,1412.7 2138.3,1434.7 2230.5,1409.2 2322.7,1381.1 2414.9,1381.2 2507.1,1384.4 2599.3,1392.5 2691.5,1384.3 2783.7,1387.6 2875.9,1383.7 2968.0,1383.7 3060.2,1387.9 3152.4,1392.3 3244.6,1382.9 3336.8,1379.8 3429.0,1382.9 3521.2,1378.8 3613.4,1382.5 3705.6,1379.8 3797.8,1378.1 3890.0,1384.1" fill="none" stroke="#16a34a" stroke-width="2.4"/>
<circle cx="110.0" cy="1479.9" r="2.4" fill="#16a34a"/>
<circle cx="202.2" cy="1469.3" r="2.4" fill="#16a34a"/>
<circle cx="294.4" cy="1467.3" r="2.4" fill="#16a34a"/>
<circle cx="386.6" cy="1466.3" r="2.4" fill="#16a34a"/>
<circle cx="478.8" cy="1430.2" r="2.4" fill="#16a34a"/>
<circle cx="571.0" cy="1408.9" r="2.4" fill="#16a34a"/>
<circle cx="663.2" cy="1396.6" r="2.4" fill="#16a34a"/>
<circle cx="755.4" cy="1388.3" r="2.4" fill="#16a34a"/>
<circle cx="847.6" cy="1385.0" r="2.4" fill="#16a34a"/>
<circle cx="939.8" cy="1383.4" r="2.4" fill="#16a34a"/>
<circle cx="1032.0" cy="1379.9" r="2.4" fill="#16a34a"/>
<circle cx="1124.1" cy="1384.2" r="2.4" fill="#16a34a"/>
<circle cx="1216.3" cy="1381.4" r="2.4" fill="#16a34a"/>
<circle cx="1308.5" cy="1462.9" r="2.4" fill="#16a34a"/>
<circle cx="1400.7" cy="1446.9" r="2.4" fill="#16a34a"/>
<circle cx="1492.9" cy="1413.0" r="2.4" fill="#16a34a"/>
<circle cx="1585.1" cy="1413.5" r="2.4" fill="#16a34a"/>
<circle cx="1677.3" cy="1469.6" r="2.4" fill="#16a34a"/>
<circle cx="1769.5" cy="1465.0" r="2.4" fill="#16a34a"/>
<circle cx="1861.7" cy="1405.7" r="2.4" fill="#16a34a"/>
<circle cx="1953.9" cy="1405.7" r="2.4" fill="#16a34a"/>
<circle cx="2046.1" cy="1412.7" r="2.4" fill="#16a34a"/>
<circle cx="2138.3" cy="1434.7" r="2.4" fill="#16a34a"/>
<circle cx="2230.5" cy="1409.2" r="2.4" fill="#16a34a"/>
<circle cx="2322.7" cy="1381.1" r="2.4" fill="#16a34a"/>
<circle cx="2414.9" cy="1381.2" r="2.4" fill="#16a34a"/>
<circle cx="2507.1" cy="1384.4" r="2.4" fill="#16a34a"/>
<circle cx="2599.3" cy="1392.5" r="2.4" fill="#16a34a"/>
<circle cx="2691.5" cy="1384.3" r="2.4" fill="#16a34a"/>
<circle cx="2783.7" cy="1387.6" r="2.4" fill="#16a34a"/>
<circle cx="2875.9" cy="1383.7" r="2.4" fill="#16a34a"/>
<circle cx="2968.0" cy="1383.7" r="2.4" fill="#16a34a"/>
<circle cx="3060.2" cy="1387.9" r="2.4" fill="#16a34a"/>
<circle cx="3152.4" cy="1392.3" r="2.4" fill="#16a34a"/>
<circle cx="3244.6" cy="1382.9" r="2.4" fill="#16a34a"/>
<circle cx="3336.8" cy="1379.8" r="2.4" fill="#16a34a"/>
<circle cx="3429.0" cy="1382.9" r="2.4" fill="#16a34a"/>
<circle cx="3521.2" cy="1378.8" r="2.4" fill="#16a34a"/>
<circle cx="3613.4" cy="1382.5" r="2.4" fill="#16a34a"/>
<circle cx="3705.6" cy="1379.8" r="2.4" fill="#16a34a"/>
<circle cx="3797.8" cy="1378.1" r="2.4" fill="#16a34a"/>
<circle cx="3890.0" cy="1384.1" r="2.4" fill="#16a34a"/>
<g transform="translate(110.0,1498) rotate(58)">
<text class="shape-label">m1_n1_k1</text>
<text y="12" class="shape-label">1x1x1</text>
</g>
<g transform="translate(202.2,1498) rotate(58)">
<text class="shape-label">m8_n8_k8</text>
<text y="12" class="shape-label">8x8x8</text>
</g>
<g transform="translate(294.4,1498) rotate(58)">
<text class="shape-label">m31_n31_k31</text>
<text y="12" class="shape-label">31x31x31</text>
</g>
<g transform="translate(386.6,1498) rotate(58)">
<text class="shape-label">m33_n33_k33</text>
<text y="12" class="shape-label">33x33x33</text>
</g>
<g transform="translate(478.8,1498) rotate(58)">
<text class="shape-label">sq64</text>
<text y="12" class="shape-label">64x64x64</text>
</g>
<g transform="translate(571.0,1498) rotate(58)">
<text class="shape-label">sq96</text>
<text y="12" class="shape-label">96x96x96</text>
</g>
<g transform="translate(663.2,1498) rotate(58)">
<text class="shape-label">sq128</text>
<text y="12" class="shape-label">128x128x128</text>
</g>
<g transform="translate(755.4,1498) rotate(58)">
<text class="shape-label">sq192</text>
<text y="12" class="shape-label">192x192x192</text>
</g>
<g transform="translate(847.6,1498) rotate(58)">
<text class="shape-label">sq256</text>
<text y="12" class="shape-label">256x256x256</text>
</g>
<g transform="translate(939.8,1498) rotate(58)">
<text class="shape-label">sq384</text>
<text y="12" class="shape-label">384x384x384</text>
</g>
<g transform="translate(1032.0,1498) rotate(58)">
<text class="shape-label">sq512</text>
<text y="12" class="shape-label">512x512x512</text>
</g>
<g transform="translate(1124.1,1498) rotate(58)">
<text class="shape-label">sq768</text>
<text y="12" class="shape-label">768x768x768</text>
</g>
<g transform="translate(1216.3,1498) rotate(58)">
<text class="shape-label">sq1024</text>
<text y="12" class="shape-label">1024x1024x1024</text>
</g>
<g transform="translate(1308.5,1498) rotate(58)">
<text class="shape-label">m63_n65_k17</text>
<text y="12" class="shape-label">63x65x17</text>
</g>
<g transform="translate(1400.7,1498) rotate(58)">
<text class="shape-label">m65_n63_k33</text>
<text y="12" class="shape-label">65x63x33</text>
</g>
<g transform="translate(1492.9,1498) rotate(58)">
<text class="shape-label">m127_n129_k31</text>
<text y="12" class="shape-label">127x129x31</text>
</g>
<g transform="translate(1585.1,1498) rotate(58)">
<text class="shape-label">m129_n127_k33</text>
<text y="12" class="shape-label">129x127x33</text>
</g>
<g transform="translate(1677.3,1498) rotate(58)">
<text class="shape-label">m1_n4096_k256</text>
<text y="12" class="shape-label">1x4096x256</text>
</g>
<g transform="translate(1769.5,1498) rotate(58)">
<text class="shape-label">m4096_n1_k256</text>
<text y="12" class="shape-label">4096x1x256</text>
</g>
<g transform="translate(1861.7,1498) rotate(58)">
<text class="shape-label">m1024_n64_k1024</text>
<text y="12" class="shape-label">1024x64x1024</text>
</g>
<g transform="translate(1953.9,1498) rotate(58)">
<text class="shape-label">m2048_n64_k512</text>
<text y="12" class="shape-label">2048x64x512</text>
</g>
<g transform="translate(2046.1,1498) rotate(58)">
<text class="shape-label">m4096_n32_k256</text>
<text y="12" class="shape-label">4096x32x256</text>
</g>
<g transform="translate(2138.3,1498) rotate(58)">
<text class="shape-label">m2048_n17_k257</text>
<text y="12" class="shape-label">2048x17x257</text>
</g>
<g transform="translate(2230.5,1498) rotate(58)">
<text class="shape-label">m512_n64_k2048</text>
<text y="12" class="shape-label">512x64x2048</text>
</g>
<g transform="translate(2322.7,1498) rotate(58)">
<text class="shape-label">m64_n1024_k1024</text>
<text y="12" class="shape-label">64x1024x1024</text>
</g>
<g transform="translate(2414.9,1498) rotate(58)">
<text class="shape-label">m64_n2048_k512</text>
<text y="12" class="shape-label">64x2048x512</text>
</g>
<g transform="translate(2507.1,1498) rotate(58)">
<text class="shape-label">m32_n4096_k256</text>
<text y="12" class="shape-label">32x4096x256</text>
</g>
<g transform="translate(2599.3,1498) rotate(58)">
<text class="shape-label">m17_n2048_k257</text>
<text y="12" class="shape-label">17x2048x257</text>
</g>
<g transform="translate(2691.5,1498) rotate(58)">
<text class="shape-label">m64_n512_k2048</text>
<text y="12" class="shape-label">64x512x2048</text>
</g>
<g transform="translate(2783.7,1498) rotate(58)">
<text class="shape-label">m1024_n1024_k64</text>
<text y="12" class="shape-label">1024x1024x64</text>
</g>
<g transform="translate(2875.9,1498) rotate(58)">
<text class="shape-label">m1024_n1024_k128</text>
<text y="12" class="shape-label">1024x1024x128</text>
</g>
<g transform="translate(2968.0,1498) rotate(58)">
<text class="shape-label">m1024_n1024_k256</text>
<text y="12" class="shape-label">1024x1024x256</text>
</g>
<g transform="translate(3060.2,1498) rotate(58)">
<text class="shape-label">m256_n256_k2048</text>
<text y="12" class="shape-label">256x256x2048</text>
</g>
<g transform="translate(3152.4,1498) rotate(58)">
<text class="shape-label">m128_n128_k4096</text>
<text y="12" class="shape-label">128x128x4096</text>
</g>
<g transform="translate(3244.6,1498) rotate(58)">
<text class="shape-label">m1536_n256_k256</text>
<text y="12" class="shape-label">1536x256x256</text>
</g>
<g transform="translate(3336.8,1498) rotate(58)">
<text class="shape-label">m256_n1536_k256</text>
<text y="12" class="shape-label">256x1536x256</text>
</g>
<g transform="translate(3429.0,1498) rotate(58)">
<text class="shape-label">m512_n256_k768</text>
<text y="12" class="shape-label">512x256x768</text>
</g>
<g transform="translate(3521.2,1498) rotate(58)">
<text class="shape-label">m256_n512_k768</text>
<text y="12" class="shape-label">256x512x768</text>
</g>
<g transform="translate(3613.4,1498) rotate(58)">
<text class="shape-label">m768_n512_k256</text>
<text y="12" class="shape-label">768x512x256</text>
</g>
<g transform="translate(3705.6,1498) rotate(58)">
<text class="shape-label">m512_n768_k256</text>
<text y="12" class="shape-label">512x768x256</text>
</g>
<g transform="translate(3797.8,1498) rotate(58)">
<text class="shape-label">m384_n640_k96</text>
<text y="12" class="shape-label">384x640x96</text>
</g>
<g transform="translate(3890.0,1498) rotate(58)">
<text class="shape-label">m640_n384_k96</text>
<text y="12" class="shape-label">640x384x96</text>
</g>
</svg>