<svg xmlns="http://www.w3.org/2000/svg" width="1800" height="1640" viewBox="0 0 1800 1640">

<style>
  text { font-family: -apple-system, BlinkMacSystemFont, "Segoe UI", sans-serif; fill: #111827; }
  .title { font-size: 24px; font-weight: 700; }
  .subtitle { font-size: 13px; fill: #4b5563; }
  .panel-title { font-size: 16px; font-weight: 700; }
  .axis-label { font-size: 11px; fill: #4b5563; }
  .shape-label { font-size: 10px; fill: #374151; }
  .axis { stroke: #111827; stroke-width: 1; }
  .grid { stroke: #e5e7eb; stroke-width: 1; }
  .legend { font-size: 13px; }
</style>

<rect x="0" y="0" width="100%" height="100%" fill="#ffffff"/>
<text x="40" y="42" class="title">SGEMM/DGEMM/CGEMM/ZGEMM Performance Sweep: Zynum BLAS vs Accelerate vs OpenBLAS</text>
<text x="40" y="66" class="subtitle">Best-of-reps GF/s across square, skinny, wide, and K-varied column-major GEMM shapes</text>
<line x1="1180" y1="38" x2="1212" y2="38" stroke="#2563eb" stroke-width="3"/>
<text x="1220" y="42" class="legend">Zynum BLAS</text>
<line x1="1325" y1="38" x2="1357" y2="38" stroke="#dc2626" stroke-width="3"/>
<text x="1365" y="42" class="legend">Accelerate</text>
<line x1="1470" y1="38" x2="1502" y2="38" stroke="#16a34a" stroke-width="3"/>
<text x="1510" y="42" class="legend">OpenBLAS</text>
<text x="110" y="92" class="panel-title">SGEMM GF/s</text>
<line x1="110" y1="370.0" x2="1740" y2="370.0" class="grid"/>
<text x="100" y="374.0" text-anchor="end" class="axis-label">0</text>
<line x1="110" y1="318.0" x2="1740" y2="318.0" class="grid"/>
<text x="100" y="322.0" text-anchor="end" class="axis-label">500</text>
<line x1="110" y1="266.0" x2="1740" y2="266.0" class="grid"/>
<text x="100" y="270.0" text-anchor="end" class="axis-label">1000</text>
<line x1="110" y1="214.0" x2="1740" y2="214.0" class="grid"/>
<text x="100" y="218.0" text-anchor="end" class="axis-label">1500</text>
<line x1="110" y1="162.0" x2="1740" y2="162.0" class="grid"/>
<text x="100" y="166.0" text-anchor="end" class="axis-label">2000</text>
<line x1="110" y1="110.0" x2="1740" y2="110.0" class="grid"/>
<text x="100" y="114.0" text-anchor="end" class="axis-label">2500</text>
<line x1="110" y1="110" x2="110" y2="370" class="axis"/>
<line x1="110" y1="370" x2="1740" y2="370" class="axis"/>
<polyline points="110.0,319.7 170.4,302.0 230.7,290.1 291.1,266.4 351.5,259.9 411.9,243.5 472.2,232.0 532.6,203.1 593.0,173.8 653.3,199.0 713.7,191.8 774.1,223.1 834.4,224.2 894.8,289.5 955.2,266.8 1015.6,306.0 1075.9,291.9 1136.3,232.9 1196.7,205.3 1257.0,193.0 1317.4,234.6 1377.8,235.1 1438.1,200.2 1498.5,230.0 1558.9,215.9 1619.3,228.0 1679.6,215.2 1740.0,221.6" fill="none" stroke="#2563eb" stroke-width="2.4"/>
<circle cx="110.0" cy="319.7" r="2.4" fill="#2563eb"/>
<circle cx="170.4" cy="302.0" r="2.4" fill="#2563eb"/>
<circle cx="230.7" cy="290.1" r="2.4" fill="#2563eb"/>
<circle cx="291.1" cy="266.4" r="2.4" fill="#2563eb"/>
<circle cx="351.5" cy="259.9" r="2.4" fill="#2563eb"/>
<circle cx="411.9" cy="243.5" r="2.4" fill="#2563eb"/>
<circle cx="472.2" cy="232.0" r="2.4" fill="#2563eb"/>
<circle cx="532.6" cy="203.1" r="2.4" fill="#2563eb"/>
<circle cx="593.0" cy="173.8" r="2.4" fill="#2563eb"/>
<circle cx="653.3" cy="199.0" r="2.4" fill="#2563eb"/>
<circle cx="713.7" cy="191.8" r="2.4" fill="#2563eb"/>
<circle cx="774.1" cy="223.1" r="2.4" fill="#2563eb"/>
<circle cx="834.4" cy="224.2" r="2.4" fill="#2563eb"/>
<circle cx="894.8" cy="289.5" r="2.4" fill="#2563eb"/>
<circle cx="955.2" cy="266.8" r="2.4" fill="#2563eb"/>
<circle cx="1015.6" cy="306.0" r="2.4" fill="#2563eb"/>
<circle cx="1075.9" cy="291.9" r="2.4" fill="#2563eb"/>
<circle cx="1136.3" cy="232.9" r="2.4" fill="#2563eb"/>
<circle cx="1196.7" cy="205.3" r="2.4" fill="#2563eb"/>
<circle cx="1257.0" cy="193.0" r="2.4" fill="#2563eb"/>
<circle cx="1317.4" cy="234.6" r="2.4" fill="#2563eb"/>
<circle cx="1377.8" cy="235.1" r="2.4" fill="#2563eb"/>
<circle cx="1438.1" cy="200.2" r="2.4" fill="#2563eb"/>
<circle cx="1498.5" cy="230.0" r="2.4" fill="#2563eb"/>
<circle cx="1558.9" cy="215.9" r="2.4" fill="#2563eb"/>
<circle cx="1619.3" cy="228.0" r="2.4" fill="#2563eb"/>
<circle cx="1679.6" cy="215.2" r="2.4" fill="#2563eb"/>
<circle cx="1740.0" cy="221.6" r="2.4" fill="#2563eb"/>
<polyline points="110.0,297.3 170.4,253.7 230.7,258.6 291.1,207.9 351.5,231.1 411.9,197.2 472.2,202.2 532.6,165.9 593.0,154.2 653.3,187.8 713.7,188.1 774.1,203.2 834.4,189.8 894.8,249.2 955.2,249.1 1015.6,274.2 1075.9,249.8 1136.3,246.7 1196.7,227.8 1257.0,199.3 1317.4,209.5 1377.8,218.3 1438.1,197.3 1498.5,199.7 1558.9,193.1 1619.3,188.5 1679.6,186.9 1740.0,211.1" fill="none" stroke="#dc2626" stroke-width="2.4"/>
<circle cx="110.0" cy="297.3" r="2.4" fill="#dc2626"/>
<circle cx="170.4" cy="253.7" r="2.4" fill="#dc2626"/>
<circle cx="230.7" cy="258.6" r="2.4" fill="#dc2626"/>
<circle cx="291.1" cy="207.9" r="2.4" fill="#dc2626"/>
<circle cx="351.5" cy="231.1" r="2.4" fill="#dc2626"/>
<circle cx="411.9" cy="197.2" r="2.4" fill="#dc2626"/>
<circle cx="472.2" cy="202.2" r="2.4" fill="#dc2626"/>
<circle cx="532.6" cy="165.9" r="2.4" fill="#dc2626"/>
<circle cx="593.0" cy="154.2" r="2.4" fill="#dc2626"/>
<circle cx="653.3" cy="187.8" r="2.4" fill="#dc2626"/>
<circle cx="713.7" cy="188.1" r="2.4" fill="#dc2626"/>
<circle cx="774.1" cy="203.2" r="2.4" fill="#dc2626"/>
<circle cx="834.4" cy="189.8" r="2.4" fill="#dc2626"/>
<circle cx="894.8" cy="249.2" r="2.4" fill="#dc2626"/>
<circle cx="955.2" cy="249.1" r="2.4" fill="#dc2626"/>
<circle cx="1015.6" cy="274.2" r="2.4" fill="#dc2626"/>
<circle cx="1075.9" cy="249.8" r="2.4" fill="#dc2626"/>
<circle cx="1136.3" cy="246.7" r="2.4" fill="#dc2626"/>
<circle cx="1196.7" cy="227.8" r="2.4" fill="#dc2626"/>
<circle cx="1257.0" cy="199.3" r="2.4" fill="#dc2626"/>
<circle cx="1317.4" cy="209.5" r="2.4" fill="#dc2626"/>
<circle cx="1377.8" cy="218.3" r="2.4" fill="#dc2626"/>
<circle cx="1438.1" cy="197.3" r="2.4" fill="#dc2626"/>
<circle cx="1498.5" cy="199.7" r="2.4" fill="#dc2626"/>
<circle cx="1558.9" cy="193.1" r="2.4" fill="#dc2626"/>
<circle cx="1619.3" cy="188.5" r="2.4" fill="#dc2626"/>
<circle cx="1679.6" cy="186.9" r="2.4" fill="#dc2626"/>
<circle cx="1740.0" cy="211.1" r="2.4" fill="#dc2626"/>
<polyline points="110.0,366.0 170.4,348.6 230.7,334.5 291.1,340.1 351.5,330.8 411.9,327.8 472.2,326.2 532.6,320.3 593.0,322.0 653.3,344.4 713.7,341.8 774.1,344.5 834.4,346.0 894.8,323.8 955.2,319.1 1015.6,324.5 1075.9,325.6 1136.3,327.0 1196.7,320.8 1257.0,322.7 1317.4,331.7 1377.8,341.3 1438.1,325.9 1498.5,317.9 1558.9,330.0 1619.3,320.5 1679.6,323.2 1740.0,319.6" fill="none" stroke="#16a34a" stroke-width="2.4"/>
<circle cx="110.0" cy="366.0" r="2.4" fill="#16a34a"/>
<circle cx="170.4" cy="348.6" r="2.4" fill="#16a34a"/>
<circle cx="230.7" cy="334.5" r="2.4" fill="#16a34a"/>
<circle cx="291.1" cy="340.1" r="2.4" fill="#16a34a"/>
<circle cx="351.5" cy="330.8" r="2.4" fill="#16a34a"/>
<circle cx="411.9" cy="327.8" r="2.4" fill="#16a34a"/>
<circle cx="472.2" cy="326.2" r="2.4" fill="#16a34a"/>
<circle cx="532.6" cy="320.3" r="2.4" fill="#16a34a"/>
<circle cx="593.0" cy="322.0" r="2.4" fill="#16a34a"/>
<circle cx="653.3" cy="344.4" r="2.4" fill="#16a34a"/>
<circle cx="713.7" cy="341.8" r="2.4" fill="#16a34a"/>
<circle cx="774.1" cy="344.5" r="2.4" fill="#16a34a"/>
<circle cx="834.4" cy="346.0" r="2.4" fill="#16a34a"/>
<circle cx="894.8" cy="323.8" r="2.4" fill="#16a34a"/>
<circle cx="955.2" cy="319.1" r="2.4" fill="#16a34a"/>
<circle cx="1015.6" cy="324.5" r="2.4" fill="#16a34a"/>
<circle cx="1075.9" cy="325.6" r="2.4" fill="#16a34a"/>
<circle cx="1136.3" cy="327.0" r="2.4" fill="#16a34a"/>
<circle cx="1196.7" cy="320.8" r="2.4" fill="#16a34a"/>
<circle cx="1257.0" cy="322.7" r="2.4" fill="#16a34a"/>
<circle cx="1317.4" cy="331.7" r="2.4" fill="#16a34a"/>
<circle cx="1377.8" cy="341.3" r="2.4" fill="#16a34a"/>
<circle cx="1438.1" cy="325.9" r="2.4" fill="#16a34a"/>
<circle cx="1498.5" cy="317.9" r="2.4" fill="#16a34a"/>
<circle cx="1558.9" cy="330.0" r="2.4" fill="#16a34a"/>
<circle cx="1619.3" cy="320.5" r="2.4" fill="#16a34a"/>
<circle cx="1679.6" cy="323.2" r="2.4" fill="#16a34a"/>
<circle cx="1740.0" cy="319.6" r="2.4" fill="#16a34a"/>
<text x="110" y="462" class="panel-title">DGEMM GF/s</text>
<line x1="110" y1="740.0" x2="1740" y2="740.0" class="grid"/>
<text x="100" y="744.0" text-anchor="end" class="axis-label">0</text>
<line x1="110" y1="653.3" x2="1740" y2="653.3" class="grid"/>
<text x="100" y="657.3" text-anchor="end" class="axis-label">200</text>
<line x1="110" y1="566.7" x2="1740" y2="566.7" class="grid"/>
<text x="100" y="570.7" text-anchor="end" class="axis-label">400</text>
<line x1="110" y1="480.0" x2="1740" y2="480.0" class="grid"/>
<text x="100" y="484.0" text-anchor="end" class="axis-label">600</text>
<line x1="110" y1="480" x2="110" y2="740" class="axis"/>
<line x1="110" y1="740" x2="1740" y2="740" class="axis"/>
<polyline points="110.0,673.5 170.4,647.1 230.7,624.9 291.1,596.2 351.5,583.6 411.9,559.9 472.2,542.4 532.6,529.8 593.0,527.0 653.3,545.6 713.7,540.1 774.1,557.5 834.4,547.7 894.8,584.2 955.2,584.1 1015.6,629.2 1075.9,596.8 1136.3,556.4 1196.7,539.9 1257.0,527.8 1317.4,558.6 1377.8,587.0 1438.1,539.4 1498.5,546.0 1558.9,539.6 1619.3,574.1 1679.6,535.0 1740.0,553.1" fill="none" stroke="#2563eb" stroke-width="2.4"/>
<circle cx="110.0" cy="673.5" r="2.4" fill="#2563eb"/>
<circle cx="170.4" cy="647.1" r="2.4" fill="#2563eb"/>
<circle cx="230.7" cy="624.9" r="2.4" fill="#2563eb"/>
<circle cx="291.1" cy="596.2" r="2.4" fill="#2563eb"/>
<circle cx="351.5" cy="583.6" r="2.4" fill="#2563eb"/>
<circle cx="411.9" cy="559.9" r="2.4" fill="#2563eb"/>
<circle cx="472.2" cy="542.4" r="2.4" fill="#2563eb"/>
<circle cx="532.6" cy="529.8" r="2.4" fill="#2563eb"/>
<circle cx="593.0" cy="527.0" r="2.4" fill="#2563eb"/>
<circle cx="653.3" cy="545.6" r="2.4" fill="#2563eb"/>
<circle cx="713.7" cy="540.1" r="2.4" fill="#2563eb"/>
<circle cx="774.1" cy="557.5" r="2.4" fill="#2563eb"/>
<circle cx="834.4" cy="547.7" r="2.4" fill="#2563eb"/>
<circle cx="894.8" cy="584.2" r="2.4" fill="#2563eb"/>
<circle cx="955.2" cy="584.1" r="2.4" fill="#2563eb"/>
<circle cx="1015.6" cy="629.2" r="2.4" fill="#2563eb"/>
<circle cx="1075.9" cy="596.8" r="2.4" fill="#2563eb"/>
<circle cx="1136.3" cy="556.4" r="2.4" fill="#2563eb"/>
<circle cx="1196.7" cy="539.9" r="2.4" fill="#2563eb"/>
<circle cx="1257.0" cy="527.8" r="2.4" fill="#2563eb"/>
<circle cx="1317.4" cy="558.6" r="2.4" fill="#2563eb"/>
<circle cx="1377.8" cy="587.0" r="2.4" fill="#2563eb"/>
<circle cx="1438.1" cy="539.4" r="2.4" fill="#2563eb"/>
<circle cx="1498.5" cy="546.0" r="2.4" fill="#2563eb"/>
<circle cx="1558.9" cy="539.6" r="2.4" fill="#2563eb"/>
<circle cx="1619.3" cy="574.1" r="2.4" fill="#2563eb"/>
<circle cx="1679.6" cy="535.0" r="2.4" fill="#2563eb"/>
<circle cx="1740.0" cy="553.1" r="2.4" fill="#2563eb"/>
<polyline points="110.0,616.1 170.4,578.6 230.7,580.2 291.1,560.0 351.5,559.7 411.9,520.3 472.2,541.2 532.6,506.4 593.0,511.0 653.3,593.5 713.7,610.1 774.1,656.5 834.4,595.5 894.8,574.4 955.2,555.7 1015.6,586.6 1075.9,576.3 1136.3,585.8 1196.7,569.3 1257.0,511.4 1317.4,556.4 1377.8,574.0 1438.1,548.9 1498.5,546.8 1558.9,532.2 1619.3,544.8 1679.6,536.8 1740.0,554.6" fill="none" stroke="#dc2626" stroke-width="2.4"/>
<circle cx="110.0" cy="616.1" r="2.4" fill="#dc2626"/>
<circle cx="170.4" cy="578.6" r="2.4" fill="#dc2626"/>
<circle cx="230.7" cy="580.2" r="2.4" fill="#dc2626"/>
<circle cx="291.1" cy="560.0" r="2.4" fill="#dc2626"/>
<circle cx="351.5" cy="559.7" r="2.4" fill="#dc2626"/>
<circle cx="411.9" cy="520.3" r="2.4" fill="#dc2626"/>
<circle cx="472.2" cy="541.2" r="2.4" fill="#dc2626"/>
<circle cx="532.6" cy="506.4" r="2.4" fill="#dc2626"/>
<circle cx="593.0" cy="511.0" r="2.4" fill="#dc2626"/>
<circle cx="653.3" cy="593.5" r="2.4" fill="#dc2626"/>
<circle cx="713.7" cy="610.1" r="2.4" fill="#dc2626"/>
<circle cx="774.1" cy="656.5" r="2.4" fill="#dc2626"/>
<circle cx="834.4" cy="595.5" r="2.4" fill="#dc2626"/>
<circle cx="894.8" cy="574.4" r="2.4" fill="#dc2626"/>
<circle cx="955.2" cy="555.7" r="2.4" fill="#dc2626"/>
<circle cx="1015.6" cy="586.6" r="2.4" fill="#dc2626"/>
<circle cx="1075.9" cy="576.3" r="2.4" fill="#dc2626"/>
<circle cx="1136.3" cy="585.8" r="2.4" fill="#dc2626"/>
<circle cx="1196.7" cy="569.3" r="2.4" fill="#dc2626"/>
<circle cx="1257.0" cy="511.4" r="2.4" fill="#dc2626"/>
<circle cx="1317.4" cy="556.4" r="2.4" fill="#dc2626"/>
<circle cx="1377.8" cy="574.0" r="2.4" fill="#dc2626"/>
<circle cx="1438.1" cy="548.9" r="2.4" fill="#dc2626"/>
<circle cx="1498.5" cy="546.8" r="2.4" fill="#dc2626"/>
<circle cx="1558.9" cy="532.2" r="2.4" fill="#dc2626"/>
<circle cx="1619.3" cy="544.8" r="2.4" fill="#dc2626"/>
<circle cx="1679.6" cy="536.8" r="2.4" fill="#dc2626"/>
<circle cx="1740.0" cy="554.6" r="2.4" fill="#dc2626"/>
<polyline points="110.0,728.7 170.4,690.9 230.7,664.4 291.1,655.0 351.5,644.6 411.9,647.9 472.2,641.4 532.6,636.0 593.0,638.1 653.3,682.8 713.7,680.6 774.1,689.1 834.4,674.3 894.8,641.1 955.2,636.5 1015.6,638.9 1075.9,646.3 1136.3,642.1 1196.7,642.7 1257.0,640.6 1317.4,647.2 1377.8,659.8 1438.1,643.9 1498.5,632.0 1558.9,649.3 1619.3,637.6 1679.6,639.4 1740.0,636.3" fill="none" stroke="#16a34a" stroke-width="2.4"/>
<circle cx="110.0" cy="728.7" r="2.4" fill="#16a34a"/>
<circle cx="170.4" cy="690.9" r="2.4" fill="#16a34a"/>
<circle cx="230.7" cy="664.4" r="2.4" fill="#16a34a"/>
<circle cx="291.1" cy="655.0" r="2.4" fill="#16a34a"/>
<circle cx="351.5" cy="644.6" r="2.4" fill="#16a34a"/>
<circle cx="411.9" cy="647.9" r="2.4" fill="#16a34a"/>
<circle cx="472.2" cy="641.4" r="2.4" fill="#16a34a"/>
<circle cx="532.6" cy="636.0" r="2.4" fill="#16a34a"/>
<circle cx="593.0" cy="638.1" r="2.4" fill="#16a34a"/>
<circle cx="653.3" cy="682.8" r="2.4" fill="#16a34a"/>
<circle cx="713.7" cy="680.6" r="2.4" fill="#16a34a"/>
<circle cx="774.1" cy="689.1" r="2.4" fill="#16a34a"/>
<circle cx="834.4" cy="674.3" r="2.4" fill="#16a34a"/>
<circle cx="894.8" cy="641.1" r="2.4" fill="#16a34a"/>
<circle cx="955.2" cy="636.5" r="2.4" fill="#16a34a"/>
<circle cx="1015.6" cy="638.9" r="2.4" fill="#16a34a"/>
<circle cx="1075.9" cy="646.3" r="2.4" fill="#16a34a"/>
<circle cx="1136.3" cy="642.1" r="2.4" fill="#16a34a"/>
<circle cx="1196.7" cy="642.7" r="2.4" fill="#16a34a"/>
<circle cx="1257.0" cy="640.6" r="2.4" fill="#16a34a"/>
<circle cx="1317.4" cy="647.2" r="2.4" fill="#16a34a"/>
<circle cx="1377.8" cy="659.8" r="2.4" fill="#16a34a"/>
<circle cx="1438.1" cy="643.9" r="2.4" fill="#16a34a"/>
<circle cx="1498.5" cy="632.0" r="2.4" fill="#16a34a"/>
<circle cx="1558.9" cy="649.3" r="2.4" fill="#16a34a"/>
<circle cx="1619.3" cy="637.6" r="2.4" fill="#16a34a"/>
<circle cx="1679.6" cy="639.4" r="2.4" fill="#16a34a"/>
<circle cx="1740.0" cy="636.3" r="2.4" fill="#16a34a"/>
<text x="110" y="832" class="panel-title">CGEMM GF/s</text>
<line x1="110" y1="1110.0" x2="1740" y2="1110.0" class="grid"/>
<text x="100" y="1114.0" text-anchor="end" class="axis-label">0</text>
<line x1="110" y1="1045.0" x2="1740" y2="1045.0" class="grid"/>
<text x="100" y="1049.0" text-anchor="end" class="axis-label">500</text>
<line x1="110" y1="980.0" x2="1740" y2="980.0" class="grid"/>
<text x="100" y="984.0" text-anchor="end" class="axis-label">1000</text>
<line x1="110" y1="915.0" x2="1740" y2="915.0" class="grid"/>
<text x="100" y="919.0" text-anchor="end" class="axis-label">1500</text>
<line x1="110" y1="850.0" x2="1740" y2="850.0" class="grid"/>
<text x="100" y="854.0" text-anchor="end" class="axis-label">2000</text>
<line x1="110" y1="850" x2="110" y2="1110" class="axis"/>
<line x1="110" y1="1110" x2="1740" y2="1110" class="axis"/>
<polyline points="110.0,1074.1 170.4,1051.9 230.7,1042.1 291.1,1009.7 351.5,996.2 411.9,962.9 472.2,958.4 532.6,918.8 593.0,887.3 653.3,1021.4 713.7,1020.0 774.1,1057.7 834.4,1028.6 894.8,1022.4 955.2,1016.4 1015.6,1053.4 1075.9,1035.9 1136.3,1011.6 1196.7,981.8 1257.0,942.4 1317.4,980.9 1377.8,1014.0 1438.1,964.8 1498.5,987.7 1558.9,964.0 1619.3,951.3 1679.6,956.2 1740.0,961.9" fill="none" stroke="#2563eb" stroke-width="2.4"/>
<circle cx="110.0" cy="1074.1" r="2.4" fill="#2563eb"/>
<circle cx="170.4" cy="1051.9" r="2.4" fill="#2563eb"/>
<circle cx="230.7" cy="1042.1" r="2.4" fill="#2563eb"/>
<circle cx="291.1" cy="1009.7" r="2.4" fill="#2563eb"/>
<circle cx="351.5" cy="996.2" r="2.4" fill="#2563eb"/>
<circle cx="411.9" cy="962.9" r="2.4" fill="#2563eb"/>
<circle cx="472.2" cy="958.4" r="2.4" fill="#2563eb"/>
<circle cx="532.6" cy="918.8" r="2.4" fill="#2563eb"/>
<circle cx="593.0" cy="887.3" r="2.4" fill="#2563eb"/>
<circle cx="653.3" cy="1021.4" r="2.4" fill="#2563eb"/>
<circle cx="713.7" cy="1020.0" r="2.4" fill="#2563eb"/>
<circle cx="774.1" cy="1057.7" r="2.4" fill="#2563eb"/>
<circle cx="834.4" cy="1028.6" r="2.4" fill="#2563eb"/>
<circle cx="894.8" cy="1022.4" r="2.4" fill="#2563eb"/>
<circle cx="955.2" cy="1016.4" r="2.4" fill="#2563eb"/>
<circle cx="1015.6" cy="1053.4" r="2.4" fill="#2563eb"/>
<circle cx="1075.9" cy="1035.9" r="2.4" fill="#2563eb"/>
<circle cx="1136.3" cy="1011.6" r="2.4" fill="#2563eb"/>
<circle cx="1196.7" cy="981.8" r="2.4" fill="#2563eb"/>
<circle cx="1257.0" cy="942.4" r="2.4" fill="#2563eb"/>
<circle cx="1317.4" cy="980.9" r="2.4" fill="#2563eb"/>
<circle cx="1377.8" cy="1014.0" r="2.4" fill="#2563eb"/>
<circle cx="1438.1" cy="964.8" r="2.4" fill="#2563eb"/>
<circle cx="1498.5" cy="987.7" r="2.4" fill="#2563eb"/>
<circle cx="1558.9" cy="964.0" r="2.4" fill="#2563eb"/>
<circle cx="1619.3" cy="951.3" r="2.4" fill="#2563eb"/>
<circle cx="1679.6" cy="956.2" r="2.4" fill="#2563eb"/>
<circle cx="1740.0" cy="961.9" r="2.4" fill="#2563eb"/>
<polyline points="110.0,1079.4 170.4,1062.4 230.7,1050.5 291.1,1016.2 351.5,1000.2 411.9,967.1 472.2,957.8 532.6,921.1 593.0,909.8 653.3,1004.3 713.7,1005.1 774.1,1043.3 834.4,1009.6 894.8,1025.0 955.2,1027.2 1015.6,1057.9 1075.9,1025.4 1136.3,1032.3 1196.7,994.9 1257.0,960.7 1317.4,977.8 1377.8,1008.0 1438.1,975.9 1498.5,979.7 1558.9,960.8 1619.3,961.4 1679.6,963.4 1740.0,975.5" fill="none" stroke="#dc2626" stroke-width="2.4"/>
<circle cx="110.0" cy="1079.4" r="2.4" fill="#dc2626"/>
<circle cx="170.4" cy="1062.4" r="2.4" fill="#dc2626"/>
<circle cx="230.7" cy="1050.5" r="2.4" fill="#dc2626"/>
<circle cx="291.1" cy="1016.2" r="2.4" fill="#dc2626"/>
<circle cx="351.5" cy="1000.2" r="2.4" fill="#dc2626"/>
<circle cx="411.9" cy="967.1" r="2.4" fill="#dc2626"/>
<circle cx="472.2" cy="957.8" r="2.4" fill="#dc2626"/>
<circle cx="532.6" cy="921.1" r="2.4" fill="#dc2626"/>
<circle cx="593.0" cy="909.8" r="2.4" fill="#dc2626"/>
<circle cx="653.3" cy="1004.3" r="2.4" fill="#dc2626"/>
<circle cx="713.7" cy="1005.1" r="2.4" fill="#dc2626"/>
<circle cx="774.1" cy="1043.3" r="2.4" fill="#dc2626"/>
<circle cx="834.4" cy="1009.6" r="2.4" fill="#dc2626"/>
<circle cx="894.8" cy="1025.0" r="2.4" fill="#dc2626"/>
<circle cx="955.2" cy="1027.2" r="2.4" fill="#dc2626"/>
<circle cx="1015.6" cy="1057.9" r="2.4" fill="#dc2626"/>
<circle cx="1075.9" cy="1025.4" r="2.4" fill="#dc2626"/>
<circle cx="1136.3" cy="1032.3" r="2.4" fill="#dc2626"/>
<circle cx="1196.7" cy="994.9" r="2.4" fill="#dc2626"/>
<circle cx="1257.0" cy="960.7" r="2.4" fill="#dc2626"/>
<circle cx="1317.4" cy="977.8" r="2.4" fill="#dc2626"/>
<circle cx="1377.8" cy="1008.0" r="2.4" fill="#dc2626"/>
<circle cx="1438.1" cy="975.9" r="2.4" fill="#dc2626"/>
<circle cx="1498.5" cy="979.7" r="2.4" fill="#dc2626"/>
<circle cx="1558.9" cy="960.8" r="2.4" fill="#dc2626"/>
<circle cx="1619.3" cy="961.4" r="2.4" fill="#dc2626"/>
<circle cx="1679.6" cy="963.4" r="2.4" fill="#dc2626"/>
<circle cx="1740.0" cy="975.5" r="2.4" fill="#dc2626"/>
<polyline points="110.0,1073.4 170.4,1076.5 230.7,1064.5 291.1,1061.8 351.5,1054.9 411.9,1050.4 472.2,1046.0 532.6,1044.3 593.0,1045.1 653.3,1070.1 713.7,1067.1 774.1,1069.5 834.4,1072.3 894.8,1046.7 955.2,1046.7 1015.6,1047.4 1075.9,1048.7 1136.3,1048.0 1196.7,1046.4 1257.0,1045.9 1317.4,1055.6 1377.8,1062.1 1438.1,1048.2 1498.5,1044.7 1558.9,1050.2 1619.3,1046.6 1679.6,1045.7 1740.0,1045.7" fill="none" stroke="#16a34a" stroke-width="2.4"/>
<circle cx="110.0" cy="1073.4" r="2.4" fill="#16a34a"/>
<circle cx="170.4" cy="1076.5" r="2.4" fill="#16a34a"/>
<circle cx="230.7" cy="1064.5" r="2.4" fill="#16a34a"/>
<circle cx="291.1" cy="1061.8" r="2.4" fill="#16a34a"/>
<circle cx="351.5" cy="1054.9" r="2.4" fill="#16a34a"/>
<circle cx="411.9" cy="1050.4" r="2.4" fill="#16a34a"/>
<circle cx="472.2" cy="1046.0" r="2.4" fill="#16a34a"/>
<circle cx="532.6" cy="1044.3" r="2.4" fill="#16a34a"/>
<circle cx="593.0" cy="1045.1" r="2.4" fill="#16a34a"/>
<circle cx="653.3" cy="1070.1" r="2.4" fill="#16a34a"/>
<circle cx="713.7" cy="1067.1" r="2.4" fill="#16a34a"/>
<circle cx="774.1" cy="1069.5" r="2.4" fill="#16a34a"/>
<circle cx="834.4" cy="1072.3" r="2.4" fill="#16a34a"/>
<circle cx="894.8" cy="1046.7" r="2.4" fill="#16a34a"/>
<circle cx="955.2" cy="1046.7" r="2.4" fill="#16a34a"/>
<circle cx="1015.6" cy="1047.4" r="2.4" fill="#16a34a"/>
<circle cx="1075.9" cy="1048.7" r="2.4" fill="#16a34a"/>
<circle cx="1136.3" cy="1048.0" r="2.4" fill="#16a34a"/>
<circle cx="1196.7" cy="1046.4" r="2.4" fill="#16a34a"/>
<circle cx="1257.0" cy="1045.9" r="2.4" fill="#16a34a"/>
<circle cx="1317.4" cy="1055.6" r="2.4" fill="#16a34a"/>
<circle cx="1377.8" cy="1062.1" r="2.4" fill="#16a34a"/>
<circle cx="1438.1" cy="1048.2" r="2.4" fill="#16a34a"/>
<circle cx="1498.5" cy="1044.7" r="2.4" fill="#16a34a"/>
<circle cx="1558.9" cy="1050.2" r="2.4" fill="#16a34a"/>
<circle cx="1619.3" cy="1046.6" r="2.4" fill="#16a34a"/>
<circle cx="1679.6" cy="1045.7" r="2.4" fill="#16a34a"/>
<circle cx="1740.0" cy="1045.7" r="2.4" fill="#16a34a"/>
<text x="110" y="1202" class="panel-title">ZGEMM GF/s</text>
<line x1="110" y1="1480.0" x2="1740" y2="1480.0" class="grid"/>
<text x="100" y="1484.0" text-anchor="end" class="axis-label">0</text>
<line x1="110" y1="1393.3" x2="1740" y2="1393.3" class="grid"/>
<text x="100" y="1397.3" text-anchor="end" class="axis-label">200</text>
<line x1="110" y1="1306.7" x2="1740" y2="1306.7" class="grid"/>
<text x="100" y="1310.7" text-anchor="end" class="axis-label">400</text>
<line x1="110" y1="1220.0" x2="1740" y2="1220.0" class="grid"/>
<text x="100" y="1224.0" text-anchor="end" class="axis-label">600</text>
<line x1="110" y1="1220" x2="110" y2="1480" class="axis"/>
<line x1="110" y1="1480" x2="1740" y2="1480" class="axis"/>
<polyline points="110.0,1406.8 170.4,1386.3 230.7,1361.0 291.1,1343.9 351.5,1310.2 411.9,1276.9 472.2,1265.7 532.6,1252.6 593.0,1240.7 653.3,1351.1 713.7,1347.4 774.1,1401.9 834.4,1363.8 894.8,1362.2 955.2,1361.2 1015.6,1378.4 1075.9,1367.8 1136.3,1324.6 1196.7,1278.8 1257.0,1253.4 1317.4,1304.4 1377.8,1350.6 1438.1,1282.6 1498.5,1290.2 1558.9,1273.0 1619.3,1294.0 1679.6,1265.4 1740.0,1275.4" fill="none" stroke="#2563eb" stroke-width="2.4"/>
<circle cx="110.0" cy="1406.8" r="2.4" fill="#2563eb"/>
<circle cx="170.4" cy="1386.3" r="2.4" fill="#2563eb"/>
<circle cx="230.7" cy="1361.0" r="2.4" fill="#2563eb"/>
<circle cx="291.1" cy="1343.9" r="2.4" fill="#2563eb"/>
<circle cx="351.5" cy="1310.2" r="2.4" fill="#2563eb"/>
<circle cx="411.9" cy="1276.9" r="2.4" fill="#2563eb"/>
<circle cx="472.2" cy="1265.7" r="2.4" fill="#2563eb"/>
<circle cx="532.6" cy="1252.6" r="2.4" fill="#2563eb"/>
<circle cx="593.0" cy="1240.7" r="2.4" fill="#2563eb"/>
<circle cx="653.3" cy="1351.1" r="2.4" fill="#2563eb"/>
<circle cx="713.7" cy="1347.4" r="2.4" fill="#2563eb"/>
<circle cx="774.1" cy="1401.9" r="2.4" fill="#2563eb"/>
<circle cx="834.4" cy="1363.8" r="2.4" fill="#2563eb"/>
<circle cx="894.8" cy="1362.2" r="2.4" fill="#2563eb"/>
<circle cx="955.2" cy="1361.2" r="2.4" fill="#2563eb"/>
<circle cx="1015.6" cy="1378.4" r="2.4" fill="#2563eb"/>
<circle cx="1075.9" cy="1367.8" r="2.4" fill="#2563eb"/>
<circle cx="1136.3" cy="1324.6" r="2.4" fill="#2563eb"/>
<circle cx="1196.7" cy="1278.8" r="2.4" fill="#2563eb"/>
<circle cx="1257.0" cy="1253.4" r="2.4" fill="#2563eb"/>
<circle cx="1317.4" cy="1304.4" r="2.4" fill="#2563eb"/>
<circle cx="1377.8" cy="1350.6" r="2.4" fill="#2563eb"/>
<circle cx="1438.1" cy="1282.6" r="2.4" fill="#2563eb"/>
<circle cx="1498.5" cy="1290.2" r="2.4" fill="#2563eb"/>
<circle cx="1558.9" cy="1273.0" r="2.4" fill="#2563eb"/>
<circle cx="1619.3" cy="1294.0" r="2.4" fill="#2563eb"/>
<circle cx="1679.6" cy="1265.4" r="2.4" fill="#2563eb"/>
<circle cx="1740.0" cy="1275.4" r="2.4" fill="#2563eb"/>
<polyline points="110.0,1434.7 170.4,1394.5 230.7,1394.5 291.1,1368.3 351.5,1357.9 411.9,1331.6 472.2,1328.1 532.6,1311.0 593.0,1293.5 653.3,1407.2 713.7,1415.3 774.1,1443.4 834.4,1409.0 894.8,1396.5 955.2,1396.1 1015.6,1428.9 1075.9,1400.0 1136.3,1387.5 1196.7,1370.4 1257.0,1315.7 1317.4,1362.2 1377.8,1392.7 1438.1,1341.7 1498.5,1348.2 1558.9,1336.0 1619.3,1342.3 1679.6,1330.1 1740.0,1334.8" fill="none" stroke="#dc2626" stroke-width="2.4"/>
<circle cx="110.0" cy="1434.7" r="2.4" fill="#dc2626"/>
<circle cx="170.4" cy="1394.5" r="2.4" fill="#dc2626"/>
<circle cx="230.7" cy="1394.5" r="2.4" fill="#dc2626"/>
<circle cx="291.1" cy="1368.3" r="2.4" fill="#dc2626"/>
<circle cx="351.5" cy="1357.9" r="2.4" fill="#dc2626"/>
<circle cx="411.9" cy="1331.6" r="2.4" fill="#dc2626"/>
<circle cx="472.2" cy="1328.1" r="2.4" fill="#dc2626"/>
<circle cx="532.6" cy="1311.0" r="2.4" fill="#dc2626"/>
<circle cx="593.0" cy="1293.5" r="2.4" fill="#dc2626"/>
<circle cx="653.3" cy="1407.2" r="2.4" fill="#dc2626"/>
<circle cx="713.7" cy="1415.3" r="2.4" fill="#dc2626"/>
<circle cx="774.1" cy="1443.4" r="2.4" fill="#dc2626"/>
<circle cx="834.4" cy="1409.0" r="2.4" fill="#dc2626"/>
<circle cx="894.8" cy="1396.5" r="2.4" fill="#dc2626"/>
<circle cx="955.2" cy="1396.1" r="2.4" fill="#dc2626"/>
<circle cx="1015.6" cy="1428.9" r="2.4" fill="#dc2626"/>
<circle cx="1075.9" cy="1400.0" r="2.4" fill="#dc2626"/>
<circle cx="1136.3" cy="1387.5" r="2.4" fill="#dc2626"/>
<circle cx="1196.7" cy="1370.4" r="2.4" fill="#dc2626"/>
<circle cx="1257.0" cy="1315.7" r="2.4" fill="#dc2626"/>
<circle cx="1317.4" cy="1362.2" r="2.4" fill="#dc2626"/>
<circle cx="1377.8" cy="1392.7" r="2.4" fill="#dc2626"/>
<circle cx="1438.1" cy="1341.7" r="2.4" fill="#dc2626"/>
<circle cx="1498.5" cy="1348.2" r="2.4" fill="#dc2626"/>
<circle cx="1558.9" cy="1336.0" r="2.4" fill="#dc2626"/>
<circle cx="1619.3" cy="1342.3" r="2.4" fill="#dc2626"/>
<circle cx="1679.6" cy="1330.1" r="2.4" fill="#dc2626"/>
<circle cx="1740.0" cy="1334.8" r="2.4" fill="#dc2626"/>
<polyline points="110.0,1416.8 170.4,1408.3 230.7,1394.5 291.1,1385.9 351.5,1381.0 411.9,1379.7 472.2,1376.5 532.6,1380.7 593.0,1378.4 653.3,1405.7 713.7,1404.9 774.1,1411.2 834.4,1408.4 894.8,1380.2 955.2,1379.0 1015.6,1383.4 1075.9,1380.7 1136.3,1384.6 1196.7,1380.3 1257.0,1378.1 1317.4,1384.0 1377.8,1392.7 1438.1,1381.8 1498.5,1376.9 1558.9,1381.3 1619.3,1377.8 1679.6,1378.3 1740.0,1379.2" fill="none" stroke="#16a34a" stroke-width="2.4"/>
<circle cx="110.0" cy="1416.8" r="2.4" fill="#16a34a"/>
<circle cx="170.4" cy="1408.3" r="2.4" fill="#16a34a"/>
<circle cx="230.7" cy="1394.5" r="2.4" fill="#16a34a"/>
<circle cx="291.1" cy="1385.9" r="2.4" fill="#16a34a"/>
<circle cx="351.5" cy="1381.0" r="2.4" fill="#16a34a"/>
<circle cx="411.9" cy="1379.7" r="2.4" fill="#16a34a"/>
<circle cx="472.2" cy="1376.5" r="2.4" fill="#16a34a"/>
<circle cx="532.6" cy="1380.7" r="2.4" fill="#16a34a"/>
<circle cx="593.0" cy="1378.4" r="2.4" fill="#16a34a"/>
<circle cx="653.3" cy="1405.7" r="2.4" fill="#16a34a"/>
<circle cx="713.7" cy="1404.9" r="2.4" fill="#16a34a"/>
<circle cx="774.1" cy="1411.2" r="2.4" fill="#16a34a"/>
<circle cx="834.4" cy="1408.4" r="2.4" fill="#16a34a"/>
<circle cx="894.8" cy="1380.2" r="2.4" fill="#16a34a"/>
<circle cx="955.2" cy="1379.0" r="2.4" fill="#16a34a"/>
<circle cx="1015.6" cy="1383.4" r="2.4" fill="#16a34a"/>
<circle cx="1075.9" cy="1380.7" r="2.4" fill="#16a34a"/>
<circle cx="1136.3" cy="1384.6" r="2.4" fill="#16a34a"/>
<circle cx="1196.7" cy="1380.3" r="2.4" fill="#16a34a"/>
<circle cx="1257.0" cy="1378.1" r="2.4" fill="#16a34a"/>
<circle cx="1317.4" cy="1384.0" r="2.4" fill="#16a34a"/>
<circle cx="1377.8" cy="1392.7" r="2.4" fill="#16a34a"/>
<circle cx="1438.1" cy="1381.8" r="2.4" fill="#16a34a"/>
<circle cx="1498.5" cy="1376.9" r="2.4" fill="#16a34a"/>
<circle cx="1558.9" cy="1381.3" r="2.4" fill="#16a34a"/>
<circle cx="1619.3" cy="1377.8" r="2.4" fill="#16a34a"/>
<circle cx="1679.6" cy="1378.3" r="2.4" fill="#16a34a"/>
<circle cx="1740.0" cy="1379.2" r="2.4" fill="#16a34a"/>
<g transform="translate(110.0,1498) rotate(58)">
<text class="shape-label">sq64</text>
<text y="12" class="shape-label">64x64x64</text>
</g>
<g transform="translate(170.4,1498) rotate(58)">
<text class="shape-label">sq96</text>
<text y="12" class="shape-label">96x96x96</text>
</g>
<g transform="translate(230.7,1498) rotate(58)">
<text class="shape-label">sq128</text>
<text y="12" class="shape-label">128x128x128</text>
</g>
<g transform="translate(291.1,1498) rotate(58)">
<text class="shape-label">sq192</text>
<text y="12" class="shape-label">192x192x192</text>
</g>
<g transform="translate(351.5,1498) rotate(58)">
<text class="shape-label">sq256</text>
<text y="12" class="shape-label">256x256x256</text>
</g>
<g transform="translate(411.9,1498) rotate(58)">
<text class="shape-label">sq384</text>
<text y="12" class="shape-label">384x384x384</text>
</g>
<g transform="translate(472.2,1498) rotate(58)">
<text class="shape-label">sq512</text>
<text y="12" class="shape-label">512x512x512</text>
</g>
<g transform="translate(532.6,1498) rotate(58)">
<text class="shape-label">sq768</text>
<text y="12" class="shape-label">768x768x768</text>
</g>
<g transform="translate(593.0,1498) rotate(58)">
<text class="shape-label">sq1024</text>
<text y="12" class="shape-label">1024x1024x1024</text>
</g>
<g transform="translate(653.3,1498) rotate(58)">
<text class="shape-label">m1024_n64_k1024</text>
<text y="12" class="shape-label">1024x64x1024</text>
</g>
<g transform="translate(713.7,1498) rotate(58)">
<text class="shape-label">m2048_n64_k512</text>
<text y="12" class="shape-label">2048x64x512</text>
</g>
<g transform="translate(774.1,1498) rotate(58)">
<text class="shape-label">m4096_n32_k256</text>
<text y="12" class="shape-label">4096x32x256</text>
</g>
<g transform="translate(834.4,1498) rotate(58)">
<text class="shape-label">m512_n64_k2048</text>
<text y="12" class="shape-label">512x64x2048</text>
</g>
<g transform="translate(894.8,1498) rotate(58)">
<text class="shape-label">m64_n1024_k1024</text>
<text y="12" class="shape-label">64x1024x1024</text>
</g>
<g transform="translate(955.2,1498) rotate(58)">
<text class="shape-label">m64_n2048_k512</text>
<text y="12" class="shape-label">64x2048x512</text>
</g>
<g transform="translate(1015.6,1498) rotate(58)">
<text class="shape-label">m32_n4096_k256</text>
<text y="12" class="shape-label">32x4096x256</text>
</g>
<g transform="translate(1075.9,1498) rotate(58)">
<text class="shape-label">m64_n512_k2048</text>
<text y="12" class="shape-label">64x512x2048</text>
</g>
<g transform="translate(1136.3,1498) rotate(58)">
<text class="shape-label">m1024_n1024_k64</text>
<text y="12" class="shape-label">1024x1024x64</text>
</g>
<g transform="translate(1196.7,1498) rotate(58)">
<text class="shape-label">m1024_n1024_k128</text>
<text y="12" class="shape-label">1024x1024x128</text>
</g>
<g transform="translate(1257.0,1498) rotate(58)">
<text class="shape-label">m1024_n1024_k256</text>
<text y="12" class="shape-label">1024x1024x256</text>
</g>
<g transform="translate(1317.4,1498) rotate(58)">
<text class="shape-label">m256_n256_k2048</text>
<text y="12" class="shape-label">256x256x2048</text>
</g>
<g transform="translate(1377.8,1498) rotate(58)">
<text class="shape-label">m128_n128_k4096</text>
<text y="12" class="shape-label">128x128x4096</text>
</g>
<g transform="translate(1438.1,1498) rotate(58)">
<text class="shape-label">m1536_n256_k256</text>
<text y="12" class="shape-label">1536x256x256</text>
</g>
<g transform="translate(1498.5,1498) rotate(58)">
<text class="shape-label">m256_n1536_k256</text>
<text y="12" class="shape-label">256x1536x256</text>
</g>
<g transform="translate(1558.9,1498) rotate(58)">
<text class="shape-label">m512_n256_k768</text>
<text y="12" class="shape-label">512x256x768</text>
</g>
<g transform="translate(1619.3,1498) rotate(58)">
<text class="shape-label">m256_n512_k768</text>
<text y="12" class="shape-label">256x512x768</text>
</g>
<g transform="translate(1679.6,1498) rotate(58)">
<text class="shape-label">m768_n512_k256</text>
<text y="12" class="shape-label">768x512x256</text>
</g>
<g transform="translate(1740.0,1498) rotate(58)">
<text class="shape-label">m512_n768_k256</text>
<text y="12" class="shape-label">512x768x256</text>
</g>
</svg>