<svg xmlns="http://www.w3.org/2000/svg" width="1800" height="900" viewBox="0 0 1800 900">

<style>
  text { font-family: -apple-system, BlinkMacSystemFont, "Segoe UI", sans-serif; fill: #111827; }
  .title { font-size: 24px; font-weight: 700; }
  .subtitle { font-size: 13px; fill: #4b5563; }
  .panel-title { font-size: 16px; font-weight: 700; }
  .axis-label { font-size: 11px; fill: #4b5563; }
  .shape-label { font-size: 10px; fill: #374151; }
  .axis { stroke: #111827; stroke-width: 1; }
  .grid { stroke: #e5e7eb; stroke-width: 1; }
  .legend { font-size: 13px; }
</style>

<rect x="0" y="0" width="100%" height="100%" fill="#ffffff"/>
<text x="40" y="42" class="title">Complex GEMM Performance Sweep: Zynum BLAS vs Accelerate vs OpenBLAS</text>
<text x="40" y="66" class="subtitle">Best-of-reps GF/s for CGEMM/ZGEMM across square, skinny, wide, and K-varied column-major shapes</text>
<line x1="1180" y1="38" x2="1212" y2="38" stroke="#2563eb" stroke-width="3"/>
<text x="1220" y="42" class="legend">Zynum BLAS</text>
<line x1="1325" y1="38" x2="1357" y2="38" stroke="#dc2626" stroke-width="3"/>
<text x="1365" y="42" class="legend">Accelerate</text>
<line x1="1470" y1="38" x2="1502" y2="38" stroke="#16a34a" stroke-width="3"/>
<text x="1510" y="42" class="legend">OpenBLAS</text>
<text x="110" y="92" class="panel-title">CGEMM GF/s</text>
<line x1="110" y1="370.0" x2="1740" y2="370.0" class="grid"/>
<text x="100" y="374.0" text-anchor="end" class="axis-label">0</text>
<line x1="110" y1="283.3" x2="1740" y2="283.3" class="grid"/>
<text x="100" y="287.3" text-anchor="end" class="axis-label">200</text>
<line x1="110" y1="196.7" x2="1740" y2="196.7" class="grid"/>
<text x="100" y="200.7" text-anchor="end" class="axis-label">400</text>
<line x1="110" y1="110.0" x2="1740" y2="110.0" class="grid"/>
<text x="100" y="114.0" text-anchor="end" class="axis-label">600</text>
<line x1="110" y1="110" x2="110" y2="370" class="axis"/>
<line x1="110" y1="370" x2="1740" y2="370" class="axis"/>
<polyline points="110.0,316.9 170.4,286.9 230.7,270.0 291.1,198.7 351.5,178.5 411.9,146.0 472.2,178.4 532.6,181.4 593.0,123.1 653.3,274.2 713.7,311.9 774.1,323.8 834.4,306.1 894.8,286.0 955.2,266.9 1015.6,295.1 1075.9,308.8 1136.3,330.0 1196.7,304.2 1257.0,192.9 1317.4,227.1 1377.8,303.3 1438.1,319.8 1498.5,247.6 1558.9,209.2 1619.3,200.3 1679.6,110.8 1740.0,192.4" fill="none" stroke="#2563eb" stroke-width="2.4"/>
<circle cx="110.0" cy="316.9" r="2.4" fill="#2563eb"/>
<circle cx="170.4" cy="286.9" r="2.4" fill="#2563eb"/>
<circle cx="230.7" cy="270.0" r="2.4" fill="#2563eb"/>
<circle cx="291.1" cy="198.7" r="2.4" fill="#2563eb"/>
<circle cx="351.5" cy="178.5" r="2.4" fill="#2563eb"/>
<circle cx="411.9" cy="146.0" r="2.4" fill="#2563eb"/>
<circle cx="472.2" cy="178.4" r="2.4" fill="#2563eb"/>
<circle cx="532.6" cy="181.4" r="2.4" fill="#2563eb"/>
<circle cx="593.0" cy="123.1" r="2.4" fill="#2563eb"/>
<circle cx="653.3" cy="274.2" r="2.4" fill="#2563eb"/>
<circle cx="713.7" cy="311.9" r="2.4" fill="#2563eb"/>
<circle cx="774.1" cy="323.8" r="2.4" fill="#2563eb"/>
<circle cx="834.4" cy="306.1" r="2.4" fill="#2563eb"/>
<circle cx="894.8" cy="286.0" r="2.4" fill="#2563eb"/>
<circle cx="955.2" cy="266.9" r="2.4" fill="#2563eb"/>
<circle cx="1015.6" cy="295.1" r="2.4" fill="#2563eb"/>
<circle cx="1075.9" cy="308.8" r="2.4" fill="#2563eb"/>
<circle cx="1136.3" cy="330.0" r="2.4" fill="#2563eb"/>
<circle cx="1196.7" cy="304.2" r="2.4" fill="#2563eb"/>
<circle cx="1257.0" cy="192.9" r="2.4" fill="#2563eb"/>
<circle cx="1317.4" cy="227.1" r="2.4" fill="#2563eb"/>
<circle cx="1377.8" cy="303.3" r="2.4" fill="#2563eb"/>
<circle cx="1438.1" cy="319.8" r="2.4" fill="#2563eb"/>
<circle cx="1498.5" cy="247.6" r="2.4" fill="#2563eb"/>
<circle cx="1558.9" cy="209.2" r="2.4" fill="#2563eb"/>
<circle cx="1619.3" cy="200.3" r="2.4" fill="#2563eb"/>
<circle cx="1679.6" cy="110.8" r="2.4" fill="#2563eb"/>
<circle cx="1740.0" cy="192.4" r="2.4" fill="#2563eb"/>
<polyline points="110.0,337.1 170.4,323.6 230.7,316.3 291.1,292.8 351.5,285.2 411.9,222.8 472.2,139.0 532.6,197.0 593.0,201.8 653.3,214.3 713.7,240.6 774.1,255.8 834.4,222.6 894.8,222.2 955.2,315.7 1015.6,317.0 1075.9,317.3 1136.3,234.4 1196.7,261.7 1257.0,248.5 1317.4,243.5 1377.8,265.5 1438.1,140.5 1498.5,242.6 1558.9,180.8 1619.3,217.6 1679.6,220.8 1740.0,168.9" fill="none" stroke="#dc2626" stroke-width="2.4"/>
<circle cx="110.0" cy="337.1" r="2.4" fill="#dc2626"/>
<circle cx="170.4" cy="323.6" r="2.4" fill="#dc2626"/>
<circle cx="230.7" cy="316.3" r="2.4" fill="#dc2626"/>
<circle cx="291.1" cy="292.8" r="2.4" fill="#dc2626"/>
<circle cx="351.5" cy="285.2" r="2.4" fill="#dc2626"/>
<circle cx="411.9" cy="222.8" r="2.4" fill="#dc2626"/>
<circle cx="472.2" cy="139.0" r="2.4" fill="#dc2626"/>
<circle cx="532.6" cy="197.0" r="2.4" fill="#dc2626"/>
<circle cx="593.0" cy="201.8" r="2.4" fill="#dc2626"/>
<circle cx="653.3" cy="214.3" r="2.4" fill="#dc2626"/>
<circle cx="713.7" cy="240.6" r="2.4" fill="#dc2626"/>
<circle cx="774.1" cy="255.8" r="2.4" fill="#dc2626"/>
<circle cx="834.4" cy="222.6" r="2.4" fill="#dc2626"/>
<circle cx="894.8" cy="222.2" r="2.4" fill="#dc2626"/>
<circle cx="955.2" cy="315.7" r="2.4" fill="#dc2626"/>
<circle cx="1015.6" cy="317.0" r="2.4" fill="#dc2626"/>
<circle cx="1075.9" cy="317.3" r="2.4" fill="#dc2626"/>
<circle cx="1136.3" cy="234.4" r="2.4" fill="#dc2626"/>
<circle cx="1196.7" cy="261.7" r="2.4" fill="#dc2626"/>
<circle cx="1257.0" cy="248.5" r="2.4" fill="#dc2626"/>
<circle cx="1317.4" cy="243.5" r="2.4" fill="#dc2626"/>
<circle cx="1377.8" cy="265.5" r="2.4" fill="#dc2626"/>
<circle cx="1438.1" cy="140.5" r="2.4" fill="#dc2626"/>
<circle cx="1498.5" cy="242.6" r="2.4" fill="#dc2626"/>
<circle cx="1558.9" cy="180.8" r="2.4" fill="#dc2626"/>
<circle cx="1619.3" cy="217.6" r="2.4" fill="#dc2626"/>
<circle cx="1679.6" cy="220.8" r="2.4" fill="#dc2626"/>
<circle cx="1740.0" cy="168.9" r="2.4" fill="#dc2626"/>
<polyline points="110.0,306.8 170.4,368.7 230.7,291.4 291.1,284.5 351.5,363.7 411.9,326.9 472.2,324.3 532.6,347.3 593.0,327.0 653.3,316.1 713.7,356.0 774.1,349.0 834.4,362.3 894.8,313.0 955.2,337.2 1015.6,354.0 1075.9,333.6 1136.3,251.0 1196.7,324.7 1257.0,316.9 1317.4,326.2 1377.8,309.7 1438.1,265.2 1498.5,312.8 1558.9,324.1 1619.3,340.4 1679.6,323.3 1740.0,328.8" fill="none" stroke="#16a34a" stroke-width="2.4"/>
<circle cx="110.0" cy="306.8" r="2.4" fill="#16a34a"/>
<circle cx="170.4" cy="368.7" r="2.4" fill="#16a34a"/>
<circle cx="230.7" cy="291.4" r="2.4" fill="#16a34a"/>
<circle cx="291.1" cy="284.5" r="2.4" fill="#16a34a"/>
<circle cx="351.5" cy="363.7" r="2.4" fill="#16a34a"/>
<circle cx="411.9" cy="326.9" r="2.4" fill="#16a34a"/>
<circle cx="472.2" cy="324.3" r="2.4" fill="#16a34a"/>
<circle cx="532.6" cy="347.3" r="2.4" fill="#16a34a"/>
<circle cx="593.0" cy="327.0" r="2.4" fill="#16a34a"/>
<circle cx="653.3" cy="316.1" r="2.4" fill="#16a34a"/>
<circle cx="713.7" cy="356.0" r="2.4" fill="#16a34a"/>
<circle cx="774.1" cy="349.0" r="2.4" fill="#16a34a"/>
<circle cx="834.4" cy="362.3" r="2.4" fill="#16a34a"/>
<circle cx="894.8" cy="313.0" r="2.4" fill="#16a34a"/>
<circle cx="955.2" cy="337.2" r="2.4" fill="#16a34a"/>
<circle cx="1015.6" cy="354.0" r="2.4" fill="#16a34a"/>
<circle cx="1075.9" cy="333.6" r="2.4" fill="#16a34a"/>
<circle cx="1136.3" cy="251.0" r="2.4" fill="#16a34a"/>
<circle cx="1196.7" cy="324.7" r="2.4" fill="#16a34a"/>
<circle cx="1257.0" cy="316.9" r="2.4" fill="#16a34a"/>
<circle cx="1317.4" cy="326.2" r="2.4" fill="#16a34a"/>
<circle cx="1377.8" cy="309.7" r="2.4" fill="#16a34a"/>
<circle cx="1438.1" cy="265.2" r="2.4" fill="#16a34a"/>
<circle cx="1498.5" cy="312.8" r="2.4" fill="#16a34a"/>
<circle cx="1558.9" cy="324.1" r="2.4" fill="#16a34a"/>
<circle cx="1619.3" cy="340.4" r="2.4" fill="#16a34a"/>
<circle cx="1679.6" cy="323.3" r="2.4" fill="#16a34a"/>
<circle cx="1740.0" cy="328.8" r="2.4" fill="#16a34a"/>
<text x="110" y="462" class="panel-title">ZGEMM GF/s</text>
<line x1="110" y1="740.0" x2="1740" y2="740.0" class="grid"/>
<text x="100" y="744.0" text-anchor="end" class="axis-label">0</text>
<line x1="110" y1="688.0" x2="1740" y2="688.0" class="grid"/>
<text x="100" y="692.0" text-anchor="end" class="axis-label">50</text>
<line x1="110" y1="636.0" x2="1740" y2="636.0" class="grid"/>
<text x="100" y="640.0" text-anchor="end" class="axis-label">100</text>
<line x1="110" y1="584.0" x2="1740" y2="584.0" class="grid"/>
<text x="100" y="588.0" text-anchor="end" class="axis-label">150</text>
<line x1="110" y1="532.0" x2="1740" y2="532.0" class="grid"/>
<text x="100" y="536.0" text-anchor="end" class="axis-label">200</text>
<line x1="110" y1="480.0" x2="1740" y2="480.0" class="grid"/>
<text x="100" y="484.0" text-anchor="end" class="axis-label">250</text>
<line x1="110" y1="480" x2="110" y2="740" class="axis"/>
<line x1="110" y1="740" x2="1740" y2="740" class="axis"/>
<polyline points="110.0,664.0 170.4,637.0 230.7,613.8 291.1,565.9 351.5,526.6 411.9,555.2 472.2,582.6 532.6,495.9 593.0,484.5 653.3,624.1 713.7,631.8 774.1,677.7 834.4,648.1 894.8,643.6 955.2,635.7 1015.6,694.9 1075.9,657.1 1136.3,704.4 1196.7,583.0 1257.0,534.0 1317.4,593.7 1377.8,650.0 1438.1,590.0 1498.5,578.7 1558.9,599.0 1619.3,575.3 1679.6,518.9 1740.0,562.2" fill="none" stroke="#2563eb" stroke-width="2.4"/>
<circle cx="110.0" cy="664.0" r="2.4" fill="#2563eb"/>
<circle cx="170.4" cy="637.0" r="2.4" fill="#2563eb"/>
<circle cx="230.7" cy="613.8" r="2.4" fill="#2563eb"/>
<circle cx="291.1" cy="565.9" r="2.4" fill="#2563eb"/>
<circle cx="351.5" cy="526.6" r="2.4" fill="#2563eb"/>
<circle cx="411.9" cy="555.2" r="2.4" fill="#2563eb"/>
<circle cx="472.2" cy="582.6" r="2.4" fill="#2563eb"/>
<circle cx="532.6" cy="495.9" r="2.4" fill="#2563eb"/>
<circle cx="593.0" cy="484.5" r="2.4" fill="#2563eb"/>
<circle cx="653.3" cy="624.1" r="2.4" fill="#2563eb"/>
<circle cx="713.7" cy="631.8" r="2.4" fill="#2563eb"/>
<circle cx="774.1" cy="677.7" r="2.4" fill="#2563eb"/>
<circle cx="834.4" cy="648.1" r="2.4" fill="#2563eb"/>
<circle cx="894.8" cy="643.6" r="2.4" fill="#2563eb"/>
<circle cx="955.2" cy="635.7" r="2.4" fill="#2563eb"/>
<circle cx="1015.6" cy="694.9" r="2.4" fill="#2563eb"/>
<circle cx="1075.9" cy="657.1" r="2.4" fill="#2563eb"/>
<circle cx="1136.3" cy="704.4" r="2.4" fill="#2563eb"/>
<circle cx="1196.7" cy="583.0" r="2.4" fill="#2563eb"/>
<circle cx="1257.0" cy="534.0" r="2.4" fill="#2563eb"/>
<circle cx="1317.4" cy="593.7" r="2.4" fill="#2563eb"/>
<circle cx="1377.8" cy="650.0" r="2.4" fill="#2563eb"/>
<circle cx="1438.1" cy="590.0" r="2.4" fill="#2563eb"/>
<circle cx="1498.5" cy="578.7" r="2.4" fill="#2563eb"/>
<circle cx="1558.9" cy="599.0" r="2.4" fill="#2563eb"/>
<circle cx="1619.3" cy="575.3" r="2.4" fill="#2563eb"/>
<circle cx="1679.6" cy="518.9" r="2.4" fill="#2563eb"/>
<circle cx="1740.0" cy="562.2" r="2.4" fill="#2563eb"/>
<polyline points="110.0,700.2 170.4,693.1 230.7,680.7 291.1,675.4 351.5,652.4 411.9,584.0 472.2,644.5 532.6,587.8 593.0,574.8 653.3,661.4 713.7,662.6 774.1,698.4 834.4,666.8 894.8,643.7 955.2,657.3 1015.6,689.8 1075.9,656.9 1136.3,644.6 1196.7,661.0 1257.0,621.5 1317.4,617.3 1377.8,639.1 1438.1,639.9 1498.5,650.1 1558.9,641.1 1619.3,635.1 1679.6,644.2 1740.0,593.2" fill="none" stroke="#dc2626" stroke-width="2.4"/>
<circle cx="110.0" cy="700.2" r="2.4" fill="#dc2626"/>
<circle cx="170.4" cy="693.1" r="2.4" fill="#dc2626"/>
<circle cx="230.7" cy="680.7" r="2.4" fill="#dc2626"/>
<circle cx="291.1" cy="675.4" r="2.4" fill="#dc2626"/>
<circle cx="351.5" cy="652.4" r="2.4" fill="#dc2626"/>
<circle cx="411.9" cy="584.0" r="2.4" fill="#dc2626"/>
<circle cx="472.2" cy="644.5" r="2.4" fill="#dc2626"/>
<circle cx="532.6" cy="587.8" r="2.4" fill="#dc2626"/>
<circle cx="593.0" cy="574.8" r="2.4" fill="#dc2626"/>
<circle cx="653.3" cy="661.4" r="2.4" fill="#dc2626"/>
<circle cx="713.7" cy="662.6" r="2.4" fill="#dc2626"/>
<circle cx="774.1" cy="698.4" r="2.4" fill="#dc2626"/>
<circle cx="834.4" cy="666.8" r="2.4" fill="#dc2626"/>
<circle cx="894.8" cy="643.7" r="2.4" fill="#dc2626"/>
<circle cx="955.2" cy="657.3" r="2.4" fill="#dc2626"/>
<circle cx="1015.6" cy="689.8" r="2.4" fill="#dc2626"/>
<circle cx="1075.9" cy="656.9" r="2.4" fill="#dc2626"/>
<circle cx="1136.3" cy="644.6" r="2.4" fill="#dc2626"/>
<circle cx="1196.7" cy="661.0" r="2.4" fill="#dc2626"/>
<circle cx="1257.0" cy="621.5" r="2.4" fill="#dc2626"/>
<circle cx="1317.4" cy="617.3" r="2.4" fill="#dc2626"/>
<circle cx="1377.8" cy="639.1" r="2.4" fill="#dc2626"/>
<circle cx="1438.1" cy="639.9" r="2.4" fill="#dc2626"/>
<circle cx="1498.5" cy="650.1" r="2.4" fill="#dc2626"/>
<circle cx="1558.9" cy="641.1" r="2.4" fill="#dc2626"/>
<circle cx="1619.3" cy="635.1" r="2.4" fill="#dc2626"/>
<circle cx="1679.6" cy="644.2" r="2.4" fill="#dc2626"/>
<circle cx="1740.0" cy="593.2" r="2.4" fill="#dc2626"/>
<polyline points="110.0,728.3 170.4,739.1 230.7,628.9 291.1,723.8 351.5,688.3 411.9,710.4 472.2,679.1 532.6,695.4 593.0,693.0 653.3,700.1 713.7,718.8 774.1,732.0 834.4,675.9 894.8,658.7 955.2,697.1 1015.6,664.7 1075.9,663.2 1136.3,700.3 1196.7,685.0 1257.0,696.7 1317.4,698.6 1377.8,673.0 1438.1,711.3 1498.5,659.5 1558.9,692.1 1619.3,645.9 1679.6,699.8 1740.0,695.6" fill="none" stroke="#16a34a" stroke-width="2.4"/>
<circle cx="110.0" cy="728.3" r="2.4" fill="#16a34a"/>
<circle cx="170.4" cy="739.1" r="2.4" fill="#16a34a"/>
<circle cx="230.7" cy="628.9" r="2.4" fill="#16a34a"/>
<circle cx="291.1" cy="723.8" r="2.4" fill="#16a34a"/>
<circle cx="351.5" cy="688.3" r="2.4" fill="#16a34a"/>
<circle cx="411.9" cy="710.4" r="2.4" fill="#16a34a"/>
<circle cx="472.2" cy="679.1" r="2.4" fill="#16a34a"/>
<circle cx="532.6" cy="695.4" r="2.4" fill="#16a34a"/>
<circle cx="593.0" cy="693.0" r="2.4" fill="#16a34a"/>
<circle cx="653.3" cy="700.1" r="2.4" fill="#16a34a"/>
<circle cx="713.7" cy="718.8" r="2.4" fill="#16a34a"/>
<circle cx="774.1" cy="732.0" r="2.4" fill="#16a34a"/>
<circle cx="834.4" cy="675.9" r="2.4" fill="#16a34a"/>
<circle cx="894.8" cy="658.7" r="2.4" fill="#16a34a"/>
<circle cx="955.2" cy="697.1" r="2.4" fill="#16a34a"/>
<circle cx="1015.6" cy="664.7" r="2.4" fill="#16a34a"/>
<circle cx="1075.9" cy="663.2" r="2.4" fill="#16a34a"/>
<circle cx="1136.3" cy="700.3" r="2.4" fill="#16a34a"/>
<circle cx="1196.7" cy="685.0" r="2.4" fill="#16a34a"/>
<circle cx="1257.0" cy="696.7" r="2.4" fill="#16a34a"/>
<circle cx="1317.4" cy="698.6" r="2.4" fill="#16a34a"/>
<circle cx="1377.8" cy="673.0" r="2.4" fill="#16a34a"/>
<circle cx="1438.1" cy="711.3" r="2.4" fill="#16a34a"/>
<circle cx="1498.5" cy="659.5" r="2.4" fill="#16a34a"/>
<circle cx="1558.9" cy="692.1" r="2.4" fill="#16a34a"/>
<circle cx="1619.3" cy="645.9" r="2.4" fill="#16a34a"/>
<circle cx="1679.6" cy="699.8" r="2.4" fill="#16a34a"/>
<circle cx="1740.0" cy="695.6" r="2.4" fill="#16a34a"/>
<g transform="translate(110.0,758) rotate(58)">
<text class="shape-label">sq64</text>
<text y="12" class="shape-label">64x64x64</text>
</g>
<g transform="translate(170.4,758) rotate(58)">
<text class="shape-label">sq96</text>
<text y="12" class="shape-label">96x96x96</text>
</g>
<g transform="translate(230.7,758) rotate(58)">
<text class="shape-label">sq128</text>
<text y="12" class="shape-label">128x128x128</text>
</g>
<g transform="translate(291.1,758) rotate(58)">
<text class="shape-label">sq192</text>
<text y="12" class="shape-label">192x192x192</text>
</g>
<g transform="translate(351.5,758) rotate(58)">
<text class="shape-label">sq256</text>
<text y="12" class="shape-label">256x256x256</text>
</g>
<g transform="translate(411.9,758) rotate(58)">
<text class="shape-label">sq384</text>
<text y="12" class="shape-label">384x384x384</text>
</g>
<g transform="translate(472.2,758) rotate(58)">
<text class="shape-label">sq512</text>
<text y="12" class="shape-label">512x512x512</text>
</g>
<g transform="translate(532.6,758) rotate(58)">
<text class="shape-label">sq768</text>
<text y="12" class="shape-label">768x768x768</text>
</g>
<g transform="translate(593.0,758) rotate(58)">
<text class="shape-label">sq1024</text>
<text y="12" class="shape-label">1024x1024x1024</text>
</g>
<g transform="translate(653.3,758) rotate(58)">
<text class="shape-label">m1024_n64_k1024</text>
<text y="12" class="shape-label">1024x64x1024</text>
</g>
<g transform="translate(713.7,758) rotate(58)">
<text class="shape-label">m2048_n64_k512</text>
<text y="12" class="shape-label">2048x64x512</text>
</g>
<g transform="translate(774.1,758) rotate(58)">
<text class="shape-label">m4096_n32_k256</text>
<text y="12" class="shape-label">4096x32x256</text>
</g>
<g transform="translate(834.4,758) rotate(58)">
<text class="shape-label">m512_n64_k2048</text>
<text y="12" class="shape-label">512x64x2048</text>
</g>
<g transform="translate(894.8,758) rotate(58)">
<text class="shape-label">m64_n1024_k1024</text>
<text y="12" class="shape-label">64x1024x1024</text>
</g>
<g transform="translate(955.2,758) rotate(58)">
<text class="shape-label">m64_n2048_k512</text>
<text y="12" class="shape-label">64x2048x512</text>
</g>
<g transform="translate(1015.6,758) rotate(58)">
<text class="shape-label">m32_n4096_k256</text>
<text y="12" class="shape-label">32x4096x256</text>
</g>
<g transform="translate(1075.9,758) rotate(58)">
<text class="shape-label">m64_n512_k2048</text>
<text y="12" class="shape-label">64x512x2048</text>
</g>
<g transform="translate(1136.3,758) rotate(58)">
<text class="shape-label">m1024_n1024_k64</text>
<text y="12" class="shape-label">1024x1024x64</text>
</g>
<g transform="translate(1196.7,758) rotate(58)">
<text class="shape-label">m1024_n1024_k128</text>
<text y="12" class="shape-label">1024x1024x128</text>
</g>
<g transform="translate(1257.0,758) rotate(58)">
<text class="shape-label">m1024_n1024_k256</text>
<text y="12" class="shape-label">1024x1024x256</text>
</g>
<g transform="translate(1317.4,758) rotate(58)">
<text class="shape-label">m256_n256_k2048</text>
<text y="12" class="shape-label">256x256x2048</text>
</g>
<g transform="translate(1377.8,758) rotate(58)">
<text class="shape-label">m128_n128_k4096</text>
<text y="12" class="shape-label">128x128x4096</text>
</g>
<g transform="translate(1438.1,758) rotate(58)">
<text class="shape-label">m1536_n256_k256</text>
<text y="12" class="shape-label">1536x256x256</text>
</g>
<g transform="translate(1498.5,758) rotate(58)">
<text class="shape-label">m256_n1536_k256</text>
<text y="12" class="shape-label">256x1536x256</text>
</g>
<g transform="translate(1558.9,758) rotate(58)">
<text class="shape-label">m512_n256_k768</text>
<text y="12" class="shape-label">512x256x768</text>
</g>
<g transform="translate(1619.3,758) rotate(58)">
<text class="shape-label">m256_n512_k768</text>
<text y="12" class="shape-label">256x512x768</text>
</g>
<g transform="translate(1679.6,758) rotate(58)">
<text class="shape-label">m768_n512_k256</text>
<text y="12" class="shape-label">768x512x256</text>
</g>
<g transform="translate(1740.0,758) rotate(58)">
<text class="shape-label">m512_n768_k256</text>
<text y="12" class="shape-label">512x768x256</text>
</g>
</svg>